%FSLAX43Y43*%
%MOMM*%
G71*
G01*
G75*
G04 Layer_Physical_Order=2*
%ADD10C,0.100*%
%ADD11R,1.800X1.600*%
%ADD12R,1.600X1.800*%
%ADD13O,1.000X2.000*%
%ADD14R,0.600X1.700*%
%ADD15R,0.600X2.150*%
%ADD16R,0.600X2.150*%
%ADD17R,1.450X0.550*%
%ADD18R,1.000X2.000*%
%ADD19R,1.450X0.550*%
%ADD20C,0.500*%
%ADD21C,1.000*%
%ADD22C,1.500*%
%ADD23R,1.500X1.500*%
%ADD24C,1.400*%
%ADD25C,2.000*%
%ADD26C,5.000*%
%ADD27R,1.400X1.400*%
%ADD28C,2.500*%
%ADD29R,2.500X2.500*%
%ADD30C,1.200*%
%ADD31C,0.300*%
D10*
X31634Y44299D02*
G03*
X31634Y44299I-1200J0D01*
G01*
X31634Y39999D02*
G03*
X31634Y39999I-1200J0D01*
G01*
X32687Y31504D02*
G03*
X32687Y31504I-1200J0D01*
G01*
Y28964D02*
G03*
X30512Y29664I-1200J0D01*
G01*
X21853Y51750D02*
G03*
X23200Y52159I447J950D01*
G01*
X26542Y42193D02*
G03*
X26542Y42193I-1150J0D01*
G01*
X21239Y42951D02*
G03*
X21250Y43100I-1039J149D01*
G01*
G03*
X20159Y42051I-1050J0D01*
G01*
X27350Y36900D02*
G03*
X26242Y37948I-1050J0D01*
G01*
X26193Y35855D02*
G03*
X27350Y36900I107J1045D01*
G01*
X26400Y35400D02*
G03*
X26224Y35824I-600J0D01*
G01*
X26400Y35400D02*
G03*
X26224Y35824I-600J0D01*
G01*
X25252Y36958D02*
G03*
X25255Y36793I1048J-58D01*
G01*
X28303Y32700D02*
G03*
X28798Y32905I0J700D01*
G01*
X28303Y32700D02*
G03*
X28798Y32905I0J700D01*
G01*
X29264Y29664D02*
G03*
X28769Y29459I0J-700D01*
G01*
X29264Y29664D02*
G03*
X28769Y29459I0J-700D01*
G01*
X28150Y30700D02*
G03*
X26386Y31470I-1050J0D01*
G01*
X27827Y29942D02*
G03*
X28150Y30700I-727J758D01*
G01*
X28250Y29100D02*
G03*
X27827Y29942I-1050J0D01*
G01*
X28235Y28925D02*
G03*
X28250Y29100I-1035J175D01*
G01*
X26386Y31470D02*
G03*
X26400Y31600I-586J130D01*
G01*
X26386Y31470D02*
G03*
X26400Y31600I-586J130D01*
G01*
X20224Y41824D02*
G03*
X19800Y42000I-424J-424D01*
G01*
X20224Y41824D02*
G03*
X19800Y42000I-424J-424D01*
G01*
X30512Y28264D02*
G03*
X32687Y28964I975J700D01*
G01*
Y26424D02*
G03*
X32687Y26424I-1200J0D01*
G01*
X28300Y27300D02*
G03*
X28795Y27505I0J700D01*
G01*
X28300Y27300D02*
G03*
X28795Y27505I0J700D01*
G01*
X34425Y23485D02*
G03*
X34425Y16515I-2925J-3485D01*
G01*
X30580Y13716D02*
G03*
X30580Y13716I-1450J0D01*
G01*
X30660Y10668D02*
G03*
X30660Y10668I-1450J0D01*
G01*
X23250Y23000D02*
G03*
X22900Y23783I-1050J0D01*
G01*
X25580Y13716D02*
G03*
X25580Y13716I-1450J0D01*
G01*
X21600Y22138D02*
G03*
X23250Y23000I600J862D01*
G01*
X18950Y22106D02*
G03*
X20200Y22217I550J894D01*
G01*
X22050Y18300D02*
G03*
X21600Y19162I-1050J0D01*
G01*
X20200Y18980D02*
G03*
X22050Y18300I800J-680D01*
G01*
X25660Y10668D02*
G03*
X22940Y11368I-1450J0D01*
G01*
Y9968D02*
G03*
X25660Y10668I1270J700D01*
G01*
X23806Y3810D02*
G03*
X23806Y3810I-1200J0D01*
G01*
X21266Y6350D02*
G03*
X21266Y6350I-1200J0D01*
G01*
Y3810D02*
G03*
X21266Y3810I-1200J0D01*
G01*
X16050Y42700D02*
G03*
X14217Y43400I-1050J0D01*
G01*
X13200D02*
G03*
X12705Y43195I0J-700D01*
G01*
X13200Y43400D02*
G03*
X12705Y43195I0J-700D01*
G01*
X14669Y41703D02*
G03*
X16050Y42700I331J997D01*
G01*
X16100Y42000D02*
G03*
X15676Y41824I0J-600D01*
G01*
X16100Y42000D02*
G03*
X15676Y41824I0J-600D01*
G01*
X14750Y41300D02*
G03*
X14669Y41703I-1050J0D01*
G01*
X11905Y42395D02*
G03*
X11700Y41900I495J-495D01*
G01*
X11905Y42395D02*
G03*
X11700Y41900I495J-495D01*
G01*
X10050Y47800D02*
G03*
X7969Y48000I-1050J0D01*
G01*
X8936Y46752D02*
G03*
X10050Y47800I64J1048D01*
G01*
X8500Y46600D02*
G03*
X8936Y46752I0J700D01*
G01*
X8500Y46600D02*
G03*
X8936Y46752I0J700D01*
G01*
X9050Y44700D02*
G03*
X7300Y43917I-1050J0D01*
G01*
X8700D02*
G03*
X9050Y44700I-700J783D01*
G01*
X14582Y40731D02*
G03*
X14750Y41300I-882J569D01*
G01*
X9500Y31700D02*
G03*
X9676Y31276I600J0D01*
G01*
X9500Y31700D02*
G03*
X9676Y31276I600J0D01*
G01*
X15676Y25276D02*
G03*
X16100Y25100I424J424D01*
G01*
X15676Y25276D02*
G03*
X16100Y25100I424J424D01*
G01*
X13857Y25133D02*
G03*
X13362Y25338I-495J-495D01*
G01*
X13857Y25133D02*
G03*
X13362Y25338I-495J-495D01*
G01*
X8495Y40905D02*
G03*
X8700Y41400I-495J495D01*
G01*
X8495Y40905D02*
G03*
X8700Y41400I-495J495D01*
G01*
X5283Y48000D02*
G03*
X5283Y46600I-783J-700D01*
G01*
X7300Y43823D02*
G03*
X6063Y42153I-500J-923D01*
G01*
X4658Y40748D02*
G03*
X4112Y38770I-58J-1048D01*
G01*
X1559Y52800D02*
G03*
X2835Y51150I541J-900D01*
G01*
X5750Y37900D02*
G03*
X5724Y38134I-1050J0D01*
G01*
X4112Y38770D02*
G03*
X3917Y37200I588J-870D01*
G01*
X5483D02*
G03*
X5750Y37900I-783J700D01*
G01*
X3613Y37200D02*
G03*
X3618Y37310I-1195J110D01*
G01*
X5810Y31610D02*
G03*
X6305Y31815I0J700D01*
G01*
X5810Y31610D02*
G03*
X6305Y31815I0J700D01*
G01*
X3618Y37310D02*
G03*
X2612Y36126I-1200J0D01*
G01*
X2733Y36005D02*
G03*
X3228Y35800I495J495D01*
G01*
X2733Y36005D02*
G03*
X3228Y35800I495J495D01*
G01*
X3393Y33010D02*
G03*
X3393Y31610I-975J-700D01*
G01*
X18672Y14628D02*
G03*
X18950Y15300I-672J672D01*
G01*
X18672Y14628D02*
G03*
X18950Y15300I-672J672D01*
G01*
X17391Y11368D02*
G03*
X17705Y9968I-591J-868D01*
G01*
X16550Y23600D02*
G03*
X14717Y24300I-1050J0D01*
G01*
Y22900D02*
G03*
X16550Y23600I783J700D01*
G01*
X13905Y23105D02*
G03*
X14400Y22900I495J495D01*
G01*
X13905Y23105D02*
G03*
X14400Y22900I495J495D01*
G01*
X15200Y11550D02*
G03*
X15872Y11828I0J950D01*
G01*
X15200Y11550D02*
G03*
X15872Y11828I0J950D01*
G01*
X18726Y6350D02*
G03*
X18726Y6350I-1200J0D01*
G01*
X18726Y3810D02*
G03*
X18726Y3810I-1200J0D01*
G01*
X16186Y6350D02*
G03*
X16186Y6350I-1200J0D01*
G01*
Y3810D02*
G03*
X16186Y3810I-1200J0D01*
G01*
X10598Y24638D02*
G03*
X10598Y24638I-1200J0D01*
G01*
X12455Y21800D02*
G03*
X11842Y20400I-966J-411D01*
G01*
X8050Y20000D02*
G03*
X575Y23485I-4550J0D01*
G01*
Y16515D02*
G03*
X8050Y20000I2925J3485D01*
G01*
X12947Y13450D02*
G03*
X12947Y11550I-447J-950D01*
G01*
X13646Y6350D02*
G03*
X13646Y6350I-1200J0D01*
G01*
Y3810D02*
G03*
X13646Y3810I-1200J0D01*
G01*
X34134Y45400D02*
X34425D01*
X34134Y45300D02*
X34425D01*
X34134Y45200D02*
X34425D01*
X34100Y45499D02*
Y46200D01*
X34134Y45100D02*
X34425D01*
X34134Y45000D02*
X34425D01*
X34134Y44900D02*
X34425D01*
X34134Y43099D02*
Y45499D01*
Y44800D02*
X34425D01*
X34000Y45499D02*
Y46200D01*
X33900Y45499D02*
Y46200D01*
X33800Y45499D02*
Y46200D01*
X33700Y45499D02*
Y46200D01*
X34134Y44700D02*
X34425D01*
X34134Y44600D02*
X34425D01*
X33600Y45499D02*
Y46200D01*
X31734Y45499D02*
X34134D01*
Y44500D02*
X34425D01*
X34134Y44400D02*
X34425D01*
X34134Y44300D02*
X34425D01*
X34134Y44200D02*
X34425D01*
X34134Y44100D02*
X34425D01*
X34134Y44000D02*
X34425D01*
X34134Y43900D02*
X34425D01*
X34134Y43800D02*
X34425D01*
X34134Y43700D02*
X34425D01*
X34134Y43600D02*
X34425D01*
X34134Y43500D02*
X34425D01*
X34134Y43400D02*
X34425D01*
X34134Y43300D02*
X34425D01*
X34134Y43200D02*
X34425D01*
X34134Y43100D02*
X34425D01*
X33500Y45499D02*
Y46200D01*
X33400Y45499D02*
Y46200D01*
X33300Y45499D02*
Y46200D01*
X33200Y45499D02*
Y46200D01*
X33100Y45499D02*
Y46200D01*
X33000Y45499D02*
Y46200D01*
X32900Y45499D02*
Y46200D01*
X32800Y45499D02*
Y46200D01*
X32700Y45499D02*
Y46200D01*
X32600Y45499D02*
Y46200D01*
X32500Y45499D02*
Y46200D01*
X32400Y45499D02*
Y46200D01*
X32300Y45499D02*
Y46200D01*
X32200Y45499D02*
Y46200D01*
X32100Y45499D02*
Y46200D01*
X32000Y45499D02*
Y46200D01*
X31900Y45499D02*
Y46200D01*
X31800Y45499D02*
Y46200D01*
X31600Y44584D02*
Y46200D01*
X31596Y44600D02*
X31734D01*
X31617Y44500D02*
X31734D01*
Y43099D02*
Y45499D01*
X31630Y44400D02*
X31734D01*
X31525Y44800D02*
X31734D01*
X31565Y44700D02*
X31734D01*
X31500Y44851D02*
Y46200D01*
X31630Y44200D02*
X31734D01*
X31617Y44100D02*
X31734D01*
X31596Y44000D02*
X31734D01*
X31566Y43900D02*
X31734D01*
X31525Y43800D02*
X31734D01*
X34134Y41100D02*
X34425D01*
X34134Y41000D02*
X34425D01*
X34134Y40900D02*
X34425D01*
X34100Y41199D02*
Y43099D01*
X34000Y41199D02*
Y43099D01*
X34134Y40800D02*
X34425D01*
X34134Y40700D02*
X34425D01*
X34134Y38799D02*
Y41199D01*
Y40600D02*
X34425D01*
X31734Y43099D02*
X34134D01*
X33900Y41199D02*
Y43099D01*
X33800Y41199D02*
Y43099D01*
X33700Y41199D02*
Y43099D01*
X33600Y41199D02*
Y43099D01*
X31734Y41199D02*
X34134D01*
X33500D02*
Y43099D01*
X33400Y41199D02*
Y43099D01*
X34134Y40500D02*
X34425D01*
X34134Y40400D02*
X34425D01*
X34134Y40300D02*
X34425D01*
X34134Y40200D02*
X34425D01*
X34134Y40100D02*
X34425D01*
X34134Y40000D02*
X34425D01*
X34134Y39900D02*
X34425D01*
X34134Y39800D02*
X34425D01*
X34134Y39700D02*
X34425D01*
X34134Y39600D02*
X34425D01*
X34134Y39500D02*
X34425D01*
X34134Y39400D02*
X34425D01*
X34134Y39300D02*
X34425D01*
X34134Y39200D02*
X34425D01*
X34134Y39100D02*
X34425D01*
X33300Y41199D02*
Y43099D01*
X33200Y41199D02*
Y43099D01*
X33100Y41199D02*
Y43099D01*
X33000Y41199D02*
Y43099D01*
X32900Y41199D02*
Y43099D01*
X32800Y41199D02*
Y43099D01*
X32700Y41199D02*
Y43099D01*
X32600Y41199D02*
Y43099D01*
X32500Y41199D02*
Y43099D01*
X32400Y41199D02*
Y43099D01*
X32300Y41199D02*
Y43099D01*
X31700Y37784D02*
Y46200D01*
X32200Y41199D02*
Y43099D01*
X31600Y40284D02*
Y44015D01*
X31500Y40551D02*
Y43748D01*
X32100Y41199D02*
Y43099D01*
X32000Y41199D02*
Y43099D01*
X31900Y41199D02*
Y43099D01*
X31800Y41199D02*
Y43099D01*
X31734Y38799D02*
Y41199D01*
X31596Y40300D02*
X31734D01*
X31525Y40500D02*
X31734D01*
X31565Y40400D02*
X31734D01*
X31617Y40200D02*
X31734D01*
X31630Y40100D02*
X31734D01*
X31630Y39900D02*
X31734D01*
X31617Y39800D02*
X31734D01*
X31596Y39700D02*
X31734D01*
X31600Y37784D02*
Y39715D01*
X30912Y45400D02*
X31734D01*
X26542Y45800D02*
X34425D01*
X31097Y45300D02*
X31734D01*
X31200Y45223D02*
Y46200D01*
X31100Y45298D02*
Y46200D01*
X31227Y45200D02*
X31734D01*
X31400Y45011D02*
Y46200D01*
X31300Y45130D02*
Y46200D01*
X23200D02*
X34425D01*
X18950Y46200D02*
X34425D01*
X18950Y46100D02*
X34425D01*
X18950Y46000D02*
X34425D01*
X18950Y45900D02*
X34425D01*
X26542Y45700D02*
X34425D01*
X26542Y45600D02*
X34425D01*
X26542Y45500D02*
X34425D01*
X31328Y45100D02*
X31734D01*
X31408Y45000D02*
X31734D01*
X31473Y44900D02*
X31734D01*
X31474Y43700D02*
X31734D01*
X31409Y43600D02*
X31734D01*
X31329Y43500D02*
X31734D01*
X31228Y43400D02*
X31734D01*
X31098Y43300D02*
X31734D01*
X26211Y43000D02*
X34425D01*
X26299Y42900D02*
X34425D01*
X30915Y43200D02*
X31734D01*
X30470Y43100D02*
X31734D01*
X26368Y42800D02*
X34425D01*
X26424Y42700D02*
X34425D01*
X26467Y42600D02*
X34425D01*
X26500Y42500D02*
X34425D01*
X30800Y45442D02*
Y46200D01*
X30700Y45469D02*
Y46200D01*
X30600Y45488D02*
Y46200D01*
X30500Y45497D02*
Y46200D01*
X31000Y45357D02*
Y46200D01*
X30900Y45405D02*
Y46200D01*
X30400Y45499D02*
Y46200D01*
X30300Y45492D02*
Y46200D01*
X30200Y45476D02*
Y46200D01*
X30100Y45452D02*
Y46200D01*
X30000Y45418D02*
Y46200D01*
X29900Y45374D02*
Y46200D01*
X29800Y45318D02*
Y46200D01*
X29700Y45248D02*
Y46200D01*
X29600Y45162D02*
Y46200D01*
X29500Y45052D02*
Y46200D01*
X26542Y45400D02*
X29956D01*
X26542Y45300D02*
X29772D01*
X26542Y45200D02*
X29641D01*
X26542Y45100D02*
X29540D01*
X29400Y44908D02*
Y46200D01*
X26542Y45000D02*
X29460D01*
X26542Y44900D02*
X29395D01*
X26542Y44800D02*
X29343D01*
X26542Y43600D02*
X29459D01*
X21171Y43500D02*
X29539D01*
X26542Y43800D02*
X29343D01*
X26542Y43700D02*
X29395D01*
X25947Y43200D02*
X29953D01*
X26099Y43100D02*
X30399D01*
X21206Y43400D02*
X29640D01*
X25703Y43300D02*
X29770D01*
X26523Y42400D02*
X34425D01*
X26537Y42300D02*
X34425D01*
X26542Y42200D02*
X34425D01*
X26538Y42100D02*
X34425D01*
X26526Y42000D02*
X34425D01*
X31400Y40711D02*
Y43587D01*
X31300Y40830D02*
Y43468D01*
X31200Y40923D02*
Y43375D01*
X31100Y40998D02*
Y43301D01*
X26504Y41900D02*
X34425D01*
X26473Y41800D02*
X34425D01*
X26431Y41700D02*
X34425D01*
X26377Y41600D02*
X34425D01*
X26310Y41500D02*
X34425D01*
X26225Y41400D02*
X34425D01*
X26117Y41300D02*
X34425D01*
X25972Y41200D02*
X34425D01*
X31408Y40700D02*
X31734D01*
X31473Y40600D02*
X31734D01*
X31566Y39600D02*
X31734D01*
X31525Y39500D02*
X31734D01*
X31474Y39400D02*
X31734D01*
X31409Y39300D02*
X31734D01*
X31500Y37784D02*
Y39448D01*
X31400Y37784D02*
Y39287D01*
X30912Y41100D02*
X31734D01*
X31097Y41000D02*
X31734D01*
X31227Y40900D02*
X31734D01*
X31328Y40800D02*
X31734D01*
X31329Y39200D02*
X31734D01*
X31228Y39100D02*
X31734D01*
X31300Y37784D02*
Y39168D01*
X30800Y41142D02*
Y43156D01*
X30700Y41169D02*
Y43129D01*
X30500Y41197D02*
Y43101D01*
X30400Y41199D02*
Y43100D01*
X31000Y41057D02*
Y43241D01*
X30900Y41105D02*
Y43193D01*
X30600Y41188D02*
Y43111D01*
X30300Y41192D02*
Y43107D01*
X30000Y41118D02*
Y43181D01*
X30200Y41176D02*
Y43122D01*
X29800Y41018D02*
Y43280D01*
X29900Y41074D02*
Y43225D01*
X29600Y40862D02*
Y43437D01*
X29700Y40948D02*
Y43350D01*
X29400Y40608D02*
Y43691D01*
X29500Y40752D02*
Y43546D01*
X30100Y41152D02*
Y43147D01*
X25750Y41100D02*
X29956D01*
X24890Y39300D02*
X29459D01*
X24990Y39200D02*
X29539D01*
X25090Y39100D02*
X29640D01*
X29600Y35687D02*
Y39137D01*
X29400Y35487D02*
Y39391D01*
X29500Y35587D02*
Y39246D01*
X23190Y41000D02*
X29772D01*
X23290Y40900D02*
X29641D01*
X23390Y40800D02*
X29540D01*
X23490Y40700D02*
X29460D01*
X23590Y40600D02*
X29395D01*
X23690Y40500D02*
X29343D01*
X24690Y39500D02*
X29343D01*
X24790Y39400D02*
X29395D01*
X34134Y39000D02*
X34425D01*
X34134Y38900D02*
X34425D01*
X34134Y38800D02*
X34425D01*
X32687Y37700D02*
X34425D01*
X32687Y37600D02*
X34425D01*
X32687Y37500D02*
X34425D01*
X32687Y37400D02*
X34425D01*
X32687Y37300D02*
X34425D01*
X32687Y37200D02*
X34425D01*
X32687Y37100D02*
X34425D01*
X32687Y37000D02*
X34425D01*
X32687Y36900D02*
X34425D01*
X32687Y36800D02*
X34425D01*
X32687Y36700D02*
X34425D01*
X32687Y36600D02*
X34425D01*
X32687Y36500D02*
X34425D01*
X32687Y36400D02*
X34425D01*
X32687Y36300D02*
X34425D01*
X32687Y36200D02*
X34425D01*
X32687Y36100D02*
X34425D01*
X32687Y36000D02*
X34425D01*
X32687Y35900D02*
X34425D01*
X32687Y35800D02*
X34425D01*
X32687Y35700D02*
X34425D01*
X32687Y35600D02*
X34425D01*
X32687Y35500D02*
X34425D01*
X32687Y35400D02*
X34425D01*
X31193Y35300D02*
X34425D01*
X31093Y35200D02*
X34425D01*
X30993Y35100D02*
X34425D01*
X30893Y35000D02*
X34425D01*
X30793Y34900D02*
X34425D01*
X31585Y32700D02*
X34425D01*
X32600Y37784D02*
Y38799D01*
X32500Y37784D02*
Y38799D01*
X32400Y37784D02*
Y38799D01*
X32300Y37784D02*
Y38799D01*
X32200Y37784D02*
Y38799D01*
X32100Y37784D02*
Y38799D01*
X32000Y37784D02*
Y38799D01*
X31900Y37784D02*
Y38799D01*
X31098Y39000D02*
X31734D01*
Y38799D02*
X34134D01*
X31200Y37784D02*
Y39075D01*
X30915Y38900D02*
X31734D01*
X31100Y37784D02*
Y39001D01*
X31000Y37784D02*
Y38941D01*
X30900Y37784D02*
Y38893D01*
X30800Y37784D02*
Y38856D01*
X32687Y35384D02*
Y37784D01*
X31900Y32630D02*
Y35384D01*
X31800Y37784D02*
Y38799D01*
Y32662D02*
Y35384D01*
X32000Y32588D02*
Y35384D01*
X31975Y32600D02*
X34425D01*
X31700Y32685D02*
Y35384D01*
X31600Y32698D02*
Y35384D01*
X31277D02*
X32687D01*
X31500Y32704D02*
Y35384D01*
X31400Y32701D02*
Y35384D01*
X31300Y32689D02*
Y35384D01*
X31200Y32669D02*
Y35307D01*
X31100Y32640D02*
Y35207D01*
X31000Y32601D02*
Y35107D01*
X30900Y32551D02*
Y35007D01*
X32619Y31900D02*
X34425D01*
X32650Y31800D02*
X34425D01*
X32670Y31700D02*
X34425D01*
X32683Y31600D02*
X34425D01*
X32687Y31500D02*
X34425D01*
X32682Y31400D02*
X34425D01*
X32669Y31300D02*
X34425D01*
X32647Y31200D02*
X34425D01*
X32617Y31100D02*
X34425D01*
X32156Y32500D02*
X34425D01*
X32285Y32400D02*
X34425D01*
X32385Y32300D02*
X34425D01*
X32464Y32200D02*
X34425D01*
X32528Y32100D02*
X34425D01*
X32579Y32000D02*
X34425D01*
X32576Y31000D02*
X34425D01*
X32523Y30900D02*
X34425D01*
X32458Y30800D02*
X34425D01*
X32434Y29700D02*
X34425D01*
X32504Y29600D02*
X34425D01*
X32560Y29500D02*
X34425D01*
X32605Y29400D02*
X34425D01*
X32639Y29300D02*
X34425D01*
X32663Y29200D02*
X34425D01*
X32679Y29100D02*
X34425D01*
X32377Y30700D02*
X34425D01*
X32276Y30600D02*
X34425D01*
X32144Y30500D02*
X34425D01*
X31957Y30400D02*
X34425D01*
X31873Y30100D02*
X34425D01*
X32092Y30000D02*
X34425D01*
X32238Y29900D02*
X34425D01*
X32347Y29800D02*
X34425D01*
X32600Y31952D02*
Y35384D01*
X32500Y32147D02*
Y35384D01*
X32400Y32282D02*
Y35384D01*
X32300Y32386D02*
Y35384D01*
X32600Y29412D02*
Y31056D01*
X32500Y29607D02*
Y30861D01*
X32400Y29742D02*
Y30725D01*
X32300Y29846D02*
Y30621D01*
X32200Y32469D02*
Y35384D01*
X32100Y32535D02*
Y35384D01*
X32000Y30048D02*
Y30419D01*
X31900Y30090D02*
Y30377D01*
X32200Y29929D02*
Y30539D01*
X32100Y29995D02*
Y30472D01*
X30900Y30011D02*
Y30457D01*
X31100Y30100D02*
Y30368D01*
X32686Y29000D02*
X34425D01*
X32685Y28900D02*
X34425D01*
X32675Y28800D02*
X34425D01*
X32657Y28700D02*
X34425D01*
X32630Y28600D02*
X34425D01*
X32593Y28500D02*
X34425D01*
X32546Y28400D02*
X34425D01*
X32486Y28300D02*
X34425D01*
X31700Y30145D02*
Y30323D01*
X31600Y30158D02*
Y30309D01*
X31500Y30164D02*
Y30304D01*
X31400Y30161D02*
Y30307D01*
X31800Y30122D02*
Y30345D01*
X31300Y30149D02*
Y30318D01*
X31000Y30061D02*
Y30407D01*
X31200Y30129D02*
Y30339D01*
X30470Y38800D02*
X31734D01*
X26190Y38000D02*
X34425D01*
X26621Y37900D02*
X34425D01*
X30700Y37784D02*
Y38829D01*
X30600Y37784D02*
Y38811D01*
X30500Y37784D02*
Y38801D01*
X26841Y37800D02*
X34425D01*
X30400Y37784D02*
Y38800D01*
X30300Y37784D02*
Y38807D01*
X25490Y38700D02*
X34425D01*
X25590Y38600D02*
X34425D01*
X25390Y38800D02*
X30398D01*
X25690Y38500D02*
X34425D01*
X25790Y38400D02*
X34425D01*
X25890Y38300D02*
X34425D01*
X25990Y38200D02*
X34425D01*
X26090Y38100D02*
X34425D01*
X30693Y34800D02*
X34425D01*
X30593Y34700D02*
X34425D01*
X30287Y37784D02*
X32687D01*
X30493Y34600D02*
X34425D01*
X30393Y34500D02*
X34425D01*
X30293Y34400D02*
X34425D01*
X30193Y34300D02*
X34425D01*
X30093Y34200D02*
X34425D01*
X29993Y34100D02*
X34425D01*
X29893Y34000D02*
X34425D01*
X26980Y37700D02*
X30287D01*
X29793Y33900D02*
X34425D01*
X29693Y33800D02*
X34425D01*
X29593Y33700D02*
X34425D01*
X29493Y33600D02*
X34425D01*
X29393Y33500D02*
X34425D01*
X30287Y36374D02*
Y37784D01*
X27345Y37000D02*
X30287D01*
X30200Y36287D02*
Y38822D01*
X30100Y36187D02*
Y38847D01*
X30000Y36087D02*
Y38881D01*
X29900Y35987D02*
Y38925D01*
X29700Y35787D02*
Y39050D01*
X29800Y35887D02*
Y38980D01*
X27083Y37600D02*
X30287D01*
X27162Y37500D02*
X30287D01*
X25190Y39000D02*
X29770D01*
X25290Y38900D02*
X29953D01*
X27223Y37400D02*
X30287D01*
X27271Y37300D02*
X30287D01*
X27306Y37200D02*
X30287D01*
X27331Y37100D02*
X30287D01*
X27350Y36900D02*
X30287D01*
X27345Y36800D02*
X30287D01*
X27331Y36700D02*
X30287D01*
X27306Y36600D02*
X30287D01*
X27271Y36500D02*
X30287D01*
X27223Y36400D02*
X30287D01*
X28013Y34100D02*
X30287Y36374D01*
X27162Y36300D02*
X30213D01*
X27082Y36200D02*
X30113D01*
X26980Y36100D02*
X30013D01*
X26840Y36000D02*
X29913D01*
X26619Y35900D02*
X29813D01*
X26247Y35800D02*
X29713D01*
X26320Y35700D02*
X29613D01*
X26366Y35600D02*
X29513D01*
X26392Y35500D02*
X29413D01*
X29293Y33400D02*
X34425D01*
X29193Y33300D02*
X34425D01*
X30800Y32488D02*
Y34907D01*
X29093Y33200D02*
X34425D01*
X30700Y32410D02*
Y34807D01*
X30600Y32312D02*
Y34707D01*
X30500Y32187D02*
Y34607D01*
X28993Y33100D02*
X34425D01*
X28893Y33000D02*
X34425D01*
X28798Y32905D02*
X31277Y35384D01*
X28792Y32900D02*
X34425D01*
X28663Y32800D02*
X34425D01*
X28303Y32700D02*
X31388D01*
X26400Y32600D02*
X30998D01*
X26400Y32500D02*
X30817D01*
X28131Y30500D02*
X30829D01*
X28106Y30400D02*
X31016D01*
X28150Y30700D02*
X30596D01*
X28145Y30600D02*
X30697D01*
X30800Y29948D02*
Y30520D01*
X30600Y29772D02*
Y30695D01*
X30700Y29870D02*
Y30598D01*
X28071Y30300D02*
X34425D01*
X28023Y30200D02*
X34425D01*
X26400Y32400D02*
X30688D01*
X26400Y32300D02*
X30589D01*
X27962Y30100D02*
X31100D01*
X27882Y30000D02*
X30881D01*
X27880Y29900D02*
X30736D01*
X27983Y29800D02*
X30626D01*
X30400Y32013D02*
Y34507D01*
X30300Y31682D02*
Y34407D01*
X30200Y29664D02*
Y34307D01*
X30100Y29664D02*
Y34207D01*
X30000Y29664D02*
Y34107D01*
X29900Y29664D02*
Y34007D01*
X29800Y29664D02*
Y33907D01*
X29700Y29664D02*
Y33807D01*
X26400Y32200D02*
X30509D01*
X26400Y32100D02*
X30445D01*
X26400Y32000D02*
X30394D01*
X26400Y31900D02*
X30354D01*
X29600Y29664D02*
Y33707D01*
X26400Y31800D02*
X30324D01*
X29500Y29664D02*
Y33607D01*
X29400Y29664D02*
Y33507D01*
X28145Y30800D02*
X30515D01*
X30500Y29664D02*
Y30821D01*
X28106Y31000D02*
X30398D01*
X28131Y30900D02*
X30450D01*
X29264Y29664D02*
X30512D01*
X29554Y28264D02*
X30512D01*
X30300Y29664D02*
Y31326D01*
X30400Y29664D02*
Y30995D01*
X27421Y31700D02*
X30303D01*
X27641Y31600D02*
X30290D01*
X27780Y31500D02*
X30287D01*
X27883Y31400D02*
X30291D01*
X28023Y31200D02*
X30326D01*
X28062Y29700D02*
X30539D01*
X27962Y31300D02*
X30304D01*
X28071Y31100D02*
X30357D01*
X29300Y44691D02*
Y46200D01*
X26500Y45843D02*
Y46200D01*
X26400Y45843D02*
Y46200D01*
X26300Y45843D02*
Y46200D01*
X26200Y45843D02*
Y46200D01*
X26542Y44700D02*
X29303D01*
X26542Y44600D02*
X29272D01*
X26542Y43543D02*
Y45843D01*
Y44500D02*
X29251D01*
X26100Y45843D02*
Y46200D01*
X26000Y45843D02*
Y46200D01*
X25900Y45843D02*
Y46200D01*
X25800Y45843D02*
Y46200D01*
X25700Y45843D02*
Y46200D01*
X24242Y45843D02*
X26542D01*
X25600D02*
Y46200D01*
X25500Y45843D02*
Y46200D01*
X26542Y44400D02*
X29238D01*
X26542Y44300D02*
X29234D01*
X26542Y44200D02*
X29238D01*
X26542Y44100D02*
X29251D01*
X26542Y44000D02*
X29272D01*
X26542Y43900D02*
X29302D01*
X26300Y42898D02*
Y43543D01*
X26200Y43011D02*
Y43543D01*
X24242D02*
X26542D01*
X25700Y43301D02*
Y43543D01*
X25600Y43324D02*
Y43543D01*
X25500Y43338D02*
Y43543D01*
X26100Y43099D02*
Y43543D01*
X26000Y43169D02*
Y43543D01*
X25900Y43224D02*
Y43543D01*
X25800Y43268D02*
Y43543D01*
X25400Y45843D02*
Y46200D01*
X25300Y45843D02*
Y46200D01*
X23200D02*
Y52159D01*
X25200Y45843D02*
Y46200D01*
X25100Y45843D02*
Y46200D01*
X25000Y45843D02*
Y46200D01*
X24900Y45843D02*
Y46200D01*
X24800Y45843D02*
Y46200D01*
X23082Y52000D02*
X23200D01*
X22980Y51900D02*
X23200D01*
X22840Y51800D02*
X23200D01*
X22619Y51700D02*
X23200D01*
X21500Y51750D02*
X21853D01*
X21500D02*
X21853D01*
X21300Y42890D02*
Y51750D01*
X25400Y43343D02*
Y43543D01*
X25300Y43339D02*
Y43543D01*
X24700Y45843D02*
Y46200D01*
X25200Y43326D02*
Y43543D01*
X25100Y43305D02*
Y43543D01*
X25000Y43274D02*
Y43543D01*
X24900Y43232D02*
Y43543D01*
X24800Y43179D02*
Y43543D01*
X24600Y45843D02*
Y46200D01*
X24500Y45843D02*
Y46200D01*
X24400Y45843D02*
Y46200D01*
X24300Y45843D02*
Y46200D01*
X24700Y43111D02*
Y43543D01*
X24600Y43026D02*
Y43543D01*
X24242D02*
Y45843D01*
X24500Y42919D02*
Y43543D01*
X29200Y35287D02*
Y46200D01*
X29100Y35187D02*
Y46200D01*
X29000Y35087D02*
Y46200D01*
X28900Y34987D02*
Y46200D01*
X28800Y34887D02*
Y46200D01*
X28700Y34787D02*
Y46200D01*
X28600Y34687D02*
Y46200D01*
X28500Y34587D02*
Y46200D01*
X28400Y34487D02*
Y46200D01*
X28300Y34387D02*
Y46200D01*
X28200Y34287D02*
Y46200D01*
X28100Y34187D02*
Y46200D01*
X28000Y34100D02*
Y46200D01*
X27900Y34100D02*
Y46200D01*
X27800Y34100D02*
Y46200D01*
X27700Y34100D02*
Y46200D01*
X27600Y34100D02*
Y46200D01*
X27100Y37580D02*
Y46200D01*
X29300Y40391D02*
Y43907D01*
X27000Y37683D02*
Y46200D01*
X26900Y37762D02*
Y46200D01*
X27500Y34100D02*
Y46200D01*
X27400Y34100D02*
Y46200D01*
X27300Y37221D02*
Y46200D01*
X27200Y37441D02*
Y46200D01*
X26500Y42500D02*
Y43543D01*
X26400Y42746D02*
Y43543D01*
X21290Y42900D02*
X24485D01*
X21390Y42800D02*
X24415D01*
X26800Y37823D02*
Y46200D01*
X26700Y37871D02*
Y46200D01*
X26600Y37906D02*
Y46200D01*
X22800Y41390D02*
Y51777D01*
X22700Y41490D02*
Y51729D01*
X22600Y41590D02*
Y51694D01*
X22500Y41690D02*
Y51669D01*
X23200Y40990D02*
Y52159D01*
X23100Y41090D02*
Y52020D01*
X23000Y41190D02*
Y51917D01*
X22900Y41290D02*
Y51838D01*
X21700Y42490D02*
Y51750D01*
X21600Y42590D02*
Y51750D01*
X21500Y42690D02*
Y51750D01*
X21400Y42790D02*
Y51750D01*
X22100Y42090D02*
Y51669D01*
X22000Y42190D02*
Y51694D01*
X21800Y42390D02*
Y51750D01*
X21900Y42290D02*
Y51729D01*
X24400Y42774D02*
Y43543D01*
X24300Y42553D02*
Y43543D01*
X23800Y40390D02*
Y46200D01*
X23700Y40490D02*
Y46200D01*
X24200Y39990D02*
Y46200D01*
X24100Y40090D02*
Y46200D01*
X24000Y40190D02*
Y46200D01*
X23900Y40290D02*
Y46200D01*
X22400Y41790D02*
Y51655D01*
X21490Y42700D02*
X24360D01*
X22300Y41890D02*
Y51650D01*
X22200Y41990D02*
Y51655D01*
X23600Y40590D02*
Y46200D01*
X23500Y40690D02*
Y46200D01*
X23400Y40790D02*
Y46200D01*
X23300Y40890D02*
Y46200D01*
X18950Y51600D02*
X23200D01*
X18950Y51500D02*
X23200D01*
X18950Y51400D02*
X23200D01*
X18950Y51300D02*
X23200D01*
X18950Y51200D02*
X23200D01*
X18950Y51100D02*
X23200D01*
X18950Y51000D02*
X23200D01*
X18950Y50900D02*
X23200D01*
X18950Y50800D02*
X23200D01*
X18950Y50700D02*
X23200D01*
X18950Y50600D02*
X23200D01*
X18950Y50500D02*
X23200D01*
X18950Y50400D02*
X23200D01*
X18950Y50300D02*
X23200D01*
X18950Y50200D02*
X23200D01*
X18950Y50100D02*
X23200D01*
X18950Y50000D02*
X23200D01*
X18950Y49900D02*
X23200D01*
X18950Y49800D02*
X23200D01*
X18950Y49700D02*
X23200D01*
X18950Y49600D02*
X23200D01*
X18950Y49500D02*
X23200D01*
X18950Y49400D02*
X23200D01*
X18950Y49300D02*
X23200D01*
X18950Y49200D02*
X23200D01*
X18950Y45800D02*
X24242D01*
X18950Y45700D02*
X24242D01*
X18950Y49100D02*
X23200D01*
X18950Y45600D02*
X24242D01*
X18950Y45500D02*
X24242D01*
X18950Y45400D02*
X24242D01*
X18950Y45300D02*
X24242D01*
X18950Y45200D02*
X24242D01*
X18950Y51700D02*
X21981D01*
X18950Y49000D02*
X23200D01*
X18950Y51750D02*
X21500D01*
X18950Y49200D02*
Y51750D01*
Y48900D02*
X23200D01*
X18950Y48800D02*
X23200D01*
X18950Y48800D02*
Y49200D01*
Y48700D02*
X23200D01*
X18950Y48600D02*
X23200D01*
X18950Y48500D02*
X23200D01*
X18950Y48400D02*
X23200D01*
X18950Y48300D02*
X23200D01*
X18950Y48200D02*
X23200D01*
X18950Y48100D02*
X23200D01*
X18950Y48000D02*
X23200D01*
X18950Y47900D02*
X23200D01*
X18950Y47800D02*
X23200D01*
X18950Y47700D02*
X23200D01*
X18950Y47600D02*
X23200D01*
X18950Y47500D02*
X23200D01*
X18950Y47400D02*
X23200D01*
X18950Y47300D02*
X23200D01*
X18950Y47200D02*
X23200D01*
X18950Y47100D02*
X23200D01*
X18950Y47000D02*
X23200D01*
X18950Y46900D02*
X23200D01*
X18950Y46800D02*
X23200D01*
X18950Y46700D02*
X23200D01*
X18950Y46600D02*
X23200D01*
X18950Y46500D02*
X23200D01*
X18950Y46400D02*
X23200D01*
X18950Y46300D02*
X23200D01*
X20800Y43962D02*
Y51750D01*
X20700Y44023D02*
Y51750D01*
X20600Y44071D02*
Y51750D01*
X20500Y44106D02*
Y51750D01*
X21200Y43421D02*
Y51750D01*
X21100Y43641D02*
Y51750D01*
X21000Y43780D02*
Y51750D01*
X20900Y43883D02*
Y51750D01*
X18950Y45100D02*
X24242D01*
X18950Y45000D02*
X24242D01*
X18950Y44900D02*
X24242D01*
X18950Y44800D02*
X24242D01*
X18950Y44700D02*
X24242D01*
X18950Y44600D02*
X24242D01*
X20400Y44131D02*
Y51750D01*
X18950Y44500D02*
X24242D01*
X21231Y43300D02*
X25081D01*
X21245Y43200D02*
X24837D01*
X21062Y43700D02*
X24242D01*
X21123Y43600D02*
X24242D01*
X21250Y43100D02*
X24685D01*
X21239Y42951D02*
X26242Y37948D01*
X21245Y43000D02*
X24573D01*
X18950Y44400D02*
X24242D01*
X18950Y44300D02*
X24242D01*
X18950Y44200D02*
X24242D01*
X20521Y44100D02*
X24242D01*
X20741Y44000D02*
X24242D01*
X20880Y43900D02*
X24242D01*
X20983Y43800D02*
X24242D01*
X20300Y44145D02*
Y51750D01*
X20200Y44150D02*
Y51750D01*
X20100Y44145D02*
Y51750D01*
X20000Y44131D02*
Y51750D01*
X19900Y44106D02*
Y51750D01*
X19800Y44071D02*
Y51750D01*
X19700Y44023D02*
Y51750D01*
X19600Y43962D02*
Y51750D01*
X19500Y43883D02*
Y51750D01*
X19400Y43780D02*
Y51750D01*
X19300Y43641D02*
Y51750D01*
X18950Y44500D02*
Y49200D01*
X19200Y43420D02*
Y51750D01*
X19100Y42000D02*
Y51750D01*
X19000Y42000D02*
Y51750D01*
X18950Y42000D02*
Y44500D01*
Y44100D02*
X19879D01*
X18950Y44000D02*
X19659D01*
X18950Y43900D02*
X19520D01*
X18950Y43800D02*
X19417D01*
X18950Y43700D02*
X19338D01*
X18950Y43600D02*
X19277D01*
X18950Y43500D02*
X19229D01*
X19200Y42000D02*
Y42780D01*
X18950Y43400D02*
X19194D01*
X18950Y43300D02*
X19169D01*
X18950Y43200D02*
X19155D01*
X18950Y43100D02*
X19150D01*
X18950Y42900D02*
X19169D01*
X18950Y42800D02*
X19194D01*
X18950Y43000D02*
X19155D01*
X18950Y42700D02*
X19229D01*
X26500Y37931D02*
Y41885D01*
X26400Y37945D02*
Y41639D01*
X26300Y37950D02*
Y41487D01*
X26200Y37990D02*
Y41374D01*
X29300Y35387D02*
Y39607D01*
X27300Y34100D02*
Y36579D01*
X27200Y34100D02*
Y36359D01*
X26400Y35412D02*
Y35855D01*
X24390Y39800D02*
X29251D01*
X24490Y39700D02*
X29272D01*
X25800Y38390D02*
Y41117D01*
X24590Y39600D02*
X29302D01*
X26100Y38090D02*
Y41286D01*
X26000Y38190D02*
Y41217D01*
X25900Y38290D02*
Y41161D01*
X26400Y35400D02*
X29313D01*
X26400Y35300D02*
X29213D01*
X26400Y35200D02*
X29113D01*
X26400Y35100D02*
X29013D01*
X26400Y35000D02*
X28913D01*
X26400Y34900D02*
X28813D01*
X26400Y34800D02*
X28713D01*
X26400Y34700D02*
X28613D01*
X26400Y34600D02*
X28513D01*
X26300Y35732D02*
Y35850D01*
X26400Y34500D02*
X28413D01*
X26400Y34400D02*
X28313D01*
X26400Y34300D02*
X28213D01*
X26400Y34200D02*
X28113D01*
X25300Y38890D02*
Y41046D01*
X25200Y38990D02*
Y41059D01*
X25000Y39190D02*
Y41111D01*
X25100Y39090D02*
Y41080D01*
X25700Y38490D02*
Y41085D01*
X25600Y38590D02*
Y41062D01*
X25500Y38690D02*
Y41048D01*
X25400Y38790D02*
Y41043D01*
X24600Y39590D02*
Y41359D01*
X24700Y39490D02*
Y41274D01*
X24400Y39790D02*
Y41611D01*
X24500Y39690D02*
Y41467D01*
X24800Y39390D02*
Y41207D01*
X24900Y39290D02*
Y41153D01*
X24400Y37649D02*
Y37810D01*
X24500Y37549D02*
Y37710D01*
X24949Y37100D02*
X25110D01*
X25049Y37000D02*
X25210D01*
X24900Y37149D02*
Y37310D01*
X25000Y37049D02*
Y37210D01*
X25149Y36900D02*
X25250D01*
X25100Y36949D02*
Y37110D01*
X25200Y36849D02*
Y37010D01*
X24549Y37500D02*
X24710D01*
X24649Y37400D02*
X24810D01*
X24449Y37600D02*
X24610D01*
X24600Y37449D02*
Y37610D01*
X24749Y37300D02*
X24910D01*
X24849Y37200D02*
X25010D01*
X24700Y37349D02*
Y37510D01*
X24800Y37249D02*
Y37410D01*
X29300Y29664D02*
Y33407D01*
X29200Y29661D02*
Y33307D01*
X29100Y29644D02*
Y33207D01*
X29000Y29612D02*
Y33107D01*
X28900Y29562D02*
Y33007D01*
X28800Y29488D02*
Y32907D01*
X28700Y29390D02*
Y32823D01*
X28600Y29290D02*
Y32766D01*
X28500Y29190D02*
Y32728D01*
X26400Y34100D02*
X28013D01*
X26400D02*
X28013D01*
X28400Y29090D02*
Y32707D01*
X26400Y32700D02*
X28303D01*
X26400D02*
X28303D01*
X28300Y28990D02*
Y32700D01*
X28200Y29421D02*
Y32700D01*
X28171Y29500D02*
X28814D01*
X28235Y28925D02*
X28769Y29459D01*
X28206Y29400D02*
X28710D01*
X28231Y29300D02*
X28610D01*
X28245Y29200D02*
X28510D01*
X28100Y31021D02*
Y32700D01*
Y29641D02*
Y30379D01*
X28123Y29600D02*
X28971D01*
X28250Y29100D02*
X28410D01*
X27600Y31623D02*
Y32700D01*
X27500Y31671D02*
Y32700D01*
X27400Y31706D02*
Y32700D01*
X27300Y31731D02*
Y32700D01*
X28000Y31241D02*
Y32700D01*
X27900Y31380D02*
Y32700D01*
X27800Y31483D02*
Y32700D01*
X27700Y31562D02*
Y32700D01*
X27100Y34100D02*
Y36220D01*
X27000Y34100D02*
Y36117D01*
X26900Y34100D02*
Y36038D01*
X26800Y34100D02*
Y35977D01*
X26700Y34100D02*
Y35929D01*
X26600Y34100D02*
Y35894D01*
X26500Y34100D02*
Y35869D01*
X26400Y34100D02*
Y35400D01*
X27200Y31745D02*
Y32700D01*
X27100Y31750D02*
Y32700D01*
X27000Y31745D02*
Y32700D01*
X26900Y31731D02*
Y32700D01*
X28000Y29780D02*
Y30159D01*
X27900Y29883D02*
Y30020D01*
X26800Y31706D02*
Y32700D01*
X26700Y31671D02*
Y32700D01*
X26600Y31623D02*
Y32700D01*
X26400Y31700D02*
X26779D01*
X26500Y31562D02*
Y32700D01*
X26400Y31600D02*
Y32700D01*
Y31600D02*
X26559D01*
X26400Y31483D02*
Y31588D01*
X22490Y41700D02*
X24353D01*
X22190Y42000D02*
X24258D01*
X22590Y41600D02*
X24406D01*
X22290Y41900D02*
X24280D01*
X22390Y41800D02*
X24311D01*
X22890Y41300D02*
X24667D01*
X22990Y41200D02*
X24812D01*
X22690Y41500D02*
X24474D01*
X22790Y41400D02*
X24559D01*
X21590Y42600D02*
X24316D01*
X21690Y42500D02*
X24284D01*
X21790Y42400D02*
X24261D01*
X21890Y42300D02*
X24247D01*
X21990Y42200D02*
X24242D01*
X22090Y42100D02*
X24246D01*
X20749Y41300D02*
X20910D01*
X20900Y41149D02*
Y41310D01*
X23090Y41100D02*
X25034D01*
X21349Y40700D02*
X21510D01*
X21300Y40749D02*
Y40910D01*
X21400Y40649D02*
Y40810D01*
X21449Y40600D02*
X21610D01*
X21549Y40500D02*
X21710D01*
X21500Y40549D02*
Y40710D01*
X21600Y40449D02*
Y40610D01*
X20949Y41100D02*
X21110D01*
X21100Y40949D02*
Y41110D01*
X20849Y41200D02*
X21010D01*
X21000Y41049D02*
Y41210D01*
X21149Y40900D02*
X21310D01*
X21249Y40800D02*
X21410D01*
X21049Y41000D02*
X21210D01*
X21200Y40849D02*
Y41010D01*
X20000Y41966D02*
Y42069D01*
X19817Y42000D02*
X20210D01*
X19900Y41992D02*
Y42094D01*
X19800Y42000D02*
Y42129D01*
X19700Y42000D02*
Y42177D01*
X20100Y41920D02*
Y42055D01*
X19500Y42000D02*
Y42317D01*
X19600Y42000D02*
Y42238D01*
X18950Y42400D02*
X19418D01*
X18950Y42300D02*
X19520D01*
X18950Y42600D02*
X19277D01*
X18950Y42500D02*
X19338D01*
X18950Y42200D02*
X19660D01*
X18950Y42100D02*
X19881D01*
X19300Y42000D02*
Y42559D01*
X19400Y42000D02*
Y42420D01*
X20449Y41600D02*
X20610D01*
X20600Y41449D02*
Y41610D01*
X20400Y41649D02*
Y41810D01*
X20500Y41549D02*
Y41710D01*
X20649Y41400D02*
X20810D01*
X20800Y41249D02*
Y41410D01*
X20549Y41500D02*
X20710D01*
X20700Y41349D02*
Y41510D01*
X20132Y41900D02*
X20310D01*
X20249Y41800D02*
X20410D01*
X20200Y41847D02*
Y42010D01*
X18950Y42000D02*
X19800D01*
X20300Y41749D02*
Y41910D01*
X20349Y41700D02*
X20510D01*
X23790Y40400D02*
X29303D01*
X23890Y40300D02*
X29272D01*
X23990Y40200D02*
X29251D01*
X24090Y40100D02*
X29238D01*
X24190Y40000D02*
X29234D01*
X24290Y39900D02*
X29238D01*
X24300Y39890D02*
Y41832D01*
X23600Y38449D02*
Y38610D01*
X23249Y38800D02*
X23410D01*
X23349Y38700D02*
X23510D01*
X23149Y38900D02*
X23310D01*
X23400Y38649D02*
Y38810D01*
X20159Y42051D02*
X25252Y36958D01*
X20224Y41824D02*
X25255Y36793D01*
X23500Y38549D02*
Y38710D01*
X23449Y38600D02*
X23610D01*
X24049Y38000D02*
X24210D01*
X24149Y37900D02*
X24310D01*
X24000Y38049D02*
Y38210D01*
X24100Y37949D02*
Y38110D01*
X24249Y37800D02*
X24410D01*
X24349Y37700D02*
X24510D01*
X24200Y37849D02*
Y38010D01*
X24300Y37749D02*
Y37910D01*
X23649Y38400D02*
X23810D01*
X23749Y38300D02*
X23910D01*
X23549Y38500D02*
X23710D01*
X23700Y38349D02*
Y38510D01*
X23849Y38200D02*
X24010D01*
X23949Y38100D02*
X24110D01*
X23800Y38249D02*
Y38410D01*
X23900Y38149D02*
Y38310D01*
X22049Y40000D02*
X22210D01*
X22149Y39900D02*
X22310D01*
X22100Y39949D02*
Y40110D01*
X22200Y39849D02*
Y40010D01*
X22249Y39800D02*
X22410D01*
X22349Y39700D02*
X22510D01*
X22300Y39749D02*
Y39910D01*
X22400Y39649D02*
Y39810D01*
X21749Y40300D02*
X21910D01*
X21849Y40200D02*
X22010D01*
X21700Y40349D02*
Y40510D01*
X21649Y40400D02*
X21810D01*
X22000Y40049D02*
Y40210D01*
X21949Y40100D02*
X22110D01*
X21800Y40249D02*
Y40410D01*
X21900Y40149D02*
Y40310D01*
X22849Y39200D02*
X23010D01*
X22949Y39100D02*
X23110D01*
X22900Y39149D02*
Y39310D01*
X23000Y39049D02*
Y39210D01*
X23049Y39000D02*
X23210D01*
X23300Y38749D02*
Y38910D01*
X23100Y38949D02*
Y39110D01*
X23200Y38849D02*
Y39010D01*
X22449Y39600D02*
X22610D01*
X22549Y39500D02*
X22710D01*
X22500Y39549D02*
Y39710D01*
X22600Y39449D02*
Y39610D01*
X22649Y39400D02*
X22810D01*
X22749Y39300D02*
X22910D01*
X22700Y39349D02*
Y39510D01*
X22800Y39249D02*
Y39410D01*
X32412Y28200D02*
X34425D01*
X32319Y28100D02*
X34425D01*
X32402Y27200D02*
X34425D01*
X32478Y27100D02*
X34425D01*
X32539Y27000D02*
X34425D01*
X32588Y26900D02*
X34425D01*
X32626Y26800D02*
X34425D01*
X32600Y26872D02*
Y28516D01*
X32654Y26700D02*
X34425D01*
X32201Y28000D02*
X34425D01*
X32041Y27900D02*
X34425D01*
X31778Y27800D02*
X34425D01*
X31726Y27600D02*
X34425D01*
X32018Y27500D02*
X34425D01*
X32185Y27400D02*
X34425D01*
X32307Y27300D02*
X34425D01*
X32674Y26600D02*
X34425D01*
X32684Y26500D02*
X34425D01*
X32686Y26400D02*
X34425D01*
X32680Y26300D02*
X34425D01*
X32666Y26200D02*
X34425D01*
X32642Y26100D02*
X34425D01*
X32609Y26000D02*
X34425D01*
X32566Y25900D02*
X34425D01*
X32512Y25800D02*
X34425D01*
X32444Y25700D02*
X34425D01*
X32359Y25600D02*
X34425D01*
X32252Y25500D02*
X34425D01*
X32112Y25400D02*
X34425D01*
X31907Y25300D02*
X34425D01*
X32174Y24500D02*
X34425D01*
X32200Y27389D02*
Y27999D01*
X32000Y27508D02*
Y27879D01*
X31900Y27550D02*
Y27837D01*
X31800Y27582D02*
Y27805D01*
X32500Y27067D02*
Y28321D01*
X32400Y27202D02*
Y28185D01*
X32300Y27306D02*
Y28081D01*
X32100Y27455D02*
Y27932D01*
X31000Y27521D02*
Y27867D01*
X31700Y27605D02*
Y27783D01*
X30800Y27408D02*
Y27980D01*
X30900Y27471D02*
Y27917D01*
X30600Y27232D02*
Y28155D01*
X30700Y27330D02*
Y28058D01*
X30500Y27107D02*
Y28264D01*
X30400Y26933D02*
Y28264D01*
X32300Y24479D02*
Y25541D01*
X32200Y24496D02*
Y25459D01*
X31600Y27618D02*
Y27769D01*
Y24549D02*
Y25229D01*
X32100Y24510D02*
Y25392D01*
X32000Y24522D02*
Y25339D01*
X31900Y24532D02*
Y25297D01*
X31800Y24540D02*
Y25265D01*
X31500Y27624D02*
Y27764D01*
X31400Y27621D02*
Y27767D01*
X31300Y27609D02*
Y27778D01*
X31200Y27589D02*
Y27799D01*
X31500Y24550D02*
Y25224D01*
X31100Y27560D02*
Y27828D01*
X31400Y24549D02*
Y25227D01*
X34200Y23662D02*
Y46200D01*
X34003Y23800D02*
X34425D01*
X34148Y23700D02*
X34425D01*
X34100Y23734D02*
Y38799D01*
X34000Y23802D02*
Y38799D01*
X34425Y23485D02*
Y46200D01*
X34283Y23600D02*
X34425D01*
X34400Y23506D02*
Y46200D01*
X34300Y23587D02*
Y46200D01*
X32659Y24400D02*
X34425D01*
X32988Y24300D02*
X34425D01*
X33251Y24200D02*
X34425D01*
X33473Y24100D02*
X34425D01*
X33669Y24000D02*
X34425D01*
X33844Y23900D02*
X34425D01*
X33900Y23866D02*
Y38799D01*
X33800Y23926D02*
Y38799D01*
X34282Y16400D02*
X34425D01*
X34148Y16300D02*
X34425D01*
Y575D02*
Y16515D01*
X34002Y16200D02*
X34425D01*
X34400Y575D02*
Y16494D01*
X34300Y575D02*
Y16413D01*
X34200Y575D02*
Y16338D01*
X34100Y575D02*
Y16266D01*
X33843Y16100D02*
X34425D01*
X33668Y16000D02*
X34425D01*
X33473Y15900D02*
X34425D01*
X33250Y15800D02*
X34425D01*
X34000Y575D02*
Y16198D01*
X32987Y15700D02*
X34425D01*
X33900Y575D02*
Y16134D01*
X33800Y575D02*
Y16074D01*
X33400Y24134D02*
Y38799D01*
X33200Y24221D02*
Y38799D01*
X33100Y24259D02*
Y38799D01*
X33000Y24296D02*
Y38799D01*
X33700Y23983D02*
Y38799D01*
X33600Y24036D02*
Y38799D01*
X33500Y24087D02*
Y38799D01*
X33300Y24179D02*
Y38799D01*
X32700Y24389D02*
Y38799D01*
X32600Y24415D02*
Y25976D01*
X32500Y24439D02*
Y25781D01*
X32400Y24460D02*
Y25645D01*
X32900Y24329D02*
Y38799D01*
X32800Y24360D02*
Y38799D01*
X30500Y24439D02*
Y25741D01*
X30600Y24460D02*
Y25615D01*
X33700Y575D02*
Y16017D01*
X33600Y575D02*
Y15964D01*
X33500Y575D02*
Y15913D01*
X33400Y575D02*
Y15866D01*
X33300Y575D02*
Y15821D01*
X33200Y575D02*
Y15779D01*
X33100Y575D02*
Y15741D01*
X33000Y575D02*
Y15704D01*
X31700Y24546D02*
Y25243D01*
X31300Y24546D02*
Y25238D01*
X31100Y24532D02*
Y25288D01*
X31200Y24540D02*
Y25259D01*
X30900Y24510D02*
Y25377D01*
X31000Y24522D02*
Y25327D01*
X30700Y24479D02*
Y25518D01*
X30800Y24496D02*
Y25440D01*
X29290Y28000D02*
X30772D01*
X29190Y27900D02*
X30932D01*
X29090Y27800D02*
X31195D01*
X29490Y28200D02*
X30561D01*
X29390Y28100D02*
X30654D01*
X28990Y27700D02*
X34425D01*
X28890Y27600D02*
X31248D01*
X28790Y27500D02*
X30955D01*
X28660Y27400D02*
X30788D01*
X26390Y27300D02*
X30666D01*
X26290Y27200D02*
X30571D01*
X26190Y27100D02*
X30495D01*
X26090Y27000D02*
X30434D01*
X25990Y26900D02*
X30385D01*
X25890Y26800D02*
X30347D01*
X24790Y25700D02*
X30530D01*
X24690Y25600D02*
X30614D01*
X24990Y25900D02*
X30407D01*
X24890Y25800D02*
X30462D01*
X24490Y25400D02*
X30861D01*
X24390Y25300D02*
X31066D01*
X30400Y24415D02*
Y25915D01*
X24590Y25500D02*
X30721D01*
X24290Y25200D02*
X34425D01*
X24190Y25100D02*
X34425D01*
X24090Y25000D02*
X34425D01*
X23990Y24900D02*
X34425D01*
X23890Y24800D02*
X34425D01*
X23790Y24700D02*
X34425D01*
X23690Y24600D02*
X34425D01*
X23590Y24500D02*
X30826D01*
X30300Y26602D02*
Y28264D01*
X30200Y24360D02*
Y28264D01*
X30100Y24329D02*
Y28264D01*
X30000Y24296D02*
Y28264D01*
X29900Y24259D02*
Y28264D01*
X29800Y24220D02*
Y28264D01*
X29700Y24179D02*
Y28264D01*
X29600Y24134D02*
Y28264D01*
X28795Y27505D02*
X29554Y28264D01*
X29500Y24087D02*
Y28210D01*
X29400Y24036D02*
Y28110D01*
X29300Y23983D02*
Y28010D01*
X29200Y23926D02*
Y27910D01*
X29100Y23865D02*
Y27810D01*
X25790Y26700D02*
X30319D01*
X25690Y26600D02*
X30300D01*
X26390Y27300D02*
X28300D01*
X25590Y26500D02*
X30289D01*
X25490Y26400D02*
X30287D01*
X25390Y26300D02*
X30293D01*
X25290Y26200D02*
X30308D01*
X30300Y24389D02*
Y26246D01*
X25190Y26100D02*
X30331D01*
X25090Y26000D02*
X30364D01*
X23490Y24400D02*
X30341D01*
X23390Y24300D02*
X30012D01*
X23290Y24200D02*
X29749D01*
X23190Y24100D02*
X29527D01*
X23090Y24000D02*
X29331D01*
X22990Y23900D02*
X29156D01*
X29000Y23802D02*
Y27710D01*
X28900Y23734D02*
Y27610D01*
X28800Y23662D02*
Y27510D01*
X28700Y23586D02*
Y27425D01*
X28600Y23506D02*
Y27367D01*
X28700Y15101D02*
Y16414D01*
X28800Y15128D02*
Y16338D01*
X28500Y23421D02*
Y27329D01*
X28600Y15066D02*
Y16494D01*
X22983Y23700D02*
X28852D01*
X23062Y23600D02*
X28717D01*
X23123Y23500D02*
X28592D01*
X18950Y16500D02*
X28593D01*
X18950Y16300D02*
X28852D01*
X28500Y15022D02*
Y16579D01*
X18950Y16400D02*
X28718D01*
X29500Y15118D02*
Y15913D01*
X29600Y15088D02*
Y15866D01*
X29200Y15164D02*
Y16074D01*
X29300Y15156D02*
Y16017D01*
X29900Y14945D02*
Y15741D01*
X29800Y15002D02*
Y15780D01*
X29400Y15141D02*
Y15964D01*
X29700Y15049D02*
Y15821D01*
X18950Y16000D02*
X29332D01*
X18950Y15900D02*
X29527D01*
X18950Y16200D02*
X28998D01*
X18950Y16100D02*
X29157D01*
X29100Y15166D02*
Y16135D01*
X18950Y15800D02*
X29750D01*
X28900Y15148D02*
Y16266D01*
X29000Y15160D02*
Y16198D01*
X28400Y23330D02*
Y27307D01*
X23206Y23300D02*
X28367D01*
X28300Y23234D02*
Y27300D01*
X28200Y23132D02*
Y27300D01*
X28100Y23024D02*
Y27300D01*
X28000Y22907D02*
Y27300D01*
X27900Y22782D02*
Y27300D01*
X27800Y22648D02*
Y27300D01*
X23171Y23400D02*
X28476D01*
X23231Y23200D02*
X28265D01*
X23245Y23100D02*
X28169D01*
X23250Y23000D02*
X28079D01*
X23245Y22900D02*
X27994D01*
X23231Y22800D02*
X27913D01*
X23206Y22700D02*
X27838D01*
X23171Y22600D02*
X27766D01*
X28300Y14905D02*
Y16766D01*
X28400Y14969D02*
Y16670D01*
X21541Y17400D02*
X27766D01*
X28200Y14828D02*
Y16868D01*
X28000Y14624D02*
Y17093D01*
X28100Y14736D02*
Y16976D01*
X27800Y14293D02*
Y17352D01*
X27900Y14484D02*
Y17218D01*
X18950Y17100D02*
X27994D01*
X18950Y17000D02*
X28079D01*
X21320Y17300D02*
X27838D01*
X18950Y17200D02*
X27914D01*
X18950Y16700D02*
X28368D01*
X18950Y16600D02*
X28477D01*
X18950Y16900D02*
X28170D01*
X18950Y16800D02*
X28266D01*
X32658Y15600D02*
X34425D01*
X32171Y15500D02*
X34425D01*
X30457Y14300D02*
X34425D01*
X30497Y14200D02*
X34425D01*
X30528Y14100D02*
X34425D01*
X30552Y14000D02*
X34425D01*
X30568Y13900D02*
X34425D01*
X30578Y13800D02*
X34425D01*
X30580Y13700D02*
X34425D01*
X29563Y15100D02*
X34425D01*
X29804Y15000D02*
X34425D01*
X29967Y14900D02*
X34425D01*
X30093Y14800D02*
X34425D01*
X30195Y14700D02*
X34425D01*
X30280Y14600D02*
X34425D01*
X30350Y14500D02*
X34425D01*
X30409Y14400D02*
X34425D01*
X30575Y13600D02*
X34425D01*
X30564Y13500D02*
X34425D01*
X30545Y13400D02*
X34425D01*
X30519Y13300D02*
X34425D01*
X30485Y13200D02*
X34425D01*
X30443Y13100D02*
X34425D01*
X30391Y13000D02*
X34425D01*
X30328Y12900D02*
X34425D01*
X30254Y12800D02*
X34425D01*
X30164Y12700D02*
X34425D01*
X30056Y12600D02*
X34425D01*
X29920Y12500D02*
X34425D01*
X29738Y12400D02*
X34425D01*
X29441Y12300D02*
X34425D01*
X29439Y12100D02*
X34425D01*
X29783Y12000D02*
X34425D01*
X30500Y14191D02*
Y15561D01*
X30400Y14416D02*
Y15585D01*
X30200Y14695D02*
Y15640D01*
X30300Y14573D02*
Y15611D01*
X30500Y11330D02*
Y13241D01*
X30400Y11497D02*
Y13016D01*
X30300Y11624D02*
Y12859D01*
X30200Y11728D02*
Y12737D01*
X30100Y14794D02*
Y15671D01*
X30000Y14876D02*
Y15704D01*
X30100Y11813D02*
Y12638D01*
X30000Y11884D02*
Y12556D01*
X29900Y11943D02*
Y12487D01*
X29975Y11900D02*
X34425D01*
X30116Y11800D02*
X34425D01*
X29800Y11993D02*
Y12430D01*
X29700Y12033D02*
Y12383D01*
X30229Y11700D02*
X34425D01*
X30321Y11600D02*
X34425D01*
X30398Y11500D02*
X34425D01*
X30462Y11400D02*
X34425D01*
X29600Y12065D02*
Y12344D01*
X29500Y12089D02*
Y12314D01*
X29400Y12106D02*
Y12291D01*
X29300Y12115D02*
Y12276D01*
X29200Y12118D02*
Y12268D01*
X29100Y12114D02*
Y12266D01*
X29000Y12103D02*
Y12272D01*
X28900Y12084D02*
Y12284D01*
X32900Y575D02*
Y15671D01*
X32800Y575D02*
Y15640D01*
X32700Y575D02*
Y15611D01*
X32600Y575D02*
Y15585D01*
X32500Y575D02*
Y15561D01*
X32400Y575D02*
Y15540D01*
X32300Y575D02*
Y15521D01*
X32200Y575D02*
Y15504D01*
X32100Y575D02*
Y15490D01*
X30515Y11300D02*
X34425D01*
X30559Y11200D02*
X34425D01*
X30594Y11100D02*
X34425D01*
X30622Y11000D02*
X34425D01*
X32000Y575D02*
Y15478D01*
X30641Y10900D02*
X34425D01*
X31900Y575D02*
Y15468D01*
X31800Y575D02*
Y15460D01*
X30654Y10800D02*
X34425D01*
X30660Y10700D02*
X34425D01*
X30658Y10600D02*
X34425D01*
X30650Y10500D02*
X34425D01*
X30635Y10400D02*
X34425D01*
X30612Y10300D02*
X34425D01*
X30582Y10200D02*
X34425D01*
X30544Y10100D02*
X34425D01*
X30497Y10000D02*
X34425D01*
X30440Y9900D02*
X34425D01*
X30371Y9800D02*
X34425D01*
X30289Y9700D02*
X34425D01*
X30191Y9600D02*
X34425D01*
X30069Y9500D02*
X34425D01*
X29913Y9400D02*
X34425D01*
X29690Y9300D02*
X34425D01*
X31700Y575D02*
Y15454D01*
X31600Y575D02*
Y15451D01*
X31500Y575D02*
Y15450D01*
X31400Y575D02*
Y15451D01*
X31200Y575D02*
Y15460D01*
X31300Y575D02*
Y15454D01*
X31100Y575D02*
Y15468D01*
X31000Y575D02*
Y15478D01*
X30600Y11081D02*
Y15540D01*
X30900Y575D02*
Y15490D01*
X30800Y575D02*
Y15504D01*
X30700Y575D02*
Y15521D01*
X30600Y575D02*
Y10255D01*
X30500Y575D02*
Y10006D01*
X30400Y575D02*
Y9839D01*
X30300Y575D02*
Y9712D01*
X30200Y575D02*
Y9608D01*
X30100Y575D02*
Y9523D01*
X30000Y575D02*
Y9452D01*
X29900Y575D02*
Y9393D01*
X29800Y575D02*
Y9343D01*
X29700Y575D02*
Y9303D01*
X29600Y575D02*
Y9271D01*
X29500Y575D02*
Y9247D01*
X29400Y575D02*
Y9230D01*
X29300Y575D02*
Y9221D01*
X29200Y575D02*
Y9218D01*
X29100Y575D02*
Y9222D01*
X29000Y575D02*
Y9233D01*
X25093Y14800D02*
X28167D01*
X24967Y14900D02*
X28293D01*
X25164Y12700D02*
X28096D01*
X25056Y12600D02*
X28204D01*
X24920Y12500D02*
X28340D01*
X28100Y11601D02*
Y12696D01*
X28200Y11708D02*
Y12604D01*
X18950Y15500D02*
X30829D01*
X18950Y15400D02*
X34425D01*
X18950Y15700D02*
X30013D01*
X18950Y15600D02*
X30342D01*
X18950Y15300D02*
X34425D01*
X18945Y15200D02*
X34425D01*
X24563Y15100D02*
X28697D01*
X24804Y15000D02*
X28456D01*
X28800Y12059D02*
Y12304D01*
X28700Y12025D02*
Y12331D01*
X28500Y11932D02*
Y12410D01*
X28600Y11983D02*
Y12366D01*
X28400Y11871D02*
Y12463D01*
X28300Y11797D02*
Y12527D01*
X25321Y11600D02*
X28099D01*
X24441Y12300D02*
X28819D01*
X24439Y12100D02*
X28981D01*
X24738Y12400D02*
X28522D01*
X24783Y12000D02*
X28637D01*
X24975Y11900D02*
X28445D01*
X25116Y11800D02*
X28304D01*
X25229Y11700D02*
X28191D01*
X25289Y9700D02*
X28131D01*
X25457Y14300D02*
X27803D01*
X25497Y14200D02*
X27763D01*
X25519Y13300D02*
X27741D01*
X25485Y13200D02*
X27775D01*
X27900Y11289D02*
Y12948D01*
X28000Y11467D02*
Y12808D01*
X27800Y11006D02*
Y13139D01*
X25443Y13100D02*
X27817D01*
X25195Y14700D02*
X28065D01*
X25280Y14600D02*
X27980D01*
X25350Y14500D02*
X27910D01*
X25409Y14400D02*
X27851D01*
X25254Y12800D02*
X28006D01*
X25398Y11500D02*
X28022D01*
X25391Y13000D02*
X27869D01*
X25328Y12900D02*
X27932D01*
X25594Y11100D02*
X27826D01*
X25622Y11000D02*
X27798D01*
X25641Y10900D02*
X27779D01*
X25654Y10800D02*
X27766D01*
X25660Y10700D02*
X27760D01*
X25658Y10600D02*
X27762D01*
X25650Y10500D02*
X27770D01*
X25635Y10400D02*
X27785D01*
X25462Y11400D02*
X27958D01*
X25515Y11300D02*
X27905D01*
X25559Y11200D02*
X27861D01*
X25582Y10200D02*
X27838D01*
X25497Y10000D02*
X27923D01*
X25371Y9800D02*
X28049D01*
X25544Y10100D02*
X27876D01*
X25440Y9900D02*
X27980D01*
X23806Y7500D02*
X34425D01*
X23806Y7400D02*
X34425D01*
X23806Y7300D02*
X34425D01*
X23806Y7200D02*
X34425D01*
X23806Y7100D02*
X34425D01*
X23806Y7000D02*
X34425D01*
X23806Y6900D02*
X34425D01*
X23806Y6800D02*
X34425D01*
X23806Y6700D02*
X34425D01*
X23806Y6600D02*
X34425D01*
X23806Y6500D02*
X34425D01*
X23806Y6400D02*
X34425D01*
X23806Y6300D02*
X34425D01*
X23806Y6200D02*
X34425D01*
X23806Y6100D02*
X34425D01*
X23806Y6000D02*
X34425D01*
X23806Y5900D02*
X34425D01*
X23806Y5800D02*
X34425D01*
X23806Y5700D02*
X34425D01*
X23806Y5600D02*
X34425D01*
X23806Y5500D02*
X34425D01*
X23806Y5400D02*
X34425D01*
X23806Y5300D02*
X34425D01*
X23806Y5200D02*
X34425D01*
X22762Y5000D02*
X34425D01*
X23108Y4900D02*
X34425D01*
X23284Y4800D02*
X34425D01*
X23411Y4700D02*
X34425D01*
X23509Y4600D02*
X34425D01*
X23588Y4500D02*
X34425D01*
X23651Y4400D02*
X34425D01*
X23701Y4300D02*
X34425D01*
X28900Y575D02*
Y9252D01*
X28800Y575D02*
Y9277D01*
X28700Y575D02*
Y9311D01*
X28600Y575D02*
Y9353D01*
X28500Y575D02*
Y9404D01*
X28400Y575D02*
Y9465D01*
X28200Y575D02*
Y9628D01*
X28300Y575D02*
Y9539D01*
X24913Y9400D02*
X28507D01*
X24690Y9300D02*
X28730D01*
X25191Y9600D02*
X28229D01*
X25069Y9500D02*
X28351D01*
X28100Y575D02*
Y9735D01*
X27900Y575D02*
Y10047D01*
X28000Y575D02*
Y9869D01*
X23741Y4200D02*
X34425D01*
X23770Y4100D02*
X34425D01*
X23791Y4000D02*
X34425D01*
X23803Y3900D02*
X34425D01*
X23806Y3800D02*
X34425D01*
X23801Y3700D02*
X34425D01*
X23787Y3600D02*
X34425D01*
X23765Y3500D02*
X34425D01*
X23734Y3400D02*
X34425D01*
X23692Y3300D02*
X34425D01*
X23639Y3200D02*
X34425D01*
X23573Y3100D02*
X34425D01*
X23491Y3000D02*
X34425D01*
X23388Y2900D02*
X34425D01*
X23254Y2800D02*
X34425D01*
X23062Y2700D02*
X34425D01*
X27700Y22502D02*
Y27300D01*
X27600Y22343D02*
Y27300D01*
X27500Y22168D02*
Y27300D01*
X27400Y21973D02*
Y27300D01*
X27300Y21750D02*
Y27300D01*
X27200Y21487D02*
Y27300D01*
X27100Y21158D02*
Y27300D01*
X27000Y20672D02*
Y27300D01*
X25500Y14191D02*
Y26410D01*
X23123Y22500D02*
X27698D01*
X23062Y22400D02*
X27634D01*
X22900Y23810D02*
X26390Y27300D01*
X22982Y22300D02*
X27574D01*
X22880Y22200D02*
X27517D01*
X22740Y22100D02*
X27463D01*
X25400Y14416D02*
Y26310D01*
X25300Y14573D02*
Y26210D01*
X22520Y22000D02*
X27413D01*
X22006Y18600D02*
X27171D01*
X21971Y18700D02*
X27140D01*
X22031Y18500D02*
X27204D01*
X22045Y18200D02*
X27321D01*
X22031Y18100D02*
X27366D01*
X22045Y18400D02*
X27241D01*
X22050Y18300D02*
X27280D01*
X21862Y18900D02*
X27085D01*
X22006Y18000D02*
X27413D01*
X21783Y19000D02*
X27061D01*
X21923Y18800D02*
X27111D01*
X21862Y17700D02*
X27574D01*
X21782Y17600D02*
X27635D01*
X21971Y17900D02*
X27464D01*
X21923Y17800D02*
X27517D01*
X24800Y15002D02*
Y25710D01*
X24700Y15049D02*
Y25610D01*
X24600Y15088D02*
Y25510D01*
X24500Y15118D02*
Y25410D01*
X25200Y14695D02*
Y26110D01*
X25100Y14794D02*
Y26010D01*
X25000Y14876D02*
Y25910D01*
X24900Y14945D02*
Y25810D01*
X24300Y15156D02*
Y25210D01*
X24200Y15164D02*
Y25110D01*
X24100Y15166D02*
Y25010D01*
X24000Y15160D02*
Y24910D01*
X24400Y15141D02*
Y25310D01*
X23900Y15148D02*
Y24810D01*
X23800Y15128D02*
Y24710D01*
X23700Y15101D02*
Y24610D01*
X23600Y15066D02*
Y24510D01*
X23500Y15022D02*
Y24410D01*
X23200Y23321D02*
Y24110D01*
X23100Y23541D02*
Y24010D01*
X23400Y14969D02*
Y24310D01*
X23300Y14905D02*
Y24210D01*
X23200Y14828D02*
Y22679D01*
X23100Y14736D02*
Y22459D01*
X23000Y23680D02*
Y23910D01*
X21900Y18841D02*
Y21994D01*
X21800Y18980D02*
Y22029D01*
X23000Y14624D02*
Y22320D01*
X22900Y14484D02*
Y22217D01*
X22800Y14293D02*
Y22138D01*
X22000Y18621D02*
Y21969D01*
X27100Y575D02*
Y18842D01*
X27000Y575D02*
Y19328D01*
X27200Y575D02*
Y18513D01*
X26900Y575D02*
Y27300D01*
X26800Y575D02*
Y27300D01*
X26700Y575D02*
Y27300D01*
X26600Y575D02*
Y27300D01*
X26500Y575D02*
Y27300D01*
X26400Y575D02*
Y27300D01*
X26300Y575D02*
Y27210D01*
X26200Y575D02*
Y27110D01*
X26100Y575D02*
Y27010D01*
X25600Y11081D02*
Y26510D01*
X26000Y575D02*
Y26910D01*
X25900Y575D02*
Y26810D01*
X25800Y575D02*
Y26710D01*
X25700Y575D02*
Y26610D01*
X25528Y14100D02*
X27732D01*
X25552Y14000D02*
X27708D01*
X27700Y13955D02*
Y17498D01*
Y575D02*
Y13477D01*
X27500Y575D02*
Y17832D01*
X27600Y575D02*
Y17657D01*
X27300Y575D02*
Y18250D01*
X27400Y575D02*
Y18027D01*
X25568Y13900D02*
X27692D01*
X25578Y13800D02*
X27682D01*
X25580Y13700D02*
X27680D01*
X25575Y13600D02*
X27685D01*
X25564Y13500D02*
X27696D01*
X25545Y13400D02*
X27715D01*
X25500Y11330D02*
Y13241D01*
X25400Y11497D02*
Y13016D01*
X25300Y11624D02*
Y12859D01*
X22700Y13955D02*
Y22077D01*
X25200Y11728D02*
Y12737D01*
X22900Y11368D02*
Y12948D01*
X23000Y11467D02*
Y12808D01*
X22700Y11368D02*
Y13477D01*
X22800Y11368D02*
Y13139D01*
X22600Y11368D02*
Y22029D01*
X22500Y11368D02*
Y21994D01*
X22400Y11368D02*
Y21969D01*
X22300Y11368D02*
Y21955D01*
X22100Y11368D02*
Y21955D01*
X22200Y11368D02*
Y21950D01*
X22000Y11368D02*
Y17979D01*
X21900Y11368D02*
Y17759D01*
X24800Y11993D02*
Y12430D01*
X24600Y12065D02*
Y12344D01*
X24500Y12089D02*
Y12314D01*
X24400Y12106D02*
Y12291D01*
X25100Y11813D02*
Y12638D01*
X25000Y11884D02*
Y12556D01*
X24900Y11943D02*
Y12487D01*
X24700Y12033D02*
Y12383D01*
X23800Y12059D02*
Y12304D01*
X23700Y12025D02*
Y12331D01*
X23500Y11932D02*
Y12410D01*
X23600Y11983D02*
Y12366D01*
X23300Y11797D02*
Y12527D01*
X23400Y11871D02*
Y12463D01*
X23100Y11601D02*
Y12696D01*
X23200Y11708D02*
Y12604D01*
X21600Y21900D02*
X27366D01*
X21600Y21800D02*
X27321D01*
X21600Y21700D02*
X27279D01*
X21600Y22000D02*
X21881D01*
X21600Y21600D02*
X27241D01*
X21600Y21500D02*
X27204D01*
X21600Y19162D02*
Y22138D01*
X21700Y19083D02*
Y22077D01*
X21600Y21400D02*
X27171D01*
X21600Y21300D02*
X27140D01*
X21600Y21200D02*
X27111D01*
X21600Y21100D02*
X27085D01*
X21600Y21000D02*
X27061D01*
X21600Y20900D02*
X27040D01*
X21600Y20800D02*
X27021D01*
X21600Y20700D02*
X27004D01*
X21600Y20600D02*
X26990D01*
X21600Y20500D02*
X26978D01*
X21600Y20400D02*
X26968D01*
X21600Y20300D02*
X26960D01*
X21600Y20200D02*
X26954D01*
X21680Y19100D02*
X27040D01*
X21600Y20100D02*
X26951D01*
X21600Y20000D02*
X26950D01*
X21600Y19900D02*
X26951D01*
X21600Y19800D02*
X26954D01*
X21600Y19700D02*
X26960D01*
X21600Y19600D02*
X26968D01*
X21600Y19400D02*
X26990D01*
X21600Y19300D02*
X27004D01*
X21600Y19500D02*
X26978D01*
X21600Y19200D02*
X27021D01*
X20040Y22100D02*
X20200D01*
X19819Y22000D02*
X20200D01*
X18950D02*
X19181D01*
X18950Y21900D02*
X20200D01*
X18950Y21800D02*
X20200D01*
X18950Y21102D02*
Y22106D01*
Y21700D02*
X20200D01*
X18950Y21600D02*
X20200D01*
X18950Y21500D02*
X20200D01*
X18950Y21400D02*
X20200D01*
X18950Y21300D02*
X20200D01*
X18950Y21200D02*
X20200D01*
X18950Y21000D02*
X20200D01*
X18950Y20900D02*
X20200D01*
X18950Y20800D02*
X20200D01*
X18950Y20700D02*
X20200D01*
X18950Y20600D02*
X20200D01*
X18950Y20500D02*
X20200D01*
X18950Y20400D02*
X20200D01*
X18950Y20300D02*
X20200D01*
X18950Y20200D02*
X20200D01*
X18950Y20100D02*
X20200D01*
X18950Y20000D02*
X20200D01*
X18950Y19900D02*
X20200D01*
X18950Y19800D02*
X20200D01*
X18950Y19700D02*
X20200D01*
X18950Y19600D02*
X20200D01*
X18950Y19500D02*
X20200D01*
X18950Y19400D02*
X20200D01*
X18950Y19300D02*
X20200D01*
X18950Y19200D02*
X20200D01*
X21680Y17500D02*
X27698D01*
X21800Y11368D02*
Y17620D01*
X21700Y11368D02*
Y17517D01*
X21600Y11368D02*
Y17438D01*
X21500Y11368D02*
Y17377D01*
X20300Y11368D02*
Y17517D01*
X20500Y11368D02*
Y17377D01*
X20200Y18980D02*
Y22217D01*
X18950Y19100D02*
X20200D01*
Y18980D02*
Y22217D01*
X18950Y19000D02*
X20200D01*
X18950Y17400D02*
X20459D01*
X18950Y17600D02*
X20218D01*
X18950Y17500D02*
X20320D01*
X21400Y11368D02*
Y17329D01*
X21300Y11368D02*
Y17294D01*
X21200Y11368D02*
Y17269D01*
X21100Y11368D02*
Y17255D01*
X21000Y11368D02*
Y17250D01*
X20900Y11368D02*
Y17255D01*
X20700Y11368D02*
Y17294D01*
X20800Y11368D02*
Y17269D01*
X18929Y15100D02*
X23697D01*
X18901Y15000D02*
X23456D01*
X18950Y17300D02*
X20680D01*
X18862Y14900D02*
X23293D01*
X18808Y14800D02*
X23167D01*
X18736Y14700D02*
X23065D01*
X20400Y11368D02*
Y17438D01*
X20600Y11368D02*
Y17329D01*
X20100Y18841D02*
Y22138D01*
X20000Y18620D02*
Y22077D01*
X19900Y11368D02*
Y22029D01*
X19800Y11368D02*
Y21994D01*
X19700Y11368D02*
Y21969D01*
X19600Y11368D02*
Y21955D01*
X19400Y11368D02*
Y21955D01*
X19500Y11368D02*
Y21950D01*
X18950Y18900D02*
X20138D01*
X18950Y18800D02*
X20077D01*
X18950Y15300D02*
Y21098D01*
Y18700D02*
X20029D01*
X19300Y11368D02*
Y21969D01*
X19200Y11368D02*
Y21994D01*
X19000Y11368D02*
Y22077D01*
X19100Y11368D02*
Y22029D01*
X18950Y18600D02*
X19994D01*
X18950Y18500D02*
X19969D01*
X18950Y18400D02*
X19955D01*
X18950Y18300D02*
X19950D01*
X20100Y11368D02*
Y17759D01*
X20200Y11368D02*
Y17620D01*
X18950Y18200D02*
X19955D01*
X20000Y11368D02*
Y17980D01*
X18950Y17900D02*
X20029D01*
X18950Y17800D02*
X20077D01*
X18950Y18100D02*
X19969D01*
X18950Y18000D02*
X19994D01*
X18950Y17700D02*
X20138D01*
X18900Y11368D02*
Y14996D01*
X18800Y11368D02*
Y14787D01*
X18700Y11368D02*
Y14658D01*
X24300Y12115D02*
Y12276D01*
X24200Y12118D02*
Y12268D01*
X24100Y12114D02*
Y12266D01*
X24000Y12103D02*
Y12272D01*
X23900Y12084D02*
Y12284D01*
X25612Y10300D02*
X27808D01*
X23500Y7550D02*
Y9404D01*
X23300Y7550D02*
Y9539D01*
X23400Y7550D02*
Y9465D01*
X23100Y7550D02*
Y9735D01*
X23200Y7550D02*
Y9628D01*
X22900Y7550D02*
Y9968D01*
X23000Y7550D02*
Y9869D01*
X22800Y7550D02*
Y9968D01*
X22700Y7550D02*
Y9968D01*
X23800Y7550D02*
Y9277D01*
X23806Y5150D02*
Y7550D01*
X23700D02*
Y9311D01*
X23600Y7550D02*
Y9353D01*
X23300Y4789D02*
Y5150D01*
X23200Y4853D02*
Y5150D01*
X23100Y4904D02*
Y5150D01*
X23000Y4944D02*
Y5150D01*
X21406Y7550D02*
X23806D01*
X21406Y5150D02*
X23806D01*
X22900Y4973D02*
Y5150D01*
X22800Y4994D02*
Y5150D01*
X22700Y5006D02*
Y5150D01*
X22600Y7550D02*
Y9968D01*
X22500Y7550D02*
Y9968D01*
X22400Y7550D02*
Y9968D01*
X22300Y7550D02*
Y9968D01*
X22200Y7550D02*
Y9968D01*
X22100Y7550D02*
Y9968D01*
X22000Y7550D02*
Y9968D01*
X21900Y7550D02*
Y9968D01*
X21800Y7550D02*
Y9968D01*
X21700Y7550D02*
Y9968D01*
X21600Y7550D02*
Y9968D01*
X21500Y7550D02*
Y9968D01*
X21178Y6800D02*
X21406D01*
X21214Y6700D02*
X21406D01*
X21200Y6743D02*
Y9968D01*
X21406Y5150D02*
Y7550D01*
X22600Y5010D02*
Y5150D01*
X22500Y5005D02*
Y5150D01*
X22400Y4992D02*
Y5150D01*
X22300Y4970D02*
Y5150D01*
X22200Y4939D02*
Y5150D01*
X22100Y4898D02*
Y5150D01*
X22000Y4846D02*
Y5150D01*
X21900Y4780D02*
Y5150D01*
X21240Y6600D02*
X21406D01*
X21257Y6500D02*
X21406D01*
X21265Y6400D02*
X21406D01*
X21265Y6300D02*
X21406D01*
X21257Y6200D02*
X21406D01*
X21240Y6100D02*
X21406D01*
X21214Y6000D02*
X21406D01*
X21178Y5900D02*
X21406D01*
X27800Y575D02*
Y10330D01*
X25600Y575D02*
Y10255D01*
X25500Y575D02*
Y10006D01*
X25400Y575D02*
Y9839D01*
X25300Y575D02*
Y9712D01*
X25200Y575D02*
Y9608D01*
X25100Y575D02*
Y9523D01*
X25000Y575D02*
Y9452D01*
X24900Y575D02*
Y9393D01*
X24800Y575D02*
Y9343D01*
X24700Y575D02*
Y9303D01*
X24600Y575D02*
Y9271D01*
X24500Y575D02*
Y9247D01*
X24400Y575D02*
Y9230D01*
X24300Y575D02*
Y9221D01*
X24200Y575D02*
Y9218D01*
X24100Y575D02*
Y9222D01*
X24000Y575D02*
Y9233D01*
X23800Y3931D02*
Y5150D01*
X23700Y4303D02*
Y5150D01*
X23600Y4482D02*
Y5150D01*
X23900Y575D02*
Y9252D01*
X23800Y575D02*
Y3689D01*
X23700Y575D02*
Y3317D01*
X23600Y575D02*
Y3138D01*
X23500Y4611D02*
Y5150D01*
X23400Y4710D02*
Y5150D01*
X23500Y575D02*
Y3009D01*
X23400Y575D02*
Y2910D01*
X23300Y575D02*
Y2831D01*
X23200Y575D02*
Y2767D01*
X21800Y4699D02*
Y5150D01*
X21700Y4597D02*
Y5150D01*
X21600Y4464D02*
Y5150D01*
X21500Y4275D02*
Y5150D01*
X21400Y575D02*
Y9968D01*
X21500Y575D02*
Y3345D01*
X21201Y4200D02*
X21471D01*
X21230Y4100D02*
X21442D01*
X21200Y4203D02*
Y5957D01*
X21251Y4000D02*
X21421D01*
X21263Y3900D02*
X21409D01*
X21261Y3700D02*
X21411D01*
X21300Y575D02*
Y9968D01*
X21266Y3800D02*
X21406D01*
X23100Y575D02*
Y2716D01*
X23000Y575D02*
Y2676D01*
X22900Y575D02*
Y2647D01*
X22800Y575D02*
Y2626D01*
X22700Y575D02*
Y2614D01*
X22600Y575D02*
Y2610D01*
X22500Y575D02*
Y2615D01*
X22400Y575D02*
Y2628D01*
X22300Y575D02*
Y2650D01*
X22200Y575D02*
Y2681D01*
X22000Y575D02*
Y2774D01*
X22100Y575D02*
Y2722D01*
X21800Y575D02*
Y2921D01*
X21900Y575D02*
Y2840D01*
X21600Y575D02*
Y3156D01*
X21700Y575D02*
Y3023D01*
X21000Y7104D02*
Y9968D01*
X20799Y7300D02*
X21406D01*
X20913Y7200D02*
X21406D01*
X20900Y7213D02*
Y9968D01*
X20800Y7299D02*
Y9968D01*
X21003Y7100D02*
X21406D01*
X21075Y7000D02*
X21406D01*
X21100Y6959D02*
Y9968D01*
X21133Y6900D02*
X21406D01*
X20600Y7425D02*
Y9968D01*
X20409Y7500D02*
X21406D01*
X20400Y7503D02*
Y9968D01*
X20300Y7527D02*
Y9968D01*
X20647Y7400D02*
X21406D01*
X20700Y7369D02*
Y9968D01*
X20500Y7469D02*
Y9968D01*
X21132Y5800D02*
X21406D01*
X21075Y5700D02*
X21406D01*
X21003Y5600D02*
X21406D01*
X20913Y5500D02*
X21406D01*
X20799Y5400D02*
X21406D01*
X20744Y4800D02*
X21928D01*
X20800Y4759D02*
Y5401D01*
X20700Y4829D02*
Y5331D01*
X20647Y5300D02*
X21406D01*
X20222Y5000D02*
X22450D01*
X20500Y4929D02*
Y5231D01*
X20408Y5200D02*
X21406D01*
X20600Y4885D02*
Y5275D01*
X20568Y4900D02*
X22104D01*
X20400Y4963D02*
Y5197D01*
X20300Y4987D02*
Y5173D01*
X20200Y7543D02*
Y9968D01*
X20100Y7550D02*
Y9968D01*
X20000Y7548D02*
Y9968D01*
X19900Y7538D02*
Y9968D01*
X19800Y7520D02*
Y9968D01*
X19700Y7493D02*
Y9968D01*
X19600Y7456D02*
Y9968D01*
X19500Y7408D02*
Y9968D01*
X19400Y7348D02*
Y9968D01*
X19300Y7274D02*
Y9968D01*
X19200Y7181D02*
Y9968D01*
X19100Y7062D02*
Y9968D01*
X19000Y6901D02*
Y9968D01*
X18900Y6633D02*
Y9968D01*
X18700Y6599D02*
Y9968D01*
X18700Y6600D02*
X18892D01*
X20200Y5003D02*
Y5157D01*
X20100Y5010D02*
Y5150D01*
X20000Y5008D02*
Y5152D01*
X19900Y4998D02*
Y5162D01*
X19800Y4980D02*
Y5180D01*
X19700Y4953D02*
Y5207D01*
X19600Y4916D02*
Y5244D01*
X19500Y4868D02*
Y5292D01*
X18717Y6500D02*
X18875D01*
X18725Y6400D02*
X18867D01*
X18725Y6300D02*
X18867D01*
X18717Y6200D02*
X18875D01*
X18674Y6000D02*
X18918D01*
X19400Y4808D02*
Y5352D01*
X18700Y6100D02*
X18892D01*
X18638Y5900D02*
X18954D01*
X21111Y4400D02*
X21561D01*
X21161Y4300D02*
X21511D01*
X21100Y4419D02*
Y5741D01*
X21247Y3600D02*
X21425D01*
X21225Y3500D02*
X21447D01*
X21152Y3300D02*
X21520D01*
X21194Y3400D02*
X21478D01*
X21200Y575D02*
Y3417D01*
X20871Y4700D02*
X21801D01*
X20969Y4600D02*
X21703D01*
X20900Y4673D02*
Y5487D01*
X21048Y4500D02*
X21624D01*
X21099Y3200D02*
X21573D01*
X21000Y4564D02*
Y5596D01*
X21100Y575D02*
Y3201D01*
X20848Y2900D02*
X21824D01*
X20714Y2800D02*
X21958D01*
X21033Y3100D02*
X21639D01*
X20951Y3000D02*
X21721D01*
X21000Y575D02*
Y3056D01*
X20900Y575D02*
Y2947D01*
X20800Y575D02*
Y2861D01*
X20700Y575D02*
Y2791D01*
X20600Y575D02*
Y2735D01*
X20522Y2700D02*
X22150D01*
X20500Y575D02*
Y2691D01*
X20400Y575D02*
Y2657D01*
X20300Y575D02*
Y2633D01*
X20200Y575D02*
Y2617D01*
X20100Y575D02*
Y2610D01*
X20000Y575D02*
Y2612D01*
X19200Y4641D02*
Y5519D01*
X19300Y4734D02*
Y5426D01*
X19000Y4361D02*
Y5799D01*
X19100Y4522D02*
Y5638D01*
X18900Y4093D02*
Y6067D01*
X18690Y4100D02*
X18902D01*
X18800Y575D02*
Y9968D01*
X18700Y4059D02*
Y6101D01*
X18621Y4300D02*
X18971D01*
X18661Y4200D02*
X18931D01*
X18600Y4346D02*
Y5814D01*
X18711Y4000D02*
X18881D01*
X18723Y3900D02*
X18869D01*
X18726Y3800D02*
X18866D01*
X18721Y3700D02*
X18871D01*
X18707Y3600D02*
X18885D01*
X19900Y575D02*
Y2622D01*
X19800Y575D02*
Y2640D01*
X19700Y575D02*
Y2667D01*
X19600Y575D02*
Y2704D01*
X19400Y575D02*
Y2812D01*
X19500Y575D02*
Y2752D01*
X19200Y575D02*
Y2979D01*
X19300Y575D02*
Y2886D01*
X18654Y3400D02*
X18938D01*
X19100Y575D02*
Y3098D01*
X18685Y3500D02*
X18907D01*
X18612Y3300D02*
X18980D01*
X18900Y575D02*
Y3527D01*
X19000Y575D02*
Y3259D01*
X18700Y575D02*
Y3561D01*
X18600Y575D02*
Y3274D01*
X17050Y49200D02*
Y51150D01*
Y48800D02*
Y49200D01*
Y48800D02*
Y49200D01*
X15600Y43562D02*
Y51150D01*
X17050Y44500D02*
Y48800D01*
X16000Y43021D02*
Y51150D01*
X15900Y43241D02*
Y51150D01*
X15800Y43380D02*
Y51150D01*
X15700Y43483D02*
Y51150D01*
X9971Y48200D02*
X17050D01*
X10006Y48100D02*
X17050D01*
X15300Y43706D02*
Y51150D01*
X10031Y48000D02*
X17050D01*
X15500Y43623D02*
Y51150D01*
X15400Y43671D02*
Y51150D01*
X15200Y43731D02*
Y51150D01*
X15100Y43745D02*
Y51150D01*
X15783Y43400D02*
X17050D01*
X15862Y43300D02*
X17050D01*
X15923Y43200D02*
X17050D01*
X15971Y43100D02*
X17050D01*
X16006Y43000D02*
X17050D01*
X16031Y42900D02*
X17050D01*
X16045Y42800D02*
X17050D01*
X16050Y42700D02*
X17050D01*
X10045Y47900D02*
X17050D01*
X10050Y47800D02*
X17050D01*
X10045Y47700D02*
X17050D01*
X10031Y47600D02*
X17050D01*
X15321Y43700D02*
X17050D01*
X15541Y43600D02*
X17050D01*
X15680Y43500D02*
X17050D01*
X15000Y43750D02*
Y51150D01*
X14900Y43745D02*
Y51150D01*
X14800Y43731D02*
Y51150D01*
X14700Y43706D02*
Y51150D01*
X14600Y43671D02*
Y51150D01*
X14500Y43623D02*
Y51150D01*
X14400Y43562D02*
Y51150D01*
X14300Y43483D02*
Y51150D01*
X14200Y43400D02*
Y51150D01*
X14100Y43400D02*
Y51150D01*
X14000Y43400D02*
Y51150D01*
X13900Y43400D02*
Y51150D01*
X13800Y43400D02*
Y51150D01*
X13700Y43400D02*
Y51150D01*
X13600Y43400D02*
Y51150D01*
X13500Y43400D02*
Y51150D01*
X13400Y43400D02*
Y51150D01*
X13200Y43400D02*
X14217D01*
X13300D02*
Y51150D01*
X13200Y43400D02*
Y51150D01*
X13100Y43393D02*
Y51150D01*
X13000Y43371D02*
Y51150D01*
X12900Y43332D02*
Y51150D01*
X12800Y43274D02*
Y51150D01*
X12700Y43190D02*
Y51150D01*
X10000Y48120D02*
Y51150D01*
X12600Y43090D02*
Y51150D01*
X12500Y42990D02*
Y51150D01*
X12400Y42890D02*
Y51150D01*
X12300Y42790D02*
Y51150D01*
X17000Y42000D02*
Y51150D01*
X16900Y42000D02*
Y51150D01*
X17050Y42000D02*
Y44500D01*
X16800Y42000D02*
Y51150D01*
X16700Y42000D02*
Y51150D01*
X16600Y42000D02*
Y51150D01*
X16500Y42000D02*
Y51150D01*
X16400Y42000D02*
Y51150D01*
X16300Y42000D02*
Y51150D01*
X16045Y42600D02*
X17050D01*
X16031Y42500D02*
X17050D01*
X16006Y42400D02*
X17050D01*
X15971Y42300D02*
X17050D01*
X16200Y42000D02*
Y51150D01*
X16100Y42000D02*
Y51150D01*
X16000Y41992D02*
Y42380D01*
X15923Y42200D02*
X17050D01*
X15862Y42100D02*
X17050D01*
X15900Y41966D02*
Y42159D01*
X16100Y42000D02*
X17050D01*
X15800Y41920D02*
Y42020D01*
X15782Y42000D02*
X16083D01*
X15540Y41800D02*
X15651D01*
X15319Y41700D02*
X15551D01*
X15500Y41648D02*
Y41777D01*
X15400Y41548D02*
Y41729D01*
X14582Y40731D02*
X15676Y41824D01*
X14706Y41600D02*
X15451D01*
X15300Y41448D02*
Y41694D01*
X14731Y41500D02*
X15351D01*
X12200Y42690D02*
Y51150D01*
X12100Y42590D02*
Y51150D01*
X12000Y42490D02*
Y51150D01*
X11900Y42390D02*
Y51150D01*
X11800Y42260D02*
Y51150D01*
X11700Y40590D02*
Y51150D01*
X11600Y40490D02*
Y51150D01*
X11500Y40390D02*
Y51150D01*
X11400Y40290D02*
Y51150D01*
X11300Y40190D02*
Y51150D01*
X11200Y40090D02*
Y51150D01*
X11100Y39990D02*
Y51150D01*
X11000Y39890D02*
Y51150D01*
X10900Y39790D02*
Y51150D01*
X10800Y39690D02*
Y51150D01*
X10700Y39590D02*
Y51150D01*
X15200Y41348D02*
Y41669D01*
X11905Y42395D02*
X12705Y43195D01*
X15100Y41248D02*
Y41655D01*
X15000Y41148D02*
Y41650D01*
X14900Y41048D02*
Y41655D01*
X14800Y40948D02*
Y41669D01*
X11700Y40590D02*
Y41900D01*
X10600Y39490D02*
Y51150D01*
X10500Y39390D02*
Y51150D01*
X10400Y39290D02*
Y51150D01*
X10300Y39190D02*
Y51150D01*
X10200Y39090D02*
Y51150D01*
X10100Y38990D02*
Y51150D01*
X2835D02*
X17050D01*
X2780Y51100D02*
X17050D01*
X2640Y51000D02*
X17050D01*
X2419Y50900D02*
X17050D01*
X575Y50800D02*
X17050D01*
X575Y50700D02*
X17050D01*
X575Y50600D02*
X17050D01*
X575Y50500D02*
X17050D01*
X575Y50400D02*
X17050D01*
X575Y50300D02*
X17050D01*
X575Y50200D02*
X17050D01*
X575Y50100D02*
X17050D01*
X575Y50000D02*
X17050D01*
X575Y49900D02*
X17050D01*
X575Y49800D02*
X17050D01*
X575Y49700D02*
X17050D01*
X575Y49600D02*
X17050D01*
X9541Y48700D02*
X17050D01*
X9680Y48600D02*
X17050D01*
X9783Y48500D02*
X17050D01*
X9862Y48400D02*
X17050D01*
X9923Y48300D02*
X17050D01*
X10006Y47500D02*
X17050D01*
X9971Y47400D02*
X17050D01*
X9923Y47300D02*
X17050D01*
X575Y49500D02*
X17050D01*
X575Y49400D02*
X17050D01*
X575Y49300D02*
X17050D01*
X575Y49200D02*
X17050D01*
X575Y49100D02*
X17050D01*
X575Y49000D02*
X17050D01*
X575Y48900D02*
X17050D01*
X9321Y48800D02*
X17050D01*
X9500Y48723D02*
Y51150D01*
X9400Y48771D02*
Y51150D01*
X9300Y48806D02*
Y51150D01*
X9200Y48831D02*
Y51150D01*
X9900Y48341D02*
Y51150D01*
X9800Y48480D02*
Y51150D01*
X9700Y48583D02*
Y51150D01*
X9600Y48662D02*
Y51150D01*
X9100Y48845D02*
Y51150D01*
X9000Y48850D02*
Y51150D01*
X8900Y48845D02*
Y51150D01*
X8800Y48831D02*
Y51150D01*
X8700Y48806D02*
Y51150D01*
X8600Y48771D02*
Y51150D01*
X575Y48800D02*
X8679D01*
X9861Y47200D02*
X17050D01*
X9782Y47100D02*
X17050D01*
X9680Y47000D02*
X17050D01*
X9540Y46900D02*
X17050D01*
X9319Y46800D02*
X17050D01*
X8860Y46700D02*
X17050D01*
X5282Y46600D02*
X17050D01*
X5180Y46500D02*
X17050D01*
X5040Y46400D02*
X17050D01*
X4819Y46300D02*
X17050D01*
X575Y46200D02*
X17050D01*
X575Y46100D02*
X17050D01*
X575Y46000D02*
X17050D01*
X8971Y45100D02*
X17050D01*
X9006Y45000D02*
X17050D01*
X9031Y44900D02*
X17050D01*
X9045Y44800D02*
X17050D01*
X9050Y44700D02*
X17050D01*
X9045Y44600D02*
X17050D01*
X9031Y44500D02*
X17050D01*
X9006Y44400D02*
X17050D01*
X8971Y44300D02*
X17050D01*
X575Y45900D02*
X17050D01*
X575Y45800D02*
X17050D01*
X8321Y45700D02*
X17050D01*
X8541Y45600D02*
X17050D01*
X8680Y45500D02*
X17050D01*
X8783Y45400D02*
X17050D01*
X8862Y45300D02*
X17050D01*
X8923Y45200D02*
X17050D01*
X8923Y44200D02*
X17050D01*
X8862Y44100D02*
X17050D01*
X8782Y44000D02*
X17050D01*
X8700Y43900D02*
X17050D01*
X8700Y43800D02*
X17050D01*
X8700Y43700D02*
X14679D01*
X8700Y43600D02*
X14459D01*
X8700Y43500D02*
X14320D01*
X8700Y43400D02*
X13181D01*
X8700Y43300D02*
X12839D01*
X8700Y43200D02*
X12710D01*
X8700Y43100D02*
X12610D01*
X8700Y43000D02*
X12510D01*
X8700Y42900D02*
X12410D01*
X8700Y42800D02*
X12310D01*
X8700Y42700D02*
X12210D01*
X10000Y38890D02*
Y47480D01*
X9900Y38790D02*
Y47259D01*
X9800Y38690D02*
Y47120D01*
X9700Y38590D02*
Y47017D01*
X9600Y38490D02*
Y46938D01*
X9500Y38390D02*
Y46877D01*
X9400Y38290D02*
Y46829D01*
X9300Y38190D02*
Y46794D01*
X9000Y45020D02*
Y46750D01*
X8900Y45241D02*
Y46725D01*
X8800Y45380D02*
Y46667D01*
X8700Y45483D02*
Y46629D01*
X9200Y38090D02*
Y46769D01*
X9100Y37990D02*
Y46755D01*
X8700Y42600D02*
X12110D01*
X8700Y42500D02*
X12010D01*
X8700Y42400D02*
X11910D01*
X8700Y42300D02*
X11825D01*
X9000Y37890D02*
Y44380D01*
X8900Y37790D02*
Y44159D01*
X8800Y37690D02*
Y44020D01*
X8700Y41400D02*
Y43917D01*
Y42200D02*
X11767D01*
X8700Y42100D02*
X11729D01*
X8700Y42000D02*
X11707D01*
X8700Y41900D02*
X11700D01*
X8700Y41800D02*
X11700D01*
X8700Y41700D02*
X11700D01*
X8700Y41600D02*
X11700D01*
X8700Y41500D02*
X11700D01*
X14745Y41400D02*
X15251D01*
X14750Y41300D02*
X15151D01*
X14745Y41200D02*
X15051D01*
X14731Y41100D02*
X14951D01*
X14706Y41000D02*
X14851D01*
X14700Y40848D02*
Y40980D01*
X11800Y25838D02*
Y29152D01*
X11900Y25838D02*
Y29052D01*
X8700Y41400D02*
X11700D01*
X8693Y41300D02*
X11700D01*
X11600Y25838D02*
Y29352D01*
X11700Y25838D02*
Y29252D01*
X11400Y25838D02*
Y29552D01*
X11500Y25838D02*
Y29452D01*
X11200Y25838D02*
Y29752D01*
X11300Y25838D02*
Y29652D01*
X13100Y25838D02*
Y27852D01*
X13138Y25800D02*
X15152D01*
X12900Y25838D02*
Y28052D01*
X13000Y25838D02*
Y27952D01*
X13138Y25700D02*
X15252D01*
X13138Y25600D02*
X15352D01*
X12700Y25838D02*
Y28252D01*
X12800Y25838D02*
Y28152D01*
X12500Y25838D02*
Y28452D01*
X12600Y25838D02*
Y28352D01*
X12300Y25838D02*
Y28652D01*
X12400Y25838D02*
Y28552D01*
X12200Y25838D02*
Y28752D01*
X10738Y25838D02*
X13138D01*
X12000D02*
Y28952D01*
X12100Y25838D02*
Y28852D01*
X9390Y34900D02*
X9500D01*
X9290Y34800D02*
X9500D01*
Y31700D02*
Y35010D01*
X9190Y34700D02*
X9500D01*
X9500Y25834D02*
Y35010D01*
X9400Y25838D02*
Y34910D01*
X9300Y25834D02*
Y34810D01*
X9200Y25822D02*
Y34710D01*
X9090Y34600D02*
X9500D01*
X8990Y34500D02*
X9500D01*
X8700Y37590D02*
Y41389D01*
X8890Y34400D02*
X9500D01*
X9100Y25800D02*
Y34610D01*
X8790Y34300D02*
X9500D01*
X9000Y25770D02*
Y34510D01*
X8900Y25730D02*
Y34410D01*
X11000Y25838D02*
Y29952D01*
X11100Y25838D02*
Y29852D01*
X10800Y25838D02*
Y30152D01*
X10900Y25838D02*
Y30052D01*
X9957Y25700D02*
X10738D01*
X10116Y25600D02*
X10738D01*
X10000Y25676D02*
Y30952D01*
X10100Y25611D02*
Y30852D01*
X9698Y25800D02*
X10738D01*
X9700Y25799D02*
Y31252D01*
X9800Y25769D02*
Y31152D01*
X9900Y25728D02*
Y31052D01*
X8800Y25678D02*
Y34310D01*
X9600Y25821D02*
Y31368D01*
X15600Y24645D02*
Y25352D01*
X15400Y24645D02*
Y25552D01*
X15500Y24650D02*
Y25452D01*
X15300Y24631D02*
Y25652D01*
X15700Y24631D02*
Y25253D01*
X15100Y24571D02*
Y25852D01*
X15200Y24606D02*
Y25752D01*
X9676Y31276D02*
X15676Y25276D01*
X13590Y25300D02*
X15652D01*
X13138Y25500D02*
X15452D01*
X13138Y25400D02*
X15552D01*
X15000Y24523D02*
Y25952D01*
X13780Y25200D02*
X15769D01*
X14500Y24490D02*
Y26452D01*
X14900Y24462D02*
Y26052D01*
X16100Y25100D02*
X17050D01*
X16041Y24500D02*
X17050D01*
X15900Y24571D02*
Y25134D01*
X15800Y24606D02*
Y25180D01*
X16200Y24383D02*
Y25100D01*
X16180Y24400D02*
X17050D01*
X16100Y24462D02*
Y25100D01*
X16000Y24523D02*
Y25108D01*
X13890Y25100D02*
X17050D01*
X13990Y25000D02*
X17050D01*
X14090Y24900D02*
X17050D01*
X14190Y24800D02*
X17050D01*
X14290Y24700D02*
X17050D01*
X15821Y24600D02*
X17050D01*
X14390D02*
X15179D01*
X14490Y24500D02*
X14959D01*
X13800Y25184D02*
Y27152D01*
X13900Y25090D02*
Y27052D01*
X13600Y25296D02*
Y27352D01*
X13700Y25251D02*
Y27252D01*
X14200Y24790D02*
Y26752D01*
X14300Y24690D02*
Y26652D01*
X14000Y24990D02*
Y26952D01*
X14100Y24890D02*
Y26852D01*
X13400Y25337D02*
Y27552D01*
X13500Y25324D02*
Y27452D01*
X10200Y25531D02*
Y30752D01*
X10300Y25430D02*
Y30652D01*
X13200Y25338D02*
Y27752D01*
X13300Y25338D02*
Y27652D01*
X10400Y25298D02*
Y30552D01*
X10500Y25113D02*
Y30452D01*
X13138Y25338D02*
Y25838D01*
Y25338D02*
X13362D01*
X14400Y24590D02*
Y26552D01*
X10542Y25000D02*
X10738D01*
X10569Y24900D02*
X10738D01*
X10587Y24800D02*
X10738D01*
X10233Y25500D02*
X10738D01*
X10325Y25400D02*
X10738D01*
X10399Y25300D02*
X10738D01*
X10458Y25200D02*
X10738D01*
X10506Y25100D02*
X10738D01*
X10596Y24700D02*
X10738D01*
X10597Y24600D02*
X10738D01*
X10590Y24500D02*
X10738D01*
X8671Y41200D02*
X11700D01*
X8632Y41100D02*
X11700D01*
X8574Y41000D02*
X11700D01*
X8490Y40900D02*
X11700D01*
X8390Y40800D02*
X11700D01*
X8290Y40700D02*
X11700D01*
X8190Y40600D02*
X11700D01*
X8310Y37200D02*
X11700Y40590D01*
X8090Y40500D02*
X11610D01*
X7990Y40400D02*
X11510D01*
X7890Y40300D02*
X11410D01*
X7790Y40200D02*
X11310D01*
X7690Y40100D02*
X11210D01*
X7590Y40000D02*
X11110D01*
X7490Y39900D02*
X11010D01*
X7390Y39800D02*
X10910D01*
X7290Y39700D02*
X10810D01*
X7190Y39600D02*
X10710D01*
X7090Y39500D02*
X10610D01*
X6990Y39400D02*
X10510D01*
X6890Y39300D02*
X10410D01*
X6790Y39200D02*
X10310D01*
X8690Y34200D02*
X9500D01*
X8590Y34100D02*
X9500D01*
X8490Y34000D02*
X9500D01*
X6690Y39100D02*
X10210D01*
X6590Y39000D02*
X10110D01*
X6490Y38900D02*
X10010D01*
X6390Y38800D02*
X9910D01*
X6290Y38700D02*
X9810D01*
X6190Y38600D02*
X9710D01*
X6090Y38500D02*
X9610D01*
X5990Y38400D02*
X9510D01*
X8390Y33900D02*
X9500D01*
X8290Y33800D02*
X9500D01*
X8190Y33700D02*
X9500D01*
X8090Y33600D02*
X9500D01*
X6305Y31815D02*
X9500Y35010D01*
X7990Y33500D02*
X9500D01*
X5890Y38300D02*
X9410D01*
X5790Y38200D02*
X9310D01*
X5731Y38100D02*
X9210D01*
X5745Y38000D02*
X9110D01*
X5750Y37900D02*
X9010D01*
X5745Y37800D02*
X8910D01*
X5731Y37700D02*
X8810D01*
X5706Y37600D02*
X8710D01*
X7890Y33400D02*
X9500D01*
X7790Y33300D02*
X9500D01*
X7690Y33200D02*
X9500D01*
X7590Y33100D02*
X9500D01*
X7490Y33000D02*
X9500D01*
X7390Y32900D02*
X9500D01*
X7290Y32800D02*
X9500D01*
X7190Y32700D02*
X9500D01*
X7090Y32600D02*
X9500D01*
X6990Y32500D02*
X9500D01*
X6890Y32400D02*
X9500D01*
X6790Y32300D02*
X9500D01*
X6690Y32200D02*
X9500D01*
X6590Y32100D02*
X9500D01*
X6490Y32000D02*
X9500D01*
X6390Y31900D02*
X9500D01*
X575Y28800D02*
X12152D01*
X575Y28700D02*
X12252D01*
X575Y29000D02*
X11952D01*
X575Y28900D02*
X12052D01*
X575Y28400D02*
X12552D01*
X575Y28300D02*
X12652D01*
X575Y28600D02*
X12352D01*
X575Y28500D02*
X12452D01*
X575Y28000D02*
X12952D01*
X575Y27900D02*
X13052D01*
X575Y28200D02*
X12752D01*
X575Y28100D02*
X12852D01*
X575Y27600D02*
X13352D01*
X575Y27500D02*
X13452D01*
X575Y27800D02*
X13152D01*
X575Y27700D02*
X13252D01*
X575Y27200D02*
X13752D01*
X575Y27100D02*
X13852D01*
X575Y27400D02*
X13552D01*
X575Y27300D02*
X13652D01*
X575Y26800D02*
X14152D01*
X575Y26700D02*
X14252D01*
X575Y27000D02*
X13952D01*
X575Y26900D02*
X14052D01*
X575Y26400D02*
X14552D01*
X575Y26300D02*
X14652D01*
X575Y26600D02*
X14352D01*
X575Y26500D02*
X14452D01*
X575Y26000D02*
X14952D01*
X575Y25900D02*
X15052D01*
X575Y26200D02*
X14752D01*
X575Y26100D02*
X14852D01*
X3385Y31600D02*
X9508D01*
X3303Y31500D02*
X9534D01*
X6289Y31800D02*
X9500D01*
X6153Y31700D02*
X9500D01*
X3066Y31300D02*
X9653D01*
X2873Y31200D02*
X9752D01*
X8700Y25614D02*
Y34210D01*
X3200Y31400D02*
X9581D01*
X575Y30900D02*
X10052D01*
X575Y30800D02*
X10152D01*
X575Y31100D02*
X9852D01*
X575Y31000D02*
X9952D01*
X575Y30500D02*
X10452D01*
X575Y30400D02*
X10552D01*
X575Y30700D02*
X10252D01*
X575Y30600D02*
X10352D01*
X575Y30100D02*
X10852D01*
X575Y30000D02*
X10952D01*
X575Y30300D02*
X10652D01*
X575Y30200D02*
X10752D01*
X575Y29700D02*
X11252D01*
X575Y29600D02*
X11352D01*
X575Y29900D02*
X11052D01*
X575Y29800D02*
X11152D01*
X575Y29300D02*
X11652D01*
X575Y29200D02*
X11752D01*
X575Y29500D02*
X11452D01*
X575Y29400D02*
X11552D01*
X575Y29100D02*
X11852D01*
X575Y25800D02*
X9098D01*
X575Y25700D02*
X8839D01*
X575Y25600D02*
X8680D01*
X8500Y48723D02*
Y51150D01*
X8400Y48662D02*
Y51150D01*
X8300Y48583D02*
Y51150D01*
X8200Y48480D02*
Y51150D01*
X8100Y48341D02*
Y51150D01*
X8000Y48120D02*
Y51150D01*
X7900Y48000D02*
Y51150D01*
X7800Y48000D02*
Y51150D01*
X7700Y48000D02*
Y51150D01*
X7600Y48000D02*
Y51150D01*
X7500Y48000D02*
Y51150D01*
X7400Y48000D02*
Y51150D01*
X7300Y48000D02*
Y51150D01*
X7200Y48000D02*
Y51150D01*
X7100Y48000D02*
Y51150D01*
X7000Y48000D02*
Y51150D01*
X6900Y48000D02*
Y51150D01*
X8300Y45706D02*
Y46600D01*
X8200Y45731D02*
Y46600D01*
X8100Y45745D02*
Y46600D01*
X8000Y45750D02*
Y46600D01*
X8500Y45623D02*
Y46600D01*
X7900Y45745D02*
Y46600D01*
X7800Y45731D02*
Y46600D01*
X7700Y45706D02*
Y46600D01*
X4821Y48300D02*
X8077D01*
X5041Y48200D02*
X8029D01*
X6800Y48000D02*
Y51150D01*
X5180Y48100D02*
X7994D01*
X5283Y48000D02*
X7969D01*
X5283Y46600D02*
X8500D01*
X6700Y48000D02*
Y51150D01*
X6600Y48000D02*
Y51150D01*
X6500Y48000D02*
Y51150D01*
X6400Y48000D02*
Y51150D01*
X6300Y48000D02*
Y51150D01*
X6200Y48000D02*
Y51150D01*
X6100Y48000D02*
Y51150D01*
X6000Y48000D02*
Y51150D01*
X5900Y48000D02*
Y51150D01*
X5800Y48000D02*
Y51150D01*
X5700Y48000D02*
Y51150D01*
X5200Y48083D02*
Y51150D01*
X5100Y48162D02*
Y51150D01*
X5000Y48223D02*
Y51150D01*
X5600Y48000D02*
Y51150D01*
X5500Y48000D02*
Y51150D01*
X5400Y48000D02*
Y51150D01*
X5300Y48000D02*
Y51150D01*
X4900Y48271D02*
Y51150D01*
X4800Y48306D02*
Y51150D01*
X4700Y48331D02*
Y51150D01*
X4600Y48345D02*
Y51150D01*
X4500Y48350D02*
Y51150D01*
X4400Y48345D02*
Y51150D01*
X4300Y48331D02*
Y51150D01*
X4200Y48306D02*
Y51150D01*
X4100Y48271D02*
Y51150D01*
X4000Y48223D02*
Y51150D01*
X3900Y48162D02*
Y51150D01*
X3800Y48083D02*
Y51150D01*
X3700Y47980D02*
Y51150D01*
X3600Y47841D02*
Y51150D01*
X3500Y47620D02*
Y51150D01*
X8600Y45562D02*
Y46607D01*
X8400Y45671D02*
Y46600D01*
X7600Y45671D02*
Y46600D01*
X7500Y45623D02*
Y46600D01*
X7400Y45562D02*
Y46600D01*
X7300Y45483D02*
Y46600D01*
X7200Y45380D02*
Y46600D01*
X7100Y45241D02*
Y46600D01*
X7000Y45020D02*
Y46600D01*
X6900Y43945D02*
Y46600D01*
X6800Y43950D02*
Y46600D01*
X6700Y43945D02*
Y46600D01*
X6600Y43931D02*
Y46600D01*
X6500Y43906D02*
Y46600D01*
X6400Y43871D02*
Y46600D01*
X6300Y43823D02*
Y46600D01*
X6200Y43762D02*
Y46600D01*
X8600Y37490D02*
Y41039D01*
X8500Y37390D02*
Y40910D01*
X8400Y37290D02*
Y40810D01*
X8300Y37200D02*
Y40710D01*
X8200Y37200D02*
Y40610D01*
X8100Y37200D02*
Y40510D01*
X8000Y37200D02*
Y40410D01*
X7900Y37200D02*
Y40310D01*
X7100Y43906D02*
Y44159D01*
X7200Y43871D02*
Y44020D01*
X6100Y43683D02*
Y46600D01*
X7000Y43931D02*
Y44380D01*
X5724Y38134D02*
X8495Y40905D01*
X7800Y37200D02*
Y40210D01*
X7700Y37200D02*
Y40110D01*
X6000Y43580D02*
Y46600D01*
X5900Y43441D02*
Y46600D01*
X5800Y43220D02*
Y46600D01*
X5700Y41790D02*
Y46600D01*
X5600Y41690D02*
Y46600D01*
X5500Y41590D02*
Y46600D01*
X5400Y41490D02*
Y46600D01*
X5300Y41390D02*
Y46600D01*
X5200Y41290D02*
Y46517D01*
X5100Y41190D02*
Y46438D01*
X3800Y40380D02*
Y46517D01*
X3900Y40483D02*
Y46438D01*
X3600Y40020D02*
Y46759D01*
X3700Y40241D02*
Y46620D01*
X3400Y38000D02*
Y51150D01*
X3500Y37830D02*
Y46980D01*
X5900Y41990D02*
Y42359D01*
X6000Y42090D02*
Y42220D01*
X5000Y41090D02*
Y46377D01*
X5800Y41890D02*
Y42580D01*
X4900Y40990D02*
Y46329D01*
X4658Y40748D02*
X6063Y42153D01*
X4800Y40890D02*
Y46294D01*
X4700Y40790D02*
Y46269D01*
X4600Y40750D02*
Y46255D01*
X4500Y40745D02*
Y46250D01*
X4300Y40706D02*
Y46269D01*
X4400Y40731D02*
Y46255D01*
X4200Y40671D02*
Y46294D01*
X4000Y40562D02*
Y46377D01*
X4100Y40623D02*
Y46329D01*
X575Y48700D02*
X8459D01*
X575Y48600D02*
X8320D01*
X575Y48500D02*
X8217D01*
X575Y48400D02*
X8138D01*
X575Y48300D02*
X4179D01*
X575Y48200D02*
X3959D01*
X575Y48100D02*
X3820D01*
X575Y48000D02*
X3717D01*
X575Y47900D02*
X3638D01*
X575Y47800D02*
X3577D01*
X575Y47700D02*
X3529D01*
X575Y47600D02*
X3494D01*
X575Y46900D02*
X3529D01*
X575Y46600D02*
X3718D01*
X575Y46500D02*
X3820D01*
X575Y46800D02*
X3577D01*
X575Y46700D02*
X3638D01*
X575Y45700D02*
X7679D01*
X575Y45600D02*
X7459D01*
X575Y46400D02*
X3960D01*
X575Y46300D02*
X4181D01*
X575Y45500D02*
X7320D01*
X575Y45400D02*
X7217D01*
X575Y45300D02*
X7138D01*
X575Y45200D02*
X7077D01*
X575Y45100D02*
X7029D01*
X575Y45000D02*
X6994D01*
X575Y44900D02*
X6969D01*
X575Y44800D02*
X6955D01*
X575Y44700D02*
X6950D01*
X575Y44600D02*
X6955D01*
X575Y44500D02*
X6969D01*
X575Y44400D02*
X6994D01*
X575Y52800D02*
X1559D01*
X575Y52800D02*
X1559D01*
X1400Y52683D02*
Y52800D01*
X575Y52700D02*
X1420D01*
X1300Y52580D02*
Y52800D01*
X1200Y52441D02*
Y52800D01*
X1100Y52220D02*
Y52800D01*
X575Y52600D02*
X1317D01*
X575Y52500D02*
X1238D01*
X575Y52400D02*
X1177D01*
X575Y52300D02*
X1129D01*
X575Y52200D02*
X1094D01*
X575Y52100D02*
X1069D01*
X575Y52000D02*
X1055D01*
X575Y51900D02*
X1050D01*
X575Y51800D02*
X1055D01*
X575Y51500D02*
X1129D01*
X575Y51700D02*
X1069D01*
X575Y51600D02*
X1094D01*
X575Y51200D02*
X1318D01*
X575Y51100D02*
X1420D01*
X575Y51400D02*
X1177D01*
X575Y51300D02*
X1238D01*
X575Y47500D02*
X3469D01*
X575Y47400D02*
X3455D01*
X575Y51000D02*
X1560D01*
X575Y50900D02*
X1781D01*
X575Y47300D02*
X3450D01*
X575Y47200D02*
X3455D01*
X575Y47100D02*
X3469D01*
X575Y47000D02*
X3494D01*
X575Y44100D02*
X7138D01*
X575Y44000D02*
X7218D01*
X575Y44300D02*
X7029D01*
X575Y44200D02*
X7077D01*
X575Y43900D02*
X6479D01*
X575Y43800D02*
X6259D01*
X575Y43700D02*
X6120D01*
X575Y43600D02*
X6017D01*
X575Y43500D02*
X5938D01*
X575Y43400D02*
X5877D01*
X575Y43300D02*
X5829D01*
X575Y43200D02*
X5794D01*
X575Y43100D02*
X5769D01*
X575Y43000D02*
X5755D01*
X575Y42900D02*
X5750D01*
X575Y42800D02*
X5755D01*
X575Y42700D02*
X5769D01*
X575Y42400D02*
X5877D01*
X575Y42600D02*
X5794D01*
X575Y42500D02*
X5829D01*
X575Y42300D02*
X5938D01*
X575Y42200D02*
X6018D01*
X575Y42100D02*
X6010D01*
X575Y42000D02*
X5910D01*
X575Y41900D02*
X5810D01*
X575Y41800D02*
X5710D01*
X575Y41700D02*
X5610D01*
X575Y41600D02*
X5510D01*
X575Y41500D02*
X5410D01*
X575Y41400D02*
X5310D01*
X575Y41300D02*
X5210D01*
X575Y41200D02*
X5110D01*
X2900Y38409D02*
Y51150D01*
X2800Y38448D02*
Y51117D01*
X2700Y38477D02*
Y51038D01*
X2600Y38496D02*
Y50977D01*
X3300Y38124D02*
Y51150D01*
X3200Y38221D02*
Y51150D01*
X3100Y38298D02*
Y51150D01*
X3000Y38360D02*
Y51150D01*
X2500Y38507D02*
Y50929D01*
X2400Y38510D02*
Y50894D01*
X1700Y38271D02*
Y50929D01*
X2300Y38504D02*
Y50869D01*
X1500Y38083D02*
Y51038D01*
X1600Y38188D02*
Y50977D01*
X1300Y37745D02*
Y51220D01*
X1400Y37945D02*
Y51117D01*
X575Y41100D02*
X5010D01*
X575Y41000D02*
X4910D01*
X2200Y38490D02*
Y50855D01*
X575Y40900D02*
X4810D01*
X2100Y38467D02*
Y50850D01*
X2000Y38435D02*
Y50855D01*
X1900Y38393D02*
Y50869D01*
X1800Y38339D02*
Y50894D01*
X575Y40800D02*
X4710D01*
X575Y40700D02*
X4279D01*
X575Y40600D02*
X4059D01*
X575Y40500D02*
X3920D01*
X575Y40400D02*
X3817D01*
X575Y40300D02*
X3738D01*
X575Y40200D02*
X3677D01*
X575Y40100D02*
X3629D01*
X7600Y37200D02*
Y40010D01*
X7500Y37200D02*
Y39910D01*
X7400Y37200D02*
Y39810D01*
X7300Y37200D02*
Y39710D01*
X7200Y37200D02*
Y39610D01*
X7100Y37200D02*
Y39510D01*
X7000Y37200D02*
Y39410D01*
X6900Y37200D02*
Y39310D01*
X6800Y37200D02*
Y39210D01*
X5671Y37500D02*
X8610D01*
X5623Y37400D02*
X8510D01*
X6700Y37200D02*
Y39110D01*
X5562Y37300D02*
X8410D01*
X5483Y37200D02*
X8310D01*
X3228Y35800D02*
X8310D01*
X6600Y37200D02*
Y39010D01*
X6500Y37200D02*
Y38910D01*
X8200Y35690D02*
Y35800D01*
X8100Y35590D02*
Y35800D01*
X8000Y35490D02*
Y35800D01*
X7900Y35390D02*
Y35800D01*
X7800Y35290D02*
Y35800D01*
X7700Y35190D02*
Y35800D01*
X7600Y35090D02*
Y35800D01*
X7500Y34990D02*
Y35800D01*
X7400Y34890D02*
Y35800D01*
X7300Y34790D02*
Y35800D01*
X7200Y34690D02*
Y35800D01*
X7100Y34590D02*
Y35800D01*
X7000Y34490D02*
Y35800D01*
X6900Y34390D02*
Y35800D01*
X6800Y34290D02*
Y35800D01*
X6700Y34190D02*
Y35800D01*
X6400Y37200D02*
Y38810D01*
X6300Y37200D02*
Y38710D01*
X6200Y37200D02*
Y38610D01*
X6100Y37200D02*
Y38510D01*
X6000Y37200D02*
Y38410D01*
X5900Y37200D02*
Y38310D01*
X5800Y37200D02*
Y38210D01*
X3900Y38580D02*
Y38917D01*
X4000Y38683D02*
Y38838D01*
X3800Y38441D02*
Y39020D01*
X3097Y38300D02*
X3729D01*
X3700Y38220D02*
Y39159D01*
X3600Y37519D02*
Y39380D01*
X3224Y38200D02*
X3694D01*
X5700Y37200D02*
Y37580D01*
X3618Y37300D02*
X3838D01*
X3553Y37700D02*
X3669D01*
X3583Y37600D02*
X3694D01*
X5600Y37200D02*
Y37359D01*
X3700Y37200D02*
Y37580D01*
X3800Y37200D02*
Y37359D01*
X3322Y38100D02*
X3669D01*
X3400Y38000D02*
X3655D01*
X3463Y37900D02*
X3650D01*
X3514Y37800D02*
X3655D01*
X3615Y37400D02*
X3777D01*
X3613Y37200D02*
X3917D01*
X3603Y37500D02*
X3729D01*
X6600Y34090D02*
Y35800D01*
X6500Y33990D02*
Y35800D01*
X6400Y33890D02*
Y35800D01*
X6300Y33790D02*
Y35800D01*
X6200Y33690D02*
Y35800D01*
X6100Y33590D02*
Y35800D01*
X6000Y33490D02*
Y35800D01*
X5900Y33390D02*
Y35800D01*
X5800Y33290D02*
Y35800D01*
X5520Y33010D02*
X8310Y35800D01*
X5700Y33190D02*
Y35800D01*
X5600Y33090D02*
Y35800D01*
X5500Y33010D02*
Y35800D01*
X5400Y33010D02*
Y35800D01*
X5300Y33010D02*
Y35800D01*
X5200Y33010D02*
Y35800D01*
X5100Y33010D02*
Y35800D01*
X8600Y25534D02*
Y34110D01*
X5000Y33010D02*
Y35800D01*
X8500Y25434D02*
Y34010D01*
X8400Y25304D02*
Y33910D01*
X8300Y25122D02*
Y33810D01*
X8200Y24706D02*
Y33710D01*
X3097Y33300D02*
X5810D01*
X3224Y33200D02*
X5710D01*
X4900Y33010D02*
Y35800D01*
X3322Y33100D02*
X5610D01*
X3393Y31610D02*
X5810D01*
X4174Y24500D02*
X8206D01*
X4800Y33010D02*
Y35800D01*
X3393Y33010D02*
X5520D01*
X4700D02*
Y35800D01*
X4600Y33010D02*
Y35800D01*
X4500Y33010D02*
Y35800D01*
X4400Y33010D02*
Y35800D01*
X4300Y33010D02*
Y35800D01*
X4200Y33010D02*
Y35800D01*
X4100Y33010D02*
Y35800D01*
X4000Y33010D02*
Y35800D01*
X3900Y33010D02*
Y35800D01*
X3800Y33010D02*
Y35800D01*
X3300Y33124D02*
Y35800D01*
X3200Y33221D02*
Y35801D01*
X3700Y33010D02*
Y35800D01*
X3600Y33010D02*
Y35800D01*
X3500Y33010D02*
Y35800D01*
X3400Y33010D02*
Y35800D01*
X4300Y24479D02*
Y31610D01*
X4200Y24496D02*
Y31610D01*
X4100Y24510D02*
Y31610D01*
X3600Y24549D02*
Y31610D01*
X4000Y24522D02*
Y31610D01*
X3900Y24532D02*
Y31610D01*
X3800Y24540D02*
Y31610D01*
X3700Y24546D02*
Y31610D01*
X3500Y24550D02*
Y31610D01*
X3400Y24549D02*
Y31610D01*
X3100Y33298D02*
Y35812D01*
X3000Y33360D02*
Y35838D01*
X3300Y24546D02*
Y31496D01*
X3200Y24540D02*
Y31400D01*
X3100Y24532D02*
Y31323D01*
X3000Y24522D02*
Y31261D01*
X575Y40000D02*
X3594D01*
X575Y39900D02*
X3569D01*
X575Y39800D02*
X3555D01*
X575Y39700D02*
X3550D01*
X575Y39600D02*
X3555D01*
X2576Y38500D02*
X3838D01*
X2921Y38400D02*
X3777D01*
X575Y39300D02*
X3629D01*
X575Y39000D02*
X3818D01*
X575Y38900D02*
X3920D01*
X575Y39200D02*
X3677D01*
X575Y39100D02*
X3738D01*
X575Y38800D02*
X4060D01*
X575Y35800D02*
X8310D01*
X575Y38700D02*
X4020D01*
X575Y38600D02*
X3917D01*
X575Y35700D02*
X8210D01*
X575Y35600D02*
X8110D01*
X575Y35500D02*
X8010D01*
X575Y35400D02*
X7910D01*
X575Y35300D02*
X7810D01*
X575Y35200D02*
X7710D01*
X575Y35100D02*
X7610D01*
X575Y35000D02*
X7510D01*
X575Y34900D02*
X7410D01*
X575Y34800D02*
X7310D01*
X575Y34700D02*
X7210D01*
X575Y34600D02*
X7110D01*
X575Y34500D02*
X7010D01*
X575Y34400D02*
X6910D01*
X575Y34300D02*
X6810D01*
X575Y34200D02*
X6710D01*
X575Y39500D02*
X3569D01*
X575Y39400D02*
X3594D01*
X575Y38500D02*
X2260D01*
X575Y38400D02*
X1915D01*
X575Y38300D02*
X1739D01*
X575Y38200D02*
X1613D01*
X575Y38100D02*
X1515D01*
X575Y38000D02*
X1436D01*
X575Y37900D02*
X1373D01*
X575Y37800D02*
X1323D01*
X575Y37700D02*
X1283D01*
X575Y37600D02*
X1254D01*
X575Y37500D02*
X1233D01*
X575Y37400D02*
X1222D01*
X575Y37300D02*
X1218D01*
X575Y37200D02*
X1223D01*
X575Y36900D02*
X1291D01*
X575Y36800D02*
X1332D01*
X575Y37100D02*
X1237D01*
X575Y37000D02*
X1259D01*
X575Y36700D02*
X1385D01*
X2612Y36126D02*
X2733Y36005D01*
X575Y36400D02*
X1636D01*
X575Y36300D02*
X1771D01*
X575Y36600D02*
X1451D01*
X575Y36500D02*
X1533D01*
X575Y36000D02*
X2739D01*
X575Y35900D02*
X2868D01*
X575Y36200D02*
X1963D01*
X575Y36100D02*
X2639D01*
X2700Y33477D02*
Y36039D01*
X2576Y33500D02*
X6010D01*
X2600Y33496D02*
Y36124D01*
X2500Y33507D02*
Y36113D01*
X2800Y33448D02*
Y35946D01*
X2900Y33409D02*
Y35882D01*
X2400Y33510D02*
Y36110D01*
X2300Y33504D02*
Y36116D01*
X575Y34100D02*
X6610D01*
X575Y34000D02*
X6510D01*
X575Y33900D02*
X6410D01*
X575Y33800D02*
X6310D01*
X575Y33700D02*
X6210D01*
X575Y33600D02*
X6110D01*
X2200Y33490D02*
Y36130D01*
X575Y25500D02*
X8563D01*
X575Y25400D02*
X8471D01*
X575Y33500D02*
X2260D01*
X2921Y33400D02*
X5910D01*
X2900Y24510D02*
Y31211D01*
X575Y25300D02*
X8397D01*
X2800Y24496D02*
Y31173D01*
X2700Y24479D02*
Y31144D01*
X575Y25200D02*
X8338D01*
X575Y25100D02*
X8290D01*
X575Y25000D02*
X8254D01*
X575Y24900D02*
X8227D01*
X575Y24800D02*
X8209D01*
X575Y24700D02*
X8200D01*
X575Y24600D02*
X8199D01*
X575Y24500D02*
X2826D01*
X2000Y33435D02*
Y36185D01*
X2100Y33467D02*
Y36153D01*
X1800Y33339D02*
Y36282D01*
X1900Y33393D02*
Y36228D01*
X1600Y33188D02*
Y36432D01*
X1700Y33271D02*
Y36349D01*
X1400Y32945D02*
Y36675D01*
X1500Y33083D02*
Y36538D01*
X575Y33400D02*
X1915D01*
X575Y33300D02*
X1739D01*
X575Y33200D02*
X1613D01*
X575Y33100D02*
X1515D01*
X575Y33000D02*
X1436D01*
X575Y32900D02*
X1373D01*
X1300Y32745D02*
Y36875D01*
X575Y32800D02*
X1323D01*
X575Y32700D02*
X1283D01*
X575Y32600D02*
X1254D01*
X575Y32500D02*
X1233D01*
X575Y32400D02*
X1222D01*
X575Y32300D02*
X1218D01*
X575Y32200D02*
X1223D01*
X575Y32100D02*
X1237D01*
X575Y32000D02*
X1259D01*
X575Y31700D02*
X1385D01*
X575Y31600D02*
X1451D01*
X575Y31900D02*
X1291D01*
X575Y31800D02*
X1332D01*
X575Y31300D02*
X1771D01*
X575Y31200D02*
X1963D01*
X575Y31500D02*
X1533D01*
X575Y31400D02*
X1636D01*
X16531Y23800D02*
X17050D01*
X16545Y23700D02*
X17050D01*
X16550Y23600D02*
X17050D01*
X16545Y23500D02*
X17050D01*
X16531Y23400D02*
X17050D01*
Y21800D02*
Y25100D01*
X17000Y21800D02*
Y25100D01*
X16900Y21800D02*
Y25100D01*
X16800Y21800D02*
Y25100D01*
X16283Y24300D02*
X17050D01*
X16362Y24200D02*
X17050D01*
X16423Y24100D02*
X17050D01*
X16471Y24000D02*
X17050D01*
X16506Y23900D02*
X17050D01*
X16506Y23300D02*
X17050D01*
X16471Y23200D02*
X17050D01*
X16423Y23100D02*
X17050D01*
X18643Y14600D02*
X22980D01*
X18543Y14500D02*
X22910D01*
X18443Y14400D02*
X22851D01*
X18343Y14300D02*
X22803D01*
X18243Y14200D02*
X22763D01*
X18143Y14100D02*
X22732D01*
X16362Y23000D02*
X17050D01*
X16282Y22900D02*
X17050D01*
X16180Y22800D02*
X17050D01*
X16040Y22700D02*
X17050D01*
X15819Y22600D02*
X17050D01*
Y15693D02*
Y20400D01*
X17000Y15643D02*
Y20400D01*
X16900Y15543D02*
Y20400D01*
X16700Y21800D02*
Y25100D01*
X16500Y23920D02*
Y25100D01*
X16400Y24141D02*
Y25100D01*
X16300Y24280D02*
Y25100D01*
X16600Y21800D02*
Y25100D01*
X16500Y21800D02*
Y23279D01*
X16400Y21800D02*
Y23059D01*
X16300Y21800D02*
Y22920D01*
X16200Y21800D02*
Y22817D01*
X16100Y21800D02*
Y22738D01*
X16000Y21800D02*
Y22677D01*
X15900Y21800D02*
Y22629D01*
X15800Y21800D02*
Y22594D01*
X15700Y21800D02*
Y22569D01*
X15600Y21800D02*
Y22555D01*
X15500Y21800D02*
Y22550D01*
X16800Y15443D02*
Y20400D01*
X16700Y15343D02*
Y20400D01*
X16600Y15243D02*
Y20400D01*
X16500Y15143D02*
Y20400D01*
X16400Y15043D02*
Y20400D01*
X16300Y14943D02*
Y20400D01*
X16200Y14843D02*
Y20400D01*
X16100Y14743D02*
Y20400D01*
X16000Y14643D02*
Y20400D01*
X15900Y14543D02*
Y20400D01*
X15400Y21800D02*
Y22555D01*
X15300Y21800D02*
Y22569D01*
X15800Y14443D02*
Y20400D01*
X15700Y14343D02*
Y20400D01*
X15600Y14243D02*
Y20400D01*
X15500Y14143D02*
Y20400D01*
X18043Y14000D02*
X22708D01*
X17943Y13900D02*
X22692D01*
X17843Y13800D02*
X22682D01*
X17743Y13700D02*
X22680D01*
X17643Y13600D02*
X22685D01*
X18600Y11368D02*
Y14556D01*
X18500Y11368D02*
Y14456D01*
X18400Y11368D02*
Y14356D01*
X18300Y11368D02*
Y14256D01*
X17543Y13500D02*
X22696D01*
X17243Y13200D02*
X22775D01*
X17443Y13400D02*
X22715D01*
X17343Y13300D02*
X22741D01*
X17043Y13000D02*
X22869D01*
X16943Y12900D02*
X22932D01*
X15872Y11828D02*
X18672Y14628D01*
X17143Y13100D02*
X22817D01*
X16643Y12600D02*
X23204D01*
X16543Y12500D02*
X23340D01*
X16843Y12800D02*
X23006D01*
X16743Y12700D02*
X23096D01*
X16443Y12400D02*
X23522D01*
X17121Y11500D02*
X23022D01*
X17341Y11400D02*
X22958D01*
X17391Y11368D02*
X22940D01*
X16243Y12200D02*
X34425D01*
X16143Y12100D02*
X23981D01*
X16343Y12300D02*
X23819D01*
X16043Y12000D02*
X23637D01*
X15943Y11900D02*
X23445D01*
X15842Y11800D02*
X23304D01*
X15712Y11700D02*
X23191D01*
X15504Y11600D02*
X23099D01*
X18200Y11368D02*
Y14156D01*
X18100Y11368D02*
Y14056D01*
X18000Y11368D02*
Y13956D01*
X17900Y11368D02*
Y13856D01*
X17800Y11368D02*
Y13756D01*
X17700Y11368D02*
Y13656D01*
X17600Y11368D02*
Y13556D01*
X17500Y11368D02*
Y13456D01*
X17100Y11506D02*
Y13056D01*
X17000Y11531D02*
Y12956D01*
X15400Y14043D02*
Y20400D01*
X15300Y13943D02*
Y20400D01*
X17400Y11368D02*
Y13356D01*
X17300Y11423D02*
Y13256D01*
X17200Y11471D02*
Y13156D01*
X16900Y11545D02*
Y12856D01*
X16800Y11550D02*
Y12756D01*
X16700Y11545D02*
Y12656D01*
X16600Y11531D02*
Y12556D01*
X16500Y11506D02*
Y12456D01*
X16400Y11471D02*
Y12356D01*
X16300Y11423D02*
Y12256D01*
X16200Y11362D02*
Y12156D01*
X16100Y11283D02*
Y12056D01*
X16000Y11180D02*
Y11956D01*
X15900Y11041D02*
Y11856D01*
X15800Y10820D02*
Y11763D01*
X15700Y7315D02*
Y11692D01*
X15600Y7381D02*
Y11638D01*
X15500Y7434D02*
Y11599D01*
X15400Y7476D02*
Y11571D01*
X12011Y22300D02*
X17050D01*
X11773Y22400D02*
X17050D01*
X12156Y22200D02*
X17050D01*
X12262Y22100D02*
X17050D01*
X12343Y22000D02*
X17050D01*
X12406Y21900D02*
X17050D01*
X12455Y21800D02*
X17050D01*
X11841Y20400D02*
X17050D01*
X11842Y20400D02*
X17050D01*
X7302Y22500D02*
X17050D01*
X8040Y20300D02*
X17050D01*
X8046Y20200D02*
X17050D01*
X8049Y20100D02*
X17050D01*
X8050Y20000D02*
X17050D01*
X8049Y19900D02*
X17050D01*
X8046Y19800D02*
X17050D01*
X8040Y19700D02*
X17050D01*
X8032Y19600D02*
X17050D01*
X8022Y19500D02*
X17050D01*
X8010Y19400D02*
X17050D01*
X7996Y19300D02*
X17050D01*
X7979Y19200D02*
X17050D01*
X7960Y19100D02*
X17050D01*
X7939Y19000D02*
X17050D01*
X7915Y18900D02*
X17050D01*
X7889Y18800D02*
X17050D01*
X7860Y18700D02*
X17050D01*
X7829Y18600D02*
X17050D01*
X7796Y18500D02*
X17050D01*
X7759Y18400D02*
X17050D01*
X7720Y18300D02*
X17050D01*
X7679Y18200D02*
X17050D01*
X7634Y18100D02*
X17050D01*
X14800Y24383D02*
Y26152D01*
X14600Y24390D02*
Y26352D01*
X14590Y24400D02*
X14820D01*
X14800Y21800D02*
Y22817D01*
X14700Y21800D02*
Y22900D01*
X14600Y21800D02*
Y22900D01*
X13857Y25133D02*
X14690Y24300D01*
X14400Y22900D02*
X14717D01*
X7006Y22900D02*
X14718D01*
X7087Y22800D02*
X14820D01*
X14500Y21800D02*
Y22900D01*
X14400Y21800D02*
Y22900D01*
X15100Y21800D02*
Y22629D01*
X15200Y21800D02*
Y22594D01*
X14900Y21800D02*
Y22738D01*
X15000Y21800D02*
Y22677D01*
X7587Y18000D02*
X17050D01*
X7536Y17900D02*
X17050D01*
X7483Y17800D02*
X17050D01*
X7426Y17700D02*
X17050D01*
X7365Y17600D02*
X17050D01*
X7302Y17500D02*
X17050D01*
X7162Y22700D02*
X14960D01*
X7234Y22600D02*
X15181D01*
X7234Y17400D02*
X17050D01*
X7162Y17300D02*
X17050D01*
X7086Y17200D02*
X17050D01*
X7006Y17100D02*
X17050D01*
X6921Y17000D02*
X17050D01*
X6830Y16900D02*
X17050D01*
X6734Y16800D02*
X17050D01*
X6632Y16700D02*
X17050D01*
X6523Y16600D02*
X17050D01*
X6407Y16500D02*
X17050D01*
X6282Y16400D02*
X17050D01*
X14807Y13450D02*
X17050Y15693D01*
X6148Y16300D02*
X17050D01*
X6002Y16200D02*
X17050D01*
X5843Y16100D02*
X17050D01*
X5668Y16000D02*
X17050D01*
X5473Y15900D02*
X17050D01*
X5250Y15800D02*
X17050D01*
X4987Y15700D02*
X17050D01*
X4658Y15600D02*
X16956D01*
X4171Y15500D02*
X16856D01*
X575Y15400D02*
X16756D01*
X575Y15300D02*
X16656D01*
X575Y15200D02*
X16556D01*
X575Y15100D02*
X16456D01*
X12820Y11500D02*
X16479D01*
X575Y15000D02*
X16356D01*
X575Y14900D02*
X16256D01*
X575Y14800D02*
X16156D01*
X575Y14700D02*
X16056D01*
X575Y14600D02*
X15956D01*
X575Y11400D02*
X16259D01*
X575Y11300D02*
X16120D01*
X575Y14500D02*
X15856D01*
X575Y11200D02*
X16017D01*
X15200Y13843D02*
Y20400D01*
X15100Y13743D02*
Y20400D01*
X15000Y13643D02*
Y20400D01*
X14900Y13543D02*
Y20400D01*
X14800Y13450D02*
Y20400D01*
X14700Y13450D02*
Y20400D01*
X14600Y13450D02*
Y20400D01*
X14500Y13450D02*
Y20400D01*
X575Y14400D02*
X15756D01*
X575Y14300D02*
X15656D01*
X575Y14200D02*
X15556D01*
X575Y14100D02*
X15456D01*
X575Y14000D02*
X15356D01*
X575Y13900D02*
X15256D01*
X14400Y13450D02*
Y20400D01*
X575Y13800D02*
X15156D01*
X15300Y7508D02*
Y11555D01*
X15200Y7531D02*
Y11550D01*
X15100Y7545D02*
Y11550D01*
X15000Y7550D02*
Y11550D01*
X14900Y7547D02*
Y11550D01*
X14800Y7535D02*
Y11550D01*
X14700Y7515D02*
Y11550D01*
X575Y13700D02*
X15056D01*
X575Y13600D02*
X14956D01*
X12821Y13500D02*
X14856D01*
X12947Y13450D02*
X14807D01*
X12947Y11550D02*
X15200D01*
X14600Y7486D02*
Y11550D01*
X14500Y7447D02*
Y11550D01*
X14400Y7397D02*
Y11550D01*
X18200Y7343D02*
Y9968D01*
X18100Y7404D02*
Y9968D01*
X18107Y7400D02*
X19485D01*
X18000Y7452D02*
Y9968D01*
X17900Y7490D02*
Y9968D01*
X18600Y6885D02*
Y9968D01*
X18500Y7051D02*
Y9968D01*
X18400Y7172D02*
Y9968D01*
X18300Y7267D02*
Y9968D01*
X17582Y9800D02*
X23049D01*
X17480Y9700D02*
X23131D01*
X17705Y9968D02*
X22940D01*
X17662Y9900D02*
X22980D01*
X17341Y9600D02*
X23229D01*
X17120Y9500D02*
X23351D01*
X17869Y7500D02*
X19723D01*
X18463Y7100D02*
X19129D01*
X18535Y7000D02*
X19057D01*
X18593Y6900D02*
X18999D01*
X18639Y6800D02*
X18954D01*
X18592Y5800D02*
X19000D01*
X18463Y5600D02*
X19129D01*
X18674Y6700D02*
X18918D01*
X18535Y5700D02*
X19057D01*
X18259Y7300D02*
X19333D01*
X18259Y5400D02*
X19333D01*
X18373Y7200D02*
X19219D01*
X18373Y5500D02*
X19219D01*
X17868Y5200D02*
X19724D01*
X17682Y5000D02*
X19910D01*
X18107Y5300D02*
X19485D01*
X18000Y4912D02*
Y5248D01*
X17800Y7518D02*
Y9968D01*
X17700Y7537D02*
Y9959D01*
X17600Y7548D02*
Y9820D01*
X17500Y7550D02*
Y9717D01*
X17400Y7543D02*
Y9638D01*
X17300Y7529D02*
Y9577D01*
X17200Y7505D02*
Y9529D01*
X17100Y7472D02*
Y9494D01*
X17000Y7429D02*
Y9469D01*
X16900Y7374D02*
Y9455D01*
X16800Y7305D02*
Y9450D01*
X16700Y7220D02*
Y9455D01*
X16600Y7113D02*
Y9469D01*
X16500Y6972D02*
Y9494D01*
X16100Y6796D02*
Y9717D01*
X16400Y6765D02*
Y9529D01*
X16134Y6700D02*
X16378D01*
X16160Y6600D02*
X16352D01*
X16185Y6400D02*
X16327D01*
X16185Y6300D02*
X16327D01*
X17700Y4997D02*
Y5163D01*
X17600Y5008D02*
Y5152D01*
X17500Y5010D02*
Y5150D01*
X17400Y5003D02*
Y5157D01*
X16053Y6900D02*
X16459D01*
X16098Y6800D02*
X16413D01*
X16177Y6500D02*
X16335D01*
X16177Y6200D02*
X16335D01*
X16160Y6100D02*
X16352D01*
X16052Y5800D02*
X16460D01*
X16134Y6000D02*
X16378D01*
X16098Y5900D02*
X16414D01*
X18500Y4511D02*
Y5649D01*
X18331Y4700D02*
X19261D01*
X18429Y4600D02*
X19163D01*
X18400Y4632D02*
Y5528D01*
X18300Y4727D02*
Y5433D01*
X18508Y4500D02*
X19084D01*
X18493Y3100D02*
X19099D01*
X18571Y4400D02*
X19021D01*
X18559Y3200D02*
X19033D01*
X18100Y4864D02*
Y5296D01*
X17900Y4950D02*
Y5210D01*
X17800Y4978D02*
Y5182D01*
X17300Y4989D02*
Y5171D01*
X18028Y4900D02*
X19564D01*
X18204Y4800D02*
X19388D01*
X18200Y4803D02*
Y5357D01*
X18308Y2900D02*
X19284D01*
X18174Y2800D02*
X19418D01*
X18500Y575D02*
Y3109D01*
X18411Y3000D02*
X19181D01*
X18400Y575D02*
Y2988D01*
X18300Y575D02*
Y2893D01*
X18200Y575D02*
Y2817D01*
X18100Y575D02*
Y2756D01*
X17982Y2700D02*
X19610D01*
X18000Y575D02*
Y2708D01*
X17900Y575D02*
Y2670D01*
X17800Y575D02*
Y2642D01*
X17700Y575D02*
Y2623D01*
X17600Y575D02*
Y2612D01*
X17500Y575D02*
Y2610D01*
X17400Y575D02*
Y2617D01*
X17100Y4932D02*
Y5228D01*
X17200Y4965D02*
Y5195D01*
X16900Y4834D02*
Y5326D01*
X17000Y4889D02*
Y5271D01*
X16700Y4680D02*
Y5480D01*
X16800Y4765D02*
Y5395D01*
X16500Y4432D02*
Y5728D01*
X16600Y4573D02*
Y5587D01*
X16400Y4225D02*
Y5935D01*
X16121Y4200D02*
X16391D01*
X16100Y4256D02*
Y5904D01*
X16150Y4100D02*
X16362D01*
X16171Y4000D02*
X16341D01*
X16183Y3900D02*
X16329D01*
X16200Y575D02*
Y9638D01*
X16300Y575D02*
Y9577D01*
X17200Y575D02*
Y2655D01*
X17300Y575D02*
Y2632D01*
X17000Y575D02*
Y2731D01*
X17100Y575D02*
Y2688D01*
X16800Y575D02*
Y2855D01*
X16900Y575D02*
Y2786D01*
X16600Y575D02*
Y3047D01*
X16700Y575D02*
Y2940D01*
X16167Y3600D02*
X16345D01*
X16145Y3500D02*
X16367D01*
X16186Y3800D02*
X16326D01*
X16181Y3700D02*
X16331D01*
X16114Y3400D02*
X16398D01*
X16500Y575D02*
Y3188D01*
X16400Y575D02*
Y3395D01*
X16100Y575D02*
Y3364D01*
X575Y9200D02*
X34425D01*
X575Y9100D02*
X34425D01*
X575Y9000D02*
X34425D01*
X575Y9400D02*
X23507D01*
X575Y9300D02*
X23730D01*
X575Y8900D02*
X34425D01*
X575Y8800D02*
X34425D01*
X575Y8700D02*
X34425D01*
X575Y8600D02*
X34425D01*
X575Y8500D02*
X34425D01*
X575Y8400D02*
X34425D01*
X575Y8300D02*
X34425D01*
X575Y8200D02*
X34425D01*
X575Y8100D02*
X34425D01*
X575Y8000D02*
X34425D01*
X575Y7900D02*
X34425D01*
X575Y7800D02*
X34425D01*
X15719Y7300D02*
X16793D01*
X15833Y7200D02*
X16679D01*
X15923Y7100D02*
X16589D01*
X15995Y7000D02*
X16517D01*
X15833Y5500D02*
X16679D01*
X15719Y5400D02*
X16793D01*
X15995Y5700D02*
X16517D01*
X15923Y5600D02*
X16589D01*
X575Y7700D02*
X34425D01*
X575Y7600D02*
X34425D01*
X15329Y7500D02*
X17183D01*
X15567Y7400D02*
X16945D01*
X575Y5100D02*
X34425D01*
X15142Y5000D02*
X17370D01*
X15567Y5300D02*
X16945D01*
X15328Y5200D02*
X17184D01*
X575Y11100D02*
X15938D01*
X575Y11000D02*
X15877D01*
X575Y10900D02*
X15829D01*
X575Y10800D02*
X15794D01*
X15900Y7128D02*
Y9959D01*
X16000Y6992D02*
Y9820D01*
X575Y10700D02*
X15769D01*
X15800Y7232D02*
Y10180D01*
X575Y10600D02*
X15755D01*
X575Y10500D02*
X15750D01*
X575Y10400D02*
X15755D01*
X575Y10300D02*
X15769D01*
X575Y10000D02*
X15877D01*
X575Y9900D02*
X15938D01*
X575Y10200D02*
X15794D01*
X575Y10100D02*
X15829D01*
X15200Y4991D02*
Y5169D01*
X15100Y5005D02*
Y5155D01*
X15000Y5010D02*
Y5150D01*
X15400Y4936D02*
Y5224D01*
X15300Y4968D02*
Y5192D01*
X14900Y5007D02*
Y5153D01*
X14800Y4995D02*
Y5165D01*
X575Y9600D02*
X16259D01*
X575Y9500D02*
X16480D01*
X575Y9800D02*
X16018D01*
X575Y9700D02*
X16120D01*
X12789Y7500D02*
X14643D01*
X12602Y5000D02*
X14830D01*
X13027Y7400D02*
X14405D01*
X12788Y5200D02*
X14644D01*
X15664Y4800D02*
X16848D01*
X15791Y4700D02*
X16721D01*
X15889Y4600D02*
X16623D01*
X15968Y4500D02*
X16544D01*
X15768Y2900D02*
X16744D01*
X15634Y2800D02*
X16878D01*
X15953Y3100D02*
X16559D01*
X15871Y3000D02*
X16641D01*
X575Y2600D02*
X34425D01*
X575Y2500D02*
X34425D01*
X15488Y4900D02*
X17024D01*
X15442Y2700D02*
X17070D01*
X575Y2400D02*
X34425D01*
X575Y2300D02*
X34425D01*
X575Y2200D02*
X34425D01*
X575Y2100D02*
X34425D01*
X575Y2000D02*
X34425D01*
X575Y1900D02*
X34425D01*
X575Y1800D02*
X34425D01*
X575Y1700D02*
X34425D01*
X575Y1600D02*
X34425D01*
X575Y1500D02*
X34425D01*
X575Y1400D02*
X34425D01*
X575Y1300D02*
X34425D01*
X575Y1200D02*
X34425D01*
X575Y1100D02*
X34425D01*
X575Y1000D02*
X34425D01*
X575Y900D02*
X34425D01*
X575Y800D02*
X34425D01*
X575Y700D02*
X34425D01*
X575Y600D02*
X34425D01*
X575Y575D02*
X34425D01*
X16000Y4452D02*
Y5708D01*
X16031Y4400D02*
X16481D01*
X15900Y4588D02*
Y5572D01*
X15800Y4692D02*
Y5468D01*
X16081Y4300D02*
X16431D01*
X16072Y3300D02*
X16440D01*
X16019Y3200D02*
X16493D01*
X16000Y575D02*
Y3168D01*
X15600Y4841D02*
Y5319D01*
X14700Y4975D02*
Y5185D01*
X14500Y4907D02*
Y5253D01*
X14600Y4946D02*
Y5214D01*
X15700Y4775D02*
Y5385D01*
X15500Y4894D02*
Y5266D01*
X12948Y4900D02*
X14484D01*
X15900Y575D02*
Y3032D01*
X15800Y575D02*
Y2928D01*
X15700Y575D02*
Y2845D01*
X15600Y575D02*
Y2779D01*
X15500Y575D02*
Y2726D01*
X15400Y575D02*
Y2684D01*
X15300Y575D02*
Y2652D01*
X15200Y575D02*
Y2629D01*
X15100Y575D02*
Y2615D01*
X15000Y575D02*
Y2610D01*
X12902Y2700D02*
X14530D01*
X14900Y575D02*
Y2613D01*
X14700Y575D02*
Y2645D01*
X14800Y575D02*
Y2625D01*
X14600Y575D02*
Y2674D01*
X14500Y575D02*
Y2713D01*
X13138Y23872D02*
X13905Y23105D01*
X13138Y23600D02*
X13410D01*
X13600Y21800D02*
Y23410D01*
X13138Y23438D02*
Y23872D01*
Y23700D02*
X13310D01*
X13400Y21800D02*
Y23610D01*
X13500Y21800D02*
Y23510D01*
X13200Y21800D02*
Y23810D01*
X13300Y21800D02*
Y23710D01*
X13138Y23500D02*
X13510D01*
X10738Y23438D02*
X13138D01*
X13100Y21800D02*
Y23438D01*
X13000Y21800D02*
Y23438D01*
X12900Y21800D02*
Y23438D01*
X12800Y21800D02*
Y23438D01*
X12700Y21800D02*
Y23438D01*
X12600Y21800D02*
Y23438D01*
X14300Y21800D02*
Y22907D01*
X14200Y21800D02*
Y22929D01*
X14100Y21800D02*
Y22968D01*
X14000Y21800D02*
Y23026D01*
X13800Y21800D02*
Y23210D01*
X13900Y21800D02*
Y23110D01*
X12500Y21800D02*
Y23438D01*
X13700Y21800D02*
Y23310D01*
X12000Y22306D02*
Y23438D01*
X11900Y22355D02*
Y23438D01*
X11800Y22392D02*
Y23438D01*
X11700Y22418D02*
Y23438D01*
X12400Y21911D02*
Y23438D01*
X12300Y22056D02*
Y23438D01*
X12200Y22162D02*
Y23438D01*
X12100Y22243D02*
Y23438D01*
X10574Y24400D02*
X10738D01*
X10549Y24300D02*
X10738D01*
X10515Y24200D02*
X10738D01*
X10471Y24100D02*
X10738D01*
X10700Y22082D02*
Y30252D01*
X10738Y23438D02*
Y25838D01*
X10600Y21948D02*
Y30352D01*
X10500Y21741D02*
Y24163D01*
X10414Y24000D02*
X10738D01*
X10344Y23900D02*
X10738D01*
X10257Y23800D02*
X10738D01*
X10146Y23700D02*
X10738D01*
X10000Y23600D02*
X10738D01*
X8000Y20673D02*
Y33510D01*
X7900Y21159D02*
Y33410D01*
X11600Y22433D02*
Y23438D01*
X11500Y22439D02*
Y23438D01*
X11400Y22435D02*
Y23438D01*
X11300Y22422D02*
Y23438D01*
X11200Y22398D02*
Y23438D01*
X11100Y22364D02*
Y23438D01*
X11000Y22318D02*
Y23438D01*
X10900Y22258D02*
Y23438D01*
X9778Y23500D02*
X10738D01*
X10800Y22181D02*
Y23438D01*
X7960Y20900D02*
X10560D01*
X7979Y20800D02*
X10620D01*
X8022Y20500D02*
X10931D01*
X8032Y20400D02*
X11137D01*
X7996Y20700D02*
X10697D01*
X8010Y20600D02*
X10796D01*
X14300Y13450D02*
Y20400D01*
X14200Y13450D02*
Y20400D01*
X14100Y13450D02*
Y20400D01*
X14000Y13450D02*
Y20400D01*
X13900Y13450D02*
Y20400D01*
X13800Y13450D02*
Y20400D01*
X13700Y13450D02*
Y20400D01*
X13600Y13450D02*
Y20400D01*
X13500Y13450D02*
Y20400D01*
X13400Y13450D02*
Y20400D01*
X13300Y13450D02*
Y20400D01*
X12800Y13506D02*
Y20400D01*
X13200Y13450D02*
Y20400D01*
X13100Y13450D02*
Y20400D01*
X13000Y13450D02*
Y20400D01*
X12900Y13471D02*
Y20400D01*
X12700Y13531D02*
Y20400D01*
X12600Y13545D02*
Y20400D01*
X12500Y13550D02*
Y20400D01*
X12400Y13545D02*
Y20400D01*
X12300Y13531D02*
Y20400D01*
X12200Y13506D02*
Y20400D01*
X12100Y13471D02*
Y20400D01*
X12000Y13423D02*
Y20400D01*
X11900Y13362D02*
Y20400D01*
X11800Y13283D02*
Y20386D01*
X11700Y13180D02*
Y20360D01*
X11600Y13041D02*
Y20345D01*
X11500Y12820D02*
Y20339D01*
X11400Y6938D02*
Y20343D01*
X11200Y575D02*
Y20380D01*
X11300Y6706D02*
Y20356D01*
X10400Y575D02*
Y23978D01*
X10300Y575D02*
Y23846D01*
X10200Y575D02*
Y23745D01*
X10100Y575D02*
Y23665D01*
X10000Y575D02*
Y23600D01*
X9900Y575D02*
Y23548D01*
X8900Y575D02*
Y23546D01*
X9800Y575D02*
Y23507D01*
X8700Y575D02*
Y23662D01*
X8800Y575D02*
Y23598D01*
X8500Y575D02*
Y23842D01*
X8600Y575D02*
Y23742D01*
X8300Y575D02*
Y24154D01*
X8400Y575D02*
Y23972D01*
X8100Y575D02*
Y33610D01*
X8200Y575D02*
Y24570D01*
X11000Y575D02*
Y20460D01*
X11100Y575D02*
Y20414D01*
X10800Y575D02*
Y20597D01*
X10900Y575D02*
Y20520D01*
X10600Y575D02*
Y20830D01*
X10700Y575D02*
Y20696D01*
X9700Y575D02*
Y23477D01*
X10500Y575D02*
Y21037D01*
X9600Y575D02*
Y23455D01*
X9500Y575D02*
Y23442D01*
X9400Y575D02*
Y23438D01*
X9300Y575D02*
Y23442D01*
X9200Y575D02*
Y23454D01*
X9100Y575D02*
Y23476D01*
X9000Y575D02*
Y23506D01*
X8000Y575D02*
Y19327D01*
X6200Y23662D02*
Y31729D01*
X6100Y23734D02*
Y31673D01*
X6000Y23802D02*
Y31636D01*
X5900Y23866D02*
Y31616D01*
X5800Y23926D02*
Y31610D01*
X6600Y23331D02*
Y32110D01*
X6500Y23421D02*
Y32010D01*
X6400Y23506D02*
Y31910D01*
X6300Y23587D02*
Y31810D01*
X5400Y24134D02*
Y31610D01*
X5200Y24221D02*
Y31610D01*
X5100Y24259D02*
Y31610D01*
X5000Y24296D02*
Y31610D01*
X5700Y23983D02*
Y31610D01*
X5600Y24036D02*
Y31610D01*
X5500Y24087D02*
Y31610D01*
X5300Y24179D02*
Y31610D01*
X5844Y23900D02*
X8452D01*
X6003Y23800D02*
X8539D01*
X5473Y24100D02*
X8325D01*
X5669Y24000D02*
X8382D01*
X6408Y23500D02*
X9018D01*
X6524Y23400D02*
X13610D01*
X6148Y23700D02*
X8650D01*
X6283Y23600D02*
X8796D01*
X4700Y24389D02*
Y31610D01*
X4659Y24400D02*
X8222D01*
X4600Y24415D02*
Y31610D01*
X4500Y24439D02*
Y31610D01*
X4988Y24300D02*
X8247D01*
X5251Y24200D02*
X8281D01*
X4900Y24329D02*
Y31610D01*
X4800Y24360D02*
Y31610D01*
X4400Y24460D02*
Y31610D01*
X1900Y24259D02*
Y31228D01*
X1800Y24220D02*
Y31282D01*
X1700Y24179D02*
Y31349D01*
X1500Y24087D02*
Y31538D01*
X1600Y24134D02*
Y31432D01*
X1300Y23983D02*
Y31875D01*
X1400Y24036D02*
Y31675D01*
X1100Y23865D02*
Y51580D01*
X1200Y23926D02*
Y51359D01*
X1000Y23802D02*
Y52800D01*
X900Y23734D02*
Y52800D01*
X800Y23662D02*
Y52800D01*
X700Y23586D02*
Y52800D01*
X600Y23506D02*
Y52800D01*
X575Y23485D02*
Y52800D01*
X2600Y24460D02*
Y31124D01*
X2500Y24439D02*
Y31113D01*
X2400Y24415D02*
Y31110D01*
X2300Y24389D02*
Y31116D01*
X2200Y24360D02*
Y31130D01*
X575Y24400D02*
X2341D01*
X2100Y24329D02*
Y31153D01*
X2000Y24296D02*
Y31185D01*
X575Y24300D02*
X2012D01*
X575Y24200D02*
X1749D01*
X575Y24100D02*
X1527D01*
X575Y24000D02*
X1331D01*
X575Y23900D02*
X1156D01*
X575Y23800D02*
X997D01*
X575Y23700D02*
X852D01*
X575Y23600D02*
X717D01*
X7483Y22200D02*
X10822D01*
X7537Y22100D02*
X10716D01*
X7600Y21973D02*
Y33110D01*
X7500Y22169D02*
Y33010D01*
X7587Y22000D02*
X10635D01*
X7634Y21900D02*
X10572D01*
X7800Y21488D02*
Y33310D01*
X7700Y21750D02*
Y33210D01*
X6831Y23100D02*
X13910D01*
X6921Y23000D02*
X14040D01*
X6633Y23300D02*
X13710D01*
X6735Y23200D02*
X13810D01*
X7366Y22400D02*
X11205D01*
X7426Y22300D02*
X10967D01*
X7400Y22344D02*
Y32910D01*
X7796Y21500D02*
X10445D01*
X7829Y21400D02*
X10439D01*
X7860Y21300D02*
X10443D01*
X7889Y21200D02*
X10456D01*
X7915Y21100D02*
X10480D01*
X7939Y21000D02*
X10514D01*
X7900Y575D02*
Y18841D01*
X7800Y575D02*
Y18512D01*
X7679Y21800D02*
X10523D01*
X7721Y21700D02*
X10486D01*
X7759Y21600D02*
X10460D01*
X7700Y575D02*
Y18250D01*
X7600Y575D02*
Y18027D01*
X7500Y575D02*
Y17831D01*
X7400Y575D02*
Y17656D01*
X7300Y22503D02*
Y32810D01*
X7200Y22648D02*
Y32710D01*
X7100Y22783D02*
Y32610D01*
X7000Y22907D02*
Y32510D01*
X7300Y575D02*
Y17497D01*
X7200Y575D02*
Y17352D01*
X7100Y575D02*
Y17217D01*
X7000Y575D02*
Y17093D01*
X6900Y23024D02*
Y32410D01*
Y575D02*
Y16976D01*
X6800Y23133D02*
Y32310D01*
X6700Y23235D02*
Y32210D01*
X6800Y575D02*
Y16867D01*
X6700Y575D02*
Y16765D01*
X6600Y575D02*
Y16669D01*
X6500Y575D02*
Y16579D01*
X6400Y575D02*
Y16494D01*
X6300Y575D02*
Y16413D01*
X6200Y575D02*
Y16338D01*
X6100Y575D02*
Y16266D01*
X6000Y575D02*
Y16198D01*
X5900Y575D02*
Y16134D01*
X1100Y575D02*
Y16135D01*
X1000Y575D02*
Y16198D01*
X575Y16300D02*
X852D01*
X575Y16200D02*
X998D01*
X575Y16400D02*
X718D01*
X900Y575D02*
Y16266D01*
X700Y575D02*
Y16414D01*
X800Y575D02*
Y16338D01*
X600Y575D02*
Y16494D01*
X575Y575D02*
Y16515D01*
X14300Y7335D02*
Y11550D01*
X14200Y7257D02*
Y11550D01*
X14100Y7159D02*
Y11550D01*
X14000Y7034D02*
Y11550D01*
X13900Y6860D02*
Y11550D01*
X13559Y6800D02*
X13873D01*
X13594Y6700D02*
X13838D01*
X13800Y6532D02*
Y11550D01*
X13600Y6679D02*
Y11550D01*
X13179Y7300D02*
X14253D01*
X13293Y7200D02*
X14139D01*
X13400Y7078D02*
Y11550D01*
X13300Y7193D02*
Y11550D01*
X13383Y7100D02*
X14049D01*
X13455Y7000D02*
X13977D01*
X13500Y6924D02*
Y11550D01*
X13513Y6900D02*
X13919D01*
X13620Y6600D02*
X13812D01*
X13637Y6500D02*
X13795D01*
X13645Y6400D02*
X13787D01*
X13645Y6300D02*
X13787D01*
X14300Y4795D02*
Y5365D01*
X14400Y4857D02*
Y5303D01*
X13637Y6200D02*
X13795D01*
X13620Y6100D02*
X13812D01*
X13512Y5800D02*
X13920D01*
X13455Y5700D02*
X13977D01*
X13594Y6000D02*
X13838D01*
X13558Y5900D02*
X13874D01*
X13179Y5400D02*
X14253D01*
X13027Y5300D02*
X14405D01*
X13383Y5600D02*
X14049D01*
X13293Y5500D02*
X14139D01*
X12800Y7497D02*
Y11494D01*
X12700Y7523D02*
Y11469D01*
X12300Y7541D02*
Y11469D01*
X12200Y7524D02*
Y11494D01*
X13200Y7284D02*
Y11550D01*
X13100Y7356D02*
Y11550D01*
X13000Y7415D02*
Y11550D01*
X12900Y7461D02*
Y11529D01*
X12100Y7499D02*
Y11529D01*
X11900Y7419D02*
Y11638D01*
X12000Y7464D02*
Y11577D01*
X11700Y7290D02*
Y11820D01*
X11800Y7361D02*
Y11717D01*
X11500Y7088D02*
Y12180D01*
X11600Y7201D02*
Y11959D01*
X12600Y7540D02*
Y11455D01*
X12900Y4921D02*
Y5239D01*
X12500Y7549D02*
Y11450D01*
X12600Y5000D02*
Y5160D01*
X13200Y4744D02*
Y5416D01*
X13000Y4875D02*
Y5285D01*
X12800Y4957D02*
Y5203D01*
X12700Y4983D02*
Y5177D01*
X12400Y7549D02*
Y11455D01*
X12500Y5009D02*
Y5151D01*
X12400Y5009D02*
Y5151D01*
X12300Y5001D02*
Y5159D01*
X12200Y4984D02*
Y5176D01*
X12100Y4959D02*
Y5201D01*
X12000Y4924D02*
Y5236D01*
X11900Y4879D02*
Y5281D01*
X14100Y4619D02*
Y5541D01*
X14000Y4494D02*
Y5666D01*
X14200Y4717D02*
Y5443D01*
X13900Y4320D02*
Y5840D01*
X13610Y4100D02*
X13822D01*
X13800Y3992D02*
Y6168D01*
X13631Y4000D02*
X13801D01*
X13643Y3900D02*
X13789D01*
X13646Y3800D02*
X13786D01*
X13124Y4800D02*
X14308D01*
X13251Y4700D02*
X14181D01*
X13349Y4600D02*
X14083D01*
X13428Y4500D02*
X14004D01*
X13491Y4400D02*
X13941D01*
X13541Y4300D02*
X13891D01*
X13581Y4200D02*
X13851D01*
X13641Y3700D02*
X13791D01*
X14300Y575D02*
Y2825D01*
X14400Y575D02*
Y2763D01*
X13627Y3600D02*
X13805D01*
X14200Y575D02*
Y2903D01*
X14000Y575D02*
Y3126D01*
X14100Y575D02*
Y3001D01*
X13800Y575D02*
Y3628D01*
X13900Y575D02*
Y3300D01*
X13574Y3400D02*
X13858D01*
X13479Y3200D02*
X13953D01*
X13605Y3500D02*
X13827D01*
X13532Y3300D02*
X13900D01*
X13228Y2900D02*
X14204D01*
X13094Y2800D02*
X14338D01*
X13413Y3100D02*
X14019D01*
X13331Y3000D02*
X14101D01*
X13600Y4139D02*
Y6021D01*
X13500Y4384D02*
Y5776D01*
X13400Y4538D02*
Y5622D01*
X13300Y4653D02*
Y5507D01*
X13700Y575D02*
Y11550D01*
X13600Y575D02*
Y3481D01*
X13500Y575D02*
Y3236D01*
X13400Y575D02*
Y3082D01*
X13100Y4816D02*
Y5344D01*
X11800Y4821D02*
Y5339D01*
X11600Y4661D02*
Y5499D01*
X11700Y4750D02*
Y5410D01*
X13300Y575D02*
Y2967D01*
X11600Y575D02*
Y2959D01*
X11500Y4548D02*
Y5612D01*
Y575D02*
Y3072D01*
X13200Y575D02*
Y2876D01*
X13100Y575D02*
Y2804D01*
X13000Y575D02*
Y2745D01*
X12900Y575D02*
Y2699D01*
X12800Y575D02*
Y2663D01*
X12700Y575D02*
Y2637D01*
X12600Y575D02*
Y2620D01*
X12500Y575D02*
Y2611D01*
X12400Y575D02*
Y2611D01*
X12300Y575D02*
Y2619D01*
X12100Y575D02*
Y2661D01*
X12200Y575D02*
Y2636D01*
X11900Y575D02*
Y2741D01*
X12000Y575D02*
Y2696D01*
X11700Y575D02*
Y2870D01*
X11800Y575D02*
Y2799D01*
X575Y13500D02*
X12179D01*
X575Y13400D02*
X11959D01*
X575Y13300D02*
X11820D01*
X575Y13200D02*
X11717D01*
X575Y13100D02*
X11638D01*
X575Y13000D02*
X11577D01*
X575Y12900D02*
X11529D01*
X575Y12800D02*
X11494D01*
X575Y12700D02*
X11469D01*
X575Y12100D02*
X11529D01*
X575Y11900D02*
X11638D01*
X575Y12600D02*
X11455D01*
X575Y12000D02*
X11577D01*
X575Y11600D02*
X11959D01*
X575Y11500D02*
X12180D01*
X575Y11800D02*
X11718D01*
X575Y11700D02*
X11820D01*
X575Y7500D02*
X12103D01*
X575Y7400D02*
X11865D01*
X575Y7300D02*
X11713D01*
X575Y7200D02*
X11599D01*
X575Y5500D02*
X11599D01*
X575Y7100D02*
X11509D01*
X575Y5600D02*
X11509D01*
X575Y5200D02*
X12104D01*
X575Y5000D02*
X12290D01*
X575Y5400D02*
X11713D01*
X575Y5300D02*
X11865D01*
X575Y4900D02*
X11944D01*
X575Y4800D02*
X11768D01*
X575Y4700D02*
X11641D01*
X575Y4600D02*
X11543D01*
X575Y15900D02*
X1527D01*
X575Y15800D02*
X1750D01*
X575Y16100D02*
X1157D01*
X575Y16000D02*
X1332D01*
X575Y15500D02*
X2829D01*
X575Y12500D02*
X11450D01*
X575Y15700D02*
X2013D01*
X575Y15600D02*
X2342D01*
X575Y12400D02*
X11455D01*
X575Y12300D02*
X11469D01*
X575Y12200D02*
X11494D01*
X575Y7000D02*
X11437D01*
X575Y6900D02*
X11379D01*
X575Y6800D02*
X11333D01*
X575Y6700D02*
X11298D01*
X575Y6600D02*
X11272D01*
X575Y6500D02*
X11255D01*
X575Y6400D02*
X11247D01*
X575Y6300D02*
X11247D01*
X575Y6200D02*
X11255D01*
X575Y6100D02*
X11272D01*
X11400Y4398D02*
Y5762D01*
X575Y6000D02*
X11298D01*
X11300Y4166D02*
Y5994D01*
X575Y5700D02*
X11437D01*
X575Y4500D02*
X11464D01*
X575Y5900D02*
X11334D01*
X575Y5800D02*
X11380D01*
X575Y4400D02*
X11401D01*
X575Y4300D02*
X11351D01*
X575Y4200D02*
X11311D01*
X575Y4100D02*
X11282D01*
X5800Y575D02*
Y16074D01*
X5700Y575D02*
Y16017D01*
X5600Y575D02*
Y15964D01*
X5500Y575D02*
Y15913D01*
X5400Y575D02*
Y15866D01*
X5300Y575D02*
Y15821D01*
X5200Y575D02*
Y15779D01*
X5100Y575D02*
Y15741D01*
X5000Y575D02*
Y15704D01*
X4900Y575D02*
Y15671D01*
X4800Y575D02*
Y15640D01*
X4700Y575D02*
Y15611D01*
X4600Y575D02*
Y15585D01*
X4500Y575D02*
Y15561D01*
X4400Y575D02*
Y15540D01*
X575Y4000D02*
X11261D01*
X575Y3900D02*
X11249D01*
X575Y3800D02*
X11246D01*
X575Y3700D02*
X11251D01*
X575Y3600D02*
X11265D01*
X11400Y575D02*
Y3222D01*
X575Y3500D02*
X11287D01*
X11300Y575D02*
Y3454D01*
X575Y3300D02*
X11360D01*
X575Y3100D02*
X11479D01*
X575Y3400D02*
X11318D01*
X575Y3200D02*
X11413D01*
X575Y2800D02*
X11798D01*
X575Y2700D02*
X11990D01*
X575Y3000D02*
X11561D01*
X575Y2900D02*
X11664D01*
X4300Y575D02*
Y15521D01*
X4200Y575D02*
Y15504D01*
X2500Y575D02*
Y15561D01*
X2400Y575D02*
Y15585D01*
X2200Y575D02*
Y15640D01*
X2300Y575D02*
Y15611D01*
X2100Y575D02*
Y15671D01*
X2000Y575D02*
Y15704D01*
X1900Y575D02*
Y15741D01*
X1800Y575D02*
Y15780D01*
X1700Y575D02*
Y15821D01*
X1600Y575D02*
Y15866D01*
X1400Y575D02*
Y15964D01*
X1500Y575D02*
Y15913D01*
X1200Y575D02*
Y16074D01*
X1300Y575D02*
Y16017D01*
X4100Y575D02*
Y15490D01*
X4000Y575D02*
Y15478D01*
X3900Y575D02*
Y15468D01*
X3800Y575D02*
Y15460D01*
X3700Y575D02*
Y15454D01*
X3600Y575D02*
Y15451D01*
X3500Y575D02*
Y15450D01*
X3400Y575D02*
Y15451D01*
X3200Y575D02*
Y15460D01*
X3300Y575D02*
Y15454D01*
X3100Y575D02*
Y15468D01*
X3000Y575D02*
Y15478D01*
X2900Y575D02*
Y15490D01*
X2800Y575D02*
Y15504D01*
X2700Y575D02*
Y15521D01*
X2600Y575D02*
Y15540D01*
D20*
X32934Y44299D02*
X34084D01*
X32934D02*
Y45449D01*
Y39999D02*
X34084D01*
X32934Y43149D02*
Y44299D01*
Y39999D02*
Y41149D01*
Y38849D02*
Y39999D01*
X31487Y26424D02*
X32637D01*
X31487Y25274D02*
Y26424D01*
X30337D02*
X31487D01*
X29130Y13716D02*
X30530D01*
X29130D02*
Y15116D01*
Y12316D02*
Y13716D01*
X29210Y10668D02*
X30610D01*
X29210D02*
Y12068D01*
Y9268D02*
Y10668D01*
X27730Y13716D02*
X29130D01*
X27810Y10668D02*
X29210D01*
X22606Y6350D02*
X23756D01*
X22606D02*
Y7500D01*
Y5200D02*
Y6350D01*
Y3810D02*
X23756D01*
X22606D02*
Y4960D01*
Y2660D02*
Y3810D01*
X4500Y47300D02*
X8500D01*
X9000Y47800D01*
X11938Y24638D02*
X13362D01*
X14400Y23600D01*
X15500D01*
X24800Y33400D02*
X28303D01*
X31487Y36584D01*
X24800Y34100D02*
X25400D01*
X22200Y23000D02*
Y24100D01*
X26100Y28000D01*
X20900Y18400D02*
Y24200D01*
X26100Y28000D02*
X28300D01*
X29264Y28964D01*
X31487D01*
X20200Y43000D02*
Y43100D01*
Y43000D02*
X26300Y36900D01*
X11778Y21100D02*
X17900D01*
X11489Y21389D02*
X11778Y21100D01*
X20900Y18400D02*
X21000Y18300D01*
X20900Y24200D02*
X25800Y29100D01*
X27200D01*
X19500Y23000D02*
Y24100D01*
X26100Y30700D01*
X27100D01*
X16800Y10500D02*
X16968Y10668D01*
X24210D01*
X13200Y42700D02*
X15000D01*
X12400Y41900D02*
X13200Y42700D01*
X12400Y40300D02*
Y41900D01*
X8600Y36500D02*
X12400Y40300D01*
X3228Y36500D02*
X8600D01*
X2418Y37310D02*
X3228Y36500D01*
X13700Y40200D02*
Y41300D01*
X5810Y32310D02*
X13700Y40200D01*
X2418Y32310D02*
X5810D01*
X27500Y53800D02*
X27600D01*
Y55700D01*
X25000Y58300D02*
X27600Y55700D01*
X8000Y41400D02*
Y44700D01*
X4700Y38100D02*
X8000Y41400D01*
X4700Y37900D02*
Y38100D01*
X4600Y39700D02*
X6800Y41900D01*
Y42900D01*
D21*
X2100Y51900D02*
X2300Y52100D01*
X18000D01*
X18500Y52700D02*
X22300D01*
X18000Y52200D02*
X18500Y52700D01*
X18000Y48800D02*
Y52200D01*
Y15300D02*
Y44500D01*
Y49200D01*
X21500Y52700D02*
X22300D01*
X15200Y12500D02*
X18000Y15300D01*
X12500Y12500D02*
X15200D01*
D22*
X30434Y44299D02*
D03*
X30434Y39999D02*
D03*
X2418Y32310D02*
D03*
X2418Y37310D02*
D03*
X31487Y31504D02*
D03*
Y28964D02*
D03*
Y26424D02*
D03*
X17526Y3810D02*
D03*
X17526Y6350D02*
D03*
X20066Y3810D02*
D03*
Y6350D02*
D03*
X9398Y24638D02*
D03*
X22606Y3810D02*
D03*
X14986Y6350D02*
D03*
Y3810D02*
D03*
X12446Y6350D02*
D03*
Y3810D02*
D03*
D23*
X32934Y39999D02*
D03*
Y44299D02*
D03*
X31487Y36584D02*
D03*
X11938Y24638D02*
D03*
X22606Y6350D02*
D03*
D24*
X25392Y42193D02*
D03*
D25*
X24210Y10668D02*
D03*
X29130Y13716D02*
D03*
X29210Y10668D02*
D03*
X24130Y13716D02*
D03*
D26*
X3500Y66500D02*
D03*
X31500D02*
D03*
X3500Y20000D02*
D03*
X31500D02*
D03*
D27*
X25392Y44693D02*
D03*
D28*
X15804Y67564D02*
D03*
D29*
X19304D02*
D03*
D30*
X9000Y47800D02*
D03*
X9400Y30200D02*
D03*
X2100Y51900D02*
D03*
X15500Y23600D02*
D03*
X22200Y23000D02*
D03*
X20200Y43100D02*
D03*
X26300Y36900D02*
D03*
X11489Y21389D02*
D03*
X17900Y21100D02*
D03*
X21000Y18300D02*
D03*
X27200Y29100D02*
D03*
X19500Y23000D02*
D03*
X27100Y30700D02*
D03*
X16800Y10500D02*
D03*
X15000Y42700D02*
D03*
X13700Y41300D02*
D03*
X22300Y52700D02*
D03*
X12500Y12500D02*
D03*
X27500Y53800D02*
D03*
X25000Y58300D02*
D03*
X8000Y44700D02*
D03*
X4700Y37900D02*
D03*
X4600Y39700D02*
D03*
X6800Y42900D02*
D03*
X4500Y47300D02*
D03*
X14700Y35172D02*
D03*
X20800Y31900D02*
D03*
X12800Y22500D02*
D03*
X1900Y48800D02*
D03*
X1800Y45300D02*
D03*
X5000Y34500D02*
D03*
X5000Y29700D02*
D03*
Y25400D02*
D03*
X12200Y27100D02*
D03*
X15700Y47500D02*
D03*
Y44500D02*
D03*
X20000Y48100D02*
D03*
X20100Y45300D02*
D03*
X27700Y45100D02*
D03*
X29000Y41500D02*
D03*
X28600Y25900D02*
D03*
X22800Y20500D02*
D03*
X21300Y16000D02*
D03*
X32500Y13900D02*
D03*
X27500Y7400D02*
D03*
X32500Y7500D02*
D03*
X27500Y2500D02*
D03*
X32500D02*
D03*
X30000Y4900D02*
D03*
X7600Y7500D02*
D03*
X7500Y2500D02*
D03*
X2600Y7500D02*
D03*
X2500Y2500D02*
D03*
X5000Y5000D02*
D03*
X21800Y12400D02*
D03*
Y8900D02*
D03*
X12700Y15000D02*
D03*
X7400Y15000D02*
D03*
X2300Y13600D02*
D03*
X10800Y45300D02*
D03*
D31*
X23800Y29600D02*
Y37400D01*
X23700Y29500D02*
Y37500D01*
X23900Y29700D02*
Y37300D01*
X23500Y29300D02*
Y37700D01*
X23400Y29200D02*
Y37800D01*
X23600Y29400D02*
Y37600D01*
X23200Y29000D02*
Y38000D01*
X23100Y28900D02*
Y38100D01*
X23300Y29100D02*
Y37900D01*
X22900Y28700D02*
Y38300D01*
X23000Y28800D02*
Y38200D01*
X22700Y28500D02*
Y38500D01*
X19800Y41400D02*
X25800Y35400D01*
X22800Y28600D02*
Y38400D01*
X22500Y28300D02*
Y38700D01*
X22600Y28400D02*
Y38600D01*
X22300Y28100D02*
Y38900D01*
X22200Y28000D02*
Y39000D01*
X22400Y28200D02*
Y38800D01*
X22000Y27800D02*
Y39200D01*
X22100Y27900D02*
Y39100D01*
X25800Y31600D02*
Y35400D01*
X25700Y31500D02*
Y35500D01*
X25800Y31600D02*
Y35400D01*
X25500Y31300D02*
Y35700D01*
X25600Y31400D02*
Y35600D01*
X25300Y31100D02*
Y35900D01*
X25200Y31000D02*
Y36000D01*
X25400Y31200D02*
Y35800D01*
X25000Y30800D02*
Y36200D01*
X25100Y30900D02*
Y36100D01*
X24800Y30600D02*
Y36400D01*
X24700Y30500D02*
Y36500D01*
X24900Y30700D02*
Y36300D01*
X24500Y30300D02*
Y36700D01*
X24600Y30400D02*
Y36600D01*
X24300Y30100D02*
Y36900D01*
X24200Y30000D02*
Y37000D01*
X24400Y30200D02*
Y36800D01*
X24000Y29800D02*
Y37200D01*
X24100Y29900D02*
Y37100D01*
X16000Y41300D02*
X19900D01*
X15900Y41200D02*
X20000D01*
X15800Y41100D02*
X20100D01*
X16100Y41400D02*
X19800D01*
X16100Y41400D02*
X19800D01*
X15500Y40800D02*
X20400D01*
X15400Y40700D02*
X20500D01*
X21300Y27100D02*
Y39900D01*
X15700Y41000D02*
X20200D01*
X15600Y40900D02*
X20300D01*
X15100Y40400D02*
X20800D01*
X15000Y40300D02*
X20900D01*
X14900Y40200D02*
X21000D01*
X15300Y40600D02*
X20600D01*
X15200Y40500D02*
X20700D01*
X14800Y40100D02*
X21100D01*
X14700Y40000D02*
X21200D01*
X14600Y39900D02*
X21300D01*
X14700Y27100D02*
Y40000D01*
X14600Y27200D02*
Y39900D01*
X21800Y27600D02*
Y39400D01*
X21700Y27500D02*
Y39500D01*
X21900Y27700D02*
Y39300D01*
X14500Y39800D02*
X21400D01*
X21600Y27400D02*
Y39600D01*
X21500Y27300D02*
Y39700D01*
X21400Y27200D02*
Y39800D01*
X14600Y27200D02*
X21400D01*
X14500Y27300D02*
Y39800D01*
X14700Y27100D02*
X21300D01*
X14300Y39600D02*
X21600D01*
X14200Y39500D02*
X21700D01*
X14200Y27600D02*
X21800D01*
X14400Y39700D02*
X21500D01*
X14200Y27600D02*
Y39500D01*
X14400Y27400D02*
X21600D01*
X14300Y27500D02*
X21700D01*
X14500Y27300D02*
X21500D01*
X14400Y27400D02*
Y39700D01*
X14300Y27500D02*
Y39600D01*
X20600Y26400D02*
Y40600D01*
X20500Y26300D02*
Y40700D01*
X20700Y26500D02*
Y40500D01*
X20300Y26100D02*
Y40900D01*
X20400Y26200D02*
Y40800D01*
X20100Y25900D02*
Y41100D01*
X20000Y25800D02*
Y41200D01*
X20200Y26000D02*
Y41000D01*
X19800Y25700D02*
Y41400D01*
X19900Y25700D02*
Y41300D01*
X19700Y25700D02*
Y41400D01*
X19600Y25700D02*
Y41400D01*
X19500Y25700D02*
Y41400D01*
X19400Y25700D02*
Y41400D01*
X19300Y25700D02*
Y41400D01*
X19200Y25700D02*
Y41400D01*
X19100Y25700D02*
Y41400D01*
X19000Y25700D02*
Y41400D01*
X18900Y25700D02*
Y41400D01*
X18800Y25700D02*
Y41400D01*
X21100Y26900D02*
Y40100D01*
X21000Y26800D02*
Y40200D01*
X21200Y27000D02*
Y40000D01*
X20800Y26600D02*
Y40400D01*
X20900Y26700D02*
Y40300D01*
X19900Y25700D02*
X25800Y31600D01*
X15800Y26000D02*
X20200D01*
X15900Y25900D02*
X20100D01*
X16000Y25800D02*
X20000D01*
X16100Y25700D02*
X19900D01*
X14900Y26900D02*
X21100D01*
X14800Y27000D02*
X21200D01*
X15000Y26800D02*
X21000D01*
X15100Y26700D02*
X20900D01*
X15200Y26600D02*
X20800D01*
X15400Y26400D02*
X20600D01*
X15300Y26500D02*
X20700D01*
X15500Y26300D02*
X20500D01*
X15600Y26200D02*
X20400D01*
X15700Y26100D02*
X20300D01*
X18700Y25700D02*
Y41400D01*
X18600Y25700D02*
Y41400D01*
X18500Y25700D02*
Y41400D01*
X18400Y25700D02*
Y41400D01*
X18300Y25700D02*
Y41400D01*
X18200Y25700D02*
Y41400D01*
X18100Y25700D02*
Y41400D01*
X18000Y25700D02*
Y41400D01*
X17900Y25700D02*
Y41400D01*
X17800Y25700D02*
Y41400D01*
X17700Y25700D02*
Y41400D01*
X17600Y25700D02*
Y41400D01*
X17500Y25700D02*
Y41400D01*
X17400Y25700D02*
Y41400D01*
X17300Y25700D02*
Y41400D01*
X17200Y25700D02*
Y41400D01*
X17100Y25700D02*
Y41400D01*
X17000Y25700D02*
Y41400D01*
X16900Y25700D02*
Y41400D01*
X16800Y25700D02*
Y41400D01*
X16700Y25700D02*
Y41400D01*
X16600Y25700D02*
Y41400D01*
X16000Y25800D02*
Y41300D01*
X15900Y25900D02*
Y41200D01*
X15800Y26000D02*
Y41100D01*
X16500Y25700D02*
Y41400D01*
X16400Y25700D02*
Y41400D01*
X16300Y25700D02*
Y41400D01*
X16200Y25700D02*
Y41400D01*
X16100Y25700D02*
Y41400D01*
X15200Y26600D02*
Y40500D01*
X15100Y26700D02*
Y40400D01*
X15000Y26800D02*
Y40300D01*
X14900Y26900D02*
Y40200D01*
X14800Y27000D02*
Y40100D01*
X15700Y26100D02*
Y41000D01*
X15600Y26200D02*
Y40900D01*
X15500Y26300D02*
Y40800D01*
X15400Y26400D02*
Y40700D01*
X15300Y26500D02*
Y40600D01*
X10100Y35400D02*
X25800D01*
X10100Y35300D02*
X25800D01*
X10100Y35200D02*
X25800D01*
X10400Y35700D02*
X25500D01*
X10300Y35600D02*
X25600D01*
X10200Y35500D02*
X25700D01*
X10100Y35100D02*
X25800D01*
X10100Y35000D02*
X25800D01*
X10100Y34900D02*
X25800D01*
X10100Y34800D02*
X25800D01*
X10100Y34700D02*
X25800D01*
X10100Y34600D02*
X25800D01*
X10100Y34500D02*
X25800D01*
X10100Y34400D02*
X25800D01*
X10100Y34300D02*
X25800D01*
X10100Y34200D02*
X25800D01*
X10100Y34100D02*
X25800D01*
X10100Y34000D02*
X25800D01*
X10100Y33900D02*
X25800D01*
X10100Y33800D02*
X25800D01*
X10100Y33700D02*
X25800D01*
X10100Y33600D02*
X25800D01*
X10100Y33500D02*
X25800D01*
X10100Y33400D02*
X25800D01*
X10100Y33300D02*
X25800D01*
X10100Y33200D02*
X25800D01*
X10100Y33100D02*
X25800D01*
X10100Y33000D02*
X25800D01*
X10100Y32900D02*
X25800D01*
X10100Y32800D02*
X25800D01*
X10100Y32700D02*
X25800D01*
X10100Y32600D02*
X25800D01*
X10100Y32500D02*
X25800D01*
X10100Y32400D02*
X25800D01*
X10100Y32300D02*
X25800D01*
X10100Y32200D02*
X25800D01*
X10100Y32100D02*
X25800D01*
X10100Y32000D02*
X25800D01*
X10100Y31900D02*
X25800D01*
X10100Y31800D02*
X25800D01*
X10100Y31700D02*
X25800D01*
X13900Y39200D02*
X22000D01*
X13800Y39100D02*
X22100D01*
X13700Y39000D02*
X22200D01*
X14100Y39400D02*
X21800D01*
X14000Y39300D02*
X21900D01*
X13400Y38700D02*
X22500D01*
X13300Y38600D02*
X22600D01*
X13200Y38500D02*
X22700D01*
X13600Y38900D02*
X22300D01*
X13500Y38800D02*
X22400D01*
X12900Y38200D02*
X23000D01*
X12800Y38100D02*
X23100D01*
X12700Y38000D02*
X23200D01*
X13100Y38400D02*
X22800D01*
X13000Y38300D02*
X22900D01*
X12500Y37800D02*
X23400D01*
X12400Y37700D02*
X23500D01*
X12300Y37600D02*
X23600D01*
X10100Y35400D02*
X16100Y41400D01*
X12600Y37900D02*
X23300D01*
X12000Y37300D02*
X23900D01*
X11900Y37200D02*
X24000D01*
X11800Y37100D02*
X24100D01*
X12200Y37500D02*
X23700D01*
X12100Y37400D02*
X23800D01*
X11500Y36800D02*
X24400D01*
X11400Y36700D02*
X24500D01*
X11300Y36600D02*
X24600D01*
X11700Y37000D02*
X24200D01*
X11600Y36900D02*
X24300D01*
X11000Y36300D02*
X24900D01*
X10900Y36200D02*
X25000D01*
X10800Y36100D02*
X25100D01*
X11200Y36500D02*
X24700D01*
X11100Y36400D02*
X24800D01*
X10700Y36000D02*
X25200D01*
X10600Y35900D02*
X25300D01*
X10500Y35800D02*
X25400D01*
X10200Y31600D02*
Y35500D01*
X10100Y31700D02*
Y35400D01*
X11300Y30500D02*
X24700D01*
X11200Y30600D02*
X24800D01*
X11400Y30400D02*
X24600D01*
X11500Y30300D02*
X24500D01*
X11600Y30200D02*
X24400D01*
X11800Y30000D02*
X24200D01*
X11700Y30100D02*
X24300D01*
X11900Y29900D02*
X24100D01*
X12000Y29800D02*
X24000D01*
X12100Y29700D02*
X23900D01*
X10300Y31500D02*
X25700D01*
X10200Y31600D02*
X25800D01*
X10400Y31400D02*
X25600D01*
X10500Y31300D02*
X25500D01*
X10600Y31200D02*
X25400D01*
X10800Y31000D02*
X25200D01*
X10700Y31100D02*
X25300D01*
X10900Y30900D02*
X25100D01*
X11000Y30800D02*
X25000D01*
X11100Y30700D02*
X24900D01*
X13300Y28500D02*
X22700D01*
X13200Y28600D02*
X22800D01*
X13400Y28400D02*
X22600D01*
X13500Y28300D02*
X22500D01*
X13600Y28200D02*
X22400D01*
X13800Y28000D02*
X22200D01*
X13700Y28100D02*
X22300D01*
X13900Y27900D02*
X22100D01*
X14000Y27800D02*
X22000D01*
X14100Y27700D02*
X21900D01*
X12300Y29500D02*
X23700D01*
X12200Y29600D02*
X23800D01*
X12400Y29400D02*
X23600D01*
X12500Y29300D02*
X23500D01*
X12600Y29200D02*
X23400D01*
X12800Y29000D02*
X23200D01*
X12700Y29100D02*
X23300D01*
X12900Y28900D02*
X23100D01*
X13000Y28800D02*
X23000D01*
X13100Y28700D02*
X22900D01*
X13600Y28200D02*
Y38900D01*
X13500Y28300D02*
Y38800D01*
X13400Y28400D02*
Y38700D01*
X13300Y28500D02*
Y38600D01*
X13200Y28600D02*
Y38500D01*
X14100Y27700D02*
Y39400D01*
X14000Y27800D02*
Y39300D01*
X13900Y27900D02*
Y39200D01*
X13800Y28000D02*
Y39100D01*
X13700Y28100D02*
Y39000D01*
X12600Y29200D02*
Y37900D01*
X12500Y29300D02*
Y37800D01*
X12400Y29400D02*
Y37700D01*
X12300Y29500D02*
Y37600D01*
X12200Y29600D02*
Y37500D01*
X13100Y28700D02*
Y38400D01*
X13000Y28800D02*
Y38300D01*
X12900Y28900D02*
Y38200D01*
X12800Y29000D02*
Y38100D01*
X12700Y29100D02*
Y38000D01*
X11600Y30200D02*
Y36900D01*
X11500Y30300D02*
Y36800D01*
X11400Y30400D02*
Y36700D01*
X11300Y30500D02*
Y36600D01*
X11200Y30600D02*
Y36500D01*
X12100Y29700D02*
Y37400D01*
X12000Y29800D02*
Y37300D01*
X11900Y29900D02*
Y37200D01*
X11800Y30000D02*
Y37100D01*
X11700Y30100D02*
Y37000D01*
X10700Y31100D02*
Y36000D01*
X10600Y31200D02*
Y35900D01*
X10500Y31300D02*
Y35800D01*
X10400Y31400D02*
Y35700D01*
X10300Y31500D02*
Y35600D01*
X11100Y30700D02*
Y36400D01*
X11000Y30800D02*
Y36300D01*
X10100Y31700D02*
X16100Y25700D01*
X10900Y30900D02*
Y36200D01*
X10800Y31000D02*
Y36100D01*
M02*
