%FSLAX43Y43*%
%MOMM*%
G71*
G01*
G75*
G04 Layer_Physical_Order=1*
%ADD10C,0.100*%
%ADD11R,1.800X1.600*%
%ADD12R,1.600X1.800*%
%ADD13O,1.000X2.000*%
%ADD14R,0.600X1.700*%
%ADD15R,0.600X2.150*%
%ADD16R,0.600X2.150*%
%ADD17R,1.450X0.550*%
%ADD18R,1.000X2.000*%
%ADD19R,1.450X0.550*%
%ADD20C,0.500*%
%ADD21C,1.000*%
%ADD22C,1.500*%
%ADD23R,1.500X1.500*%
%ADD24C,1.400*%
%ADD25C,2.000*%
%ADD26C,5.000*%
%ADD27R,1.400X1.400*%
%ADD28C,2.500*%
%ADD29R,2.500X2.500*%
%ADD30C,1.200*%
D10*
X31634Y44299D02*
G03*
X29420Y44941I-1200J0D01*
G01*
X29723Y43333D02*
G03*
X31634Y44299I711J966D01*
G01*
X29420Y44941D02*
G03*
X29204Y44794I279J-642D01*
G01*
X29420Y44941D02*
G03*
X29204Y44794I279J-642D01*
G01*
X31634Y39999D02*
G03*
X29459Y40699I-1200J0D01*
G01*
Y39299D02*
G03*
X31634Y39999I975J700D01*
G01*
X27995Y38895D02*
G03*
X27500Y39100I-495J-495D01*
G01*
X27995Y38895D02*
G03*
X27500Y39100I-495J-495D01*
G01*
X32687Y31504D02*
G03*
X31217Y32673I-1200J0D01*
G01*
X30292Y31618D02*
G03*
X32687Y31504I1195J-114D01*
G01*
Y28964D02*
G03*
X30766Y29924I-1200J0D01*
G01*
X30478Y28313D02*
G03*
X32687Y28964I1008J651D01*
G01*
X30241Y28469D02*
G03*
X30478Y28313I495J495D01*
G01*
X30241Y28469D02*
G03*
X30478Y28313I495J495D01*
G01*
X29800Y36800D02*
G03*
X29595Y37295I-700J0D01*
G01*
X29800Y36800D02*
G03*
X29595Y37295I-700J0D01*
G01*
X28400Y33800D02*
G03*
X28605Y33305I700J0D01*
G01*
X28400Y33800D02*
G03*
X28605Y33305I700J0D01*
G01*
X27700Y36200D02*
G03*
X27495Y36695I-700J0D01*
G01*
X27700Y36200D02*
G03*
X27495Y36695I-700J0D01*
G01*
X27827Y29942D02*
G03*
X28142Y30568I-727J758D01*
G01*
X28250Y29100D02*
G03*
X27827Y29942I-1050J0D01*
G01*
X26163Y28934D02*
G03*
X28250Y29100I1037J166D01*
G01*
X21600Y49300D02*
G03*
X21732Y48890I700J0D01*
G01*
X21600Y49300D02*
G03*
X21732Y48890I700J0D01*
G01*
X21350Y50877D02*
G03*
X21419Y50520I950J0D01*
G01*
X21350Y50877D02*
G03*
X21419Y50520I950J0D01*
G01*
Y50307D02*
G03*
X21600Y49750I950J0D01*
G01*
X21255Y52800D02*
G03*
X21350Y52253I1045J-100D01*
G01*
X26542Y42193D02*
G03*
X24479Y42893I-1150J0D01*
G01*
X23006Y39504D02*
G03*
X23501Y39299I495J495D01*
G01*
X23006Y39504D02*
G03*
X23501Y39299I495J495D01*
G01*
X21229Y42893D02*
G03*
X21250Y43100I-1029J207D01*
G01*
G03*
X19417Y43800I-1050J0D01*
G01*
X19191D02*
G03*
X18696Y43595I0J-700D01*
G01*
X19191Y43800D02*
G03*
X18696Y43595I0J-700D01*
G01*
X19448Y42367D02*
G03*
X19942Y42082I752J733D01*
G01*
X27350Y36900D02*
G03*
X26980Y37700I-1050J0D01*
G01*
X24037Y39100D02*
G03*
X23542Y38895I0J-700D01*
G01*
X24037Y39100D02*
G03*
X23542Y38895I0J-700D01*
G01*
X26300Y32700D02*
G03*
X26505Y32205I700J0D01*
G01*
X26300Y32700D02*
G03*
X26505Y32205I700J0D01*
G01*
X26968Y31742D02*
G03*
X26591Y31618I132J-1042D01*
G01*
X25853Y27541D02*
G03*
X25648Y28036I-700J0D01*
G01*
X25853Y27541D02*
G03*
X25648Y28036I-700J0D01*
G01*
X21850Y31900D02*
G03*
X20852Y30851I-1050J0D01*
G01*
X32687Y26424D02*
G03*
X32687Y26424I-1200J0D01*
G01*
X27808Y17340D02*
G03*
X34425Y16515I3692J2660D01*
G01*
Y23485D02*
G03*
X27250Y18375I-2925J-3485D01*
G01*
X30580Y13716D02*
G03*
X30580Y13716I-1450J0D01*
G01*
X30660Y10668D02*
G03*
X30660Y10668I-1450J0D01*
G01*
X27053Y11947D02*
G03*
X27258Y12442I-495J495D01*
G01*
X27053Y11947D02*
G03*
X27258Y12442I-495J495D01*
G01*
X25580Y13716D02*
G03*
X24458Y15128I-1450J0D01*
G01*
X22685Y13600D02*
G03*
X25580Y13716I1445J116D01*
G01*
X25007Y11880D02*
G03*
X25655Y10548I-797J-1212D01*
G01*
X23250Y23000D02*
G03*
X21504Y23786I-1050J0D01*
G01*
X20805Y22505D02*
G03*
X21300Y22300I495J495D01*
G01*
X20805Y22505D02*
G03*
X21300Y22300I495J495D01*
G01*
X21417D02*
G03*
X23250Y23000I783J700D01*
G01*
X22050Y18300D02*
G03*
X20435Y19185I-1050J0D01*
G01*
Y17415D02*
G03*
X22050Y18300I565J885D01*
G01*
X20495Y24795D02*
G03*
X20000Y25000I-495J-495D01*
G01*
X20495Y24795D02*
G03*
X20000Y25000I-495J-495D01*
G01*
X18717Y22300D02*
G03*
X20527Y22783I783J700D01*
G01*
X18950Y21100D02*
G03*
X16852Y21042I-1050J0D01*
G01*
X17845Y20051D02*
G03*
X18950Y21100I55J1049D01*
G01*
X18700Y15000D02*
G03*
X18205Y14795I0J-700D01*
G01*
X18700Y15000D02*
G03*
X18205Y14795I0J-700D01*
G01*
X16650Y20840D02*
G03*
X16575Y20751I495J-495D01*
G01*
X16650Y20840D02*
G03*
X16575Y20751I495J-495D01*
G01*
X17920Y14510D02*
G03*
X17715Y14015I495J-495D01*
G01*
X21266Y6350D02*
G03*
X20700Y7369I-1200J0D01*
G01*
X20766Y5375D02*
G03*
X21266Y6350I-700J975D01*
G01*
X23806Y3810D02*
G03*
X23806Y3810I-1200J0D01*
G01*
X21266D02*
G03*
X20766Y4785I-1200J0D01*
G01*
X20700Y7400D02*
G03*
X20495Y7895I-700J0D01*
G01*
X20700Y7400D02*
G03*
X20495Y7895I-700J0D01*
G01*
X17845Y8579D02*
G03*
X17920Y8490I570J406D01*
G01*
Y14510D02*
G03*
X17715Y14015I495J-495D01*
G01*
X17845Y8579D02*
G03*
X17920Y8490I570J406D01*
G01*
X18726Y6350D02*
G03*
X17845Y7507I-1200J0D01*
G01*
X19215Y7196D02*
G03*
X19366Y5375I851J-846D01*
G01*
Y4785D02*
G03*
X21266Y3810I700J-975D01*
G01*
X18226Y5375D02*
G03*
X18726Y6350I-700J975D01*
G01*
X18726Y3810D02*
G03*
X18226Y4785I-1200J0D01*
G01*
X15700Y41917D02*
G03*
X16050Y42700I-700J783D01*
G01*
G03*
X14031Y42297I-1050J0D01*
G01*
X11295Y47305D02*
G03*
X11500Y47800I-495J495D01*
G01*
X11295Y47305D02*
G03*
X11500Y47800I-495J495D01*
G01*
X14031Y42297D02*
G03*
X13716Y40250I-331J-997D01*
G01*
X11105Y44695D02*
G03*
X11007Y44572I495J-495D01*
G01*
X11105Y44695D02*
G03*
X11007Y44572I495J-495D01*
G01*
X15696Y35504D02*
G03*
X15495Y35926I-696J-74D01*
G01*
X15750Y35172D02*
G03*
X15696Y35504I-1050J0D01*
G01*
G03*
X15495Y35926I-696J-74D01*
G01*
X14279Y34210D02*
G03*
X15750Y35172I421J962D01*
G01*
X13904Y34405D02*
G03*
X14279Y34210I495J495D01*
G01*
X13904Y34405D02*
G03*
X14279Y34210I495J495D01*
G01*
X9050Y44700D02*
G03*
X9002Y45012I-1050J0D01*
G01*
X9042Y44572D02*
G03*
X9050Y44700I-1042J128D01*
G01*
X7500Y43777D02*
G03*
X8549Y43805I500J923D01*
G01*
X7850Y42900D02*
G03*
X7500Y43683I-1050J0D01*
G01*
X5015Y48215D02*
G03*
X3800Y46517I-515J-915D01*
G01*
X6839Y41851D02*
G03*
X7850Y42900I-39J1049D01*
G01*
X3800Y41900D02*
G03*
X4005Y41405I700J0D01*
G01*
X3800Y41900D02*
G03*
X4005Y41405I700J0D01*
G01*
X4662Y40748D02*
G03*
X3761Y40332I-62J-1048D01*
G01*
X1559Y52800D02*
G03*
X2233Y50858I541J-900D01*
G01*
G03*
X2425Y50812I258J651D01*
G01*
X2233Y50858D02*
G03*
X2425Y50812I258J651D01*
G01*
X8105Y37305D02*
G03*
X8600Y37100I495J495D01*
G01*
X8105Y37305D02*
G03*
X8600Y37100I495J495D01*
G01*
X3761Y39068D02*
G03*
X4112Y38770I839J632D01*
G01*
G03*
X4934Y36876I588J-870D01*
G01*
X8900Y36100D02*
G03*
X8695Y36595I-700J0D01*
G01*
X8900Y36100D02*
G03*
X8695Y36595I-700J0D01*
G01*
X6600Y28700D02*
G03*
X6805Y28205I700J0D01*
G01*
X6600Y28700D02*
G03*
X6805Y28205I700J0D01*
G01*
X3618Y37310D02*
G03*
X3118Y38285I-1200J0D01*
G01*
X1718D02*
G03*
X3618Y37310I700J-975D01*
G01*
X3118Y31336D02*
G03*
X3618Y32310I-700J975D01*
G01*
G03*
X1718Y31336I-1200J0D01*
G01*
X15297Y22570D02*
G03*
X15175Y22175I578J-395D01*
G01*
X14700Y22920D02*
G03*
X15297Y22570I800J680D01*
G01*
G03*
X15175Y22175I578J-395D01*
G01*
X13505Y24332D02*
G03*
X13300Y23837I495J-495D01*
G01*
X13505Y24332D02*
G03*
X13300Y23837I495J-495D01*
G01*
X14495Y18405D02*
G03*
X14700Y18900I-495J495D01*
G01*
X14495Y18405D02*
G03*
X14700Y18900I-495J495D01*
G01*
X12189Y20606D02*
G03*
X12539Y21389I-700J783D01*
G01*
G03*
X10789Y20606I-1050J0D01*
G01*
X12692Y16892D02*
G03*
X13187Y17097I0J700D01*
G01*
X12692Y16892D02*
G03*
X13187Y17097I0J700D01*
G01*
X13550Y12500D02*
G03*
X12053Y13450I-1050J0D01*
G01*
X15931Y11090D02*
G03*
X16445Y9512I869J-590D01*
G01*
X16186Y6350D02*
G03*
X15936Y7083I-1200J0D01*
G01*
Y8114D02*
G03*
X15658Y8786I-950J0D01*
G01*
X15936Y8114D02*
G03*
X15658Y8786I-950J0D01*
G01*
X16445Y6871D02*
G03*
X16826Y5375I1081J-521D01*
G01*
X15936Y5617D02*
G03*
X16186Y6350I-950J733D01*
G01*
X16826Y4785D02*
G03*
X18726Y3810I700J-975D01*
G01*
X16186D02*
G03*
X15936Y4543I-1200J0D01*
G01*
X14036D02*
G03*
X16186Y3810I950J-733D01*
G01*
X14036Y7083D02*
G03*
X14036Y5617I950J-733D01*
G01*
X13983Y10460D02*
G03*
X13312Y10738I-672J-672D01*
G01*
X13983Y10460D02*
G03*
X13312Y10738I-672J-672D01*
G01*
X12053Y11550D02*
G03*
X13550Y12500I447J950D01*
G01*
X13646Y6350D02*
G03*
X13646Y6350I-1200J0D01*
G01*
Y3810D02*
G03*
X13646Y3810I-1200J0D01*
G01*
X10243Y27300D02*
G03*
X10738Y27505I0J700D01*
G01*
X10243Y27300D02*
G03*
X10738Y27505I0J700D01*
G01*
X10598Y24638D02*
G03*
X8639Y23709I-1200J0D01*
G01*
X10039Y23624D02*
G03*
X10598Y24638I-641J1014D01*
G01*
X7505Y27505D02*
G03*
X8000Y27300I495J495D01*
G01*
X7505Y27505D02*
G03*
X8000Y27300I495J495D01*
G01*
X8050Y20000D02*
G03*
X575Y23485I-4550J0D01*
G01*
Y16515D02*
G03*
X8050Y20000I2925J3485D01*
G01*
X20049Y38655D02*
X19766Y38937D01*
X21039Y40210D01*
X21322Y39927D01*
X20049Y38655D01*
Y38772D02*
X19884Y38937D01*
X21039Y40092D01*
X21204Y39927D01*
X20049Y38772D01*
Y38890D02*
X20002Y38937D01*
X21039Y39974D01*
X21086Y39927D01*
X20049Y38890D01*
X20094Y38964D02*
X20995Y39901D01*
X19484Y39220D02*
X19201Y39503D01*
X20474Y40776D01*
X20756Y40493D01*
X19484Y39220D01*
Y39338D02*
X19319Y39503D01*
X20474Y40658D01*
X20639Y40493D01*
X19484Y39338D01*
Y39456D02*
X19436Y39503D01*
X20474Y40540D01*
X20521Y40493D01*
X19484Y39456D01*
X19528Y39529D02*
X20429Y40467D01*
X24575Y34129D02*
X24292Y34412D01*
X25565Y35685D01*
X25848Y35402D01*
X24575Y34129D01*
Y34247D02*
X24410Y34412D01*
X25565Y35567D01*
X25730Y35402D01*
X24575Y34247D01*
Y34365D02*
X24528Y34412D01*
X25565Y35449D01*
X25612Y35402D01*
X24575Y34365D01*
X24619Y34438D02*
X25520Y35375D01*
X24009Y34695D02*
X23726Y34978D01*
X24999Y36250D01*
X25282Y35968D01*
X24009Y34695D01*
Y34813D02*
X23844Y34978D01*
X24999Y36133D01*
X25164Y35968D01*
X24009Y34813D01*
Y34930D02*
X23962Y34978D01*
X24999Y36015D01*
X25046Y35968D01*
X24009Y34930D01*
X24053Y35004D02*
X24955Y35941D01*
X23443Y35260D02*
X23161Y35543D01*
X24433Y36816D01*
X24716Y36533D01*
X23443Y35260D01*
Y35378D02*
X23278Y35543D01*
X24433Y36698D01*
X24598Y36533D01*
X23443Y35378D01*
Y35496D02*
X23396Y35543D01*
X24433Y36580D01*
X24480Y36533D01*
X23443Y35496D01*
X23488Y35570D02*
X24389Y36507D01*
X22878Y35826D02*
X22595Y36109D01*
X23868Y37382D01*
X24150Y37099D01*
X22878Y35826D01*
Y35944D02*
X22713Y36109D01*
X23868Y37264D01*
X24033Y37099D01*
X22878Y35944D01*
Y36062D02*
X22831Y36109D01*
X23868Y37146D01*
X23915Y37099D01*
X22878Y36062D01*
X22922Y36135D02*
X23823Y37073D01*
X22312Y36392D02*
X22029Y36675D01*
X23302Y37947D01*
X23585Y37665D01*
X22312Y36392D01*
Y36510D02*
X22147Y36675D01*
X23302Y37830D01*
X23467Y37665D01*
X22312Y36510D01*
Y36627D02*
X22265Y36675D01*
X23302Y37712D01*
X23349Y37665D01*
X22312Y36627D01*
X22356Y36701D02*
X23258Y37638D01*
X21746Y36957D02*
X21463Y37240D01*
X22736Y38513D01*
X23019Y38230D01*
X21746Y36957D01*
Y37075D02*
X21581Y37240D01*
X22736Y38395D01*
X22901Y38230D01*
X21746Y37075D01*
Y37193D02*
X21699Y37240D01*
X22736Y38277D01*
X22783Y38230D01*
X21746Y37193D01*
X21791Y37267D02*
X22692Y38204D01*
X21181Y37523D02*
X20898Y37806D01*
X22171Y39079D01*
X22453Y38796D01*
X21181Y37523D01*
Y37641D02*
X21016Y37806D01*
X22171Y38961D01*
X22336Y38796D01*
X21181Y37641D01*
Y37759D02*
X21133Y37806D01*
X22171Y38843D01*
X22218Y38796D01*
X21181Y37759D01*
X21225Y37832D02*
X22126Y38770D01*
X20615Y38089D02*
X20332Y38372D01*
X21605Y39644D01*
X21888Y39362D01*
X20615Y38089D01*
Y38207D02*
X20450Y38372D01*
X21605Y39527D01*
X21770Y39362D01*
X20615Y38207D01*
Y38325D02*
X20568Y38372D01*
X21605Y39409D01*
X21652Y39362D01*
X20615Y38325D01*
X20659Y38398D02*
X21561Y39335D01*
X18918Y39786D02*
X18635Y40069D01*
X19908Y41342D01*
X20191Y41059D01*
X18918Y39786D01*
Y39904D02*
X18753Y40069D01*
X19908Y41224D01*
X20073Y41059D01*
X18918Y39904D01*
Y40022D02*
X18871Y40069D01*
X19908Y41106D01*
X19955Y41059D01*
X18918Y40022D01*
X18962Y40095D02*
X19864Y41032D01*
X18635Y26987D02*
X18918Y27270D01*
X20191Y25997D01*
X19908Y25714D01*
X18635Y26987D01*
X18753D02*
X18918Y27152D01*
X20073Y25997D01*
X19908Y25832D01*
X18753Y26987D01*
X18871D02*
X18918Y27034D01*
X19955Y25997D01*
X19908Y25950D01*
X18871Y26987D01*
X18944Y26943D02*
X19881Y26042D01*
X19201Y27553D02*
X19484Y27836D01*
X20756Y26563D01*
X20473Y26280D01*
X19201Y27553D01*
X19319D02*
X19484Y27718D01*
X20639Y26563D01*
X20473Y26398D01*
X19319Y27553D01*
X19436D02*
X19484Y27600D01*
X20521Y26563D01*
X20473Y26516D01*
X19436Y27553D01*
X19510Y27509D02*
X20447Y26607D01*
X19766Y28119D02*
X20049Y28401D01*
X21322Y27129D01*
X21039Y26846D01*
X19766Y28119D01*
X19884D02*
X20049Y28284D01*
X21204Y27129D01*
X21039Y26964D01*
X19884Y28119D01*
X20002D02*
X20049Y28166D01*
X21086Y27129D01*
X21039Y27082D01*
X20002Y28119D01*
X20076Y28074D02*
X21013Y27173D01*
X20332Y28684D02*
X20615Y28967D01*
X21888Y27694D01*
X21605Y27412D01*
X20332Y28684D01*
X20450D02*
X20615Y28849D01*
X21770Y27694D01*
X21605Y27529D01*
X20450Y28684D01*
X20568D02*
X20615Y28731D01*
X21652Y27694D01*
X21605Y27647D01*
X20568Y28684D01*
X20641Y28640D02*
X21579Y27739D01*
X20898Y29250D02*
X21181Y29533D01*
X22453Y28260D01*
X22171Y27977D01*
X20898Y29250D01*
X21016D02*
X21181Y29415D01*
X22336Y28260D01*
X22171Y28095D01*
X21016Y29250D01*
X21133D02*
X21181Y29297D01*
X22218Y28260D01*
X22171Y28213D01*
X21133Y29250D01*
X21207Y29206D02*
X22144Y28304D01*
X21463Y29816D02*
X21746Y30099D01*
X23019Y28826D01*
X22736Y28543D01*
X21463Y29816D01*
X21581D02*
X21746Y29981D01*
X22901Y28826D01*
X22736Y28661D01*
X21581Y29816D01*
X21699D02*
X21746Y29863D01*
X22783Y28826D01*
X22736Y28779D01*
X21699Y29816D01*
X21773Y29771D02*
X22710Y28870D01*
X22029Y30381D02*
X22312Y30664D01*
X23585Y29391D01*
X23302Y29109D01*
X22029Y30381D01*
X22147D02*
X22312Y30546D01*
X23467Y29391D01*
X23302Y29226D01*
X22147Y30381D01*
X22265D02*
X22312Y30429D01*
X23349Y29391D01*
X23302Y29344D01*
X22265Y30381D01*
X22338Y30337D02*
X23276Y29436D01*
X22595Y30947D02*
X22878Y31230D01*
X24150Y29957D01*
X23868Y29674D01*
X22595Y30947D01*
X22713D02*
X22878Y31112D01*
X24033Y29957D01*
X23868Y29792D01*
X22713Y30947D01*
X22831D02*
X22878Y30994D01*
X23915Y29957D01*
X23868Y29910D01*
X22831Y30947D01*
X22904Y30903D02*
X23841Y30001D01*
X23161Y31513D02*
X23443Y31796D01*
X24716Y30523D01*
X24433Y30240D01*
X23161Y31513D01*
X23278D02*
X23443Y31678D01*
X24598Y30523D01*
X24433Y30358D01*
X23278Y31513D01*
X23396D02*
X23443Y31560D01*
X24480Y30523D01*
X24433Y30476D01*
X23396Y31513D01*
X23470Y31468D02*
X24407Y30567D01*
X23726Y32078D02*
X24009Y32361D01*
X25282Y31088D01*
X24999Y30806D01*
X23726Y32078D01*
X23844D02*
X24009Y32243D01*
X25164Y31088D01*
X24999Y30923D01*
X23844Y32078D01*
X23962D02*
X24009Y32126D01*
X25046Y31088D01*
X24999Y31041D01*
X23962Y32078D01*
X24035Y32034D02*
X24973Y31133D01*
X24292Y32644D02*
X24575Y32927D01*
X25848Y31654D01*
X25565Y31371D01*
X24292Y32644D01*
X24410D02*
X24575Y32809D01*
X25730Y31654D01*
X25565Y31489D01*
X24410Y32644D01*
X24528D02*
X24575Y32691D01*
X25612Y31654D01*
X25565Y31607D01*
X24528Y32644D01*
X24601Y32600D02*
X25538Y31698D01*
X16160Y25714D02*
X15877Y25997D01*
X17150Y27270D01*
X17433Y26987D01*
X16160Y25714D01*
Y25832D02*
X15995Y25997D01*
X17150Y27152D01*
X17315Y26987D01*
X16160Y25832D01*
Y25950D02*
X16113Y25997D01*
X17150Y27034D01*
X17197Y26987D01*
X16160Y25950D01*
X16205Y26024D02*
X17106Y26961D01*
X15594Y26280D02*
X15312Y26563D01*
X16584Y27836D01*
X16867Y27553D01*
X15594Y26280D01*
Y26398D02*
X15429Y26563D01*
X16584Y27718D01*
X16749Y27553D01*
X15594Y26398D01*
Y26516D02*
X15547Y26563D01*
X16584Y27600D01*
X16632Y27553D01*
X15594Y26516D01*
X15639Y26589D02*
X16540Y27527D01*
X15029Y26846D02*
X14746Y27129D01*
X16019Y28401D01*
X16302Y28119D01*
X15029Y26846D01*
Y26964D02*
X14864Y27129D01*
X16019Y28284D01*
X16184Y28119D01*
X15029Y26964D01*
Y27082D02*
X14982Y27129D01*
X16019Y28166D01*
X16066Y28119D01*
X15029Y27082D01*
X15073Y27155D02*
X15974Y28092D01*
X14463Y27412D02*
X14180Y27694D01*
X15453Y28967D01*
X15736Y28684D01*
X14463Y27412D01*
Y27529D02*
X14298Y27694D01*
X15453Y28849D01*
X15618Y28684D01*
X14463Y27529D01*
Y27647D02*
X14416Y27694D01*
X15453Y28731D01*
X15500Y28684D01*
X14463Y27647D01*
X14507Y27721D02*
X15409Y28658D01*
X13897Y27977D02*
X13615Y28260D01*
X14887Y29533D01*
X15170Y29250D01*
X13897Y27977D01*
Y28095D02*
X13732Y28260D01*
X14887Y29415D01*
X15052Y29250D01*
X13897Y28095D01*
Y28213D02*
X13850Y28260D01*
X14887Y29297D01*
X14935Y29250D01*
X13897Y28213D01*
X13942Y28286D02*
X14843Y29224D01*
X13332Y28543D02*
X13049Y28826D01*
X14322Y30099D01*
X14605Y29816D01*
X13332Y28543D01*
Y28661D02*
X13167Y28826D01*
X14322Y29981D01*
X14487Y29816D01*
X13332Y28661D01*
Y28779D02*
X13285Y28826D01*
X14322Y29863D01*
X14369Y29816D01*
X13332Y28779D01*
X13376Y28852D02*
X14277Y29789D01*
X12766Y29109D02*
X12483Y29391D01*
X13756Y30664D01*
X14039Y30381D01*
X12766Y29109D01*
Y29226D02*
X12601Y29391D01*
X13756Y30546D01*
X13921Y30381D01*
X12766Y29226D01*
Y29344D02*
X12719Y29391D01*
X13756Y30429D01*
X13803Y30381D01*
X12766Y29344D01*
X12810Y29418D02*
X13712Y30355D01*
X12200Y29674D02*
X11918Y29957D01*
X13190Y31230D01*
X13473Y30947D01*
X12200Y29674D01*
Y29792D02*
X12035Y29957D01*
X13190Y31112D01*
X13355Y30947D01*
X12200Y29792D01*
Y29910D02*
X12153Y29957D01*
X13190Y30994D01*
X13237Y30947D01*
X12200Y29910D01*
X12245Y29983D02*
X13146Y30921D01*
X11635Y30240D02*
X11352Y30523D01*
X12625Y31796D01*
X12907Y31513D01*
X11635Y30240D01*
Y30358D02*
X11470Y30523D01*
X12625Y31678D01*
X12790Y31513D01*
X11635Y30358D01*
Y30476D02*
X11588Y30523D01*
X12625Y31560D01*
X12672Y31513D01*
X11635Y30476D01*
X11679Y30549D02*
X12580Y31486D01*
X11069Y30806D02*
X10786Y31088D01*
X12059Y32361D01*
X12342Y32078D01*
X11069Y30806D01*
Y30923D02*
X10904Y31088D01*
X12059Y32243D01*
X12224Y32078D01*
X11069Y30923D01*
Y31041D02*
X11022Y31088D01*
X12059Y32126D01*
X12106Y32078D01*
X11069Y31041D01*
X11113Y31115D02*
X12015Y32052D01*
X10503Y31371D02*
X10220Y31654D01*
X11493Y32927D01*
X11776Y32644D01*
X10503Y31371D01*
Y31489D02*
X10338Y31654D01*
X11493Y32809D01*
X11658Y32644D01*
X10503Y31489D01*
Y31607D02*
X10456Y31654D01*
X11493Y32691D01*
X11540Y32644D01*
X10503Y31607D01*
X10548Y31681D02*
X11449Y32618D01*
X10220Y35402D02*
X10503Y35685D01*
X11776Y34412D01*
X11493Y34129D01*
X10220Y35402D01*
X10338D02*
X10503Y35567D01*
X11658Y34412D01*
X11493Y34247D01*
X10338Y35402D01*
X10456D02*
X10503Y35449D01*
X11540Y34412D01*
X11493Y34365D01*
X10456Y35402D01*
X10530Y35357D02*
X11467Y34456D01*
X10786Y35967D02*
X11069Y36250D01*
X12342Y34978D01*
X12059Y34695D01*
X10786Y35967D01*
X10904D02*
X11069Y36132D01*
X12224Y34978D01*
X12059Y34813D01*
X10904Y35967D01*
X11022D02*
X11069Y36015D01*
X12106Y34978D01*
X12059Y34930D01*
X11022Y35967D01*
X11095Y35923D02*
X12033Y35022D01*
X11352Y36533D02*
X11635Y36816D01*
X12907Y35543D01*
X12625Y35260D01*
X11352Y36533D01*
X11470D02*
X11635Y36698D01*
X12790Y35543D01*
X12625Y35378D01*
X11470Y36533D01*
X11588D02*
X11635Y36580D01*
X12672Y35543D01*
X12625Y35496D01*
X11588Y36533D01*
X11661Y36489D02*
X12598Y35588D01*
X11918Y37099D02*
X12200Y37382D01*
X13473Y36109D01*
X13190Y35826D01*
X11918Y37099D01*
X12035D02*
X12200Y37264D01*
X13355Y36109D01*
X13190Y35944D01*
X12035Y37099D01*
X12153D02*
X12200Y37146D01*
X13237Y36109D01*
X13190Y36062D01*
X12153Y37099D01*
X12227Y37055D02*
X13164Y36153D01*
X12483Y37665D02*
X12766Y37947D01*
X14039Y36675D01*
X13756Y36392D01*
X12483Y37665D01*
X12601D02*
X12766Y37830D01*
X13921Y36675D01*
X13756Y36510D01*
X12601Y37665D01*
X12719D02*
X12766Y37712D01*
X13803Y36675D01*
X13756Y36627D01*
X12719Y37665D01*
X12792Y37620D02*
X13730Y36719D01*
X13049Y38230D02*
X13332Y38513D01*
X14605Y37240D01*
X14322Y36957D01*
X13049Y38230D01*
X13167D02*
X13332Y38395D01*
X14487Y37240D01*
X14322Y37075D01*
X13167Y38230D01*
X13285D02*
X13332Y38277D01*
X14369Y37240D01*
X14322Y37193D01*
X13285Y38230D01*
X13358Y38186D02*
X14295Y37285D01*
X13615Y38796D02*
X13897Y39079D01*
X15170Y37806D01*
X14887Y37523D01*
X13615Y38796D01*
X13732D02*
X13897Y38961D01*
X15052Y37806D01*
X14887Y37641D01*
X13732Y38796D01*
X13850D02*
X13897Y38843D01*
X14935Y37806D01*
X14887Y37759D01*
X13850Y38796D01*
X13924Y38752D02*
X14861Y37850D01*
X14180Y39362D02*
X14463Y39644D01*
X15736Y38372D01*
X15453Y38089D01*
X14180Y39362D01*
X14298D02*
X14463Y39527D01*
X15618Y38372D01*
X15453Y38207D01*
X14298Y39362D01*
X14416D02*
X14463Y39409D01*
X15500Y38372D01*
X15453Y38325D01*
X14416Y39362D01*
X14489Y39317D02*
X15427Y38416D01*
X14746Y39927D02*
X15029Y40210D01*
X16302Y38937D01*
X16019Y38655D01*
X14746Y39927D01*
X14864D02*
X15029Y40092D01*
X16184Y38937D01*
X16019Y38772D01*
X14864Y39927D01*
X14982D02*
X15029Y39974D01*
X16066Y38937D01*
X16019Y38890D01*
X14982Y39927D01*
X15055Y39883D02*
X15992Y38982D01*
X15312Y40493D02*
X15594Y40776D01*
X16867Y39503D01*
X16584Y39220D01*
X15312Y40493D01*
X15429D02*
X15594Y40658D01*
X16749Y39503D01*
X16584Y39338D01*
X15429Y40493D01*
X15547D02*
X15594Y40540D01*
X16632Y39503D01*
X16584Y39456D01*
X15547Y40493D01*
X15621Y40449D02*
X16558Y39547D01*
X15877Y41059D02*
X16160Y41342D01*
X17433Y40069D01*
X17150Y39786D01*
X15877Y41059D01*
X15995D02*
X16160Y41224D01*
X17315Y40069D01*
X17150Y39904D01*
X15995Y41059D01*
X16113D02*
X16160Y41106D01*
X17197Y40069D01*
X17150Y40022D01*
X16113Y41059D01*
X16187Y41014D02*
X17124Y40113D01*
X34134Y45400D02*
X34425D01*
X34134Y45300D02*
X34425D01*
X34134Y45200D02*
X34425D01*
X34100Y45499D02*
Y46300D01*
X34134Y45100D02*
X34425D01*
X34134Y45000D02*
X34425D01*
X34134Y44900D02*
X34425D01*
X34134Y44800D02*
X34425D01*
X34134Y44700D02*
X34425D01*
X34134Y43099D02*
Y45499D01*
Y44600D02*
X34425D01*
X34134Y44500D02*
X34425D01*
X34000Y45499D02*
Y46300D01*
X33900Y45499D02*
Y46300D01*
X33800Y45499D02*
Y46300D01*
X33700Y45499D02*
Y46300D01*
X33600Y45499D02*
Y46300D01*
X33500Y45499D02*
Y46300D01*
X33400Y45499D02*
Y46300D01*
X31734Y45499D02*
X34134D01*
X33300D02*
Y46300D01*
X33200Y45499D02*
Y46300D01*
X33100Y45499D02*
Y46300D01*
X34134Y44400D02*
X34425D01*
X34134Y44300D02*
X34425D01*
X34134Y44200D02*
X34425D01*
X34134Y44100D02*
X34425D01*
X34134Y44000D02*
X34425D01*
X34134Y43900D02*
X34425D01*
X34134Y43800D02*
X34425D01*
X34134Y43700D02*
X34425D01*
X34134Y43600D02*
X34425D01*
X34134Y43500D02*
X34425D01*
X34134Y43400D02*
X34425D01*
X34134Y43300D02*
X34425D01*
X34134Y43200D02*
X34425D01*
X34134Y43100D02*
X34425D01*
X31734Y43099D02*
X34134D01*
X34100Y41199D02*
Y43099D01*
X34000Y41199D02*
Y43099D01*
X33900Y41199D02*
Y43099D01*
X33800Y41199D02*
Y43099D01*
X33700Y41199D02*
Y43099D01*
X33600Y41199D02*
Y43099D01*
X33500Y41199D02*
Y43099D01*
X33400Y41199D02*
Y43099D01*
X33300Y41199D02*
Y43099D01*
X33000Y45499D02*
Y46300D01*
X32900Y45499D02*
Y46300D01*
X32800Y45499D02*
Y46300D01*
X32700Y45499D02*
Y46300D01*
X32600Y45499D02*
Y46300D01*
X32500Y45499D02*
Y46300D01*
X32400Y45499D02*
Y46300D01*
X32300Y45499D02*
Y46300D01*
X32200Y45499D02*
Y46300D01*
X32100Y45499D02*
Y46300D01*
X32000Y45499D02*
Y46300D01*
X31900Y45499D02*
Y46300D01*
X31800Y45499D02*
Y46300D01*
X31100Y45298D02*
Y46300D01*
X31000Y45357D02*
Y46300D01*
X30900Y45405D02*
Y46300D01*
X30800Y45442D02*
Y46300D01*
X31600Y44584D02*
Y46300D01*
X31500Y44851D02*
Y46300D01*
X31734Y43099D02*
Y45499D01*
X31400Y45011D02*
Y46300D01*
X31300Y45130D02*
Y46300D01*
X31200Y45223D02*
Y46300D01*
X31525Y44800D02*
X31734D01*
X31473Y44900D02*
X31734D01*
X31565Y44700D02*
X31734D01*
X31596Y44600D02*
X31734D01*
X31617Y44500D02*
X31734D01*
X31630Y44400D02*
X31734D01*
X31630Y44200D02*
X31734D01*
X31617Y44100D02*
X31734D01*
X31596Y44000D02*
X31734D01*
X31566Y43900D02*
X31734D01*
X31525Y43800D02*
X31734D01*
X31097Y45300D02*
X31734D01*
X30912Y45400D02*
X31734D01*
X31227Y45200D02*
X31734D01*
X31408Y45000D02*
X31734D01*
X31328Y45100D02*
X31734D01*
X31474Y43700D02*
X31734D01*
X31409Y43600D02*
X31734D01*
X31329Y43500D02*
X31734D01*
X31228Y43400D02*
X31734D01*
X31098Y43300D02*
X31734D01*
X30915Y43200D02*
X31734D01*
X34134Y41100D02*
X34425D01*
X34134Y41000D02*
X34425D01*
X34134Y40900D02*
X34425D01*
X33200Y41199D02*
Y43099D01*
X33100Y41199D02*
Y43099D01*
X34134Y40800D02*
X34425D01*
X34134Y40700D02*
X34425D01*
X34134Y40600D02*
X34425D01*
X34134Y40500D02*
X34425D01*
X34134Y38799D02*
Y41199D01*
Y40400D02*
X34425D01*
X34134Y40300D02*
X34425D01*
X33000Y41199D02*
Y43099D01*
X32900Y41199D02*
Y43099D01*
X32800Y41199D02*
Y43099D01*
X32700Y41199D02*
Y43099D01*
X32600Y41199D02*
Y43099D01*
X32500Y41199D02*
Y43099D01*
X32400Y41199D02*
Y43099D01*
X31734Y41199D02*
X34134D01*
X32300D02*
Y43099D01*
X32200Y41199D02*
Y43099D01*
X32100Y41199D02*
Y43099D01*
X34134Y40200D02*
X34425D01*
X34134Y40100D02*
X34425D01*
X34134Y40000D02*
X34425D01*
X34134Y39900D02*
X34425D01*
X34134Y39800D02*
X34425D01*
X34134Y39700D02*
X34425D01*
X34134Y39600D02*
X34425D01*
X34134Y39500D02*
X34425D01*
X34134Y39400D02*
X34425D01*
X34134Y39300D02*
X34425D01*
X34134Y39200D02*
X34425D01*
X34134Y39100D02*
X34425D01*
X34134Y39000D02*
X34425D01*
X34134Y38900D02*
X34425D01*
X34134Y38800D02*
X34425D01*
X31734Y38799D02*
X34134D01*
X32600Y37784D02*
Y38799D01*
X32500Y37784D02*
Y38799D01*
X32400Y37784D02*
Y38799D01*
X32300Y37784D02*
Y38799D01*
X32200Y37784D02*
Y38799D01*
X32100Y37784D02*
Y38799D01*
X32000Y41199D02*
Y43099D01*
X31900Y41199D02*
Y43099D01*
X31800Y41199D02*
Y43099D01*
X31500Y40551D02*
Y43748D01*
X31473Y40600D02*
X31734D01*
X31525Y40500D02*
X31734D01*
X31596Y40300D02*
X31734D01*
X31565Y40400D02*
X31734D01*
X31617Y40200D02*
X31734D01*
X31700Y37784D02*
Y46300D01*
X31600Y40284D02*
Y44015D01*
X31734Y38799D02*
Y41199D01*
X31100Y40998D02*
Y43301D01*
X30912Y41100D02*
X31734D01*
X31097Y41000D02*
X31734D01*
X31000Y41057D02*
Y43241D01*
X30900Y41105D02*
Y43193D01*
X30800Y41142D02*
Y43156D01*
X31328Y40800D02*
X31734D01*
X31227Y40900D02*
X31734D01*
X31408Y40700D02*
X31734D01*
X31400Y40711D02*
Y43587D01*
X31300Y40830D02*
Y43468D01*
X31200Y40923D02*
Y43375D01*
X31630Y40100D02*
X31734D01*
X31630Y39900D02*
X31734D01*
X31617Y39800D02*
X31734D01*
X31596Y39700D02*
X31734D01*
X31566Y39600D02*
X31734D01*
X31525Y39500D02*
X31734D01*
X32000Y37784D02*
Y38799D01*
X31474Y39400D02*
X31734D01*
X31900Y37784D02*
Y38799D01*
X31600Y37784D02*
Y39715D01*
X31500Y37784D02*
Y39448D01*
X31800Y37784D02*
Y38799D01*
X31409Y39300D02*
X31734D01*
X31329Y39200D02*
X31734D01*
X31228Y39100D02*
X31734D01*
X31400Y37784D02*
Y39287D01*
X31098Y39000D02*
X31734D01*
X30915Y38900D02*
X31734D01*
X31300Y37784D02*
Y39168D01*
X31200Y37784D02*
Y39075D01*
X31100Y37784D02*
Y39001D01*
X31000Y37784D02*
Y38941D01*
X30900Y37784D02*
Y38893D01*
X30700Y45469D02*
Y46300D01*
X30600Y45488D02*
Y46300D01*
X30500Y45497D02*
Y46300D01*
X30400Y45499D02*
Y46300D01*
X30300Y45492D02*
Y46300D01*
X30200Y45476D02*
Y46300D01*
X30100Y45452D02*
Y46300D01*
X30000Y45418D02*
Y46300D01*
X30470Y43100D02*
X31734D01*
X29900Y45374D02*
Y46300D01*
X29800Y45318D02*
Y46300D01*
X29700Y45248D02*
Y46300D01*
X23949Y46000D02*
X34425D01*
X23200Y46300D02*
X34425D01*
X23949Y45900D02*
X34425D01*
X26542Y45800D02*
X34425D01*
X26542Y45700D02*
X34425D01*
X26542Y45600D02*
X34425D01*
X26542Y45500D02*
X34425D01*
X26542Y45400D02*
X29956D01*
X26542Y45300D02*
X29772D01*
X29590Y43200D02*
X29953D01*
X29390Y43000D02*
X34425D01*
X29290Y42900D02*
X34425D01*
X29190Y42800D02*
X34425D01*
X29490Y43100D02*
X30399D01*
X29090Y42700D02*
X34425D01*
X28990Y42600D02*
X34425D01*
X30700Y41169D02*
Y43129D01*
X28890Y42500D02*
X34425D01*
X28790Y42400D02*
X34425D01*
X30600Y41188D02*
Y43111D01*
X30500Y41197D02*
Y43101D01*
X30400Y41199D02*
Y43100D01*
X28690Y42300D02*
X34425D01*
X28590Y42200D02*
X34425D01*
X28490Y42100D02*
X34425D01*
X28390Y42000D02*
X34425D01*
X28290Y41900D02*
X34425D01*
X28190Y41800D02*
X34425D01*
X28090Y41700D02*
X34425D01*
X27990Y41600D02*
X34425D01*
X27890Y41500D02*
X34425D01*
X27790Y41400D02*
X34425D01*
X27690Y41300D02*
X34425D01*
X27590Y41200D02*
X34425D01*
X29600Y45162D02*
Y46300D01*
X29500Y45052D02*
Y46300D01*
X29400Y44932D02*
Y46300D01*
X29300Y44874D02*
Y46300D01*
X29200Y44790D02*
Y46300D01*
X29100Y44690D02*
Y46300D01*
X29000Y44590D02*
Y46300D01*
X28900Y44490D02*
Y46300D01*
X28800Y44390D02*
Y46300D01*
X28700Y44290D02*
Y46300D01*
X28600Y44190D02*
Y46300D01*
X28500Y44090D02*
Y46300D01*
X28400Y43990D02*
Y46300D01*
X26542Y45200D02*
X29641D01*
X26542Y45100D02*
X29540D01*
X28300Y43890D02*
Y46300D01*
X28200Y43790D02*
Y46300D01*
X28100Y43690D02*
Y46300D01*
X28000Y43590D02*
Y46300D01*
X27900Y43490D02*
Y46300D01*
X27800Y43390D02*
Y46300D01*
X27700Y43290D02*
Y46300D01*
X27600Y43190D02*
Y46300D01*
X27500Y43090D02*
Y46300D01*
X26542Y45000D02*
X29460D01*
X26542Y44900D02*
X29340D01*
X26542Y44800D02*
X29210D01*
X26542Y44700D02*
X29110D01*
X26540Y42130D02*
X29204Y44794D01*
X26542Y44600D02*
X29010D01*
X26542Y44500D02*
X28910D01*
X26542Y44400D02*
X28810D01*
X26542Y44300D02*
X28710D01*
X26542Y44200D02*
X28610D01*
X26542Y44100D02*
X28510D01*
X26542Y44000D02*
X28410D01*
X26542Y43900D02*
X28310D01*
X26542Y43800D02*
X28210D01*
X26542Y43700D02*
X28110D01*
X26542Y43600D02*
X28010D01*
X21206Y43400D02*
X27810D01*
X21171Y43500D02*
X27910D01*
X25703Y43300D02*
X27710D01*
X25947Y43200D02*
X27610D01*
X26099Y43100D02*
X27510D01*
X30300Y41192D02*
Y43107D01*
X30200Y41176D02*
Y43122D01*
X30100Y41152D02*
Y43147D01*
X30000Y41118D02*
Y43181D01*
X29800Y41018D02*
Y43280D01*
X29900Y41074D02*
Y43225D01*
X30800Y37784D02*
Y38856D01*
X29800Y36814D02*
Y38980D01*
X30000Y33890D02*
Y38881D01*
X29700Y40948D02*
Y43310D01*
X29600Y40862D02*
Y43210D01*
X29700Y37161D02*
Y39050D01*
X27490Y41100D02*
X29956D01*
X27089Y40699D02*
X29723Y43333D01*
X27390Y41000D02*
X29772D01*
X29500Y40752D02*
Y43110D01*
X27290Y40900D02*
X29641D01*
X27190Y40800D02*
X29540D01*
X27861Y39000D02*
X29770D01*
X27518Y39100D02*
X29640D01*
X22757Y39200D02*
X29539D01*
X29600Y37290D02*
Y39137D01*
X30700Y37784D02*
Y38829D01*
X30470Y38800D02*
X31734D01*
X28990Y37900D02*
X34425D01*
X30600Y37784D02*
Y38811D01*
X30500Y37784D02*
Y38801D01*
X30400Y37784D02*
Y38800D01*
X30300Y37784D02*
Y38807D01*
X29090Y37800D02*
X34425D01*
X30287Y37784D02*
X32687D01*
X30200Y33690D02*
Y38822D01*
X29900Y33990D02*
Y38925D01*
X30100Y33790D02*
Y38847D01*
X28290Y38600D02*
X34425D01*
X28190Y38700D02*
X34425D01*
X28390Y38500D02*
X34425D01*
X28090Y38800D02*
X30398D01*
X27990Y38900D02*
X29953D01*
X28490Y38400D02*
X34425D01*
X28690Y38200D02*
X34425D01*
X28590Y38300D02*
X34425D01*
X28790Y38100D02*
X34425D01*
X27995Y38895D02*
X29595Y37295D01*
X28890Y38000D02*
X34425D01*
X29400Y40699D02*
Y43010D01*
X29300Y40699D02*
Y42910D01*
X29200Y40699D02*
Y42810D01*
X29100Y40699D02*
Y42710D01*
X29000Y40699D02*
Y42610D01*
X28900Y40699D02*
Y42510D01*
X28800Y40699D02*
Y42410D01*
X28700Y40699D02*
Y42310D01*
X29400Y37490D02*
Y39299D01*
X28600Y40699D02*
Y42210D01*
X28500Y40699D02*
Y42110D01*
X28400Y40699D02*
Y42010D01*
X28300Y40699D02*
Y41910D01*
X28200Y40699D02*
Y41810D01*
X28100Y40699D02*
Y41710D01*
X28000Y40699D02*
Y41610D01*
X27900Y40699D02*
Y41510D01*
X27800Y40699D02*
Y41410D01*
X27090Y40700D02*
X29460D01*
X27089Y40699D02*
X29459D01*
X23501Y39299D02*
X29459D01*
X27700Y40699D02*
Y41310D01*
X27600Y40699D02*
Y41210D01*
X27500Y40699D02*
Y41110D01*
X28800Y38090D02*
Y39299D01*
X28700Y38190D02*
Y39299D01*
X28600Y38290D02*
Y39299D01*
X28500Y38390D02*
Y39299D01*
X28400Y38490D02*
Y39299D01*
X28300Y38590D02*
Y39299D01*
X29300Y37590D02*
Y39299D01*
X29200Y37690D02*
Y39299D01*
X29500Y37390D02*
Y39246D01*
X29100Y37790D02*
Y39299D01*
X29000Y37890D02*
Y39299D01*
X28900Y37990D02*
Y39299D01*
X27900Y38975D02*
Y39299D01*
X27800Y39033D02*
Y39299D01*
X27700Y39071D02*
Y39299D01*
X27600Y39093D02*
Y39299D01*
X27500Y39100D02*
Y39299D01*
X24037Y39100D02*
X27500D01*
X28200Y38690D02*
Y39299D01*
X28100Y38790D02*
Y39299D01*
X28000Y38890D02*
Y39299D01*
X32687Y37700D02*
X34425D01*
X32687Y37600D02*
X34425D01*
X32687Y37500D02*
X34425D01*
X32687Y37400D02*
X34425D01*
X32687Y37300D02*
X34425D01*
X32687Y37200D02*
X34425D01*
X32687Y37100D02*
X34425D01*
X32687Y37000D02*
X34425D01*
X32687Y36900D02*
X34425D01*
X32687Y36800D02*
X34425D01*
X32687Y36700D02*
X34425D01*
X32687Y36600D02*
X34425D01*
X32687Y36500D02*
X34425D01*
X32687Y36400D02*
X34425D01*
X32687Y36300D02*
X34425D01*
X32687Y36200D02*
X34425D01*
X32687Y36100D02*
X34425D01*
X32687Y36000D02*
X34425D01*
X32687Y35900D02*
X34425D01*
X32687Y35800D02*
X34425D01*
X32687Y35700D02*
X34425D01*
X32687Y35600D02*
X34425D01*
X32687Y35500D02*
X34425D01*
X32687Y35400D02*
X34425D01*
X31585Y32700D02*
X34425D01*
X31090Y32800D02*
X34425D01*
X31975Y32600D02*
X34425D01*
X32285Y32400D02*
X34425D01*
X32156Y32500D02*
X34425D01*
X32385Y32300D02*
X34425D01*
X32528Y32100D02*
X34425D01*
X32464Y32200D02*
X34425D01*
X32579Y32000D02*
X34425D01*
X32619Y31900D02*
X34425D01*
X32650Y31800D02*
X34425D01*
X32670Y31700D02*
X34425D01*
X29990Y33900D02*
X34425D01*
X29890Y34000D02*
X34425D01*
X30090Y33800D02*
X34425D01*
X30290Y33600D02*
X34425D01*
X30190Y33700D02*
X34425D01*
X30390Y33500D02*
X34425D01*
X30590Y33300D02*
X34425D01*
X30490Y33400D02*
X34425D01*
X30690Y33200D02*
X34425D01*
X30890Y33000D02*
X34425D01*
X30790Y33100D02*
X34425D01*
X30990Y32900D02*
X34425D01*
X32687Y35384D02*
Y37784D01*
X32000Y32588D02*
Y35384D01*
X31900Y32630D02*
Y35384D01*
X31800Y32662D02*
Y35384D01*
X31700Y32685D02*
Y35384D01*
X31600Y32698D02*
Y35384D01*
X32600Y31952D02*
Y35384D01*
X32500Y32147D02*
Y35384D01*
X32400Y32282D02*
Y35384D01*
X32300Y32386D02*
Y35384D01*
X32200Y32469D02*
Y35384D01*
X32100Y32535D02*
Y35384D01*
X30900Y32990D02*
Y35384D01*
X30287D02*
X32687D01*
X30800Y33090D02*
Y35384D01*
X30700Y33190D02*
Y35384D01*
X30287D02*
Y37784D01*
X30600Y33290D02*
Y35384D01*
X31500Y32704D02*
Y35384D01*
X31400Y32701D02*
Y35384D01*
X31300Y32689D02*
Y35384D01*
X31200Y32690D02*
Y35384D01*
X31100Y32790D02*
Y35384D01*
X31000Y32890D02*
Y35384D01*
X32683Y31600D02*
X34425D01*
X32687Y31500D02*
X34425D01*
X32682Y31400D02*
X34425D01*
X32669Y31300D02*
X34425D01*
X32647Y31200D02*
X34425D01*
X32617Y31100D02*
X34425D01*
X32576Y31000D02*
X34425D01*
X32523Y30900D02*
X34425D01*
X32458Y30800D02*
X34425D01*
X32377Y30700D02*
X34425D01*
X32276Y30600D02*
X34425D01*
X32144Y30500D02*
X34425D01*
X30500Y33390D02*
Y35384D01*
X31190Y32700D02*
X31388D01*
X30400Y33490D02*
Y35384D01*
X30300Y33590D02*
Y35384D01*
X30000Y30690D02*
Y31910D01*
X30090Y30600D02*
X30697D01*
X29990Y30700D02*
X30596D01*
X30190Y30500D02*
X30829D01*
X30100Y30590D02*
Y31810D01*
X30200Y30490D02*
Y31710D01*
X32504Y29600D02*
X34425D01*
X32560Y29500D02*
X34425D01*
X32605Y29400D02*
X34425D01*
X32600Y29412D02*
Y31056D01*
X32500Y29607D02*
Y30861D01*
X32639Y29300D02*
X34425D01*
X32663Y29200D02*
X34425D01*
X32679Y29100D02*
X34425D01*
X32686Y29000D02*
X34425D01*
X32685Y28900D02*
X34425D01*
X32675Y28800D02*
X34425D01*
X32657Y28700D02*
X34425D01*
X31957Y30400D02*
X34425D01*
X30390Y30300D02*
X34425D01*
X30490Y30200D02*
X34425D01*
X31873Y30100D02*
X34425D01*
X32092Y30000D02*
X34425D01*
X32347Y29800D02*
X34425D01*
X32238Y29900D02*
X34425D01*
X32434Y29700D02*
X34425D01*
X32400Y29742D02*
Y30725D01*
X32630Y28600D02*
X34425D01*
X32593Y28500D02*
X34425D01*
X32546Y28400D02*
X34425D01*
X32500Y27067D02*
Y28321D01*
X32486Y28300D02*
X34425D01*
X32539Y27000D02*
X34425D01*
X32588Y26900D02*
X34425D01*
X32626Y26800D02*
X34425D01*
X32654Y26700D02*
X34425D01*
X32674Y26600D02*
X34425D01*
X32600Y26872D02*
Y28516D01*
X32684Y26500D02*
X34425D01*
X32412Y28200D02*
X34425D01*
X32319Y28100D02*
X34425D01*
X32201Y28000D02*
X34425D01*
X32041Y27900D02*
X34425D01*
X31778Y27800D02*
X34425D01*
X31726Y27600D02*
X34425D01*
X32185Y27400D02*
X34425D01*
X32018Y27500D02*
X34425D01*
X32307Y27300D02*
X34425D01*
X32400Y27202D02*
Y28185D01*
X32402Y27200D02*
X34425D01*
X32478Y27100D02*
X34425D01*
X31700Y30145D02*
Y30323D01*
X31600Y30158D02*
Y30309D01*
X31500Y30164D02*
Y30304D01*
X31400Y30161D02*
Y30307D01*
X31300Y30149D02*
Y30318D01*
X31200Y30129D02*
Y30339D01*
X32300Y29846D02*
Y30621D01*
X32200Y29929D02*
Y30539D01*
X32100Y29995D02*
Y30472D01*
X32000Y30048D02*
Y30419D01*
X31900Y30090D02*
Y30377D01*
X31800Y30122D02*
Y30345D01*
X31100Y30100D02*
Y30368D01*
X30290Y30400D02*
X31016D01*
X31000Y30061D02*
Y30407D01*
X30400Y30290D02*
Y30995D01*
X30300Y30390D02*
Y31326D01*
X30500Y30190D02*
Y30821D01*
X30900Y30011D02*
Y30457D01*
X30590Y30100D02*
X31100D01*
X30690Y30000D02*
X30881D01*
X30700Y29990D02*
Y30598D01*
X30600Y30090D02*
Y30695D01*
X30800Y29948D02*
Y30520D01*
X31900Y27550D02*
Y27837D01*
X31800Y27582D02*
Y27805D01*
X31700Y27605D02*
Y27783D01*
X31600Y27618D02*
Y27769D01*
X31500Y27624D02*
Y27764D01*
X31400Y27621D02*
Y27767D01*
X32300Y27306D02*
Y28081D01*
X32200Y27389D02*
Y27999D01*
X32100Y27455D02*
Y27932D01*
X32000Y27508D02*
Y27879D01*
X31300Y27609D02*
Y27778D01*
X31200Y27589D02*
Y27799D01*
X31000Y27521D02*
Y27867D01*
X30900Y27471D02*
Y27917D01*
X31100Y27560D02*
Y27828D01*
X30800Y27408D02*
Y27980D01*
X30600Y27232D02*
Y28155D01*
X30500Y27107D02*
Y28281D01*
X30700Y27330D02*
Y28058D01*
X30300Y26602D02*
Y28416D01*
X30400Y26933D02*
Y28350D01*
X29771Y37000D02*
X30287D01*
X29793Y36900D02*
X30287D01*
X29800Y36800D02*
X30287D01*
X29800Y36700D02*
X30287D01*
X29800Y36600D02*
X30287D01*
X29800Y36500D02*
X30287D01*
X29800Y36400D02*
X30287D01*
X29800Y36300D02*
X30287D01*
X29800Y36200D02*
X30287D01*
X29800Y34090D02*
Y36800D01*
Y36100D02*
X30287D01*
X29800Y36000D02*
X30287D01*
X29290Y37600D02*
X30287D01*
X29190Y37700D02*
X30287D01*
X29390Y37500D02*
X30287D01*
X29590Y37300D02*
X30287D01*
X29490Y37400D02*
X30287D01*
X29675Y37200D02*
X30287D01*
X29800Y35900D02*
X30287D01*
X29733Y37100D02*
X30287D01*
X29800Y35800D02*
X30287D01*
X29800Y35700D02*
X30287D01*
X29800Y35300D02*
X34425D01*
X29800Y35200D02*
X34425D01*
X29800Y35100D02*
X34425D01*
X29800Y35600D02*
X30287D01*
X29800Y35500D02*
X30287D01*
X29800Y35400D02*
X30287D01*
X29800Y35000D02*
X34425D01*
X29800Y34900D02*
X34425D01*
X29800Y34800D02*
X34425D01*
X29800Y34700D02*
X34425D01*
X29800Y34600D02*
X34425D01*
X29800Y34500D02*
X34425D01*
X29800Y34400D02*
X34425D01*
X29800Y34300D02*
X34425D01*
X29800Y34200D02*
X34425D01*
X29800Y34100D02*
X34425D01*
X27700Y33700D02*
X28407D01*
X27700Y33400D02*
X28526D01*
X27700Y33200D02*
X28710D01*
X27700Y33100D02*
X28810D01*
X27700Y33000D02*
X28910D01*
X27700Y33300D02*
X28610D01*
X27671Y36400D02*
X28400D01*
X27633Y36500D02*
X28400D01*
X27693Y36300D02*
X28400D01*
X27700Y36213D02*
Y37210D01*
X27600Y36561D02*
Y37310D01*
X27700Y36200D02*
X28400D01*
X27700Y36100D02*
X28400D01*
X27700Y36000D02*
X28400D01*
X27700Y35900D02*
X28400D01*
Y33800D02*
Y36510D01*
X27800Y32890D02*
Y37110D01*
X27700Y32990D02*
Y36200D01*
X27345Y37000D02*
X27910D01*
X27331Y37100D02*
X27810D01*
X27390Y36800D02*
X28110D01*
X27271Y37300D02*
X27610D01*
X27223Y37400D02*
X27510D01*
X27306Y37200D02*
X27710D01*
X27490Y36700D02*
X28210D01*
X27210Y37700D02*
X28400Y36510D01*
X27575Y36600D02*
X28310D01*
X27500Y36690D02*
Y37410D01*
X27700Y35800D02*
X28400D01*
X27700Y35700D02*
X28400D01*
X27700Y35600D02*
X28400D01*
X27700Y35500D02*
X28400D01*
X27700Y35400D02*
X28400D01*
X27700Y35300D02*
X28400D01*
X27700Y35200D02*
X28400D01*
X27700Y35100D02*
X28400D01*
X27700Y35000D02*
X28400D01*
X27700Y34900D02*
X28400D01*
X27700Y34800D02*
X28400D01*
X27700Y34700D02*
X28400D01*
X27700Y34600D02*
X28400D01*
X27700Y34500D02*
X28400D01*
X27700Y34400D02*
X28400D01*
X27700Y34300D02*
X28400D01*
X27700Y34200D02*
X28400D01*
X27700Y34100D02*
X28400D01*
X27700Y34000D02*
X28400D01*
X27700Y33600D02*
X28429D01*
X27700Y33500D02*
X28468D01*
X27700Y33900D02*
X28400D01*
X27700Y33800D02*
X28400D01*
X29800Y34090D02*
X31217Y32673D01*
X29490Y31200D02*
X30326D01*
X29590Y31100D02*
X30357D01*
X29290Y31400D02*
X30291D01*
X29190Y31500D02*
X30287D01*
X29390Y31300D02*
X30304D01*
X29790Y30900D02*
X30450D01*
X29690Y31000D02*
X30398D01*
X29890Y30800D02*
X30515D01*
X29800Y30890D02*
Y32110D01*
X29700Y30990D02*
Y32210D01*
X29900Y30790D02*
Y32010D01*
X28890Y31800D02*
X30110D01*
X28790Y31900D02*
X30010D01*
X28990Y31700D02*
X30210D01*
X28590Y32100D02*
X29810D01*
X28490Y32200D02*
X29710D01*
X28690Y32000D02*
X29910D01*
X28605Y33305D02*
X30292Y31618D01*
X27700Y32990D02*
X30766Y29924D01*
X29090Y31600D02*
X30290D01*
X28231Y28900D02*
X29810D01*
X28142Y30568D02*
X30241Y28469D01*
X28206Y28800D02*
X29910D01*
X27982Y28400D02*
X30322D01*
X27880Y28300D02*
X30487D01*
X27740Y28200D02*
X30561D01*
X28171Y28700D02*
X30010D01*
X28123Y28600D02*
X30110D01*
X28062Y28500D02*
X30210D01*
X25850Y27600D02*
X31248D01*
X25853Y27500D02*
X30955D01*
X25853Y27400D02*
X30788D01*
X27519Y28100D02*
X30654D01*
X25853Y27300D02*
X30666D01*
X25853Y27200D02*
X30571D01*
X25803Y27800D02*
X31195D01*
X25754Y27900D02*
X30932D01*
X25834Y27700D02*
X34425D01*
X25853Y27100D02*
X30495D01*
X25681Y28000D02*
X30772D01*
X25853Y27000D02*
X30434D01*
X25853Y26900D02*
X30385D01*
X25853Y26800D02*
X30347D01*
X25853Y26700D02*
X30319D01*
X25853Y26600D02*
X30300D01*
X25853Y26500D02*
X30289D01*
X28800Y31890D02*
Y33110D01*
X28700Y31990D02*
Y33210D01*
X28900Y31790D02*
Y33010D01*
X28500Y32190D02*
Y33440D01*
X28400Y32290D02*
Y36510D01*
X28600Y32090D02*
Y33310D01*
X29400Y31290D02*
Y32510D01*
X29300Y31390D02*
Y32610D01*
X29500Y31190D02*
Y32410D01*
X29100Y31590D02*
Y32810D01*
X29000Y31690D02*
Y32910D01*
X29200Y31490D02*
Y32710D01*
X27890Y32800D02*
X29110D01*
X27790Y32900D02*
X29010D01*
X27990Y32700D02*
X29210D01*
X28000Y32690D02*
Y36910D01*
X27900Y32790D02*
Y37010D01*
X28100Y32590D02*
Y36810D01*
X28290Y32400D02*
X29510D01*
X28190Y32500D02*
X29410D01*
X28390Y32300D02*
X29610D01*
X28300Y32390D02*
Y36610D01*
X28200Y32490D02*
Y36710D01*
X28090Y32600D02*
X29310D01*
X29600Y31090D02*
Y32310D01*
X28123Y29600D02*
X29110D01*
X28171Y29500D02*
X29210D01*
X28106Y30400D02*
X28310D01*
X28100Y29641D02*
Y30379D01*
X28071Y30300D02*
X28410D01*
X28245Y29200D02*
X29510D01*
X28250Y29100D02*
X29610D01*
X28245Y29000D02*
X29710D01*
X28200Y29421D02*
Y30510D01*
X28206Y29400D02*
X29310D01*
X28231Y29300D02*
X29410D01*
X27962Y30100D02*
X28610D01*
X27882Y30000D02*
X28710D01*
X27880Y29900D02*
X28810D01*
X28023Y30200D02*
X28510D01*
X27900Y29883D02*
Y30020D01*
X27983Y29800D02*
X28910D01*
X28062Y29700D02*
X29010D01*
X28000Y29780D02*
Y30159D01*
X26500Y45843D02*
Y46300D01*
X26400Y45843D02*
Y46300D01*
X26300Y45843D02*
Y46300D01*
X26200Y45843D02*
Y46300D01*
X26100Y45843D02*
Y46300D01*
X26000Y45843D02*
Y46300D01*
X25900Y45843D02*
Y46300D01*
X25800Y45843D02*
Y46300D01*
X25700Y45843D02*
Y46300D01*
X25600Y45843D02*
Y46300D01*
X25500Y45843D02*
Y46300D01*
X25400Y45843D02*
Y46300D01*
X25300Y45843D02*
Y46300D01*
X25200Y45843D02*
Y46300D01*
X25100Y45843D02*
Y46300D01*
X25000Y45843D02*
Y46300D01*
X24900Y45843D02*
Y46300D01*
X24800Y45843D02*
Y46300D01*
X24700Y45843D02*
Y46300D01*
X24600Y45843D02*
Y46300D01*
X24500Y45843D02*
Y46300D01*
X24400Y45843D02*
Y46300D01*
X24300Y45843D02*
Y46300D01*
X24200Y45393D02*
Y46300D01*
X26542Y43543D02*
Y45843D01*
X24242D02*
X26542D01*
X24242Y45393D02*
Y45843D01*
X24100Y45393D02*
Y46300D01*
X24000Y45393D02*
Y46300D01*
X23949Y45393D02*
Y46090D01*
X25700Y43301D02*
Y43543D01*
X24242D02*
X26542D01*
X25600Y43324D02*
Y43543D01*
X25500Y43338D02*
Y43543D01*
X24242D02*
Y43993D01*
X25400Y43343D02*
Y43543D01*
X23949Y45800D02*
X24242D01*
X23949Y45700D02*
X24242D01*
X23949Y45600D02*
X24242D01*
X23949Y45500D02*
X24242D01*
X21249Y46090D02*
X23949D01*
Y45400D02*
X24242D01*
X23949Y45393D02*
X24242D01*
X23949Y43993D02*
X24242D01*
X23949Y43900D02*
X24242D01*
X23949Y43800D02*
X24242D01*
X23949Y43700D02*
X24242D01*
X23949Y43600D02*
X24242D01*
X23200Y46090D02*
Y46390D01*
X21600Y49300D02*
Y49750D01*
X21500Y48890D02*
Y49925D01*
X21600Y48890D02*
Y49750D01*
X23100Y46090D02*
Y46390D01*
X23000Y46090D02*
Y46390D01*
X22900Y46090D02*
Y46390D01*
X22800Y46090D02*
Y46390D01*
X22700Y46090D02*
Y46390D01*
X22600Y46090D02*
Y46390D01*
X21350Y50877D02*
Y52253D01*
X21419Y50307D02*
Y50520D01*
X21400Y48890D02*
Y50573D01*
X21249Y48890D02*
X21732D01*
X21249Y46390D02*
X23200D01*
X21300Y48890D02*
Y52380D01*
X21200Y43421D02*
Y52800D01*
X21249Y46390D02*
Y48890D01*
X23900Y46090D02*
Y46300D01*
X23800Y46090D02*
Y46300D01*
X23700Y46090D02*
Y46300D01*
X23600Y46090D02*
Y46300D01*
X23500Y46090D02*
Y46300D01*
X23400Y46090D02*
Y46300D01*
X23300Y46090D02*
Y46300D01*
X22500Y46090D02*
Y46390D01*
X23949Y43590D02*
Y43993D01*
X22400Y46090D02*
Y46390D01*
X22300Y46090D02*
Y46390D01*
X22200Y46090D02*
Y46390D01*
X22100Y46090D02*
Y46390D01*
X22000Y46090D02*
Y46390D01*
X21900Y46090D02*
Y46390D01*
X21800Y46090D02*
Y46390D01*
X21700Y46090D02*
Y46390D01*
X21600Y46090D02*
Y46390D01*
X21500Y46090D02*
Y46390D01*
X21400Y46090D02*
Y46390D01*
X21249Y43590D02*
X23949D01*
X21300Y46090D02*
Y46390D01*
X21249Y43590D02*
Y46090D01*
X27400Y42990D02*
Y46300D01*
X27300Y42890D02*
Y46300D01*
X27200Y42790D02*
Y46300D01*
X27100Y42690D02*
Y46300D01*
X26400Y42746D02*
Y43543D01*
X26300Y42898D02*
Y43543D01*
X27000Y42590D02*
Y46300D01*
X26900Y42490D02*
Y46300D01*
X26800Y42390D02*
Y46300D01*
X26700Y42290D02*
Y46300D01*
X26600Y42190D02*
Y46300D01*
X26500Y42500D02*
Y43543D01*
X25900Y43224D02*
Y43543D01*
X25800Y43268D02*
Y43543D01*
X25300Y43339D02*
Y43543D01*
X25200Y43326D02*
Y43543D01*
X25100Y43305D02*
Y43543D01*
X25000Y43274D02*
Y43543D01*
X26200Y43011D02*
Y43543D01*
X26100Y43099D02*
Y43543D01*
X26000Y43169D02*
Y43543D01*
X24200Y42893D02*
Y43993D01*
X24100Y42893D02*
Y43993D01*
X24000Y42893D02*
Y43993D01*
X26299Y42900D02*
X27310D01*
X26211Y43000D02*
X27410D01*
X26368Y42800D02*
X27210D01*
X26424Y42700D02*
X27110D01*
X24900Y43232D02*
Y43543D01*
X26467Y42600D02*
X27010D01*
X27400Y40699D02*
Y41010D01*
X27300Y40699D02*
Y40910D01*
X27200Y40699D02*
Y40810D01*
X26523Y42400D02*
X26810D01*
X26500Y42500D02*
X26910D01*
X26537Y42300D02*
X26710D01*
X24800Y43179D02*
Y43543D01*
X21231Y43300D02*
X25081D01*
X21245Y43200D02*
X24837D01*
X24700Y43111D02*
Y43543D01*
X24600Y43026D02*
Y43543D01*
X21250Y43100D02*
X24685D01*
X24500Y42919D02*
Y43543D01*
X21245Y43000D02*
X24573D01*
X24400Y42893D02*
Y43543D01*
X24300Y42893D02*
Y43543D01*
X23900Y42893D02*
Y43590D01*
X23800Y42893D02*
Y43590D01*
X23700Y42893D02*
Y43590D01*
X23600Y42893D02*
Y43590D01*
X23500Y42893D02*
Y43590D01*
X23400Y42893D02*
Y43590D01*
X23300Y42893D02*
Y43590D01*
X23200Y42893D02*
Y43590D01*
X23100Y42893D02*
Y43590D01*
X23000Y42893D02*
Y43590D01*
X22900Y42893D02*
Y43590D01*
X22800Y42893D02*
Y43590D01*
X22700Y42893D02*
Y43590D01*
X22600Y42893D02*
Y43590D01*
X22500Y42893D02*
Y43590D01*
X22400Y42893D02*
Y43590D01*
X22300Y42893D02*
Y43590D01*
X22200Y42893D02*
Y43590D01*
X22100Y42893D02*
Y43590D01*
X22000Y42893D02*
Y43590D01*
X21900Y42893D02*
Y43590D01*
X21800Y42893D02*
Y43590D01*
X21700Y42893D02*
Y43590D01*
X21600Y42893D02*
Y43590D01*
X21500Y42893D02*
Y43590D01*
X22557Y39400D02*
X23139D01*
X22810Y39700D02*
X23006Y39504D01*
X22700Y39257D02*
Y39700D01*
X22600Y39357D02*
Y39700D01*
X23200Y38757D02*
Y39367D01*
X23000Y38957D02*
Y39510D01*
X23100Y38857D02*
Y39425D01*
X22900Y39057D02*
Y39610D01*
X22800Y39157D02*
Y39700D01*
X22595Y39362D02*
X22736Y39220D01*
X22257Y39700D02*
X22810D01*
X22256Y39700D02*
X22810D01*
X22400Y39557D02*
Y39700D01*
X21400Y42893D02*
Y43590D01*
X21300Y42893D02*
Y43590D01*
X22357Y39600D02*
X22910D01*
X22256Y39700D02*
X22595Y39362D01*
X22457Y39500D02*
X23010D01*
X22256Y39700D02*
X22595Y39362D01*
X22500Y39457D02*
Y39700D01*
X20769Y52200D02*
X21350D01*
X20769Y52100D02*
X21350D01*
X20769Y52000D02*
X21350D01*
X20769Y51900D02*
X21350D01*
X20769Y51800D02*
X21350D01*
X20769Y51700D02*
X21350D01*
X21100Y43641D02*
Y52800D01*
X21000Y43780D02*
Y52800D01*
X20769Y51600D02*
X21350D01*
X20900Y43883D02*
Y52800D01*
X20800Y43962D02*
Y52800D01*
X20769Y49357D02*
Y52257D01*
Y51500D02*
X21350D01*
X20769Y51400D02*
X21350D01*
X20769Y51300D02*
X21350D01*
X20700Y52257D02*
Y52800D01*
X20600Y52257D02*
Y52800D01*
X18869Y52257D02*
X20769D01*
Y51200D02*
X21350D01*
X20769Y51100D02*
X21350D01*
X20769Y51000D02*
X21350D01*
X20769Y50900D02*
X21350D01*
X20769Y50800D02*
X21353D01*
X20769Y50500D02*
X21419D01*
X20769Y50400D02*
X21419D01*
X20769Y50300D02*
X21419D01*
X20769Y50700D02*
X21367D01*
X20769Y50600D02*
X21391D01*
X20769Y50200D02*
X21426D01*
X20769Y50100D02*
X21442D01*
X20769Y50000D02*
X21471D01*
X20880Y43900D02*
X21249D01*
X21062Y43700D02*
X21249D01*
X20983Y43800D02*
X21249D01*
X21123Y43600D02*
X21249D01*
X20769Y49700D02*
X21600D01*
X20769Y49600D02*
X21600D01*
X20769Y49500D02*
X21600D01*
X20769Y49900D02*
X21511D01*
X20769Y49800D02*
X21566D01*
X20769Y49400D02*
X21600D01*
X20521Y44100D02*
X21249D01*
X20741Y44000D02*
X21249D01*
X20700Y44023D02*
Y49357D01*
X18869D02*
X20769D01*
X20600Y44071D02*
Y49357D01*
X20500Y52257D02*
Y52800D01*
X20400Y52257D02*
Y52800D01*
X20300Y52257D02*
Y52800D01*
X20200Y52257D02*
Y52800D01*
X20100Y52257D02*
Y52800D01*
X20000Y52257D02*
Y52800D01*
X19900Y52257D02*
Y52800D01*
X19800Y52257D02*
Y52800D01*
X19700Y52257D02*
Y52800D01*
X19600Y52257D02*
Y52800D01*
X19500Y52257D02*
Y52800D01*
X19400Y52257D02*
Y52800D01*
X19300Y52257D02*
Y52800D01*
X19200Y52257D02*
Y52800D01*
X19100Y52257D02*
Y52800D01*
X19000Y52257D02*
Y52800D01*
X18900Y52257D02*
Y52800D01*
X18800Y43680D02*
Y52800D01*
X18700Y43598D02*
Y52800D01*
X18600Y43498D02*
Y52800D01*
X18500Y43398D02*
Y52800D01*
X18400Y43298D02*
Y52800D01*
X18300Y43198D02*
Y52800D01*
X20400Y44131D02*
Y49357D01*
X20300Y44145D02*
Y49357D01*
X20200Y44150D02*
Y49357D01*
X20100Y44145D02*
Y49357D01*
X20000Y44131D02*
Y49357D01*
X20500Y44106D02*
Y49357D01*
X19900Y44106D02*
Y49357D01*
X19800Y44071D02*
Y49357D01*
X19700Y44023D02*
Y49357D01*
X19600Y43962D02*
Y49357D01*
X19500Y43883D02*
Y49357D01*
X19400Y43800D02*
Y49357D01*
X19191Y43800D02*
X19417D01*
X19300D02*
Y49357D01*
X18869D02*
Y52257D01*
X19200Y43800D02*
Y49357D01*
X19100Y43794D02*
Y49357D01*
X19000Y43773D02*
Y49357D01*
X18900Y43736D02*
Y49357D01*
X21231Y42900D02*
X24485D01*
X21229Y42893D02*
X24479D01*
X19381Y42300D02*
X19520D01*
X19281Y42200D02*
X19660D01*
X19181Y42100D02*
X19881D01*
X19800Y41941D02*
Y42129D01*
X19600Y41741D02*
Y42238D01*
X19700Y41841D02*
Y42177D01*
X19500Y41641D02*
Y42317D01*
X19400Y41541D02*
Y42319D01*
X19300Y41441D02*
Y42219D01*
X19081Y42000D02*
X19859D01*
X18981Y41900D02*
X19759D01*
X18881Y41800D02*
X19659D01*
X19200Y41341D02*
Y42119D01*
X16655Y41554D02*
X18696Y43595D01*
X18781Y41700D02*
X19559D01*
X18918Y41059D02*
X19942Y42082D01*
X17645Y40564D02*
X19448Y42367D01*
X18918Y41058D02*
X19908Y42049D01*
X19100Y41241D02*
Y42019D01*
X19000Y41141D02*
Y41919D01*
X18900Y41041D02*
Y41819D01*
X18681Y41600D02*
X19459D01*
X18581Y41500D02*
X19359D01*
X18481Y41400D02*
X19259D01*
X18800Y40941D02*
Y41719D01*
X18700Y40841D02*
Y41619D01*
X18381Y41300D02*
X19159D01*
X18600Y40741D02*
Y41519D01*
X18494Y39503D02*
X18918Y39079D01*
X18494Y39503D02*
X18918Y39079D01*
X18500Y40641D02*
Y41419D01*
Y27559D02*
Y39497D01*
X18600Y27659D02*
Y39397D01*
X18281Y41200D02*
X19059D01*
X18181Y41100D02*
X18959D01*
X18081Y41000D02*
X18859D01*
X17981Y40900D02*
X18759D01*
X17881Y40800D02*
X18659D01*
X17781Y40700D02*
X18559D01*
X18034Y40175D02*
X18918Y41058D01*
X17571Y39500D02*
X18497D01*
X17471Y39400D02*
X18597D01*
X17681Y40600D02*
X18459D01*
X18034Y39963D02*
X18494Y39503D01*
X18200Y43098D02*
Y52800D01*
X18100Y42998D02*
Y52800D01*
X18400Y40541D02*
Y41319D01*
X18000Y42898D02*
Y52800D01*
X17900Y42798D02*
Y52800D01*
X17800Y42698D02*
Y52800D01*
X18300Y40441D02*
Y41219D01*
X18200Y40341D02*
Y41119D01*
X18100Y40241D02*
Y41019D01*
X18000Y40209D02*
Y40919D01*
X17900Y40309D02*
Y40819D01*
X17800Y40409D02*
Y40719D01*
X17700Y42598D02*
Y52800D01*
X17600Y42498D02*
Y52800D01*
X17500Y42398D02*
Y52800D01*
X17400Y42298D02*
Y52800D01*
X17300Y42198D02*
Y52800D01*
X17200Y42098D02*
Y52800D01*
X17100Y41998D02*
Y52800D01*
X17000Y41898D02*
Y52800D01*
X16900Y41798D02*
Y52800D01*
X16800Y41698D02*
Y52800D01*
X16700Y41598D02*
Y52800D01*
X16600Y41609D02*
Y52800D01*
X17909Y40300D02*
X18159D01*
X17809Y40400D02*
X18259D01*
X17871Y39800D02*
X18197D01*
X18100Y39897D02*
Y40241D01*
X18000Y39929D02*
Y40209D01*
X17971Y39900D02*
X18097D01*
X18300Y27359D02*
Y39697D01*
X18200Y27259D02*
Y39797D01*
X18400Y27459D02*
Y39597D01*
X18100Y27159D02*
Y39897D01*
X18000Y27127D02*
Y39929D01*
X17900Y27227D02*
Y39829D01*
X17771Y39700D02*
X18297D01*
X17709Y40500D02*
X18359D01*
X17671Y39600D02*
X18397D01*
X17700Y40509D02*
Y40619D01*
X17645Y40564D02*
X18034Y40175D01*
X17574Y39503D02*
X18034Y39963D01*
X17800Y27327D02*
Y39729D01*
X17700Y27427D02*
Y39629D01*
X17600Y27527D02*
Y39529D01*
X17150Y39079D02*
X17574Y39503D01*
X17500Y27627D02*
Y39429D01*
X27400Y39100D02*
Y39299D01*
X27300Y39100D02*
Y39299D01*
X27200Y39100D02*
Y39299D01*
X27100Y39100D02*
Y39299D01*
X27000Y39100D02*
Y39299D01*
X26980Y37700D02*
X27210D01*
X27083Y37600D02*
X27310D01*
X27300Y37221D02*
Y37610D01*
X27200Y37441D02*
Y37700D01*
X26980D02*
X27210D01*
X27100Y37580D02*
Y37700D01*
X26900Y39100D02*
Y39299D01*
X26800Y39100D02*
Y39299D01*
X26700Y39100D02*
Y39299D01*
X26600Y39100D02*
Y39299D01*
X26500Y39100D02*
Y39299D01*
X26400Y39100D02*
Y39299D01*
X26300Y39100D02*
Y39299D01*
X26200Y39100D02*
Y39299D01*
X26100Y39100D02*
Y39299D01*
X26000Y39100D02*
Y39299D01*
X25900Y39100D02*
Y39299D01*
X25800Y39100D02*
Y39299D01*
X27400Y36790D02*
Y37510D01*
X27162Y37500D02*
X27410D01*
X27348Y36842D02*
X27495Y36695D01*
X26153Y35000D02*
X26300D01*
X26053Y34900D02*
X26300D01*
X25953Y34800D02*
X26300D01*
X25853Y34700D02*
X26300D01*
X25753Y34600D02*
X26300D01*
X25653Y34500D02*
X26300D01*
X25553Y34400D02*
X26300D01*
X25453Y34300D02*
X26300D01*
X25353Y34200D02*
X26300D01*
X25253Y34100D02*
X26300D01*
X25153Y34000D02*
X26300D01*
X25053Y33900D02*
X26300D01*
X24953Y33800D02*
X26300D01*
X24853Y33700D02*
X26300D01*
X24753Y33600D02*
X26300D01*
X24681Y33528D02*
X26300Y35147D01*
X24709Y33500D02*
X26300D01*
X24809Y33400D02*
X26300D01*
X25009Y33200D02*
X26300D01*
X24909Y33300D02*
X26300D01*
X25109Y33100D02*
X26300D01*
X25700Y39100D02*
Y39299D01*
X25600Y39100D02*
Y39299D01*
X25500Y39100D02*
Y39299D01*
X25400Y39100D02*
Y39299D01*
X25300Y39100D02*
Y39299D01*
X25200Y39100D02*
Y39299D01*
X25100Y39100D02*
Y39299D01*
X25000Y39100D02*
Y39299D01*
X24900Y39100D02*
Y39299D01*
X24800Y39100D02*
Y39299D01*
X24700Y39100D02*
Y39299D01*
X24600Y39100D02*
Y39299D01*
X24500Y39100D02*
Y39299D01*
X24400Y39100D02*
Y39299D01*
X24300Y39100D02*
Y39299D01*
X24200Y39100D02*
Y39299D01*
X24100Y39100D02*
Y39299D01*
X24000Y39099D02*
Y39299D01*
X23900Y39086D02*
Y39299D01*
X23800Y39058D02*
Y39299D01*
X23700Y39013D02*
Y39299D01*
X23600Y38946D02*
Y39299D01*
X23500Y38852D02*
Y39299D01*
X23400Y38752D02*
Y39307D01*
X24900Y33309D02*
Y33747D01*
X24800Y33409D02*
Y33647D01*
X24397Y33600D02*
X24753D01*
X24400Y33459D02*
Y33597D01*
X24009Y33988D02*
X24469Y33528D01*
X24440Y33500D02*
X24709D01*
X25100Y33109D02*
Y33947D01*
X25000Y33209D02*
Y33847D01*
X24009Y33068D02*
X24469Y33528D01*
X24200Y33259D02*
Y33797D01*
X24100Y33159D02*
Y33897D01*
X24300Y33359D02*
Y33697D01*
X23057Y38900D02*
X23547D01*
X23300Y38657D02*
Y39329D01*
X23302Y38655D02*
X23542Y38895D01*
X23157Y38800D02*
X23447D01*
X23585Y34412D02*
X24009Y33988D01*
X23585Y34412D02*
X24009Y33988D01*
X24000Y33059D02*
Y33997D01*
X23161Y38796D02*
X23302Y38655D01*
X23443Y34553D02*
X23585Y34412D01*
X26009Y32200D02*
X26510D01*
X26300Y32700D02*
Y35147D01*
X26100Y32109D02*
Y34947D01*
X26000Y32209D02*
Y34847D01*
X26505Y32205D02*
X26968Y31742D01*
X26500Y31709D02*
Y32210D01*
X26600Y31623D02*
Y32110D01*
X26300Y31909D02*
Y35147D01*
X26200Y32009D02*
Y35047D01*
X26400Y31809D02*
Y32340D01*
X25309Y32900D02*
X26300D01*
X25209Y33000D02*
X26300D01*
X25709Y32500D02*
X26329D01*
X25509Y32700D02*
X26300D01*
X25409Y32800D02*
X26300D01*
X25609Y32600D02*
X26307D01*
X25564Y32644D02*
X26555Y31654D01*
X25565Y32644D02*
X26555Y31654D01*
X25909Y32300D02*
X26426D01*
X25900Y32309D02*
Y34747D01*
X25800Y32409D02*
Y34647D01*
X25809Y32400D02*
X26368D01*
X26800Y31706D02*
Y31910D01*
X26309Y31900D02*
X26810D01*
X26409Y31800D02*
X26910D01*
X26209Y32000D02*
X26710D01*
X26109Y32100D02*
X26610D01*
X26700Y31671D02*
Y32010D01*
X26509Y31700D02*
X26779D01*
X25584Y28100D02*
X26881D01*
X25484Y28200D02*
X26660D01*
X24999Y30099D02*
X26163Y28934D01*
X24784Y28900D02*
X26169D01*
X24884Y28800D02*
X26194D01*
X24584Y29100D02*
X25998D01*
X24484Y29200D02*
X25898D01*
X24684Y29000D02*
X26098D01*
X25284Y28400D02*
X26418D01*
X25184Y28500D02*
X26338D01*
X25384Y28300D02*
X26520D01*
X24984Y28700D02*
X26229D01*
X25084Y28600D02*
X26277D01*
X25600Y32609D02*
Y34447D01*
X25500Y32709D02*
Y34347D01*
X24681Y33528D02*
X25564Y32644D01*
X25400Y32809D02*
Y34247D01*
X25300Y32909D02*
Y34147D01*
X25200Y33009D02*
Y34047D01*
X25700Y32509D02*
Y34547D01*
X24900Y30000D02*
X25098D01*
X24800Y29900D02*
X25198D01*
X25100Y28583D02*
Y29998D01*
X25000Y28683D02*
Y30098D01*
X24900Y28783D02*
Y29999D01*
X23900Y32959D02*
Y34097D01*
X23800Y32859D02*
Y34197D01*
X23585Y32644D02*
X24009Y33068D01*
X23600Y32659D02*
Y34397D01*
X23500Y32559D02*
Y34497D01*
X23700Y32759D02*
Y34297D01*
X24433Y29533D02*
X24999Y30099D01*
X23400Y32459D02*
Y34597D01*
X24433Y29533D02*
X24858Y29957D01*
X23200Y32259D02*
Y34797D01*
X23100Y32159D02*
Y34897D01*
X23300Y32359D02*
Y34697D01*
X25200Y28483D02*
Y29898D01*
X24700Y29800D02*
X25298D01*
X24600Y29700D02*
X25398D01*
X24800Y28883D02*
Y29899D01*
X24700Y28983D02*
Y29799D01*
X24600Y29083D02*
Y29699D01*
X25700Y27977D02*
Y29398D01*
X25600Y28083D02*
Y29498D01*
X25800Y27807D02*
Y29298D01*
X25400Y28283D02*
Y29698D01*
X25300Y28383D02*
Y29798D01*
X25500Y28183D02*
Y29598D01*
X24400Y29500D02*
X25598D01*
X24300Y29400D02*
X25698D01*
X24384Y29300D02*
X25798D01*
X24500Y29600D02*
X25498D01*
X24292Y29391D02*
X24433Y29533D01*
X24400Y29283D02*
Y29499D01*
X24500Y29183D02*
Y29599D01*
X24292Y29391D02*
X25648Y28036D01*
X23302Y28401D02*
X24453Y27251D01*
X23200Y28300D02*
X23404D01*
X23100Y28200D02*
X23504D01*
X22857Y39100D02*
X24019D01*
X22657Y39300D02*
X23474D01*
X22957Y39000D02*
X23676D01*
X22736Y39220D02*
X23161Y38796D01*
X22736Y39220D02*
X23161Y38796D01*
X22453Y35543D02*
X22878Y35119D01*
X23019Y34978D01*
X22453Y35543D02*
X22878Y35119D01*
X22900Y31959D02*
Y35097D01*
X22700Y31759D02*
Y35297D01*
X22600Y31659D02*
Y35397D01*
X22800Y31859D02*
Y35197D01*
X21888Y36109D02*
X22312Y35685D01*
X21888Y36109D02*
X22312Y35685D01*
X22453Y35543D01*
X21746Y36250D02*
X21888Y36109D01*
X21322Y36675D02*
X21746Y36250D01*
X21900Y31783D02*
Y36097D01*
X22400Y31459D02*
Y35597D01*
X22300Y31383D02*
Y35697D01*
X22500Y31559D02*
Y35497D01*
X22100Y31583D02*
Y35897D01*
X22000Y31683D02*
Y35997D01*
X22200Y31483D02*
Y35797D01*
X23019Y34978D02*
X23443Y34553D01*
X23019Y34978D02*
X23443Y34553D01*
X23019Y32078D02*
X24009Y33068D01*
X23019Y32078D02*
X23443Y32503D01*
X23000Y32059D02*
Y34997D01*
X21845Y32000D02*
X22940D01*
X22878Y31937D02*
X23019Y32078D01*
X22453Y31513D02*
X22878Y31937D01*
X22312Y31371D02*
X22878Y31937D01*
X22084Y31600D02*
X22540D01*
X21984Y31700D02*
X22640D01*
X22184Y31500D02*
X22440D01*
X21341Y32800D02*
X23740D01*
X21121Y32900D02*
X23840D01*
X21480Y32700D02*
X23640D01*
X21662Y32500D02*
X23440D01*
X21583Y32600D02*
X23540D01*
X21723Y32400D02*
X23340D01*
X21771Y32300D02*
X23240D01*
X21806Y32200D02*
X23140D01*
X21831Y32100D02*
X23040D01*
X21884Y31800D02*
X22740D01*
X21848Y31835D02*
X22312Y31371D01*
X20191Y37806D02*
X20615Y37382D01*
X20049Y37947D02*
X20191Y37806D01*
X20615Y37382D01*
X19625Y38372D02*
X20049Y37947D01*
X19484Y38513D02*
X19625Y38372D01*
X19625Y38372D02*
X20049Y37947D01*
X20200Y32762D02*
Y37797D01*
X20100Y32683D02*
Y37897D01*
X20300Y32823D02*
Y37697D01*
X19900Y32441D02*
Y38097D01*
X19800Y32220D02*
Y38197D01*
X20000Y32580D02*
Y37997D01*
X18918Y39079D02*
X19059Y38937D01*
X17071Y39000D02*
X18997D01*
X16971Y38900D02*
X19097D01*
X17371Y39300D02*
X18697D01*
X17271Y39200D02*
X18797D01*
X17171Y39100D02*
X18897D01*
X19059Y38937D02*
X19484Y38513D01*
X19059Y38937D02*
X19484Y38513D01*
X16571Y38500D02*
X19497D01*
X16871Y38800D02*
X19197D01*
X16771Y38700D02*
X19297D01*
X16671Y38600D02*
X19397D01*
X21322Y36675D02*
X21746Y36250D01*
X21181Y36816D02*
X21322Y36675D01*
X21400Y32762D02*
Y36597D01*
X21200Y32871D02*
Y36797D01*
X21100Y32906D02*
Y36897D01*
X21300Y32823D02*
Y36697D01*
X21700Y32441D02*
Y36297D01*
X21600Y32580D02*
Y36397D01*
X21800Y32221D02*
Y36197D01*
X21500Y32683D02*
Y36497D01*
X21200Y30259D02*
Y30504D01*
X21181Y30240D02*
X21322Y30381D01*
X20756Y37240D02*
X21181Y36816D01*
X20756Y37240D02*
X21181Y36816D01*
X21000Y32931D02*
Y36997D01*
X20800Y32950D02*
Y37197D01*
X20615Y37382D02*
X20756Y37240D01*
X20900Y32945D02*
Y37097D01*
X20700Y32945D02*
Y37297D01*
X20600Y32931D02*
Y37397D01*
X20852Y30851D02*
X21322Y30381D01*
X20400Y32871D02*
Y37597D01*
X20500Y32906D02*
Y37497D01*
X21100Y30159D02*
Y30604D01*
X21000Y30059D02*
Y30704D01*
X20756Y29816D02*
X21181Y30240D01*
X20900Y29959D02*
Y30804D01*
X20800Y29859D02*
Y30850D01*
X20700Y29759D02*
Y30855D01*
X20600Y29659D02*
Y30869D01*
X20500Y29559D02*
Y30894D01*
X20615Y29674D02*
X21181Y30240D01*
X20300Y29359D02*
Y30977D01*
X20200Y29259D02*
Y31038D01*
X20400Y29459D02*
Y30929D01*
X20191Y29250D02*
X20615Y29674D01*
X20100Y29159D02*
Y31117D01*
X20191Y29250D02*
X20615Y29674D01*
X19900Y28959D02*
Y31359D01*
X19800Y28859D02*
Y31580D01*
X20000Y29059D02*
Y31220D01*
X19700Y28759D02*
Y38297D01*
X19625Y28684D02*
X20191Y29250D01*
X19625Y28684D02*
X20049Y29109D01*
X19600Y28659D02*
Y38397D01*
X19500Y28559D02*
Y38497D01*
X19484Y28543D02*
X19625Y28684D01*
X22900Y28000D02*
X23704D01*
X22800Y27900D02*
X23804D01*
X22700Y27800D02*
X23904D01*
X22736Y27836D02*
X23302Y28401D01*
X22736Y27836D02*
X23161Y28260D01*
X23000Y28100D02*
X23604D01*
X22400Y27500D02*
X24204D01*
X22300Y27400D02*
X24304D01*
X22200Y27300D02*
X24404D01*
X22595Y27694D02*
X22736Y27836D01*
X22600Y27700D02*
X24004D01*
X22500Y27600D02*
X24104D01*
X22100Y27200D02*
X24453D01*
X22000Y27100D02*
X24453D01*
X21900Y27000D02*
X24453D01*
X22171Y27270D02*
X22595Y27694D01*
X22171Y27270D02*
X22595Y27694D01*
X22029Y27129D02*
X22171Y27270D01*
X21800Y26900D02*
X24453D01*
X21700Y26800D02*
X24453D01*
X21600Y26700D02*
X24453D01*
X21605Y26704D02*
X22029Y27129D01*
X21500Y26600D02*
X24453D01*
X19400Y28459D02*
Y38597D01*
X19300Y28359D02*
Y38697D01*
X19059Y28119D02*
X19484Y28543D01*
X19100Y28159D02*
Y38897D01*
X19000Y28059D02*
Y38997D01*
X19200Y28259D02*
Y38797D01*
X18900Y27959D02*
Y39097D01*
X18800Y27859D02*
Y39197D01*
X18494Y27553D02*
X19484Y28543D01*
X18700Y27759D02*
Y39297D01*
X17400Y27727D02*
Y39329D01*
X17300Y27827D02*
Y39229D01*
X16628Y28500D02*
X19440D01*
X16528Y28600D02*
X19540D01*
X16728Y28400D02*
X19340D01*
X16800Y28327D02*
Y38729D01*
X16700Y28427D02*
Y38629D01*
X16600Y28527D02*
Y38529D01*
X17200Y27927D02*
Y39129D01*
X17100Y28027D02*
Y39029D01*
X17000Y28127D02*
Y38929D01*
X16900Y28227D02*
Y38829D01*
X16584Y28543D02*
X17009Y28119D01*
X16584Y28543D02*
X17009Y28119D01*
X18494Y27553D02*
X18918Y27977D01*
X17528Y27600D02*
X18540D01*
X17628Y27500D02*
X18440D01*
X17828Y27300D02*
X18240D01*
X17728Y27400D02*
X18340D01*
X17928Y27200D02*
X18140D01*
X18034Y27093D02*
X18494Y27553D01*
X17853Y26700D02*
X18215D01*
X17753Y26600D02*
X18315D01*
X18100Y26815D02*
Y27159D01*
X18000Y26847D02*
Y27127D01*
X17953Y26800D02*
X18115D01*
X16928Y28200D02*
X19140D01*
X16828Y28300D02*
X19240D01*
X17028Y28100D02*
X19040D01*
X17128Y28000D02*
X18940D01*
X17009Y28119D02*
X17150Y27977D01*
X17228Y27900D02*
X18840D01*
X17428Y27700D02*
X18640D01*
X17328Y27800D02*
X18740D01*
X17574Y27553D02*
X18034Y27093D01*
X17150Y27977D02*
X17574Y27553D01*
X17150Y27977D02*
X17574Y27553D01*
X34000Y23802D02*
Y38799D01*
X33800Y23926D02*
Y38799D01*
X33700Y23983D02*
Y38799D01*
X33600Y24036D02*
Y38799D01*
X33500Y24087D02*
Y38799D01*
X33400Y24134D02*
Y38799D01*
X34425Y23485D02*
Y46300D01*
X34400Y23506D02*
Y46300D01*
X34300Y23587D02*
Y46300D01*
X34200Y23662D02*
Y46300D01*
X34100Y23734D02*
Y38799D01*
X33900Y23866D02*
Y38799D01*
X32686Y26400D02*
X34425D01*
X32680Y26300D02*
X34425D01*
X32666Y26200D02*
X34425D01*
X32700Y24389D02*
Y38799D01*
X33300Y24179D02*
Y38799D01*
X33200Y24221D02*
Y38799D01*
X33100Y24259D02*
Y38799D01*
X33000Y24296D02*
Y38799D01*
X32900Y24329D02*
Y38799D01*
X32800Y24360D02*
Y38799D01*
X32642Y26100D02*
X34425D01*
X32609Y26000D02*
X34425D01*
X32659Y24400D02*
X34425D01*
X32988Y24300D02*
X34425D01*
X32600Y24415D02*
Y25976D01*
X33251Y24200D02*
X34425D01*
X33669Y24000D02*
X34425D01*
X33473Y24100D02*
X34425D01*
X33844Y23900D02*
X34425D01*
X34148Y23700D02*
X34425D01*
X34003Y23800D02*
X34425D01*
X34283Y23600D02*
X34425D01*
X32566Y25900D02*
X34425D01*
X32512Y25800D02*
X34425D01*
X32444Y25700D02*
X34425D01*
X32359Y25600D02*
X34425D01*
X32252Y25500D02*
X34425D01*
X32112Y25400D02*
X34425D01*
X32500Y24439D02*
Y25781D01*
X31907Y25300D02*
X34425D01*
X32174Y24500D02*
X34425D01*
X32400Y24460D02*
Y25645D01*
X32300Y24479D02*
Y25541D01*
X32200Y24496D02*
Y25459D01*
X30200Y24360D02*
Y28510D01*
X30100Y24329D02*
Y28610D01*
X29900Y24259D02*
Y28810D01*
X29800Y24220D02*
Y28910D01*
X30000Y24296D02*
Y28710D01*
X29600Y24134D02*
Y29110D01*
X29500Y24087D02*
Y29210D01*
X29700Y24179D02*
Y29010D01*
X29300Y23983D02*
Y29410D01*
X29200Y23926D02*
Y29510D01*
X29400Y24036D02*
Y29310D01*
X29000Y23802D02*
Y29710D01*
X28900Y23734D02*
Y29810D01*
X29100Y23865D02*
Y29610D01*
X28800Y23662D02*
Y29910D01*
X28700Y23586D02*
Y30010D01*
X26500Y26006D02*
Y28317D01*
X28500Y23421D02*
Y30210D01*
X28400Y23330D02*
Y30310D01*
X28600Y23506D02*
Y30110D01*
X28300Y23234D02*
Y30410D01*
X28200Y23132D02*
Y28779D01*
X28100Y23024D02*
Y28559D01*
X32100Y24510D02*
Y25392D01*
X32000Y24522D02*
Y25339D01*
X31600Y24549D02*
Y25229D01*
X31500Y24550D02*
Y25224D01*
X31400Y24549D02*
Y25227D01*
X31900Y24532D02*
Y25297D01*
X31800Y24540D02*
Y25265D01*
X31700Y24546D02*
Y25243D01*
X31300Y24546D02*
Y25238D01*
X31100Y24532D02*
Y25288D01*
X31200Y24540D02*
Y25259D01*
X30900Y24510D02*
Y25377D01*
X30800Y24496D02*
Y25440D01*
X31000Y24522D02*
Y25327D01*
X26503Y26000D02*
X30364D01*
X26503Y25900D02*
X30407D01*
X30700Y24479D02*
Y25518D01*
X30500Y24439D02*
Y25741D01*
X30400Y24415D02*
Y25915D01*
X30600Y24460D02*
Y25615D01*
X30300Y24389D02*
Y26246D01*
X26503Y23506D02*
Y26006D01*
X34282Y16400D02*
X34425D01*
X34148Y16300D02*
X34425D01*
X34002Y16200D02*
X34425D01*
Y575D02*
Y16515D01*
X34400Y575D02*
Y16494D01*
X33843Y16100D02*
X34425D01*
X34300Y575D02*
Y16413D01*
X34200Y575D02*
Y16338D01*
X34100Y575D02*
Y16266D01*
X34000Y575D02*
Y16198D01*
X33900Y575D02*
Y16134D01*
X33800Y575D02*
Y16074D01*
X33668Y16000D02*
X34425D01*
X27808Y16300D02*
X28852D01*
X27808Y16200D02*
X28998D01*
X27808Y16100D02*
X29157D01*
X33700Y575D02*
Y16017D01*
X33600Y575D02*
Y15964D01*
X29400Y15141D02*
Y15964D01*
X29100Y15166D02*
Y16135D01*
X29000Y15160D02*
Y16198D01*
X29200Y15164D02*
Y16074D01*
X33473Y15900D02*
X34425D01*
X33250Y15800D02*
X34425D01*
X32987Y15700D02*
X34425D01*
X33500Y575D02*
Y15913D01*
X33400Y575D02*
Y15866D01*
X30200Y14695D02*
Y15640D01*
X33300Y575D02*
Y15821D01*
X33200Y575D02*
Y15779D01*
X33100Y575D02*
Y15741D01*
X33000Y575D02*
Y15704D01*
X32900Y575D02*
Y15671D01*
X32800Y575D02*
Y15640D01*
X29600Y15088D02*
Y15866D01*
X27808Y15800D02*
X29750D01*
X27808Y15700D02*
X30013D01*
X29300Y15156D02*
Y16017D01*
X27808Y16000D02*
X29332D01*
X27808Y15900D02*
X29527D01*
X30100Y14794D02*
Y15671D01*
X29900Y14945D02*
Y15741D01*
X30000Y14876D02*
Y15704D01*
X29700Y15049D02*
Y15821D01*
X29500Y15118D02*
Y15913D01*
X29800Y15002D02*
Y15780D01*
X28000Y22907D02*
Y28420D01*
X27900Y22782D02*
Y28317D01*
X27800Y22648D02*
Y28238D01*
X27700Y22502D02*
Y28177D01*
X27600Y22343D02*
Y28129D01*
X27500Y22168D02*
Y28094D01*
X28000Y14624D02*
Y17093D01*
X27808Y17100D02*
X27994D01*
X27808Y17000D02*
X28079D01*
X27900Y14484D02*
Y17218D01*
X27808Y15675D02*
Y17340D01*
Y17200D02*
X27914D01*
X27400Y21973D02*
Y28069D01*
X27300Y21750D02*
Y28055D01*
X27200Y21487D02*
Y28050D01*
X27100Y21158D02*
Y28055D01*
X27000Y20672D02*
Y28069D01*
X27200Y18375D02*
Y18513D01*
X27000Y18375D02*
Y19328D01*
X26900Y18375D02*
Y28094D01*
X27100Y18375D02*
Y18842D01*
X26800Y18375D02*
Y28129D01*
X26600Y18375D02*
Y28238D01*
X26700Y18375D02*
Y28177D01*
X28800Y15128D02*
Y16338D01*
X28700Y15101D02*
Y16414D01*
X28900Y15148D02*
Y16266D01*
X27808Y16900D02*
X28170D01*
X27808Y16800D02*
X28266D01*
X27808Y16700D02*
X28368D01*
X28500Y15022D02*
Y16579D01*
X28400Y14969D02*
Y16670D01*
X28600Y15066D02*
Y16494D01*
X28200Y14828D02*
Y16868D01*
X28100Y14736D02*
Y16976D01*
X28300Y14905D02*
Y16766D01*
X27808Y16600D02*
X28477D01*
X27808Y16500D02*
X28593D01*
X27808Y16400D02*
X28718D01*
X27800Y14293D02*
Y15675D01*
X27258D02*
X27808D01*
X27700Y13955D02*
Y15675D01*
X27600Y575D02*
Y15675D01*
X27500Y575D02*
Y15675D01*
X27400Y575D02*
Y15675D01*
X27258Y12442D02*
Y15675D01*
X27300Y575D02*
Y15675D01*
X26503Y25500D02*
X30721D01*
X26503Y25400D02*
X30861D01*
X26503Y25300D02*
X31066D01*
X26503Y25800D02*
X30462D01*
X26503Y25700D02*
X30530D01*
X26503Y25600D02*
X30614D01*
X26503Y25200D02*
X34425D01*
X26503Y25100D02*
X34425D01*
X26503Y25000D02*
X34425D01*
X26503Y24900D02*
X34425D01*
X26503Y24800D02*
X34425D01*
X26503Y24700D02*
X34425D01*
X26503Y24600D02*
X34425D01*
X25853Y26100D02*
X30331D01*
X26503Y24500D02*
X30826D01*
X25853Y26400D02*
X30287D01*
X25853Y26300D02*
X30293D01*
X25853Y26200D02*
X30308D01*
X26503Y24400D02*
X30341D01*
X26503Y24300D02*
X30012D01*
X26503Y24200D02*
X29749D01*
X26503Y24100D02*
X29527D01*
X26503Y24000D02*
X29331D01*
X26503Y23900D02*
X29156D01*
X26503Y23800D02*
X28997D01*
X26503Y23700D02*
X28852D01*
X26503Y23600D02*
X28717D01*
X26503Y23200D02*
X28265D01*
X26503Y23100D02*
X28169D01*
X26503Y23000D02*
X28079D01*
X26503Y22900D02*
X27994D01*
X26503Y22800D02*
X27913D01*
X26503Y22700D02*
X27838D01*
X26503Y22600D02*
X27766D01*
X26503Y22500D02*
X27698D01*
X26503Y22400D02*
X27634D01*
X23123Y23500D02*
X28592D01*
X23171Y23400D02*
X28476D01*
X23206Y23300D02*
X28367D01*
X26503Y22300D02*
X27574D01*
X26503Y22200D02*
X27517D01*
X26503Y22100D02*
X27463D01*
X26503Y22000D02*
X27413D01*
X26503Y21900D02*
X27366D01*
X26503Y21800D02*
X27321D01*
X26503Y21700D02*
X27279D01*
X26503Y21600D02*
X27241D01*
X26503Y21500D02*
X27204D01*
X26300Y26006D02*
Y28559D01*
X26200Y26006D02*
Y28780D01*
X26400Y26006D02*
Y28420D01*
X26000Y26006D02*
Y29098D01*
X25900Y26006D02*
Y29198D01*
X26100Y26006D02*
Y28998D01*
X26500Y23206D02*
Y23506D01*
X26400Y23206D02*
Y23506D01*
X26300Y23206D02*
Y23506D01*
X26200Y23206D02*
Y23506D01*
X25853Y26006D02*
Y27541D01*
X26100Y23206D02*
Y23506D01*
X21400Y26500D02*
X24453D01*
X21300Y26400D02*
X24453D01*
X25853Y26006D02*
X26503D01*
X21200Y26300D02*
X24453D01*
X21100Y26200D02*
X24453D01*
X21000Y26100D02*
X24453D01*
Y26006D02*
Y27251D01*
X23803Y26006D02*
X24453D01*
X23803Y23506D02*
X26503D01*
X24300Y26006D02*
Y27404D01*
X24200Y26006D02*
Y27504D01*
X24400Y26006D02*
Y27304D01*
X26000Y23206D02*
Y23506D01*
X25900Y23206D02*
Y23506D01*
X25800Y23206D02*
Y23506D01*
X25700Y23206D02*
Y23506D01*
X25600Y23206D02*
Y23506D01*
X25500Y23206D02*
Y23506D01*
X25400Y23206D02*
Y23506D01*
X25300Y23206D02*
Y23506D01*
X25200Y23206D02*
Y23506D01*
X25100Y23206D02*
Y23506D01*
X25000Y23206D02*
Y23506D01*
X24900Y23206D02*
Y23506D01*
X24800Y23206D02*
Y23506D01*
X24700Y23206D02*
Y23506D01*
X24600Y23206D02*
Y23506D01*
X24500Y23206D02*
Y23506D01*
X24400Y23206D02*
Y23506D01*
X23803Y23206D02*
X26503D01*
X24300D02*
Y23506D01*
X24200Y23206D02*
Y23506D01*
X26503Y21400D02*
X27171D01*
X26503Y21300D02*
X27140D01*
X26503Y21200D02*
X27111D01*
X26503Y21100D02*
X27085D01*
X26503Y21000D02*
X27061D01*
X26503Y20900D02*
X27040D01*
X26503Y20706D02*
Y23206D01*
Y20800D02*
X27021D01*
X26500Y18375D02*
Y20706D01*
X26400Y18375D02*
Y20706D01*
X26300Y18375D02*
Y20706D01*
X26200Y18375D02*
Y20706D01*
X18871Y20700D02*
X27004D01*
X18823Y20600D02*
X26990D01*
X18762Y20500D02*
X26978D01*
X23803Y20706D02*
X26503D01*
X18682Y20400D02*
X26968D01*
X18580Y20300D02*
X26960D01*
X26100Y18375D02*
Y20706D01*
X26000Y18375D02*
Y20706D01*
X18440Y20200D02*
X26954D01*
X25900Y18375D02*
Y20706D01*
X25800Y18375D02*
Y20706D01*
X25700Y18375D02*
Y20706D01*
X22006Y18600D02*
X27171D01*
X21862Y18900D02*
X27085D01*
X22031Y18500D02*
X27204D01*
X21923Y18800D02*
X27111D01*
X21783Y19000D02*
X27061D01*
X21971Y18700D02*
X27140D01*
X25308Y18375D02*
X27250D01*
X22045Y18400D02*
X27241D01*
X25308Y15675D02*
X25858D01*
Y12732D02*
Y15675D01*
X25800Y12673D02*
Y15675D01*
X25700Y12573D02*
Y15675D01*
X18219Y20100D02*
X26951D01*
X17845Y20000D02*
X26950D01*
X17845Y19900D02*
X26951D01*
X17845Y19800D02*
X26954D01*
X17845Y19700D02*
X26960D01*
X17845Y19600D02*
X26968D01*
X21321Y19300D02*
X27004D01*
X17845Y19400D02*
X26990D01*
X21541Y19200D02*
X27021D01*
X17845Y19500D02*
X26978D01*
X21680Y19100D02*
X27040D01*
X25600Y18375D02*
Y20706D01*
X25500Y18375D02*
Y20706D01*
X25400Y18375D02*
Y20706D01*
X25008Y18300D02*
X25308D01*
X25008Y18200D02*
X25308D01*
X25008Y18100D02*
X25308D01*
X25300Y14573D02*
Y20706D01*
X25308Y15675D02*
Y18375D01*
X25008Y18000D02*
X25308D01*
X25200Y14695D02*
Y20706D01*
X25100Y14794D02*
Y20706D01*
X25008Y15675D02*
Y18375D01*
X25000D02*
Y20706D01*
X24900Y18375D02*
Y20706D01*
X24800Y18375D02*
Y20706D01*
X24700Y18375D02*
Y20706D01*
X24600Y18375D02*
Y20706D01*
X25008Y17900D02*
X25308D01*
X22508Y18375D02*
X25008D01*
Y17800D02*
X25308D01*
X24500Y18375D02*
Y20706D01*
X24400Y18375D02*
Y20706D01*
X24300Y18375D02*
Y20706D01*
X25008Y17700D02*
X25308D01*
X25008Y17600D02*
X25308D01*
X25008Y17500D02*
X25308D01*
X25008Y17400D02*
X25308D01*
X25008Y17300D02*
X25308D01*
X25008Y17200D02*
X25308D01*
X25600Y12473D02*
Y15675D01*
X25500Y14191D02*
Y15675D01*
X25400Y14416D02*
Y15675D01*
X25008Y17100D02*
X25308D01*
X25008Y17000D02*
X25308D01*
X25008Y16900D02*
X25308D01*
X25008Y16800D02*
X25308D01*
X25008Y16700D02*
X25308D01*
X25008Y16600D02*
X25308D01*
X25008Y16500D02*
X25308D01*
X25008Y16400D02*
X25308D01*
X25008Y16300D02*
X25308D01*
X25008Y16200D02*
X25308D01*
X25008Y16100D02*
X25308D01*
X25008Y16000D02*
X25308D01*
X25008Y15900D02*
X25308D01*
X25008Y15800D02*
X25308D01*
X32658Y15600D02*
X34425D01*
X32171Y15500D02*
X34425D01*
X30350Y14500D02*
X34425D01*
X30400Y14416D02*
Y15585D01*
X30300Y14573D02*
Y15611D01*
X30409Y14400D02*
X34425D01*
X30457Y14300D02*
X34425D01*
X30497Y14200D02*
X34425D01*
X30528Y14100D02*
X34425D01*
X30500Y14191D02*
Y15561D01*
X30552Y14000D02*
X34425D01*
X30568Y13900D02*
X34425D01*
X27258Y15400D02*
X34425D01*
X27258Y15300D02*
X34425D01*
X27258Y15200D02*
X34425D01*
X27258Y15600D02*
X30342D01*
X27258Y15500D02*
X30829D01*
X29563Y15100D02*
X34425D01*
X29967Y14900D02*
X34425D01*
X29804Y15000D02*
X34425D01*
X30093Y14800D02*
X34425D01*
X30195Y14700D02*
X34425D01*
X30280Y14600D02*
X34425D01*
X30578Y13800D02*
X34425D01*
X30580Y13700D02*
X34425D01*
X30575Y13600D02*
X34425D01*
X30564Y13500D02*
X34425D01*
X30545Y13400D02*
X34425D01*
X30519Y13300D02*
X34425D01*
X30485Y13200D02*
X34425D01*
X30443Y13100D02*
X34425D01*
X30391Y13000D02*
X34425D01*
X30328Y12900D02*
X34425D01*
X30254Y12800D02*
X34425D01*
X30164Y12700D02*
X34425D01*
X30056Y12600D02*
X34425D01*
X29920Y12500D02*
X34425D01*
X29738Y12400D02*
X34425D01*
X29441Y12300D02*
X34425D01*
X27215Y12200D02*
X34425D01*
X29783Y12000D02*
X34425D01*
X29439Y12100D02*
X34425D01*
X29975Y11900D02*
X34425D01*
X30000Y11884D02*
Y12556D01*
X29900Y11943D02*
Y12487D01*
X29800Y11993D02*
Y12430D01*
X27258Y15100D02*
X28697D01*
X27258Y15000D02*
X28456D01*
X27258Y14900D02*
X28293D01*
X27258Y14800D02*
X28167D01*
X27258Y14700D02*
X28065D01*
X27258Y14600D02*
X27980D01*
X27258Y14500D02*
X27910D01*
X27258Y14400D02*
X27851D01*
X27258Y14300D02*
X27803D01*
X27258Y14200D02*
X27763D01*
X27258Y14100D02*
X27732D01*
X27258Y14000D02*
X27708D01*
X27258Y13900D02*
X27692D01*
X27258Y13800D02*
X27682D01*
X27258Y13700D02*
X27680D01*
X27258Y13300D02*
X27741D01*
X27258Y13200D02*
X27775D01*
X27258Y13100D02*
X27817D01*
X27258Y13600D02*
X27685D01*
X27258Y13500D02*
X27696D01*
X27258Y13400D02*
X27715D01*
X29600Y12065D02*
Y12344D01*
X29500Y12089D02*
Y12314D01*
X29400Y12106D02*
Y12291D01*
X29300Y12115D02*
Y12276D01*
X29200Y12118D02*
Y12268D01*
X29100Y12114D02*
Y12266D01*
X29700Y12033D02*
Y12383D01*
X29000Y12103D02*
Y12272D01*
X28900Y12084D02*
Y12284D01*
X28800Y12059D02*
Y12304D01*
X28700Y12025D02*
Y12331D01*
X28600Y11983D02*
Y12366D01*
X27258Y12700D02*
X28096D01*
X27258Y12600D02*
X28204D01*
X27258Y12500D02*
X28340D01*
X27258Y13000D02*
X27869D01*
X27258Y12900D02*
X27932D01*
X27258Y12800D02*
X28006D01*
X27257Y12400D02*
X28522D01*
X27244Y12300D02*
X28819D01*
X27169Y12100D02*
X28981D01*
X28500Y11932D02*
Y12410D01*
X28400Y11871D02*
Y12463D01*
X32700Y575D02*
Y15611D01*
X32600Y575D02*
Y15585D01*
X32500Y575D02*
Y15561D01*
X32400Y575D02*
Y15540D01*
X32300Y575D02*
Y15521D01*
X32200Y575D02*
Y15504D01*
X32100Y575D02*
Y15490D01*
X32000Y575D02*
Y15478D01*
X31900Y575D02*
Y15468D01*
X31800Y575D02*
Y15460D01*
X31700Y575D02*
Y15454D01*
X31600Y575D02*
Y15451D01*
X30229Y11700D02*
X34425D01*
X30116Y11800D02*
X34425D01*
X30321Y11600D02*
X34425D01*
X31500Y575D02*
Y15450D01*
X31400Y575D02*
Y15451D01*
X31200Y575D02*
Y15460D01*
X31100Y575D02*
Y15468D01*
X31300Y575D02*
Y15454D01*
X31000Y575D02*
Y15478D01*
X30900Y575D02*
Y15490D01*
X30800Y575D02*
Y15504D01*
X30515Y11300D02*
X34425D01*
X30559Y11200D02*
X34425D01*
X30594Y11100D02*
X34425D01*
X30622Y11000D02*
X34425D01*
X30641Y10900D02*
X34425D01*
X30654Y10800D02*
X34425D01*
X30660Y10700D02*
X34425D01*
X30658Y10600D02*
X34425D01*
X30650Y10500D02*
X34425D01*
X30635Y10400D02*
X34425D01*
X30612Y10300D02*
X34425D01*
X30582Y10200D02*
X34425D01*
X30462Y11400D02*
X34425D01*
X30398Y11500D02*
X34425D01*
X30544Y10100D02*
X34425D01*
X30497Y10000D02*
X34425D01*
X30440Y9900D02*
X34425D01*
X30371Y9800D02*
X34425D01*
X30289Y9700D02*
X34425D01*
X30191Y9600D02*
X34425D01*
X30069Y9500D02*
X34425D01*
X29913Y9400D02*
X34425D01*
X29690Y9300D02*
X34425D01*
X30600Y11081D02*
Y15540D01*
X30500Y11330D02*
Y13241D01*
X30400Y11497D02*
Y13016D01*
X30300Y11624D02*
Y12859D01*
X30200Y11728D02*
Y12737D01*
X30100Y11813D02*
Y12638D01*
X30700Y575D02*
Y15521D01*
X30600Y575D02*
Y10255D01*
X30500Y575D02*
Y10006D01*
X30400Y575D02*
Y9839D01*
X28200Y11708D02*
Y12604D01*
X28100Y11601D02*
Y12696D01*
X28300Y11797D02*
Y12527D01*
X27900Y11289D02*
Y12948D01*
X27800Y11006D02*
Y13139D01*
X28000Y11467D02*
Y12808D01*
X27900Y575D02*
Y10047D01*
X28000Y575D02*
Y9869D01*
X27700Y575D02*
Y13477D01*
X27200Y575D02*
Y12161D01*
X27800Y575D02*
Y10330D01*
X30300Y575D02*
Y9712D01*
X30200Y575D02*
Y9608D01*
X30100Y575D02*
Y9523D01*
X30000Y575D02*
Y9452D01*
X29900Y575D02*
Y9393D01*
X29800Y575D02*
Y9343D01*
X29700Y575D02*
Y9303D01*
X29600Y575D02*
Y9271D01*
X29500Y575D02*
Y9247D01*
X29400Y575D02*
Y9230D01*
X29300Y575D02*
Y9221D01*
X29200Y575D02*
Y9218D01*
X29100Y575D02*
Y9222D01*
X29000Y575D02*
Y9233D01*
X28900Y575D02*
Y9252D01*
X28700Y575D02*
Y9311D01*
X28600Y575D02*
Y9353D01*
X28800Y575D02*
Y9277D01*
X28500Y575D02*
Y9404D01*
X28300Y575D02*
Y9539D01*
X28400Y575D02*
Y9465D01*
X28100Y575D02*
Y9735D01*
X28200Y575D02*
Y9628D01*
X25350Y14500D02*
X25858D01*
X27101Y12000D02*
X28637D01*
X25457Y14300D02*
X25858D01*
X25497Y14200D02*
X25858D01*
X25528Y14100D02*
X25858D01*
X27007Y11900D02*
X28445D01*
X26907Y11800D02*
X28304D01*
X26807Y11700D02*
X28191D01*
X25655Y10548D02*
X27053Y11947D01*
X26707Y11600D02*
X28099D01*
X24458Y15600D02*
X25858D01*
X24458Y15500D02*
X25858D01*
X24458Y15400D02*
X25858D01*
X24458Y15300D02*
X25858D01*
X24458Y15200D02*
X25858D01*
X24563Y15100D02*
X25858D01*
X24967Y14900D02*
X25858D01*
X24804Y15000D02*
X25858D01*
X25093Y14800D02*
X25858D01*
X25280Y14600D02*
X25858D01*
X25195Y14700D02*
X25858D01*
X25409Y14400D02*
X25858D01*
X26607Y11500D02*
X28022D01*
X26507Y11400D02*
X27958D01*
X26407Y11300D02*
X27905D01*
X26307Y11200D02*
X27861D01*
X26207Y11100D02*
X27826D01*
X26107Y11000D02*
X27798D01*
X26007Y10900D02*
X27779D01*
X25907Y10800D02*
X27766D01*
X25807Y10700D02*
X27760D01*
X25707Y10600D02*
X27762D01*
X25650Y10500D02*
X27770D01*
X25635Y10400D02*
X27785D01*
X25497Y10000D02*
X27923D01*
X25440Y9900D02*
X27980D01*
X25371Y9800D02*
X28049D01*
X25612Y10300D02*
X27808D01*
X25582Y10200D02*
X27838D01*
X25544Y10100D02*
X27876D01*
X24913Y9400D02*
X28507D01*
X24690Y9300D02*
X28730D01*
X19190Y9200D02*
X34425D01*
X25289Y9700D02*
X28131D01*
X25191Y9600D02*
X28229D01*
X25069Y9500D02*
X28351D01*
X25552Y14000D02*
X25858D01*
X25568Y13900D02*
X25858D01*
X25578Y13800D02*
X25858D01*
X25580Y13700D02*
X25858D01*
X25575Y13600D02*
X25858D01*
X25564Y13500D02*
X25858D01*
X25545Y13400D02*
X25858D01*
X25519Y13300D02*
X25858D01*
X25485Y13200D02*
X25858D01*
X25500Y12373D02*
Y13241D01*
X25443Y13100D02*
X25858D01*
X25391Y13000D02*
X25858D01*
X25008Y15700D02*
X25308D01*
X24458Y15675D02*
X25008D01*
X24800Y15002D02*
Y15675D01*
X24600Y15088D02*
Y15675D01*
X24500Y15118D02*
Y15675D01*
X24458Y15128D02*
Y15675D01*
X25400Y12273D02*
Y13016D01*
X25000Y14876D02*
Y15675D01*
X24900Y14945D02*
Y15675D01*
X24700Y15049D02*
Y15675D01*
X25328Y12900D02*
X25858D01*
X25254Y12800D02*
X25858D01*
X25164Y12700D02*
X25827D01*
X25300Y12173D02*
Y12859D01*
X25056Y12600D02*
X25727D01*
X24920Y12500D02*
X25627D01*
X25200Y12073D02*
Y12737D01*
X25007Y11880D02*
X25858Y12732D01*
X25100Y11973D02*
Y12638D01*
X25000Y11884D02*
Y12556D01*
X24900Y11943D02*
Y12487D01*
X24800Y11993D02*
Y12430D01*
X24738Y12400D02*
X25527D01*
X24441Y12300D02*
X25427D01*
X20435Y12200D02*
X25327D01*
X24600Y12065D02*
Y12344D01*
X24500Y12089D02*
Y12314D01*
X24439Y12100D02*
X25227D01*
X24700Y12033D02*
Y12383D01*
X24783Y12000D02*
X25127D01*
X24400Y12106D02*
Y12291D01*
X24300Y12115D02*
Y12276D01*
X20575Y7800D02*
X34425D01*
X20490Y7900D02*
X34425D01*
X20633Y7700D02*
X34425D01*
X23806Y7500D02*
X34425D01*
X20671Y7600D02*
X34425D01*
X23806Y7400D02*
X34425D01*
X23806Y7300D02*
X34425D01*
X23806Y7200D02*
X34425D01*
X23806Y7100D02*
X34425D01*
X23806Y7000D02*
X34425D01*
X23806Y6900D02*
X34425D01*
X23806Y6800D02*
X34425D01*
X19390Y9000D02*
X34425D01*
X19290Y9100D02*
X34425D01*
X19490Y8900D02*
X34425D01*
X19690Y8700D02*
X34425D01*
X19590Y8800D02*
X34425D01*
X19790Y8600D02*
X34425D01*
X19990Y8400D02*
X34425D01*
X19890Y8500D02*
X34425D01*
X20090Y8300D02*
X34425D01*
X20290Y8100D02*
X34425D01*
X20190Y8200D02*
X34425D01*
X20390Y8000D02*
X34425D01*
X23806Y6700D02*
X34425D01*
X23806Y6600D02*
X34425D01*
X23806Y6500D02*
X34425D01*
X23806Y6400D02*
X34425D01*
X23806Y6300D02*
X34425D01*
X23806Y6200D02*
X34425D01*
X23806Y6100D02*
X34425D01*
X23806Y6000D02*
X34425D01*
X23806Y5900D02*
X34425D01*
X23806Y5800D02*
X34425D01*
X23806Y5700D02*
X34425D01*
X23806Y5600D02*
X34425D01*
X23806Y5500D02*
X34425D01*
X23806Y5400D02*
X34425D01*
X23806Y5300D02*
X34425D01*
X23806Y5200D02*
X34425D01*
X20766Y5100D02*
X34425D01*
X22762Y5000D02*
X34425D01*
X23284Y4800D02*
X34425D01*
X23108Y4900D02*
X34425D01*
X23411Y4700D02*
X34425D01*
X23509Y4600D02*
X34425D01*
X23588Y4500D02*
X34425D01*
X27100Y575D02*
Y11998D01*
X27000Y575D02*
Y11893D01*
X26900Y575D02*
Y11793D01*
X26800Y575D02*
Y11693D01*
X26700Y575D02*
Y11593D01*
X26600Y575D02*
Y11493D01*
X26500Y575D02*
Y11393D01*
X26400Y575D02*
Y11293D01*
X26300Y575D02*
Y11193D01*
X26200Y575D02*
Y11093D01*
X26100Y575D02*
Y10993D01*
X26000Y575D02*
Y10893D01*
X25900Y575D02*
Y10793D01*
X25800Y575D02*
Y10693D01*
X25700Y575D02*
Y10593D01*
X25600Y575D02*
Y10255D01*
X25500Y575D02*
Y10006D01*
X25400Y575D02*
Y9839D01*
X25300Y575D02*
Y9712D01*
X25200Y575D02*
Y9608D01*
X25100Y575D02*
Y9523D01*
X25000Y575D02*
Y9452D01*
X24900Y575D02*
Y9393D01*
X24800Y575D02*
Y9343D01*
X23770Y4100D02*
X34425D01*
X23791Y4000D02*
X34425D01*
X23803Y3900D02*
X34425D01*
X23806Y3800D02*
X34425D01*
X23801Y3700D02*
X34425D01*
X23787Y3600D02*
X34425D01*
X24700Y575D02*
Y9303D01*
X24600Y575D02*
Y9271D01*
X23765Y3500D02*
X34425D01*
X24500Y575D02*
Y9247D01*
X24400Y575D02*
Y9230D01*
X24300Y575D02*
Y9221D01*
X23701Y4300D02*
X34425D01*
X23651Y4400D02*
X34425D01*
X23741Y4200D02*
X34425D01*
X23734Y3400D02*
X34425D01*
X23692Y3300D02*
X34425D01*
X23639Y3200D02*
X34425D01*
X23573Y3100D02*
X34425D01*
X23491Y3000D02*
X34425D01*
X23388Y2900D02*
X34425D01*
X23254Y2800D02*
X34425D01*
X23062Y2700D02*
X34425D01*
X24000Y26006D02*
Y27704D01*
X23900Y26006D02*
Y27804D01*
X24100Y26006D02*
Y27604D01*
X20900Y26000D02*
X23803D01*
X20800Y25900D02*
X23803D01*
X20700Y25800D02*
X23803D01*
Y23506D02*
Y26006D01*
X20790Y24500D02*
X23803D01*
X20890Y24400D02*
X23803D01*
X23200Y23321D02*
Y28299D01*
X23100Y23541D02*
Y28199D01*
X23000Y23680D02*
Y28099D01*
X20600Y25700D02*
X23803D01*
X20500Y25600D02*
X23803D01*
X20400Y25500D02*
X23803D01*
X20300Y25400D02*
X23803D01*
X20200Y25300D02*
X23803D01*
X20100Y25200D02*
X23803D01*
X20017Y25000D02*
X23803D01*
X20000Y25100D02*
X23803D01*
X20361Y24900D02*
X23803D01*
X20590Y24700D02*
X23803D01*
X20490Y24800D02*
X23803D01*
X20690Y24600D02*
X23803D01*
X24100Y23206D02*
Y23506D01*
X24000Y23206D02*
Y23506D01*
X23900Y23206D02*
Y23506D01*
X23231Y23200D02*
X23803D01*
X23062Y23600D02*
X23803D01*
X23245Y23100D02*
X23803D01*
X23250Y23000D02*
X23803D01*
X23245Y22900D02*
X23803D01*
X23231Y22800D02*
X23803D01*
X23206Y22700D02*
X23803D01*
X23171Y22600D02*
X23803D01*
X23123Y22500D02*
X23803D01*
X21090Y24200D02*
X23803D01*
X20990Y24300D02*
X23803D01*
X21190Y24100D02*
X23803D01*
X22741Y23900D02*
X23803D01*
X22521Y24000D02*
X23803D01*
X22880Y23800D02*
X23803D01*
X23062Y22400D02*
X23803D01*
X22983Y23700D02*
X23803D01*
X22982Y22300D02*
X23803D01*
X22880Y22200D02*
X23803D01*
X22740Y22100D02*
X23803D01*
X22600Y23971D02*
Y27699D01*
X22500Y24006D02*
Y27599D01*
X22400Y24031D02*
Y27499D01*
X22300Y24045D02*
Y27399D01*
X22200Y24050D02*
Y27299D01*
X22100Y24045D02*
Y27199D01*
X22900Y23783D02*
Y27999D01*
X22800Y23862D02*
Y27899D01*
X22700Y23923D02*
Y27799D01*
X22000Y24031D02*
Y27099D01*
X21900Y24006D02*
Y26999D01*
X21800Y23971D02*
Y26899D01*
X21039Y26139D02*
X22029Y27129D01*
X21039Y26139D02*
X21463Y26563D01*
X21100Y24190D02*
Y26199D01*
X21000Y24290D02*
Y26099D01*
X20898Y25997D02*
X21039Y26139D01*
X20473Y25573D02*
X20898Y25997D01*
X21700Y23923D02*
Y26799D01*
X21600Y23862D02*
Y26699D01*
X21500Y23790D02*
Y26599D01*
X21400Y23890D02*
Y26499D01*
X21300Y23990D02*
Y26399D01*
X21200Y24090D02*
Y26299D01*
X20900Y24390D02*
Y25999D01*
X20800Y24490D02*
Y25899D01*
X21290Y24000D02*
X21879D01*
X20700Y24590D02*
Y25799D01*
X20600Y24690D02*
Y25699D01*
X20500Y24790D02*
Y25599D01*
X21390Y23900D02*
X21659D01*
X20495Y24795D02*
X21504Y23786D01*
X21300Y22300D02*
X21417D01*
X20527Y22783D02*
X20805Y22505D01*
X20506Y22700D02*
X20610D01*
X20400Y24875D02*
Y25499D01*
X20471Y22600D02*
X20710D01*
X20300Y24933D02*
Y25399D01*
X20200Y24971D02*
Y25299D01*
X20100Y24993D02*
Y25199D01*
X20282Y22300D02*
X21418D01*
X20180Y22200D02*
X21520D01*
X20040Y22100D02*
X21660D01*
X20423Y22500D02*
X20810D01*
X20362Y22400D02*
X20940D01*
X24200Y18375D02*
Y20706D01*
X24100Y18375D02*
Y20706D01*
X24000Y18375D02*
Y20706D01*
X23800Y18375D02*
Y27904D01*
X23803Y20706D02*
Y23206D01*
X23900Y18375D02*
Y20706D01*
X23600Y18375D02*
Y28104D01*
X23500Y18375D02*
Y28204D01*
X23700Y18375D02*
Y28004D01*
X23400Y18375D02*
Y28304D01*
X23300Y18375D02*
Y28399D01*
X23200Y18375D02*
Y22679D01*
X23100Y18375D02*
Y22459D01*
X22520Y22000D02*
X23803D01*
X23000Y18375D02*
Y22320D01*
X22900Y18375D02*
Y22217D01*
X22800Y18375D02*
Y22138D01*
X22700Y18375D02*
Y22077D01*
X22600Y18375D02*
Y22029D01*
X22500Y15000D02*
Y21994D01*
X22400Y15000D02*
Y21969D01*
X22300Y15000D02*
Y21955D01*
X22200Y15000D02*
Y21950D01*
X22050Y18300D02*
X22508D01*
X22045Y18200D02*
X22508D01*
Y15675D02*
X23058D01*
X22508D02*
Y18375D01*
X22031Y18100D02*
X22508D01*
X22006Y18000D02*
X22508D01*
X23058Y15000D02*
Y15675D01*
X23000Y15000D02*
Y15675D01*
X22900Y15000D02*
Y15675D01*
X22800Y15000D02*
Y15675D01*
X22700Y15000D02*
Y15675D01*
X22600Y15000D02*
Y15675D01*
X21971Y17900D02*
X22508D01*
X21923Y17800D02*
X22508D01*
X21862Y17700D02*
X22508D01*
X21782Y17600D02*
X22508D01*
X21680Y17500D02*
X22508D01*
X21541Y17400D02*
X22508D01*
X21320Y17300D02*
X22508D01*
X20435Y17200D02*
X22508D01*
X20435Y17100D02*
X22508D01*
X20435Y17000D02*
X22508D01*
X20435Y16900D02*
X22508D01*
X20435Y16800D02*
X22508D01*
X21400Y19271D02*
Y22300D01*
X21300Y19306D02*
Y22300D01*
X21500Y19223D02*
Y22217D01*
X21200Y19331D02*
Y22307D01*
X21100Y19345D02*
Y22329D01*
X21000Y19350D02*
Y22368D01*
X22100Y15000D02*
Y21955D01*
X22000Y18621D02*
Y21969D01*
X21900Y18841D02*
Y21994D01*
X21700Y19083D02*
Y22077D01*
X21600Y19162D02*
Y22138D01*
X21800Y18980D02*
Y22029D01*
X20800Y19331D02*
Y22510D01*
X20400Y19390D02*
Y22459D01*
X20900Y19345D02*
Y22426D01*
X20300Y19390D02*
Y22320D01*
X20200Y19390D02*
Y22217D01*
X20100Y19390D02*
Y22138D01*
X20700Y19306D02*
Y22610D01*
X20435Y19300D02*
X20679D01*
X20600Y19271D02*
Y22710D01*
X20500Y19223D02*
Y22679D01*
X20435Y19185D02*
Y19390D01*
X22000Y15000D02*
Y17979D01*
X21900Y15000D02*
Y17759D01*
X21800Y15000D02*
Y17620D01*
X21700Y15000D02*
Y17517D01*
X21600Y15000D02*
Y17438D01*
X21500Y15000D02*
Y17377D01*
X21400Y15000D02*
Y17329D01*
X21300Y15000D02*
Y17294D01*
X21200Y15000D02*
Y17269D01*
X21100Y15000D02*
Y17255D01*
X21000Y15000D02*
Y17250D01*
X20900Y15000D02*
Y17255D01*
X20435Y17300D02*
X20680D01*
X20800Y15000D02*
Y17269D01*
X20700Y15000D02*
Y17294D01*
X20435Y16790D02*
Y17415D01*
X20600Y15000D02*
Y17329D01*
X20500Y15000D02*
Y17377D01*
X20400Y15000D02*
Y16790D01*
X20300Y15000D02*
Y16790D01*
X20200Y15000D02*
Y16790D01*
X20100Y15000D02*
Y16790D01*
X19908Y25007D02*
X20898Y25997D01*
X19400Y25000D02*
Y25515D01*
X19500Y25000D02*
Y25415D01*
X19200Y25000D02*
Y25715D01*
X19100Y25000D02*
Y25815D01*
X19300Y25000D02*
Y25615D01*
X18900Y25000D02*
Y26015D01*
X18800Y25000D02*
Y26115D01*
X19000Y25000D02*
Y25915D01*
X18600Y25000D02*
Y26315D01*
X18500Y25000D02*
Y26415D01*
X18700Y25000D02*
Y26215D01*
X17253Y26100D02*
X18815D01*
X17153Y26000D02*
X18915D01*
X17053Y25900D02*
X19015D01*
X17553Y26400D02*
X18515D01*
X17453Y26300D02*
X18615D01*
X17353Y26200D02*
X18715D01*
X18034Y26881D02*
X19908Y25007D01*
X16653Y25500D02*
X19415D01*
X16553Y25400D02*
X19515D01*
X16953Y25800D02*
X19115D01*
X16853Y25700D02*
X19215D01*
X16753Y25600D02*
X19315D01*
X19815Y25100D02*
X20000D01*
X19700Y25000D02*
Y25215D01*
X19600Y25000D02*
Y25315D01*
X19800Y25000D02*
Y25115D01*
X18871Y21500D02*
X23803D01*
X18906Y21400D02*
X23803D01*
X18931Y21300D02*
X23803D01*
X18900Y21421D02*
Y22138D01*
X18800Y21641D02*
Y22217D01*
X19819Y22000D02*
X21881D01*
X18221Y22100D02*
X18960D01*
X18441Y22000D02*
X19181D01*
X16990Y22300D02*
X18718D01*
X16990Y22300D02*
X18717D01*
X16890Y22200D02*
X18820D01*
X18683Y21800D02*
X23803D01*
X18580Y21900D02*
X23803D01*
X18762Y21700D02*
X23803D01*
X18700Y21780D02*
Y22300D01*
X18600Y21883D02*
Y22300D01*
X18823Y21600D02*
X23803D01*
X18300Y25000D02*
Y26615D01*
X17653Y26500D02*
X18415D01*
X18400Y25000D02*
Y26515D01*
X18100Y25000D02*
Y26815D01*
X18000Y25000D02*
Y26847D01*
X18200Y25000D02*
Y26715D01*
X18500Y21962D02*
Y22300D01*
X18400Y22023D02*
Y22300D01*
X18300Y22071D02*
Y22300D01*
X17900Y25000D02*
Y26747D01*
X17800Y25000D02*
Y26647D01*
X17700Y25000D02*
Y26547D01*
X17600Y25000D02*
Y26447D01*
X17150Y25998D02*
X18034Y26881D01*
X17500Y25000D02*
Y26347D01*
X17400Y25000D02*
Y26247D01*
X17300Y25000D02*
Y26147D01*
X17200Y25000D02*
Y26047D01*
X17100Y25000D02*
Y25947D01*
X17000Y25000D02*
Y25847D01*
X16900Y25000D02*
Y25747D01*
X16800Y25000D02*
Y25647D01*
X16700Y25000D02*
Y25547D01*
X16600Y25000D02*
Y25447D01*
X18200Y22106D02*
Y22300D01*
X18100Y22131D02*
Y22300D01*
X18000Y22145D02*
Y22300D01*
X17900Y22150D02*
Y22300D01*
X17800Y22145D02*
Y22300D01*
X17700Y22131D02*
Y22300D01*
X17600Y22106D02*
Y22300D01*
X17500Y22071D02*
Y22300D01*
X17400Y22023D02*
Y22300D01*
X17300Y21962D02*
Y22300D01*
X17200Y21883D02*
Y22300D01*
X17100Y21780D02*
Y22300D01*
X16790Y22100D02*
X17579D01*
X16690Y22000D02*
X17359D01*
X16590Y21900D02*
X17220D01*
X17000Y21641D02*
Y22300D01*
X16575Y21885D02*
X16990Y22300D01*
X16575Y21800D02*
X17117D01*
X16575Y21700D02*
X17038D01*
X16575Y21600D02*
X16977D01*
X16575Y21500D02*
X16929D01*
X16900Y21420D02*
Y22210D01*
X16575Y21400D02*
X16894D01*
X20000Y19390D02*
Y22077D01*
X19900Y19390D02*
Y22029D01*
X19800Y19390D02*
Y21994D01*
X19700Y19390D02*
Y21969D01*
X19600Y19390D02*
Y21955D01*
X19500Y19390D02*
Y21950D01*
X19400Y19390D02*
Y21955D01*
X19300Y19390D02*
Y21969D01*
X19165Y19390D02*
X20435D01*
X19200D02*
Y21994D01*
X19000Y19390D02*
Y22077D01*
X19100Y19390D02*
Y22029D01*
X18945Y21200D02*
X23803D01*
X18950Y21100D02*
X23803D01*
X18945Y21000D02*
X23803D01*
X18931Y20900D02*
X23803D01*
X18906Y20800D02*
X23803D01*
X18900Y19390D02*
Y20779D01*
X18935Y19390D02*
X19165D01*
X18800D02*
Y20559D01*
X18700Y19390D02*
Y20420D01*
X18600Y19390D02*
Y20317D01*
X20000Y15000D02*
Y16790D01*
X19165D02*
X20435D01*
X19900Y15000D02*
Y16790D01*
X19800Y15000D02*
Y16790D01*
X18935Y19390D02*
X19165D01*
X19700Y15000D02*
Y16790D01*
X19600Y15000D02*
Y16790D01*
X19500Y15000D02*
Y16790D01*
X19400Y15000D02*
Y16790D01*
X19300Y15000D02*
Y16790D01*
X19200Y15000D02*
Y16790D01*
X19100Y15000D02*
Y16790D01*
X18935D02*
X19165D01*
X18935D02*
X19165D01*
X19000Y15000D02*
Y16790D01*
X17895Y19390D02*
X18935D01*
X17895Y16790D02*
X18935D01*
X18900Y15000D02*
Y16790D01*
X18800Y15000D02*
Y16790D01*
X18700Y15000D02*
Y16790D01*
X18700Y15000D02*
X23058D01*
X18500Y19390D02*
Y20238D01*
X18400Y19390D02*
Y20177D01*
X18300Y19390D02*
Y20129D01*
X18200Y19390D02*
Y20094D01*
X18100Y19390D02*
Y20069D01*
X18000Y19390D02*
Y20055D01*
X18600Y14993D02*
Y16790D01*
X17900Y19390D02*
Y20050D01*
X17845Y19390D02*
Y20051D01*
X18500Y14971D02*
Y16790D01*
X16575Y21300D02*
X16869D01*
X16575Y21200D02*
X16855D01*
X16575Y21100D02*
X16850D01*
X16800Y20990D02*
Y22110D01*
X16700Y20890D02*
Y22010D01*
X16575Y21000D02*
X16810D01*
X16600Y20784D02*
Y21910D01*
X16650Y20840D02*
X16852Y21042D01*
X16575Y20900D02*
X16710D01*
X16575Y20751D02*
Y21885D01*
X18400Y14932D02*
Y16790D01*
X18300Y14874D02*
Y16790D01*
X18200Y14790D02*
Y16790D01*
X18100Y14690D02*
Y16790D01*
X17665D02*
X17895D01*
X17665D02*
X17895D01*
X18000Y14590D02*
Y16790D01*
X17920Y14510D02*
X18205Y14795D01*
X17900Y14489D02*
Y16790D01*
X17800Y14349D02*
Y16790D01*
X17600Y13690D02*
Y16790D01*
X17500Y13690D02*
Y16790D01*
X16625D02*
X17665D01*
X17400Y13690D02*
Y16790D01*
X17300Y13690D02*
Y16790D01*
X17200Y13690D02*
Y16790D01*
X17100Y13690D02*
Y16790D01*
X17000Y13690D02*
Y16790D01*
X16900Y13690D02*
Y16790D01*
X16800Y13690D02*
Y16790D01*
X16700Y13690D02*
Y16790D01*
X16600Y13690D02*
Y16790D01*
X23500Y11932D02*
Y12410D01*
X23400Y11871D02*
Y12463D01*
X23800Y12059D02*
Y12304D01*
X23200Y11708D02*
Y12604D01*
X20435Y13600D02*
X22685D01*
X23300Y11797D02*
Y12527D01*
X23000Y11467D02*
Y12808D01*
X22900Y11289D02*
Y12948D01*
X23100Y11601D02*
Y12696D01*
X22700Y7550D02*
Y13477D01*
X22600Y7550D02*
Y13600D01*
X22800Y11006D02*
Y13139D01*
X20435Y13600D02*
X22685D01*
X20435Y13200D02*
X22775D01*
X20435Y13100D02*
X22817D01*
X20435Y13500D02*
X22696D01*
X20435Y13400D02*
X22715D01*
X20435Y13300D02*
X22741D01*
X20435Y12700D02*
X23096D01*
X20435Y12600D02*
X23204D01*
X20435Y12500D02*
X23340D01*
X20435Y13000D02*
X22869D01*
X20435Y12900D02*
X22932D01*
X20435Y12800D02*
X23006D01*
X24200Y12118D02*
Y12268D01*
X24100Y12114D02*
Y12266D01*
X24000Y12103D02*
Y12272D01*
X23700Y12025D02*
Y12331D01*
X23600Y11983D02*
Y12366D01*
X23900Y12084D02*
Y12284D01*
X23800Y7550D02*
Y9277D01*
X23700Y7550D02*
Y9311D01*
X23806Y5150D02*
Y7550D01*
X23500D02*
Y9404D01*
X23400Y7550D02*
Y9465D01*
X23600Y7550D02*
Y9353D01*
X23200Y7550D02*
Y9628D01*
X23100Y7550D02*
Y9735D01*
X23300Y7550D02*
Y9539D01*
X22900Y7550D02*
Y10047D01*
X22800Y7550D02*
Y10330D01*
X23000Y7550D02*
Y9869D01*
X21406Y7550D02*
X23806D01*
X21406Y5150D02*
X23806D01*
X22800Y4994D02*
Y5150D01*
X22700Y5006D02*
Y5150D01*
X22500Y7550D02*
Y13600D01*
X22400Y7550D02*
Y13600D01*
X22300Y7550D02*
Y13600D01*
X22200Y7550D02*
Y13600D01*
X22100Y7550D02*
Y13600D01*
X22000Y7550D02*
Y13600D01*
X21900Y7550D02*
Y13600D01*
X21800Y7550D02*
Y13600D01*
X21700Y7550D02*
Y13600D01*
X21600Y7550D02*
Y13600D01*
X21500Y7550D02*
Y13600D01*
X21406Y5150D02*
Y7550D01*
X20800Y7299D02*
Y13600D01*
X20700Y7413D02*
Y13600D01*
X20693Y7500D02*
X21406D01*
X20600Y7761D02*
Y13600D01*
X20500Y7890D02*
Y13600D01*
X20435Y11090D02*
Y13600D01*
X21200Y6743D02*
Y13600D01*
X20799Y7300D02*
X21406D01*
X21100Y6959D02*
Y13600D01*
X21000Y7104D02*
Y13600D01*
X20900Y7213D02*
Y13600D01*
X21178Y6800D02*
X21406D01*
X21133Y6900D02*
X21406D01*
X21214Y6700D02*
X21406D01*
X21240Y6600D02*
X21406D01*
X21257Y6500D02*
X21406D01*
X21265Y6400D02*
X21406D01*
X21265Y6300D02*
X21406D01*
X21257Y6200D02*
X21406D01*
X22600Y5010D02*
Y5150D01*
X21240Y6100D02*
X21406D01*
X21214Y6000D02*
X21406D01*
X21178Y5900D02*
X21406D01*
X21003Y7100D02*
X21406D01*
X20913Y7200D02*
X21406D01*
X21075Y7000D02*
X21406D01*
X21132Y5800D02*
X21406D01*
X21075Y5700D02*
X21406D01*
X21003Y5600D02*
X21406D01*
X20913Y5500D02*
X21406D01*
X20799Y5400D02*
X21406D01*
X20766Y5300D02*
X21406D01*
X20766Y5200D02*
X21406D01*
X23600Y4482D02*
Y5150D01*
X23500Y4611D02*
Y5150D01*
X23400Y4710D02*
Y5150D01*
X23300Y4789D02*
Y5150D01*
X23200Y4853D02*
Y5150D01*
X23100Y4904D02*
Y5150D01*
X24200Y575D02*
Y9218D01*
X24100Y575D02*
Y9222D01*
X24000Y575D02*
Y9233D01*
X23900Y575D02*
Y9252D01*
X23800Y3931D02*
Y5150D01*
X23700Y4303D02*
Y5150D01*
X23000Y4944D02*
Y5150D01*
X22900Y4973D02*
Y5150D01*
X22500Y5005D02*
Y5150D01*
X22400Y4992D02*
Y5150D01*
X20766Y5000D02*
X22450D01*
X22300Y4970D02*
Y5150D01*
X22200Y4939D02*
Y5150D01*
X22100Y4898D02*
Y5150D01*
X22000Y4846D02*
Y5150D01*
X23800Y575D02*
Y3689D01*
X23700Y575D02*
Y3317D01*
X23600Y575D02*
Y3138D01*
X23500Y575D02*
Y3009D01*
X23400Y575D02*
Y2910D01*
X23300Y575D02*
Y2831D01*
X23200Y575D02*
Y2767D01*
X23100Y575D02*
Y2716D01*
X23000Y575D02*
Y2676D01*
X22900Y575D02*
Y2647D01*
X22800Y575D02*
Y2626D01*
X22700Y575D02*
Y2614D01*
X22600Y575D02*
Y2610D01*
X20766Y4900D02*
X22104D01*
X20522Y2700D02*
X22150D01*
X22500Y575D02*
Y2615D01*
X22300Y575D02*
Y2650D01*
X22200Y575D02*
Y2681D01*
X22400Y575D02*
Y2628D01*
X22000Y575D02*
Y2774D01*
X22100Y575D02*
Y2722D01*
X21900Y4780D02*
Y5150D01*
X21800Y4699D02*
Y5150D01*
X21700Y4597D02*
Y5150D01*
X21600Y4464D02*
Y5150D01*
X21200Y4203D02*
Y5957D01*
X21500Y4275D02*
Y5150D01*
X21201Y4200D02*
X21471D01*
X21230Y4100D02*
X21442D01*
X21251Y4000D02*
X21421D01*
X21400Y575D02*
Y13600D01*
X21300Y575D02*
Y13600D01*
X21263Y3900D02*
X21409D01*
X20871Y4700D02*
X21801D01*
X20766Y4800D02*
X21928D01*
X20969Y4600D02*
X21703D01*
X20900Y4673D02*
Y5487D01*
X20800Y4759D02*
Y5401D01*
X20766Y4785D02*
Y5375D01*
X21111Y4400D02*
X21561D01*
X21048Y4500D02*
X21624D01*
X21161Y4300D02*
X21511D01*
X21100Y4419D02*
Y5741D01*
X21000Y4564D02*
Y5596D01*
X21261Y3700D02*
X21411D01*
X21247Y3600D02*
X21425D01*
X21152Y3300D02*
X21520D01*
X21266Y3800D02*
X21406D01*
X21225Y3500D02*
X21447D01*
X21194Y3400D02*
X21478D01*
X21800Y575D02*
Y2921D01*
X21700Y575D02*
Y3023D01*
X21900Y575D02*
Y2840D01*
X21500Y575D02*
Y3345D01*
X21200Y575D02*
Y3417D01*
X21600Y575D02*
Y3156D01*
X20951Y3000D02*
X21721D01*
X20848Y2900D02*
X21824D01*
X20714Y2800D02*
X21958D01*
X21099Y3200D02*
X21573D01*
X21100Y575D02*
Y3201D01*
X21033Y3100D02*
X21639D01*
X21000Y575D02*
Y3056D01*
X20900Y575D02*
Y2947D01*
X20800Y575D02*
Y2861D01*
X20700Y575D02*
Y2791D01*
X20600Y575D02*
Y2735D01*
X20435Y12300D02*
X23819D01*
X20435Y12100D02*
X23981D01*
X20435Y12000D02*
X23637D01*
X20435Y12400D02*
X23522D01*
X20435Y11900D02*
X23445D01*
X20435Y11800D02*
X23304D01*
X20435Y11700D02*
X23191D01*
X20435Y11600D02*
X23099D01*
X20435Y11500D02*
X23022D01*
X20435Y11400D02*
X22958D01*
X20435Y11300D02*
X22905D01*
X20435Y11200D02*
X22861D01*
X20435Y11100D02*
X22826D01*
X19165Y11090D02*
X20435D01*
X19800Y8590D02*
Y11090D01*
X19700Y8690D02*
Y11090D01*
X20400Y7990D02*
Y11090D01*
X20300Y8090D02*
Y11090D01*
X20200Y8190D02*
Y11090D01*
X20100Y8290D02*
Y11090D01*
X20000Y8390D02*
Y11090D01*
X19900Y8490D02*
Y11090D01*
X19115Y11000D02*
X22798D01*
X19115Y10900D02*
X22779D01*
X19115Y10800D02*
X22766D01*
X19115Y10700D02*
X22760D01*
X19115Y10600D02*
X22762D01*
X19115Y10500D02*
X22770D01*
X19115Y10400D02*
X22785D01*
X19600Y8790D02*
Y11090D01*
X19500Y8890D02*
Y11090D01*
X19400Y8990D02*
Y11090D01*
X19115Y10000D02*
X22923D01*
X19115Y9900D02*
X22980D01*
X19115Y9800D02*
X23049D01*
X19115Y10300D02*
X22808D01*
X19115Y10200D02*
X22838D01*
X19115Y10100D02*
X22876D01*
X19115Y9500D02*
X23351D01*
X19115Y9400D02*
X23507D01*
X19115Y9300D02*
X23730D01*
X19115Y9700D02*
X23131D01*
X19115Y9600D02*
X23229D01*
X19115Y9275D02*
X20495Y7895D01*
X19300Y9090D02*
Y11090D01*
X19200Y9190D02*
Y11090D01*
X19115Y9275D02*
Y11090D01*
X18000Y7452D02*
Y8410D01*
X17900Y7490D02*
Y8511D01*
X18100Y7404D02*
Y8310D01*
X18500Y7051D02*
Y7910D01*
X17920Y8490D02*
X19215Y7196D01*
X18600Y6885D02*
Y7810D01*
X18300Y7267D02*
Y8110D01*
X18200Y7343D02*
Y8210D01*
X18400Y7172D02*
Y8010D01*
X17845Y8400D02*
X18010D01*
X17715Y13690D02*
Y14015D01*
X16625Y13690D02*
X17665D01*
X17845Y8100D02*
X18310D01*
X17845Y8000D02*
X18410D01*
X17845Y7900D02*
X18510D01*
X17845Y7507D02*
Y8579D01*
Y8300D02*
X18110D01*
X17845Y8200D02*
X18210D01*
X19100Y7062D02*
Y7310D01*
X19000Y6901D02*
Y7410D01*
X18639Y6800D02*
X18954D01*
X18900Y6633D02*
Y7510D01*
X18700Y6599D02*
Y7710D01*
X18674Y6700D02*
X18918D01*
X18700Y6600D02*
X18892D01*
X18717Y6500D02*
X18875D01*
X18725Y6400D02*
X18867D01*
X18725Y6300D02*
X18867D01*
X18717Y6200D02*
X18875D01*
X18700Y6100D02*
X18892D01*
X18107Y7400D02*
X19010D01*
X17869Y7500D02*
X18910D01*
X18259Y7300D02*
X19110D01*
X17845Y7800D02*
X18610D01*
X17845Y7700D02*
X18710D01*
X17845Y7600D02*
X18810D01*
X18463Y7100D02*
X19129D01*
X18373Y7200D02*
X19210D01*
X18535Y7000D02*
X19057D01*
X18593Y6900D02*
X18999D01*
X18592Y5800D02*
X19000D01*
X19366Y4785D02*
Y5375D01*
X18674Y6000D02*
X18918D01*
X18638Y5900D02*
X18954D01*
X18535Y5700D02*
X19057D01*
X19300Y4734D02*
Y5426D01*
X19200Y4641D02*
Y5519D01*
X19100Y4522D02*
Y5638D01*
X19000Y4361D02*
Y5799D01*
X18571Y4400D02*
X19021D01*
X18259Y5400D02*
X19333D01*
X18226Y5300D02*
X19366D01*
X18226Y5200D02*
X19366D01*
X18463Y5600D02*
X19129D01*
X18373Y5500D02*
X19219D01*
X18226Y5100D02*
X19366D01*
X18226Y5000D02*
X19366D01*
X18226Y4900D02*
X19366D01*
X18226Y4800D02*
X19366D01*
X18429Y4600D02*
X19163D01*
X18331Y4700D02*
X19261D01*
X18508Y4500D02*
X19084D01*
X20500Y575D02*
Y2691D01*
X20400Y575D02*
Y2657D01*
X20300Y575D02*
Y2633D01*
X20200Y575D02*
Y2617D01*
X20100Y575D02*
Y2610D01*
X20000Y575D02*
Y2612D01*
X19900Y575D02*
Y2622D01*
X19700Y575D02*
Y2667D01*
X19800Y575D02*
Y2640D01*
X19500Y575D02*
Y2752D01*
X19400Y575D02*
Y2812D01*
X19600Y575D02*
Y2704D01*
X18411Y3000D02*
X19181D01*
X18308Y2900D02*
X19284D01*
X18174Y2800D02*
X19418D01*
X18621Y4300D02*
X18971D01*
X18559Y3200D02*
X19033D01*
X18493Y3100D02*
X19099D01*
X19300Y575D02*
Y2886D01*
X19200Y575D02*
Y2979D01*
X17982Y2700D02*
X19610D01*
X19000Y575D02*
Y3259D01*
X19100Y575D02*
Y3098D01*
X18900Y4093D02*
Y6067D01*
X18690Y4100D02*
X18902D01*
X18711Y4000D02*
X18881D01*
X18700Y4059D02*
Y6101D01*
X18723Y3900D02*
X18869D01*
X18726Y3800D02*
X18866D01*
X18721Y3700D02*
X18871D01*
X18707Y3600D02*
X18885D01*
X18685Y3500D02*
X18907D01*
X18800Y575D02*
Y7610D01*
X18700Y575D02*
Y3561D01*
X18900Y575D02*
Y3527D01*
X18300Y4727D02*
Y5433D01*
X18226Y4785D02*
Y5375D01*
X16800Y4765D02*
Y5395D01*
X16700Y4680D02*
Y5480D01*
X16826Y4785D02*
Y5375D01*
X18600Y4346D02*
Y5814D01*
X18661Y4200D02*
X18931D01*
X18500Y4511D02*
Y5649D01*
X16600Y4573D02*
Y5587D01*
X18400Y4632D02*
Y5528D01*
X18654Y3400D02*
X18938D01*
X18612Y3300D02*
X18980D01*
X18600Y575D02*
Y3274D01*
X18500Y575D02*
Y3109D01*
X18400Y575D02*
Y2988D01*
X18300Y575D02*
Y2893D01*
X18200Y575D02*
Y2817D01*
X18100Y575D02*
Y2756D01*
X18000Y575D02*
Y2708D01*
X17900Y575D02*
Y2670D01*
X17800Y575D02*
Y2642D01*
X17700Y575D02*
Y2623D01*
X17600Y575D02*
Y2612D01*
X17500Y575D02*
Y2610D01*
X17400Y575D02*
Y2617D01*
X17200Y575D02*
Y2655D01*
X17100Y575D02*
Y2688D01*
X17300Y575D02*
Y2632D01*
X17000Y575D02*
Y2731D01*
X16800Y575D02*
Y2855D01*
X16900Y575D02*
Y2786D01*
X16600Y575D02*
Y3047D01*
X16700Y575D02*
Y2940D01*
X16329Y52800D02*
X21255D01*
X16329Y52800D02*
X21255D01*
X16329Y52700D02*
X21250D01*
X16329Y52600D02*
X21255D01*
X16329Y52500D02*
X21269D01*
X16329Y52400D02*
X21294D01*
X16329Y52300D02*
X21329D01*
X16329Y52200D02*
X18869D01*
X16329Y52100D02*
X18869D01*
X16329Y52000D02*
X18869D01*
X16329Y51900D02*
X18869D01*
X16329Y51800D02*
X18869D01*
X16329Y51700D02*
X18869D01*
X16329Y51600D02*
X18869D01*
X16329Y51500D02*
X18869D01*
X16329Y51100D02*
X18869D01*
X16329Y51000D02*
X18869D01*
X16329Y50900D02*
X18869D01*
X16329Y50800D02*
X18869D01*
X16329Y50700D02*
X18869D01*
X16329Y50600D02*
X18869D01*
X16329Y50500D02*
X18869D01*
X16329Y50400D02*
X18869D01*
X16329Y50300D02*
X18869D01*
X16329Y50200D02*
X18869D01*
X16329Y50100D02*
X18869D01*
X16329Y49300D02*
X21600D01*
X16329Y50000D02*
X18869D01*
X16329Y49900D02*
X18869D01*
X16329Y49800D02*
X18869D01*
X16329Y49200D02*
X21607D01*
X16329Y49000D02*
X21668D01*
X16329Y48900D02*
X21726D01*
X16329Y49100D02*
X21629D01*
X16329Y48800D02*
X21249D01*
X16329Y48700D02*
X21249D01*
X14297Y48600D02*
X21249D01*
X14297Y48500D02*
X21249D01*
X14297Y48400D02*
X21249D01*
X14297Y48300D02*
X21249D01*
X14297Y48200D02*
X21249D01*
X14297Y48100D02*
X21249D01*
X14297Y48000D02*
X21249D01*
X14297Y47900D02*
X21249D01*
X14297Y47800D02*
X21249D01*
X14297Y47700D02*
X21249D01*
X14297Y47600D02*
X21249D01*
X14297Y47500D02*
X21249D01*
X16329Y51470D02*
Y52800D01*
X16300Y51170D02*
Y51470D01*
X16200Y51170D02*
Y51470D01*
X16100Y51170D02*
Y51470D01*
X16000Y51170D02*
Y51470D01*
X15900Y51170D02*
Y51470D01*
X15800Y51170D02*
Y51470D01*
X15700Y51170D02*
Y51470D01*
X15600Y51170D02*
Y51470D01*
X15500Y51170D02*
Y51470D01*
X15400Y51170D02*
Y51470D01*
X15300Y51170D02*
Y51470D01*
X15200Y51170D02*
Y51470D01*
X13629D02*
X16329D01*
X15100Y51170D02*
Y51470D01*
X15000Y51170D02*
Y51470D01*
X13629D02*
Y52800D01*
X14900Y51170D02*
Y51470D01*
X14800Y51170D02*
Y51470D01*
X14700Y51170D02*
Y51470D01*
X14600Y51170D02*
Y51470D01*
X13600Y49906D02*
Y52800D01*
X13500Y49906D02*
Y52800D01*
X13400Y49906D02*
Y52800D01*
X16329Y49700D02*
X18869D01*
X14500Y51170D02*
Y51470D01*
X14400Y51170D02*
Y51470D01*
X14300Y51170D02*
Y51470D01*
X16329Y49600D02*
X18869D01*
X16329Y49500D02*
X18869D01*
X16329Y49400D02*
X18869D01*
X16329Y48670D02*
Y51170D01*
X14297Y48670D02*
X16329D01*
X14200Y51170D02*
Y51470D01*
X14100Y51170D02*
Y51470D01*
X14000Y51170D02*
Y51470D01*
X13900Y51170D02*
Y51470D01*
X13800Y51170D02*
Y51470D01*
X13700Y51170D02*
Y51470D01*
X13629Y51170D02*
X16329D01*
X14297Y47406D02*
Y48670D01*
X13629Y49906D02*
Y51170D01*
X14200Y47106D02*
Y47406D01*
X14297Y47100D02*
X21249D01*
X14297Y47000D02*
X21249D01*
X14297Y46900D02*
X21249D01*
X14297Y46800D02*
X21249D01*
X14297Y46700D02*
X21249D01*
X14297Y46600D02*
X21249D01*
X14297Y46500D02*
X21249D01*
X14297Y46400D02*
X21249D01*
X14297Y46300D02*
X34425D01*
X16500Y41709D02*
Y52800D01*
X16400Y41809D02*
Y52800D01*
X16300Y41909D02*
Y48670D01*
X14297Y46200D02*
X34425D01*
X14297Y46100D02*
X34425D01*
X14297Y46000D02*
X21249D01*
X14297Y45900D02*
X21249D01*
X14297Y45800D02*
X21249D01*
X14297Y45700D02*
X21249D01*
X14297Y45600D02*
X21249D01*
X14297Y45500D02*
X21249D01*
X14297Y45400D02*
X21249D01*
X14297Y45300D02*
X21249D01*
X14297Y45200D02*
X21249D01*
X14297Y45100D02*
X21249D01*
X15971Y43100D02*
X18201D01*
X16006Y43000D02*
X18101D01*
X16031Y42900D02*
X18001D01*
X16045Y42800D02*
X17901D01*
X16050Y42700D02*
X17801D01*
X16045Y42600D02*
X17701D01*
X16031Y42500D02*
X17601D01*
X16006Y42400D02*
X17501D01*
X15971Y42300D02*
X17401D01*
X16209Y42000D02*
X17101D01*
X16160Y42049D02*
X16655Y41554D01*
X16309Y41900D02*
X17001D01*
X14297Y45000D02*
X21249D01*
X14297Y44900D02*
X21249D01*
X14297Y44800D02*
X21249D01*
X15321Y43700D02*
X18830D01*
X14297Y44700D02*
X21249D01*
X15541Y43600D02*
X18701D01*
X15783Y43400D02*
X18501D01*
X15680Y43500D02*
X18601D01*
X15862Y43300D02*
X18401D01*
X15923Y43200D02*
X18301D01*
X15923Y42200D02*
X17301D01*
X15862Y42100D02*
X17201D01*
X15600Y43562D02*
Y48670D01*
X15500Y43623D02*
Y48670D01*
X15400Y43671D02*
Y48670D01*
X15300Y43706D02*
Y48670D01*
X15200Y43731D02*
Y48670D01*
X15100Y43745D02*
Y48670D01*
X16200Y42009D02*
Y48670D01*
X16100Y41988D02*
Y48670D01*
X16000Y43021D02*
Y48670D01*
X15900Y43241D02*
Y48670D01*
X15800Y43380D02*
Y48670D01*
X15700Y43483D02*
Y48670D01*
X15000Y43750D02*
Y48670D01*
X14900Y43745D02*
Y48670D01*
X14100Y47106D02*
Y47406D01*
X14000Y47106D02*
Y47406D01*
X13900Y47106D02*
Y47406D01*
X13800Y47106D02*
Y47406D01*
X14800Y43731D02*
Y48670D01*
X14700Y43706D02*
Y48670D01*
X14600Y43671D02*
Y48670D01*
X14500Y43623D02*
Y48670D01*
X14400Y43562D02*
Y48670D01*
X14300Y43483D02*
Y48670D01*
X16000Y41888D02*
Y42380D01*
X15782Y42000D02*
X16111D01*
X16011Y41900D02*
X16309D01*
X14297Y44606D02*
Y47106D01*
X14200Y43380D02*
Y44606D01*
X14100Y43241D02*
Y44606D01*
X15700Y41588D02*
X16160Y42049D01*
X15700Y41900D02*
X16011D01*
X15900Y41788D02*
Y42159D01*
X15800Y41688D02*
Y42020D01*
X15700Y41588D02*
Y41917D01*
X14000Y43020D02*
Y44606D01*
X13700Y47106D02*
Y47406D01*
X13600Y47106D02*
Y47406D01*
X13500Y47106D02*
Y47406D01*
X13400Y47106D02*
Y47406D01*
X13900Y42331D02*
Y44606D01*
X13800Y42345D02*
Y44606D01*
X13700Y42350D02*
Y44606D01*
X13600Y42345D02*
Y44606D01*
X13500Y42331D02*
Y44606D01*
X12815Y52800D02*
X13629D01*
X12815Y52800D02*
X13629D01*
X12815Y52700D02*
X13629D01*
X12815Y52600D02*
X13629D01*
X12815Y52500D02*
X13629D01*
X12815Y52400D02*
X13629D01*
X13300Y49906D02*
Y52800D01*
X12815Y52300D02*
X13629D01*
X12815Y52200D02*
X13629D01*
X13200Y49906D02*
Y52800D01*
X13100Y49906D02*
Y52800D01*
X13000Y49906D02*
Y52800D01*
X12815Y52100D02*
X13629D01*
X12815Y52000D02*
X13629D01*
X12815Y51900D02*
X13629D01*
X12815Y51800D02*
X13629D01*
X12815Y51700D02*
X13629D01*
X12815Y51600D02*
X13629D01*
X12815Y51400D02*
X18869D01*
X12815Y51300D02*
X18869D01*
X12815Y51200D02*
X18869D01*
X12815Y51500D02*
X13629D01*
X12815Y51100D02*
X13629D01*
X12815Y51000D02*
X13629D01*
X12815Y50900D02*
X13629D01*
X12815Y50800D02*
X13629D01*
X12815Y50700D02*
X13629D01*
X12815Y50600D02*
X13629D01*
X12815Y50500D02*
X13629D01*
X12815Y50400D02*
X13629D01*
X12815Y50300D02*
X13629D01*
X13300Y47106D02*
Y47406D01*
X13200Y47106D02*
Y47406D01*
X13100Y47106D02*
Y47406D01*
X13000Y47106D02*
Y47406D01*
X12815Y50200D02*
X13629D01*
X12815Y50100D02*
X13629D01*
X12815Y50000D02*
X13629D01*
X11597Y49906D02*
X13629D01*
X11374Y47400D02*
X21249D01*
X11290Y47300D02*
X21249D01*
X11190Y47200D02*
X21249D01*
X11597Y47406D02*
X14297D01*
X11597Y47106D02*
X14297D01*
X12900Y49906D02*
Y52800D01*
X12815Y49984D02*
Y52800D01*
X12900Y47106D02*
Y47406D01*
X12800Y47106D02*
Y47406D01*
X12700Y47106D02*
Y47406D01*
X12600Y47106D02*
Y47406D01*
X12500Y47106D02*
Y47406D01*
X12400Y47106D02*
Y47406D01*
X12300Y47106D02*
Y47406D01*
X12200Y47106D02*
Y47406D01*
X12100Y47106D02*
Y47406D01*
X12000Y47106D02*
Y47406D01*
X11545Y49984D02*
X12815D01*
X11493Y47700D02*
X11597D01*
X11500Y49100D02*
Y49984D01*
Y47800D02*
Y49100D01*
X11471Y47600D02*
X11597D01*
X11900Y47106D02*
Y47406D01*
X11432Y47500D02*
X11597D01*
X11800Y47106D02*
Y47406D01*
X11597D02*
Y49906D01*
X11700Y47106D02*
Y47406D01*
X11600Y47106D02*
Y47406D01*
X11090Y47100D02*
X11597D01*
X10990Y47000D02*
X11597D01*
X10890Y46900D02*
X11597D01*
X10790Y46800D02*
X11597D01*
X10690Y46700D02*
X11597D01*
X10590Y46600D02*
X11597D01*
X10490Y46500D02*
X11597D01*
Y45187D02*
Y47106D01*
X10390Y46400D02*
X11597D01*
X10290Y46300D02*
X11597D01*
X10190Y46200D02*
X11597D01*
X10090Y46100D02*
X11597D01*
X9990Y46000D02*
X11597D01*
X9890Y45900D02*
X11597D01*
X9790Y45800D02*
X11597D01*
X9690Y45700D02*
X11597D01*
X9590Y45600D02*
X11597D01*
X9490Y45500D02*
X11597D01*
X9390Y45400D02*
X11597D01*
X9290Y45300D02*
X11597D01*
X9190Y45200D02*
X11597D01*
X12990Y44600D02*
X21249D01*
X12890Y44500D02*
X21249D01*
X12790Y44400D02*
X21249D01*
X13400Y42306D02*
Y44606D01*
X12996D02*
X14297D01*
X12695Y44305D02*
X12996Y44606D01*
X13300Y42271D02*
Y44606D01*
X13200Y42223D02*
Y44606D01*
X13100Y42162D02*
Y44606D01*
X13000Y42083D02*
Y44606D01*
X12900Y41980D02*
Y44510D01*
X12800Y41841D02*
Y44410D01*
X12690Y44300D02*
X21249D01*
X12590Y44200D02*
X21249D01*
X12490Y44100D02*
X19879D01*
X11405Y44995D02*
X11597Y45187D01*
X11105Y44695D02*
X11597Y45187D01*
X12395Y44005D02*
X12695Y44305D01*
X12700Y41620D02*
Y44310D01*
X12300Y43910D02*
X12695Y44305D01*
X12390Y44000D02*
X19659D01*
X12600Y39952D02*
Y44210D01*
X12500Y40052D02*
Y44110D01*
X12400Y40152D02*
Y44010D01*
X12300Y43900D02*
X19520D01*
X12300Y43800D02*
X19173D01*
X12300Y43700D02*
X14679D01*
X12300Y43600D02*
X14459D01*
X12300Y43500D02*
X14320D01*
X12300Y43400D02*
X14217D01*
X12300Y43300D02*
X14138D01*
X12300Y43200D02*
X14077D01*
X12300Y43100D02*
X14029D01*
X12300Y40252D02*
Y43910D01*
Y43000D02*
X13994D01*
X12300Y42900D02*
X13969D01*
X12300Y42800D02*
X13955D01*
X12300Y42700D02*
X13950D01*
X12300Y42600D02*
X13955D01*
X12300Y42500D02*
X13969D01*
X12300Y42400D02*
X13994D01*
X12300Y42300D02*
X13379D01*
X12300Y42200D02*
X13159D01*
X12300Y42100D02*
X13020D01*
X12300Y42000D02*
X12917D01*
X12300Y41900D02*
X12838D01*
X11500Y45090D02*
Y47788D01*
X11400Y44990D02*
Y47439D01*
X11300Y44890D02*
Y47310D01*
X11200Y44790D02*
Y47210D01*
X11100Y44690D02*
Y47110D01*
X11000Y44572D02*
Y47010D01*
X10900Y44572D02*
Y46910D01*
X10800Y44572D02*
Y46810D01*
X10700Y44572D02*
Y46710D01*
X10600Y44572D02*
Y46610D01*
X10500Y44572D02*
Y46510D01*
X10400Y44572D02*
Y46410D01*
X9090Y45100D02*
X11510D01*
X9002Y45012D02*
X11295Y47305D01*
X9006Y45000D02*
X11410D01*
X9031Y44900D02*
X11310D01*
X9045Y44800D02*
X11210D01*
X9050Y44700D02*
X11110D01*
X10300Y44572D02*
Y46310D01*
X10200Y44572D02*
Y46210D01*
X10100Y44572D02*
Y46110D01*
X10000Y44572D02*
Y46010D01*
X9900Y44572D02*
Y45910D01*
X9800Y44572D02*
Y45810D01*
X10900Y41772D02*
Y42072D01*
X10900Y41772D02*
Y42072D01*
X10800Y41772D02*
Y42072D01*
X10700Y41772D02*
Y42072D01*
X10600Y41772D02*
Y42072D01*
X10500Y41772D02*
Y42072D01*
X10400Y41772D02*
Y42072D01*
X10300Y41772D02*
Y42072D01*
X10200Y41772D02*
Y42072D01*
X10100Y41772D02*
Y42072D01*
X9045Y44600D02*
X11025D01*
X9042Y44572D02*
X11007D01*
X8549Y42072D02*
X10900D01*
X7340Y42000D02*
X10900D01*
X10000Y41772D02*
Y42072D01*
X7119Y41900D02*
X10900D01*
X9900Y41772D02*
Y42072D01*
X9800Y41772D02*
Y42072D01*
X16584Y38513D02*
X17574Y39503D01*
X16584Y38513D02*
X17009Y38937D01*
X16471Y38400D02*
X19597D01*
X16509Y41700D02*
X16801D01*
X16409Y41800D02*
X16901D01*
X16443Y38372D02*
X16584Y38513D01*
X16171Y38100D02*
X19897D01*
X16071Y38000D02*
X19997D01*
X15971Y37900D02*
X20097D01*
X16371Y38300D02*
X19697D01*
X16019Y37947D02*
X16443Y38372D01*
X16271Y38200D02*
X19797D01*
X15571Y37500D02*
X20497D01*
X15471Y37400D02*
X20597D01*
X15371Y37300D02*
X20697D01*
X15871Y37800D02*
X20197D01*
X15771Y37700D02*
X20297D01*
X15671Y37600D02*
X20397D01*
X14971Y36900D02*
X21097D01*
X14871Y36800D02*
X21197D01*
X14771Y36700D02*
X21297D01*
X15271Y37200D02*
X20797D01*
X15171Y37100D02*
X20897D01*
X15071Y37000D02*
X20997D01*
X15698Y35500D02*
X22497D01*
X15725Y35400D02*
X22597D01*
X15742Y35300D02*
X22697D01*
X15646Y35700D02*
X22297D01*
X15520Y35900D02*
X22097D01*
X15679Y35600D02*
X22397D01*
X15714Y34900D02*
X23097D01*
X15682Y34800D02*
X23197D01*
X15638Y34700D02*
X23297D01*
X15750Y35200D02*
X22797D01*
X15748Y35100D02*
X22897D01*
X15736Y35000D02*
X22997D01*
X15221Y36200D02*
X21797D01*
X15121Y36300D02*
X21697D01*
X15321Y36100D02*
X21897D01*
X14921Y36500D02*
X21497D01*
X14821Y36600D02*
X21397D01*
X15021Y36400D02*
X21597D01*
X15506Y34500D02*
X23497D01*
X15411Y34400D02*
X23597D01*
X15284Y34300D02*
X23697D01*
X15595Y35800D02*
X22197D01*
X15421Y36000D02*
X21997D01*
X15580Y34600D02*
X23397D01*
X15700Y41800D02*
X15911D01*
X15700Y41700D02*
X15811D01*
X13716Y40250D02*
X14039Y39927D01*
X13900Y39788D02*
Y40066D01*
X13800Y39688D02*
Y40166D01*
X13897Y39786D02*
X14039Y39927D01*
X15877Y37806D02*
X16443Y38372D01*
X13473Y39362D02*
X13897Y39786D01*
X15453Y37382D02*
X15877Y37806D01*
X13700Y39588D02*
Y40250D01*
X13500Y39388D02*
Y40269D01*
X13600Y39488D02*
Y40255D01*
X13052Y39500D02*
X13611D01*
X12952Y39600D02*
X13711D01*
X13152Y39400D02*
X13511D01*
X13000Y39552D02*
Y40517D01*
X12900Y39652D02*
Y40620D01*
X13100Y39452D02*
Y40438D01*
X13473Y39362D02*
X13897Y39786D01*
X13400Y39288D02*
Y40294D01*
X13332Y39220D02*
X13473Y39362D01*
X13300Y39252D02*
Y40329D01*
X13200Y39352D02*
Y40377D01*
X13252Y39300D02*
X13411D01*
X15453Y37382D02*
X15877Y37806D01*
X15400Y36021D02*
Y37329D01*
X15300Y36121D02*
Y37229D01*
X15200Y36221D02*
Y37129D01*
X15100Y36321D02*
Y37029D01*
X15000Y36421D02*
Y36929D01*
X15700Y35493D02*
Y37629D01*
X15600Y35791D02*
Y37529D01*
X15500Y35921D02*
Y37429D01*
X14887Y36816D02*
X15453Y37382D01*
X14887Y36816D02*
X15312Y37240D01*
X14746Y36675D02*
X15460Y35961D01*
X14900Y36521D02*
Y36829D01*
X14746Y36675D02*
X14887Y36816D01*
X14800Y36621D02*
Y36729D01*
X13190Y35119D02*
X13904Y34405D01*
X12971Y34900D02*
X13410D01*
X12871Y34800D02*
X13510D01*
X13049Y34978D02*
X13190Y35119D01*
X13071Y35000D02*
X13310D01*
X15096Y34200D02*
X23797D01*
X14428Y30700D02*
X21004D01*
X14528Y30600D02*
X21104D01*
X15900Y29227D02*
Y37829D01*
X14228Y30900D02*
X20481D01*
X14328Y30800D02*
X20904D01*
X16500Y28627D02*
Y38429D01*
X16400Y28727D02*
Y38329D01*
X16300Y28827D02*
Y38229D01*
X16200Y28927D02*
Y38129D01*
X16100Y29027D02*
Y38029D01*
X16000Y29127D02*
Y37929D01*
X13128Y32000D02*
X19755D01*
X13028Y32100D02*
X19769D01*
X13228Y31900D02*
X19750D01*
X13428Y31700D02*
X19769D01*
X13328Y31800D02*
X19755D01*
X13528Y31600D02*
X19794D01*
X14028Y31100D02*
X20120D01*
X13928Y31200D02*
X20018D01*
X14128Y31000D02*
X20260D01*
X13728Y31400D02*
X19877D01*
X13628Y31500D02*
X19829D01*
X13828Y31300D02*
X19938D01*
X15828Y29300D02*
X20240D01*
X15728Y29400D02*
X20340D01*
X15928Y29200D02*
X20140D01*
X16028Y29100D02*
X20040D01*
X15877Y29250D02*
X16019Y29109D01*
X16128Y29000D02*
X19940D01*
X16328Y28800D02*
X19740D01*
X16228Y28900D02*
X19840D01*
X16428Y28700D02*
X19640D01*
X16019Y29109D02*
X16443Y28684D01*
X16019Y29109D02*
X16443Y28684D01*
X16443Y28684D02*
X16584Y28543D01*
X14728Y30400D02*
X21304D01*
X14628Y30500D02*
X21204D01*
X14828Y30300D02*
X21240D01*
X15028Y30100D02*
X21040D01*
X14928Y30200D02*
X21140D01*
X15128Y30000D02*
X20940D01*
X15328Y29800D02*
X20740D01*
X15228Y29900D02*
X20840D01*
X15428Y29700D02*
X20640D01*
X15528Y29600D02*
X20540D01*
X15453Y29674D02*
X15877Y29250D01*
X15628Y29500D02*
X20440D01*
X15200Y29927D02*
Y34249D01*
X15100Y30027D02*
Y34201D01*
X14000Y31127D02*
Y34325D01*
X14300Y30827D02*
Y34201D01*
X15800Y29327D02*
Y37729D01*
X15700Y29427D02*
Y34852D01*
X15600Y29527D02*
Y34631D01*
X15500Y29627D02*
Y34492D01*
X15400Y29727D02*
Y34389D01*
X15300Y29827D02*
Y34310D01*
X13300Y31827D02*
Y35009D01*
X13200Y31927D02*
Y35109D01*
X13100Y32027D02*
Y35029D01*
X13000Y32127D02*
Y34929D01*
X12900Y32227D02*
Y34829D01*
X13800Y31327D02*
Y34509D01*
X13700Y31427D02*
Y34609D01*
X13900Y31227D02*
Y34409D01*
X13500Y31627D02*
Y34809D01*
X13400Y31727D02*
Y34909D01*
X13600Y31527D02*
Y34709D01*
X14900Y30227D02*
Y34141D01*
X14800Y30327D02*
Y34127D01*
X14700Y30427D02*
Y34122D01*
X14600Y30527D02*
Y34127D01*
X14500Y30627D02*
Y34141D01*
X14400Y30727D02*
Y34166D01*
X15312Y29816D02*
X15453Y29674D01*
X14887Y30240D02*
X15312Y29816D01*
X15453Y29674D02*
X15877Y29250D01*
X15000Y30127D02*
Y34166D01*
X14746Y30381D02*
X14887Y30240D01*
X15312Y29816D01*
X14200Y30927D02*
Y34229D01*
X14100Y31027D02*
Y34267D01*
X13615Y31513D02*
X13756Y31371D01*
X13190Y31937D02*
X13615Y31513D01*
X13049Y32078D02*
X13190Y31937D01*
X13615Y31513D01*
X14322Y30806D02*
X14746Y30381D01*
X14180Y30947D02*
X14322Y30806D01*
X14746Y30381D01*
X13756Y31371D02*
X14180Y30947D01*
X13756Y31371D02*
X14180Y30947D01*
X12300Y41800D02*
X12777D01*
X12300Y41700D02*
X12729D01*
X12300Y41600D02*
X12694D01*
X12300Y41500D02*
X12669D01*
X12300Y41400D02*
X12655D01*
X12300Y41300D02*
X12650D01*
X12552Y40000D02*
X13966D01*
X12452Y40100D02*
X13866D01*
X12652Y39900D02*
X14011D01*
X12800Y39752D02*
Y40759D01*
X12700Y39852D02*
Y40980D01*
X12395Y40157D02*
X13332Y39220D01*
X12300Y41000D02*
X12694D01*
X12300Y40800D02*
X12777D01*
X12300Y40700D02*
X12838D01*
X12300Y41200D02*
X12655D01*
X12300Y41100D02*
X12669D01*
X12300Y40900D02*
X12729D01*
X12300Y40400D02*
X13160D01*
X12300Y40300D02*
X13381D01*
X12352Y40200D02*
X13766D01*
X12300Y40600D02*
X12918D01*
X12300Y40500D02*
X13020D01*
X12300Y40252D02*
X12675Y39877D01*
X12852Y39700D02*
X13811D01*
X12752Y39800D02*
X13911D01*
X12571Y34500D02*
X13810D01*
X12771Y34700D02*
X13610D01*
X12625Y34553D02*
X13049Y34978D01*
X12671Y34600D02*
X13710D01*
X12271Y34200D02*
X14304D01*
X12171Y34100D02*
X23897D01*
X12128Y33000D02*
X23940D01*
X12471Y34400D02*
X13910D01*
X12059Y33988D02*
X13049Y34978D01*
X12371Y34300D02*
X14039D01*
X11871Y33800D02*
X24197D01*
X11771Y33700D02*
X24297D01*
X11671Y33600D02*
X24397D01*
X12059Y33988D02*
X12483Y34412D01*
X12071Y34000D02*
X23997D01*
X11971Y33900D02*
X24097D01*
X11728Y33400D02*
X24340D01*
X11628Y33500D02*
X24440D01*
X11828Y33300D02*
X24240D01*
X11928Y33200D02*
X24140D01*
X11599Y33528D02*
X12059Y33988D01*
X12028Y33100D02*
X24040D01*
X8947Y37100D02*
X10079Y35967D01*
X8900Y36000D02*
X10047D01*
X8900Y35900D02*
X10011D01*
X8893Y36200D02*
X9847D01*
X8900Y36100D02*
X9947D01*
X10000Y35888D02*
Y36047D01*
X9900Y35788D02*
Y36147D01*
X9513Y35402D02*
X10079Y35967D01*
X9513Y35402D02*
X11387Y33528D01*
X9800Y35688D02*
Y36247D01*
X8900Y35800D02*
X9911D01*
X8900Y35700D02*
X9811D01*
X8549Y41772D02*
X10900D01*
X6890Y41800D02*
X10900D01*
X8900Y34800D02*
X10115D01*
X8900Y35100D02*
X9815D01*
X8900Y35000D02*
X9915D01*
X8900Y34900D02*
X10015D01*
X8900Y34400D02*
X10515D01*
X8900Y34300D02*
X10615D01*
X8900Y34200D02*
X10715D01*
X8900Y34700D02*
X10215D01*
X8900Y34600D02*
X10315D01*
X8900Y34500D02*
X10415D01*
X11800Y33327D02*
Y33729D01*
X11700Y33427D02*
Y33629D01*
X11315Y33600D02*
X11671D01*
X11300Y33441D02*
Y33615D01*
X11200Y33341D02*
Y33715D01*
X11359Y33500D02*
X11628D01*
X12000Y33127D02*
Y33929D01*
X11900Y33227D02*
Y33829D01*
X11599Y33528D02*
X12059Y33068D01*
X11000Y33141D02*
Y33915D01*
X10900Y33041D02*
Y34015D01*
X11100Y33241D02*
Y33815D01*
X8900Y33800D02*
X11115D01*
X8900Y33700D02*
X11215D01*
X8900Y33600D02*
X11315D01*
X8900Y34100D02*
X10815D01*
X8900Y34000D02*
X10915D01*
X8900Y33900D02*
X11015D01*
X8900Y33500D02*
X11359D01*
X8900Y33400D02*
X11259D01*
X8900Y33300D02*
X11159D01*
X8900Y33200D02*
X11059D01*
X8900Y33100D02*
X10959D01*
X12428Y32700D02*
X20120D01*
X12328Y32800D02*
X20259D01*
X12528Y32600D02*
X20017D01*
X12500Y32627D02*
Y34429D01*
X12400Y32727D02*
Y34329D01*
X12300Y32827D02*
Y34229D01*
X12800Y32327D02*
Y34729D01*
X12628Y32500D02*
X19938D01*
X12625Y32503D02*
X13049Y32078D01*
X12700Y32427D02*
Y34629D01*
X12600Y32527D02*
Y34529D01*
X12483Y32644D02*
X12625Y32503D01*
X12200Y32927D02*
Y34129D01*
X12100Y33027D02*
Y34029D01*
X12228Y32900D02*
X20479D01*
X10800Y32941D02*
Y34115D01*
X8900Y33000D02*
X10859D01*
X8900Y32900D02*
X10759D01*
X12059Y33068D02*
X12483Y32644D01*
X9513Y31654D02*
X11387Y33528D01*
X12059Y33068D02*
X12483Y32644D01*
X10700Y32841D02*
Y34215D01*
X10600Y32741D02*
Y34315D01*
X8900Y32800D02*
X10659D01*
X12828Y32300D02*
X19829D01*
X12728Y32400D02*
X19877D01*
X12928Y32200D02*
X19794D01*
X12625Y32503D02*
X13049Y32078D01*
X12200Y28967D02*
X12342Y28826D01*
X12133Y28900D02*
X12268D01*
X12907Y28260D02*
X13332Y27836D01*
X12766Y28401D02*
X12907Y28260D01*
X13332Y27836D01*
X12342Y28826D02*
X12766Y28401D01*
X12342Y28826D02*
X12766Y28401D01*
X12033Y28800D02*
X12368D01*
X11733Y28500D02*
X12668D01*
X11633Y28400D02*
X12768D01*
X11533Y28300D02*
X12868D01*
X11933Y28700D02*
X12468D01*
X10503Y30664D02*
X10645Y30523D01*
X11833Y28600D02*
X12568D01*
X11233Y28000D02*
X13168D01*
X11133Y27900D02*
X13268D01*
X11033Y27800D02*
X13368D01*
X11433Y28200D02*
X12968D01*
X11333Y28100D02*
X13068D01*
X10400Y32541D02*
Y34515D01*
X10300Y32441D02*
Y34615D01*
X10500Y32641D02*
Y34415D01*
X10100Y32241D02*
Y34815D01*
X10000Y32141D02*
Y34915D01*
X10200Y32341D02*
Y34715D01*
X9900Y32041D02*
Y35015D01*
X9513Y31654D02*
X10079Y31088D01*
X10000Y29878D02*
Y31168D01*
X9800Y31941D02*
Y35115D01*
Y29700D02*
Y31368D01*
X9900Y29778D02*
Y31268D01*
X8900Y32700D02*
X10559D01*
X8900Y32600D02*
X10459D01*
X8900Y32500D02*
X10359D01*
X8900Y32400D02*
X10259D01*
X8900Y32300D02*
X10159D01*
X8900Y32200D02*
X10059D01*
X8900Y32100D02*
X9959D01*
X8900Y32000D02*
X9859D01*
X8900Y31200D02*
X9968D01*
X8900Y31900D02*
X9759D01*
X8900Y31400D02*
X9768D01*
X8900Y31300D02*
X9868D01*
X10079Y31088D02*
X10503Y30664D01*
X10079Y31088D02*
X10503Y30664D01*
X8900Y30800D02*
X10368D01*
X8900Y31100D02*
X10068D01*
X8900Y31000D02*
X10168D01*
X8900Y30900D02*
X10268D01*
X10500Y30378D02*
Y30668D01*
X10400Y30278D02*
Y30768D01*
X9822Y29700D02*
X10645Y30523D01*
X10200Y30078D02*
Y30968D01*
X10100Y29978D02*
Y31068D01*
X10300Y30178D02*
Y30868D01*
X8900Y30600D02*
X10568D01*
X8900Y30500D02*
X10622D01*
X8900Y30400D02*
X10522D01*
X8900Y30700D02*
X10468D01*
X8900Y30300D02*
X10422D01*
X8900Y30200D02*
X10322D01*
X8900Y30100D02*
X10222D01*
X8900Y30000D02*
X10122D01*
X8900Y29900D02*
X10022D01*
X8900Y29800D02*
X9922D01*
X8900Y29700D02*
X9822D01*
X9700Y44572D02*
Y45710D01*
X7555Y49445D02*
Y49984D01*
X7500Y49390D02*
Y49984D01*
X7400Y49290D02*
Y49984D01*
X7300Y49190D02*
Y49984D01*
X9600Y44572D02*
Y45610D01*
X9500Y44572D02*
Y45510D01*
X9400Y44572D02*
Y45410D01*
X9300Y44572D02*
Y45310D01*
X9200Y44572D02*
Y45210D01*
X9100Y44572D02*
Y45110D01*
X6415Y49900D02*
X7555D01*
X6415Y49800D02*
X7555D01*
X6415Y49700D02*
X7555D01*
X6465Y49984D02*
X7505D01*
X6415Y49600D02*
X7555D01*
X6415Y49500D02*
X7555D01*
X6415Y48305D02*
X7555Y49445D01*
X6415Y49400D02*
X7510D01*
X7200Y49090D02*
Y49984D01*
X6415Y49300D02*
X7410D01*
X6415Y49200D02*
X7310D01*
X8319Y43700D02*
X8549D01*
X7806Y43200D02*
X8549D01*
X7800Y43220D02*
Y43669D01*
X7700Y43441D02*
Y43694D01*
X7831Y43100D02*
X8549D01*
X7845Y43000D02*
X8549D01*
X7850Y42900D02*
X8549D01*
X7845Y42800D02*
X8549D01*
Y42072D02*
Y43805D01*
X7831Y42700D02*
X8549D01*
X7806Y42600D02*
X8549D01*
X7583Y43600D02*
X8549D01*
X7662Y43500D02*
X8549D01*
X7723Y43400D02*
X8549D01*
X7600Y43580D02*
Y43729D01*
X7771Y43300D02*
X8549D01*
X7771Y42500D02*
X8549D01*
X7723Y42400D02*
X8549D01*
X7662Y42300D02*
X8549D01*
X7582Y42200D02*
X8549D01*
X7480Y42100D02*
X8549D01*
X7100Y48990D02*
Y49984D01*
X7000Y48890D02*
Y49984D01*
X6900Y48790D02*
Y49984D01*
X6800Y48690D02*
Y49984D01*
X6700Y48590D02*
Y49984D01*
X6600Y48490D02*
Y49984D01*
X6500Y48390D02*
Y49984D01*
X6415Y48305D02*
Y49984D01*
X5015Y48215D02*
Y49984D01*
X4900Y48271D02*
Y49984D01*
X4800Y48306D02*
Y49984D01*
X4700Y48331D02*
Y49984D01*
X3925D02*
X4965D01*
X4600Y48345D02*
Y49984D01*
X4500Y48350D02*
Y49984D01*
X3695D02*
X3925D01*
X3695D02*
X3925D01*
X4400Y48345D02*
Y49984D01*
X4300Y48331D02*
Y49984D01*
X4200Y48306D02*
Y49984D01*
X4100Y48271D02*
Y49984D01*
X4000Y48223D02*
Y49984D01*
X3900Y48162D02*
Y49984D01*
X6415Y49100D02*
X7210D01*
X6415Y49000D02*
X7110D01*
X6415Y48900D02*
X7010D01*
X6415Y48800D02*
X6910D01*
X6415Y48700D02*
X6810D01*
X6415Y48600D02*
X6710D01*
X6415Y48500D02*
X6610D01*
X3800Y48083D02*
Y49984D01*
X4821Y48300D02*
X5015D01*
X3700Y47980D02*
Y49984D01*
X3600Y47841D02*
Y49984D01*
X3700Y44298D02*
Y46620D01*
X3500Y47620D02*
Y49984D01*
X3600Y44298D02*
Y46759D01*
X3400Y44298D02*
Y49984D01*
X3300Y44298D02*
Y49984D01*
X3500Y44298D02*
Y46980D01*
X3200Y44298D02*
Y49984D01*
X3100Y44298D02*
Y49984D01*
X3000Y44298D02*
Y49984D01*
X2900Y44298D02*
Y49984D01*
X2800Y44298D02*
Y49984D01*
X9700Y41772D02*
Y42072D01*
X9600Y41772D02*
Y42072D01*
X9500Y41772D02*
Y42072D01*
X9400Y41772D02*
Y42072D01*
X9300Y41772D02*
Y42072D01*
X9200Y41772D02*
Y42072D01*
X9100Y41772D02*
Y42072D01*
X9000Y41772D02*
Y42072D01*
X8900Y41772D02*
Y42072D01*
X8800Y41772D02*
Y42072D01*
X8700Y41772D02*
Y42072D01*
X8600Y41772D02*
Y42072D01*
X7900Y40790D02*
Y43655D01*
X7800Y40890D02*
Y42580D01*
X7700Y40990D02*
Y42359D01*
X7600Y41090D02*
Y42220D01*
X7500Y41190D02*
Y42117D01*
X8500Y40190D02*
Y43777D01*
X8400Y40290D02*
Y43729D01*
X8300Y40390D02*
Y43694D01*
X8200Y40490D02*
Y43669D01*
X8100Y40590D02*
Y43655D01*
X8000Y40690D02*
Y43650D01*
X7590Y41100D02*
X8549D01*
X7490Y41200D02*
X8549D01*
X7690Y41000D02*
X8549D01*
X7790Y40900D02*
X8549D01*
X7400Y41290D02*
Y42038D01*
X7890Y40800D02*
X8549D01*
X8090Y40600D02*
X8549D01*
X7990Y40700D02*
X8549D01*
X8190Y40500D02*
X8549D01*
Y40141D02*
Y41772D01*
X8290Y40400D02*
X8549D01*
X8390Y40300D02*
X8549D01*
X7090Y41600D02*
X8549D01*
X6990Y41700D02*
X8549D01*
X7190Y41500D02*
X8549D01*
X7200Y41490D02*
Y41929D01*
X7100Y41590D02*
Y41894D01*
X7000Y41690D02*
Y41869D01*
X7390Y41300D02*
X8549D01*
X7290Y41400D02*
X8549D01*
X5648Y39642D02*
X8695Y36595D01*
X7300Y41390D02*
Y41977D01*
X6839Y41851D02*
X8549Y40141D01*
X5648Y39762D02*
X8105Y37305D01*
X4005Y41405D02*
X4662Y40748D01*
X3800Y41900D02*
Y46517D01*
X3761Y41798D02*
Y44298D01*
X3700Y41498D02*
Y41798D01*
X4100Y40623D02*
Y41310D01*
X4000Y40562D02*
Y41410D01*
X4200Y40671D02*
Y41210D01*
X3900Y40483D02*
Y41540D01*
X3800Y40380D02*
Y46517D01*
X3761Y40332D02*
Y41498D01*
X3600D02*
Y41798D01*
X3500Y41498D02*
Y41798D01*
X3400Y41498D02*
Y41798D01*
X3300Y41498D02*
Y41798D01*
X3200Y41498D02*
Y41798D01*
X3100Y41498D02*
Y41798D01*
X3761Y41400D02*
X4010D01*
X3761Y41300D02*
X4110D01*
X3761Y41200D02*
X4210D01*
X3000Y41498D02*
Y41798D01*
X2900Y41498D02*
Y41798D01*
X2800Y41498D02*
Y41798D01*
X5900Y39390D02*
Y39510D01*
X5790Y39500D02*
X5910D01*
X5890Y39400D02*
X6010D01*
X5700Y39590D02*
Y39710D01*
X5690Y39600D02*
X5810D01*
X5800Y39490D02*
Y39610D01*
X6200Y39090D02*
Y39210D01*
X6090Y39200D02*
X6210D01*
X6190Y39100D02*
X6310D01*
X6000Y39290D02*
Y39410D01*
X5990Y39300D02*
X6110D01*
X6100Y39190D02*
Y39310D01*
X4500Y40745D02*
Y40910D01*
X3761Y40900D02*
X4510D01*
X3761Y40800D02*
X4610D01*
X3761Y41100D02*
X4310D01*
X3761Y41000D02*
X4410D01*
X4400Y40731D02*
Y41010D01*
X4300Y40706D02*
Y41110D01*
X3761Y40700D02*
X4279D01*
X3761Y40600D02*
X4059D01*
X3761Y40500D02*
X3920D01*
X575Y49900D02*
X5015D01*
X575Y49800D02*
X5015D01*
X575Y49700D02*
X5015D01*
X2425Y49984D02*
X3695D01*
X575Y49600D02*
X5015D01*
X575Y49500D02*
X5015D01*
X575Y49400D02*
X5015D01*
X575Y49300D02*
X5015D01*
X575Y49200D02*
X5015D01*
X575Y49100D02*
X5015D01*
X575Y49000D02*
X5015D01*
X575Y48900D02*
X5015D01*
X575Y48800D02*
X5015D01*
X575Y48700D02*
X5015D01*
X575Y48600D02*
X5015D01*
X575Y48500D02*
X5015D01*
X575Y48400D02*
X5015D01*
X575Y48300D02*
X4179D01*
X575Y48200D02*
X3959D01*
X575Y48100D02*
X3820D01*
X575Y48000D02*
X3717D01*
X575Y47900D02*
X3638D01*
X575Y47800D02*
X3577D01*
X575Y47700D02*
X3529D01*
X575Y46500D02*
X3800D01*
X575Y46400D02*
X3800D01*
X575Y46300D02*
X3800D01*
X575Y46700D02*
X3638D01*
X575Y46600D02*
X3718D01*
X575Y46200D02*
X3800D01*
X575Y46100D02*
X3800D01*
X575Y46000D02*
X3800D01*
X575Y45900D02*
X3800D01*
X575Y45800D02*
X3800D01*
X575Y45700D02*
X3800D01*
X575Y45600D02*
X3800D01*
X575Y45500D02*
X3800D01*
X575Y45400D02*
X3800D01*
X575Y45300D02*
X3800D01*
X575Y45200D02*
X3800D01*
X575Y45100D02*
X3800D01*
X575Y45000D02*
X3800D01*
X575Y44900D02*
X3800D01*
X575Y44800D02*
X3800D01*
X575Y44700D02*
X3800D01*
X575Y44600D02*
X3800D01*
X575Y44500D02*
X3800D01*
X575Y44400D02*
X3800D01*
X575Y52800D02*
X1559D01*
X575Y52800D02*
X1559D01*
X1400Y52683D02*
Y52800D01*
X1300Y52580D02*
Y52800D01*
X575Y52700D02*
X1420D01*
X575Y52600D02*
X1317D01*
X1200Y52441D02*
Y52800D01*
X575Y52500D02*
X1238D01*
X1100Y52220D02*
Y52800D01*
X575Y52400D02*
X1177D01*
X575Y52300D02*
X1129D01*
X575Y52200D02*
X1094D01*
X575Y52100D02*
X1069D01*
X575Y52000D02*
X1055D01*
X575Y51900D02*
X1050D01*
X575Y51800D02*
X1055D01*
X575Y51700D02*
X1069D01*
X575Y51300D02*
X1238D01*
X575Y51200D02*
X1318D01*
X575Y51100D02*
X1420D01*
X575Y51600D02*
X1094D01*
X575Y51500D02*
X1129D01*
X575Y51400D02*
X1177D01*
X575Y50800D02*
X2425D01*
X575Y51000D02*
X1560D01*
X575Y50900D02*
X1781D01*
X575Y50700D02*
X2425D01*
X575Y50600D02*
X2425D01*
X575Y50500D02*
X2425D01*
X575Y50400D02*
X2425D01*
Y49984D02*
Y50812D01*
X575Y50300D02*
X2425D01*
X575Y50200D02*
X2425D01*
X575Y47600D02*
X3494D01*
X575Y47500D02*
X3469D01*
X575Y47400D02*
X3455D01*
X575Y50100D02*
X2425D01*
X575Y50000D02*
X2425D01*
X575Y47300D02*
X3450D01*
X575Y47200D02*
X3455D01*
X575Y46900D02*
X3529D01*
X575Y46800D02*
X3577D01*
X575Y47100D02*
X3469D01*
X575Y47000D02*
X3494D01*
X2700Y44298D02*
Y49984D01*
X2600Y44298D02*
Y49984D01*
X2500Y44298D02*
Y49984D01*
X2300Y44298D02*
Y50836D01*
X2200Y44298D02*
Y50855D01*
X2400Y44298D02*
Y50815D01*
X2100Y44298D02*
Y50850D01*
X2000Y44298D02*
Y50855D01*
X1900Y44298D02*
Y50869D01*
X1700Y44298D02*
Y50929D01*
X1800Y44298D02*
Y50894D01*
X1500Y44298D02*
Y51038D01*
X1400Y44298D02*
Y51117D01*
X1600Y44298D02*
Y50977D01*
X1200Y44298D02*
Y51359D01*
X1100Y44298D02*
Y51580D01*
X1300Y44298D02*
Y51220D01*
X1061Y44298D02*
X3761D01*
X575Y44300D02*
X3800D01*
X575Y44200D02*
X1061D01*
X575Y44100D02*
X1061D01*
X575Y44000D02*
X1061D01*
X575Y43900D02*
X1061D01*
X2700Y41498D02*
Y41798D01*
X2600Y41498D02*
Y41798D01*
X2500Y41498D02*
Y41798D01*
X2400Y41498D02*
Y41798D01*
X2300Y41498D02*
Y41798D01*
X2200Y41498D02*
Y41798D01*
X2100Y41498D02*
Y41798D01*
X2000Y41498D02*
Y41798D01*
X1900Y41498D02*
Y41798D01*
X1800Y41498D02*
Y41798D01*
X1700Y41498D02*
Y41798D01*
X1061D02*
X3761D01*
X575Y41700D02*
X3829D01*
X575Y41600D02*
X3868D01*
X1600Y41498D02*
Y41798D01*
X1500Y41498D02*
Y41798D01*
X1400Y41498D02*
Y41798D01*
X575Y41500D02*
X3926D01*
X1061Y41498D02*
X3761D01*
X1300D02*
Y41798D01*
X1200Y41498D02*
Y41798D01*
X575Y43800D02*
X1061D01*
X575Y43700D02*
X1061D01*
X575Y43600D02*
X1061D01*
X575Y43500D02*
X1061D01*
X575Y43400D02*
X1061D01*
X575Y43300D02*
X1061D01*
X575Y43200D02*
X1061D01*
X575Y43100D02*
X1061D01*
X575Y43000D02*
X1061D01*
Y41798D02*
Y44298D01*
X1100Y41498D02*
Y41798D01*
X1061Y38998D02*
Y41498D01*
X575Y42900D02*
X1061D01*
X575Y42800D02*
X1061D01*
X575Y42700D02*
X1061D01*
X575Y42600D02*
X1061D01*
X575Y42500D02*
X1061D01*
X575Y42400D02*
X1061D01*
X575Y42300D02*
X1061D01*
X575Y42200D02*
X1061D01*
X575Y42100D02*
X1061D01*
X575Y42000D02*
X1061D01*
X575Y41900D02*
X1061D01*
X575Y41800D02*
X1061D01*
X575Y41400D02*
X1061D01*
X575Y41300D02*
X1061D01*
X575Y41200D02*
X1061D01*
X575Y41100D02*
X1061D01*
X575Y41000D02*
X1061D01*
X575Y40900D02*
X1061D01*
X575Y40800D02*
X1061D01*
X575Y40700D02*
X1061D01*
X575Y40600D02*
X1061D01*
X575Y40500D02*
X1061D01*
X575Y40400D02*
X1061D01*
X575Y40300D02*
X1061D01*
X575Y40200D02*
X1061D01*
X575Y40100D02*
X1061D01*
X575Y40000D02*
X1061D01*
X575Y39900D02*
X1061D01*
X575Y39800D02*
X1061D01*
X575Y39700D02*
X1061D01*
X575Y39600D02*
X1061D01*
X575Y39500D02*
X1061D01*
X575Y39400D02*
X1061D01*
X575Y39300D02*
X1061D01*
X575Y39200D02*
X1061D01*
X7500Y37790D02*
Y37910D01*
X7390Y37900D02*
X7510D01*
X7490Y37800D02*
X7610D01*
X7300Y37990D02*
Y38110D01*
X7290Y38000D02*
X7410D01*
X7400Y37890D02*
Y38010D01*
X7800Y37490D02*
Y37610D01*
X7690Y37600D02*
X7810D01*
X7790Y37500D02*
X7910D01*
X7600Y37690D02*
Y37810D01*
X7590Y37700D02*
X7710D01*
X7700Y37590D02*
Y37710D01*
X6900Y38390D02*
Y38510D01*
X6790Y38500D02*
X6910D01*
X6890Y38400D02*
X7010D01*
X6690Y38600D02*
X6810D01*
X6590Y38700D02*
X6710D01*
X6800Y38490D02*
Y38610D01*
X7200Y38090D02*
Y38210D01*
X7090Y38200D02*
X7210D01*
X7190Y38100D02*
X7310D01*
X7000Y38290D02*
Y38410D01*
X6990Y38300D02*
X7110D01*
X7100Y38190D02*
Y38310D01*
X8600Y37100D02*
X8947D01*
X8390Y36900D02*
X9147D01*
X8490Y36800D02*
X9247D01*
X8600Y36690D02*
Y37100D01*
X8500Y36790D02*
Y37107D01*
X8400Y36890D02*
Y37129D01*
X8775Y36500D02*
X9547D01*
X8690Y36600D02*
X9447D01*
X8833Y36400D02*
X9647D01*
X8800Y36461D02*
Y37100D01*
X8700Y36590D02*
Y37100D01*
X8590Y36700D02*
X9347D01*
X8100Y37190D02*
Y37310D01*
X7990Y37300D02*
X8110D01*
X8090Y37200D02*
X8240D01*
X7900Y37390D02*
Y37510D01*
X7890Y37400D02*
X8010D01*
X8000Y37290D02*
Y37410D01*
X8190Y37100D02*
X8947D01*
X8290Y37000D02*
X9047D01*
X8200Y37090D02*
Y37226D01*
X8300Y36990D02*
Y37168D01*
X6500Y38790D02*
Y38910D01*
X6390Y38900D02*
X6510D01*
X6490Y38800D02*
X6610D01*
X6300Y38990D02*
Y39110D01*
X6290Y39000D02*
X6410D01*
X6400Y38890D02*
Y39010D01*
X6600Y38690D02*
Y38810D01*
X6700Y38590D02*
Y38710D01*
X3900Y38580D02*
Y38917D01*
X3800Y38441D02*
Y39020D01*
X4000Y38683D02*
Y38838D01*
X3118Y38900D02*
X3920D01*
X3118Y38800D02*
X4060D01*
X3118Y38700D02*
X4020D01*
X3700Y38220D02*
Y38998D01*
X3118D02*
X3761D01*
X3118Y38285D02*
Y38998D01*
X3600Y37519D02*
Y38998D01*
X3500Y37830D02*
Y38998D01*
X3400Y38000D02*
Y38998D01*
X3300Y38124D02*
Y38998D01*
X3200Y38221D02*
Y38998D01*
X3583Y37600D02*
X3694D01*
X3603Y37500D02*
X3729D01*
X3615Y37400D02*
X3777D01*
X3463Y37900D02*
X3650D01*
X3514Y37800D02*
X3655D01*
X3553Y37700D02*
X3669D01*
X3577Y37000D02*
X4160D01*
X3546Y36900D02*
X4381D01*
X3504Y36800D02*
X5010D01*
X3618Y37300D02*
X3838D01*
X3613Y37200D02*
X3918D01*
X3600Y37100D02*
X4020D01*
X3118Y38600D02*
X3917D01*
X3118Y38500D02*
X3838D01*
X3118Y38400D02*
X3777D01*
X3224Y38200D02*
X3694D01*
X3118Y38300D02*
X3729D01*
X3322Y38100D02*
X3669D01*
X3385Y36600D02*
X5210D01*
X3303Y36500D02*
X5310D01*
X3200Y36400D02*
X5410D01*
X3400Y38000D02*
X3655D01*
X3451Y36700D02*
X5110D01*
X9700Y35588D02*
Y36347D01*
X9600Y35488D02*
Y36447D01*
X9700Y31841D02*
Y35215D01*
X9600Y35315D02*
Y35488D01*
X8900Y36111D02*
Y37100D01*
X9600Y31741D02*
Y35315D01*
X9400Y29700D02*
Y36647D01*
X9300Y29700D02*
Y36747D01*
X9500Y29700D02*
Y36547D01*
X9100Y29700D02*
Y36947D01*
X9000Y29700D02*
Y37047D01*
X9200Y29700D02*
Y36847D01*
X8871Y36300D02*
X9747D01*
X8900Y35600D02*
X9711D01*
X8900Y35500D02*
X9611D01*
X8900Y35400D02*
X9515D01*
X8900Y29700D02*
Y36100D01*
Y35300D02*
X9615D01*
X8900Y35200D02*
X9715D01*
X4934Y36876D02*
X6600Y35210D01*
X3224Y33200D02*
X6600D01*
X3322Y33100D02*
X6600D01*
X9600Y31568D02*
Y31741D01*
X8900Y31800D02*
X9659D01*
X9700Y29700D02*
Y31468D01*
X8900Y31700D02*
X9559D01*
X8900Y31600D02*
X9568D01*
X8900Y31500D02*
X9668D01*
X9600Y29700D02*
Y31568D01*
X3775Y28100D02*
X6910D01*
X3775Y28300D02*
X6726D01*
X3775Y28200D02*
X6810D01*
X3463Y32900D02*
X6600D01*
X3400Y33000D02*
X6600D01*
X3514Y32800D02*
X6600D01*
X3553Y32700D02*
X6600D01*
X3583Y32600D02*
X6600D01*
X3603Y32500D02*
X6600D01*
X3618Y32300D02*
X6600D01*
X3615Y32400D02*
X6600D01*
X3613Y32200D02*
X6600D01*
X3600Y32100D02*
X6600D01*
X3577Y32000D02*
X6600D01*
X3700Y30558D02*
Y37580D01*
X3546Y31900D02*
X6600D01*
X3775Y30500D02*
X6600D01*
X3600Y32519D02*
Y37102D01*
X3500Y32830D02*
Y36791D01*
X3600Y30558D02*
Y32102D01*
X3775Y30400D02*
X6600D01*
X3775Y30300D02*
X6600D01*
X3775Y30200D02*
X6600D01*
Y28700D02*
Y35210D01*
X3775Y28058D02*
Y30558D01*
Y30100D02*
X6600D01*
X3504Y31800D02*
X6600D01*
X3451Y31700D02*
X6600D01*
X3385Y31600D02*
X6600D01*
X3400Y33000D02*
Y36620D01*
X3300Y33124D02*
Y36496D01*
X3200Y33221D02*
Y36400D01*
X3500Y30558D02*
Y31791D01*
X3303Y31500D02*
X6600D01*
X3200Y31400D02*
X6600D01*
X3400Y30558D02*
Y31620D01*
X3300Y30558D02*
Y31496D01*
X3200Y30558D02*
Y31400D01*
X3775Y30000D02*
X6600D01*
X3775Y29900D02*
X6600D01*
X3775Y29800D02*
X6600D01*
X3775Y29700D02*
X6600D01*
X3775Y29600D02*
X6600D01*
X3775Y29500D02*
X6600D01*
X3775Y29400D02*
X6600D01*
X3775Y29300D02*
X6600D01*
X3775Y29200D02*
X6600D01*
X3775Y29100D02*
X6600D01*
X3775Y29000D02*
X6600D01*
X3775Y28900D02*
X6600D01*
X3775Y28800D02*
X6600D01*
X3775Y28700D02*
X6600D01*
X3775Y28600D02*
X6607D01*
X3775Y28500D02*
X6629D01*
X3775Y28400D02*
X6668D01*
X3700Y27758D02*
Y28058D01*
X3600Y27758D02*
Y28058D01*
X3500Y27758D02*
Y28058D01*
X3400Y27758D02*
Y28058D01*
X3300Y27758D02*
Y28058D01*
X3200Y27758D02*
Y28058D01*
X3066Y36300D02*
X5510D01*
X2873Y36200D02*
X5610D01*
X2700Y33477D02*
Y36144D01*
X2600Y33496D02*
Y36124D01*
X2500Y33507D02*
Y36113D01*
X3100Y33298D02*
Y36323D01*
X3000Y33360D02*
Y36261D01*
X2900Y33409D02*
Y36211D01*
X2800Y33448D02*
Y36173D01*
X2400Y33510D02*
Y36110D01*
X2300Y33504D02*
Y36116D01*
X575Y36000D02*
X5810D01*
X575Y35900D02*
X5910D01*
X575Y35800D02*
X6010D01*
X575Y36200D02*
X1963D01*
X575Y36100D02*
X5710D01*
X2200Y33490D02*
Y36130D01*
X575Y35700D02*
X6110D01*
X575Y35600D02*
X6210D01*
X2000Y33435D02*
Y36185D01*
X1900Y33393D02*
Y36228D01*
X2100Y33467D02*
Y36153D01*
X575Y35200D02*
X6600D01*
X575Y35100D02*
X6600D01*
X575Y35000D02*
X6600D01*
X575Y35500D02*
X6310D01*
X575Y35400D02*
X6410D01*
X575Y35300D02*
X6510D01*
X575Y34900D02*
X6600D01*
X575Y34800D02*
X6600D01*
X575Y34700D02*
X6600D01*
X2921Y33400D02*
X6600D01*
X2576Y33500D02*
X6600D01*
X3097Y33300D02*
X6600D01*
X575Y34600D02*
X6600D01*
X575Y34500D02*
X6600D01*
X575Y34400D02*
X6600D01*
X575Y34300D02*
X6600D01*
X575Y34200D02*
X6600D01*
X575Y34100D02*
X6600D01*
X575Y34000D02*
X6600D01*
X575Y33900D02*
X6600D01*
X575Y33800D02*
X6600D01*
X575Y33700D02*
X6600D01*
X575Y33600D02*
X6600D01*
X575Y33500D02*
X2260D01*
X1061Y38998D02*
X1718D01*
X575Y38900D02*
X1718D01*
X575Y38800D02*
X1718D01*
X575Y39100D02*
X1061D01*
X575Y39000D02*
X1061D01*
X575Y38700D02*
X1718D01*
Y38285D02*
Y38998D01*
X1700Y38271D02*
Y38998D01*
X1600Y38188D02*
Y38998D01*
X1500Y38083D02*
Y38998D01*
X1400Y37945D02*
Y38998D01*
X1300Y37745D02*
Y38998D01*
X575Y38600D02*
X1718D01*
X575Y38500D02*
X1718D01*
X575Y38400D02*
X1718D01*
X575Y38300D02*
X1718D01*
X575Y38200D02*
X1613D01*
X575Y38100D02*
X1515D01*
X575Y38000D02*
X1436D01*
X575Y37900D02*
X1373D01*
X575Y37800D02*
X1323D01*
X575Y37700D02*
X1283D01*
X575Y37600D02*
X1254D01*
X575Y37500D02*
X1233D01*
X575Y37400D02*
X1222D01*
X575Y37300D02*
X1218D01*
X575Y36900D02*
X1291D01*
X575Y37200D02*
X1223D01*
X575Y37100D02*
X1237D01*
X575Y37000D02*
X1259D01*
X1800Y33339D02*
Y36282D01*
X1600Y33188D02*
Y36432D01*
X1700Y33271D02*
Y36349D01*
X1400Y32945D02*
Y36675D01*
X575Y36800D02*
X1332D01*
X1500Y33083D02*
Y36538D01*
X575Y36400D02*
X1636D01*
X575Y36300D02*
X1771D01*
X575Y33400D02*
X1915D01*
X575Y36700D02*
X1385D01*
X575Y36600D02*
X1451D01*
X575Y36500D02*
X1533D01*
X575Y33300D02*
X1739D01*
X575Y33200D02*
X1613D01*
X575Y33100D02*
X1515D01*
X575Y33000D02*
X1436D01*
X575Y32900D02*
X1373D01*
X3118Y31300D02*
X6600D01*
X3118Y31200D02*
X6600D01*
X3118Y31100D02*
X6600D01*
X3118Y31000D02*
X6600D01*
X3118Y30900D02*
X6600D01*
X3118Y30800D02*
X6600D01*
X3118Y30700D02*
X6600D01*
X3118Y30600D02*
X6600D01*
X3118Y30558D02*
Y31336D01*
X1718Y30558D02*
Y31336D01*
X1700Y30558D02*
Y31349D01*
X575Y31300D02*
X1718D01*
X575Y31200D02*
X1718D01*
X575Y31600D02*
X1451D01*
X575Y31500D02*
X1533D01*
X575Y31400D02*
X1636D01*
X575Y31100D02*
X1718D01*
X575Y31000D02*
X1718D01*
X575Y30900D02*
X1718D01*
X1600Y30558D02*
Y31432D01*
X575Y30800D02*
X1718D01*
X575Y30700D02*
X1718D01*
X3118Y30558D02*
X3775D01*
X3100Y27758D02*
Y28058D01*
X3000Y27758D02*
Y28058D01*
X2900Y27758D02*
Y28058D01*
X2800Y27758D02*
Y28058D01*
X2700Y27758D02*
Y28058D01*
X2600Y27758D02*
Y28058D01*
X2500Y27758D02*
Y28058D01*
X2400Y27758D02*
Y28058D01*
X2300Y27758D02*
Y28058D01*
X2200Y27758D02*
Y28058D01*
X2100Y27758D02*
Y28058D01*
X575Y28000D02*
X7010D01*
X575Y27900D02*
X7110D01*
X575Y27800D02*
X7210D01*
X1075Y30558D02*
X1718D01*
X575Y30600D02*
X1718D01*
X1075Y28058D02*
X3775D01*
X2000Y27758D02*
Y28058D01*
X1900Y27758D02*
Y28058D01*
X1800Y27758D02*
Y28058D01*
X1700Y27758D02*
Y28058D01*
X1600Y27758D02*
Y28058D01*
X1300Y32745D02*
Y36875D01*
X575Y32800D02*
X1323D01*
X575Y32700D02*
X1283D01*
X575Y32600D02*
X1254D01*
X575Y32500D02*
X1233D01*
X575Y32400D02*
X1222D01*
X1400Y30558D02*
Y31675D01*
X1300Y30558D02*
Y31875D01*
X1500Y30558D02*
Y31538D01*
X1200Y30558D02*
Y38998D01*
X1100Y30558D02*
Y38998D01*
X1075Y28058D02*
Y30558D01*
X575Y32300D02*
X1218D01*
X575Y31900D02*
X1291D01*
X575Y31800D02*
X1332D01*
X575Y32200D02*
X1223D01*
X575Y32100D02*
X1237D01*
X575Y32000D02*
X1259D01*
X575Y31700D02*
X1385D01*
X575Y30500D02*
X1075D01*
X575Y30400D02*
X1075D01*
X575Y30300D02*
X1075D01*
X575Y30200D02*
X1075D01*
X575Y30100D02*
X1075D01*
X575Y30000D02*
X1075D01*
X575Y29900D02*
X1075D01*
X575Y29800D02*
X1075D01*
X575Y29700D02*
X1075D01*
X575Y29600D02*
X1075D01*
X575Y29500D02*
X1075D01*
X1500Y27758D02*
Y28058D01*
X1400Y27758D02*
Y28058D01*
X1300Y27758D02*
Y28058D01*
X575Y29400D02*
X1075D01*
X575Y29300D02*
X1075D01*
X575Y29200D02*
X1075D01*
X575Y29100D02*
X1075D01*
X575Y29000D02*
X1075D01*
X575Y28900D02*
X1075D01*
X575Y28800D02*
X1075D01*
X575Y28700D02*
X1075D01*
X575Y28600D02*
X1075D01*
X575Y28500D02*
X1075D01*
X575Y28400D02*
X1075D01*
X575Y28300D02*
X1075D01*
X575Y28200D02*
X1075D01*
X575Y28100D02*
X1075D01*
X16453Y25300D02*
X19615D01*
X16353Y25200D02*
X19715D01*
X16253Y25100D02*
X19815D01*
X15029Y26139D02*
X15170Y25997D01*
X15100Y25927D02*
Y26068D01*
X16500Y25000D02*
Y25347D01*
X16160Y25007D02*
X17150Y25998D01*
X16151Y24998D02*
X17150Y25997D01*
X16200Y25000D02*
X20000D01*
X16400D02*
Y25247D01*
X16300Y25000D02*
Y25147D01*
X14605Y26563D02*
X15029Y26139D01*
X14605Y26563D02*
X15029Y26139D01*
X15000Y25827D02*
Y26168D01*
X14900Y25727D02*
Y26268D01*
X13138Y25800D02*
X14973D01*
X13138Y25700D02*
X14873D01*
X13505Y24332D02*
X15170Y25997D01*
X14700Y22700D02*
X14960D01*
X14800Y25627D02*
Y26368D01*
X13138Y25600D02*
X14773D01*
X14700Y22800D02*
X14820D01*
X14700Y22600D02*
X15181D01*
X14700Y22500D02*
X15255D01*
X15200Y22360D02*
Y22594D01*
X14700Y22400D02*
X15212D01*
X14700Y22300D02*
X15186D01*
X14700Y22200D02*
X15175D01*
X14700Y22100D02*
X15175D01*
X14700Y22000D02*
X15175D01*
X14700Y21900D02*
X15175D01*
X14700Y21800D02*
X15175D01*
X14700Y21700D02*
X15175D01*
X14700Y21600D02*
X15175D01*
X14700Y21500D02*
X15175D01*
X14700Y21400D02*
X15175D01*
X14700Y21300D02*
X15175D01*
X14700Y21200D02*
X15175D01*
X14700Y21100D02*
X15175D01*
X14700Y21000D02*
X15175D01*
X14700Y20900D02*
X15175D01*
X14700Y20800D02*
X15175D01*
X14700Y20700D02*
X15175D01*
X14700Y20600D02*
X15175D01*
X14700Y20500D02*
X15175D01*
X14600Y25427D02*
Y26568D01*
X14463Y26704D02*
X14605Y26563D01*
X14700Y25527D02*
Y26468D01*
X14039Y27129D02*
X14463Y26704D01*
X13897Y27270D02*
X14039Y27129D01*
X14039Y27129D02*
X14463Y26704D01*
X14400Y25227D02*
Y26768D01*
X14300Y25127D02*
Y26868D01*
X14500Y25327D02*
Y26668D01*
X14100Y24927D02*
Y27068D01*
X14000Y24827D02*
Y27168D01*
X14200Y25027D02*
Y26968D01*
X13473Y27694D02*
X13897Y27270D01*
X13473Y27694D02*
X13897Y27270D01*
X13900Y24727D02*
Y27268D01*
X13100Y25838D02*
Y28068D01*
X13000Y25838D02*
Y28168D01*
X13332Y27836D02*
X13473Y27694D01*
X13700Y24527D02*
Y27468D01*
X13600Y24427D02*
Y27568D01*
X13800Y24627D02*
Y27368D01*
X13500Y24327D02*
Y27668D01*
X13400Y24198D02*
Y27768D01*
X13138Y23438D02*
Y25838D01*
Y25500D02*
X14673D01*
X13138Y25400D02*
X14573D01*
X13138Y25300D02*
X14473D01*
X13138Y25200D02*
X14373D01*
X13138Y25100D02*
X14273D01*
X13138Y25000D02*
X14173D01*
X13138Y24900D02*
X14073D01*
X13138Y24800D02*
X13973D01*
X13138Y24700D02*
X13873D01*
X13138Y24600D02*
X13773D01*
X13138Y24500D02*
X13673D01*
X13138Y24400D02*
X13573D01*
X13138Y24300D02*
X13475D01*
X13138Y24200D02*
X13401D01*
X13138Y24100D02*
X13351D01*
X13138Y24000D02*
X13319D01*
X13138Y23900D02*
X13303D01*
X13138Y23800D02*
X13300D01*
X13138Y23700D02*
X13300D01*
X13138Y23600D02*
X13300D01*
X13138Y23500D02*
X13300D01*
X14700Y20400D02*
X15175D01*
X14700Y20300D02*
X15175D01*
X14700Y20200D02*
X15175D01*
X14700Y20100D02*
X15175D01*
X14700Y20000D02*
X15175D01*
X14700Y19900D02*
X15175D01*
X14700Y19800D02*
X15175D01*
X14700Y19700D02*
X15175D01*
X14700Y19600D02*
X15175D01*
Y19390D02*
Y22175D01*
X14700Y19500D02*
X15175D01*
X14700Y19400D02*
X15175D01*
X14700Y19300D02*
X15125D01*
X14700Y19200D02*
X15125D01*
X14700Y19100D02*
X15125D01*
X14700Y19000D02*
X15125D01*
X14700Y18900D02*
X15125D01*
X14693Y18800D02*
X15125D01*
X14671Y18700D02*
X15125D01*
X14632Y18600D02*
X15125D01*
X14574Y18500D02*
X15125D01*
X14490Y18400D02*
X15125D01*
X14390Y18300D02*
X15125D01*
X14290Y18200D02*
X15125D01*
X16395Y16790D02*
X16625D01*
X16395D02*
X16625D01*
X16395Y13690D02*
X16625D01*
X16500D02*
Y16790D01*
X16400Y13690D02*
Y16790D01*
X16395Y13690D02*
X16625D01*
X16300D02*
Y16790D01*
X16200Y13690D02*
Y16790D01*
X16100Y13690D02*
Y16790D01*
X16000Y13690D02*
Y16790D01*
X15900Y13690D02*
Y16790D01*
X15800Y13690D02*
Y16790D01*
X15125D02*
X16395D01*
X14190Y18100D02*
X15125D01*
X15700Y13690D02*
Y16790D01*
X14090Y18000D02*
X15125D01*
X13990Y17900D02*
X15125D01*
X13890Y17800D02*
X15125D01*
X15600Y13690D02*
Y16790D01*
X15500Y13690D02*
Y16790D01*
X15125Y13690D02*
X16395D01*
X15400D02*
Y16790D01*
X15300Y13690D02*
Y16790D01*
X15200Y13690D02*
Y16790D01*
X15125D02*
Y19390D01*
X14700Y18900D02*
Y22920D01*
X14500Y9944D02*
Y18410D01*
X14400Y10044D02*
Y18310D01*
X15100Y9344D02*
Y22629D01*
X14900Y9544D02*
Y22738D01*
X15000Y9444D02*
Y22677D01*
X14800Y9644D02*
Y22817D01*
X14700Y9744D02*
Y18888D01*
X14600Y9844D02*
Y18539D01*
X13300Y19190D02*
Y27868D01*
X13187Y17097D02*
X14495Y18405D01*
X13790Y17700D02*
X15125D01*
X13300Y19190D02*
Y23837D01*
X13200Y19090D02*
Y27968D01*
X13100Y18990D02*
Y23438D01*
X14300Y10144D02*
Y18210D01*
X14200Y10244D02*
Y18110D01*
X14100Y10344D02*
Y18010D01*
X14000Y10444D02*
Y17910D01*
X13900Y10534D02*
Y17810D01*
X13800Y10603D02*
Y17710D01*
X13690Y17600D02*
X15125D01*
X13590Y17500D02*
X15125D01*
X13490Y17400D02*
X15125D01*
X13390Y17300D02*
X15125D01*
X13400Y13041D02*
Y17310D01*
X13471Y12900D02*
X15125D01*
Y11090D02*
Y13690D01*
X13506Y12800D02*
X15125D01*
X13531Y12700D02*
X15125D01*
X13700Y10655D02*
Y17610D01*
X13600Y10694D02*
Y17510D01*
X13500Y12820D02*
Y17410D01*
X13290Y17200D02*
X15125D01*
X13190Y17100D02*
X15125D01*
X13065Y17000D02*
X15125D01*
X13200Y13283D02*
Y17110D01*
X13100Y13362D02*
Y17023D01*
X13041Y13400D02*
X15125D01*
X13283Y13200D02*
X15125D01*
X13180Y13300D02*
X15125D01*
X13362Y13100D02*
X15125D01*
X13300Y13180D02*
Y17210D01*
X13423Y13000D02*
X15125D01*
X10603Y27400D02*
X13768D01*
X3775Y27300D02*
X13868D01*
X3775Y27200D02*
X13968D01*
X10933Y27700D02*
X13468D01*
X10833Y27600D02*
X13568D01*
X10733Y27500D02*
X13668D01*
X10039Y23400D02*
X13300D01*
X3775Y27100D02*
X14068D01*
X10039Y23300D02*
X13300D01*
X10039Y23200D02*
X13300D01*
X10039Y23100D02*
X13300D01*
X10039Y23000D02*
X13300D01*
X3775Y26700D02*
X14468D01*
X3775Y26600D02*
X14568D01*
X3775Y26500D02*
X14668D01*
X3775Y27000D02*
X14168D01*
X3775Y26900D02*
X14268D01*
X3775Y26800D02*
X14368D01*
X3775Y26100D02*
X15068D01*
X3775Y26000D02*
X15168D01*
X3775Y25900D02*
X15073D01*
X3775Y26400D02*
X14768D01*
X3775Y26300D02*
X14868D01*
X3775Y26200D02*
X14968D01*
X12455Y21800D02*
X13300D01*
X12406Y21900D02*
X13300D01*
X12492Y21700D02*
X13300D01*
X12533Y21500D02*
X13300D01*
X12518Y21600D02*
X13300D01*
X12539Y21400D02*
X13300D01*
X12535Y21300D02*
X13300D01*
X12522Y21200D02*
X13300D01*
X12498Y21100D02*
X13300D01*
X12464Y21000D02*
X13300D01*
X12418Y20900D02*
X13300D01*
X12358Y20800D02*
X13300D01*
X10039Y22900D02*
X13300D01*
X10039Y22800D02*
X13300D01*
X10039Y22700D02*
X13300D01*
X10039Y22600D02*
X13300D01*
X10039Y22500D02*
X13300D01*
X11773Y22400D02*
X13300D01*
X12156Y22200D02*
X13300D01*
X12011Y22300D02*
X13300D01*
X12262Y22100D02*
X13300D01*
X12343Y22000D02*
X13300D01*
X12281Y20700D02*
X13300D01*
X12189Y20600D02*
X13300D01*
X12800Y25838D02*
Y28368D01*
X12700Y25838D02*
Y28468D01*
X12900Y25838D02*
Y28268D01*
X12500Y25838D02*
Y28668D01*
X12400Y25838D02*
Y28768D01*
X12600Y25838D02*
Y28568D01*
Y20217D02*
Y23438D01*
X12500Y21673D02*
Y23438D01*
X12400Y21911D02*
Y23438D01*
X12300Y25838D02*
Y28868D01*
X12200Y25838D02*
Y28967D01*
X12300Y22056D02*
Y23438D01*
X12100Y25838D02*
Y28867D01*
X10738Y27505D02*
X12200Y28967D01*
X12000Y25838D02*
Y28767D01*
X11900Y25838D02*
Y28667D01*
X11800Y25838D02*
Y28567D01*
X11700Y25838D02*
Y28467D01*
X10738Y25838D02*
X13138D01*
X10738Y23438D02*
X13138D01*
X12200Y22162D02*
Y23438D01*
X11600Y25838D02*
Y28367D01*
X11500Y25838D02*
Y28267D01*
X11400Y25838D02*
Y28167D01*
X12189Y20500D02*
X13300D01*
X12189Y20400D02*
X13300D01*
X12664Y20200D02*
X13300D01*
X12500Y20217D02*
Y21105D01*
X12400Y20217D02*
Y20867D01*
X12664Y20100D02*
X13300D01*
X12664Y20000D02*
X13300D01*
X12664Y19900D02*
X13300D01*
X12300Y20217D02*
Y20722D01*
X12200Y20217D02*
Y20616D01*
X12189Y20217D02*
Y20606D01*
X12000Y22306D02*
Y23438D01*
X11800Y22392D02*
Y23438D01*
X11700Y22418D02*
Y23438D01*
X11600Y22433D02*
Y23438D01*
X11500Y22439D02*
Y23438D01*
X11400Y22435D02*
Y23438D01*
X12189Y20300D02*
X13300D01*
X12189Y20217D02*
X12664D01*
X12100Y22243D02*
Y23438D01*
X11900Y22355D02*
Y23438D01*
X12664Y19800D02*
X13300D01*
X12664Y19700D02*
X13300D01*
X12664Y19600D02*
X13300D01*
X12664Y19500D02*
X13300D01*
X12664Y19400D02*
X13300D01*
X12664Y19300D02*
X13300D01*
X12664Y19200D02*
X13300D01*
X12427Y18317D02*
X13300Y19190D01*
X12796Y16900D02*
X15125D01*
X12664Y19100D02*
X13210D01*
X6632Y16700D02*
X22508D01*
X6523Y16600D02*
X22508D01*
X6407Y16500D02*
X22508D01*
X6734Y16800D02*
X15125D01*
X6282Y16400D02*
X22508D01*
X6148Y16300D02*
X22508D01*
X6002Y16200D02*
X22508D01*
X5843Y16100D02*
X22508D01*
X5668Y16000D02*
X22508D01*
X5473Y15900D02*
X22508D01*
X5250Y15800D02*
X22508D01*
X4987Y15700D02*
X22508D01*
X4658Y15600D02*
X23058D01*
X4171Y15500D02*
X23058D01*
X575Y15400D02*
X23058D01*
X575Y15300D02*
X23058D01*
X575Y15200D02*
X23058D01*
X575Y15100D02*
X23058D01*
X9471Y13800D02*
X17715D01*
X575Y15000D02*
X18683D01*
X9471Y13700D02*
X17715D01*
X9471Y13600D02*
X15125D01*
X12821Y13500D02*
X15125D01*
X575Y14900D02*
X18339D01*
X575Y14800D02*
X18210D01*
X575Y14700D02*
X18110D01*
X575Y14600D02*
X18010D01*
X575Y14500D02*
X17910D01*
X575Y14400D02*
X17830D01*
X575Y14300D02*
X17776D01*
X575Y14200D02*
X17740D01*
X575Y14100D02*
X17720D01*
X575Y14000D02*
X17715D01*
X575Y13900D02*
X17715D01*
X13000Y18890D02*
Y23438D01*
X12664Y19000D02*
X13110D01*
X12664Y18900D02*
X13010D01*
X12900Y18790D02*
Y23438D01*
X12664Y18767D02*
Y20217D01*
Y18800D02*
X12910D01*
X12800Y18690D02*
Y23438D01*
X12700Y18590D02*
Y23438D01*
X12600Y18490D02*
Y18767D01*
X12500Y18390D02*
Y18767D01*
X12400Y18317D02*
Y18767D01*
X12300Y18317D02*
Y18767D01*
X10514D02*
X12664D01*
X10514Y18700D02*
X12810D01*
X10514Y18600D02*
X12710D01*
X12200Y18317D02*
Y18767D01*
X12100Y18317D02*
Y18767D01*
X12000Y18317D02*
Y18767D01*
X11900Y18317D02*
Y18767D01*
X11800Y18317D02*
Y18767D01*
X11700Y18317D02*
Y18767D01*
X11600Y18317D02*
Y18767D01*
X11500Y18317D02*
Y18767D01*
X11400Y18317D02*
Y18767D01*
X12800Y13506D02*
Y16900D01*
X12700Y13531D02*
Y16892D01*
X12600Y13545D02*
Y16867D01*
X12500Y13550D02*
Y16867D01*
X12400Y13545D02*
Y16867D01*
X12300Y13531D02*
Y16867D01*
X13000Y13423D02*
Y16963D01*
X12900Y13471D02*
Y16924D01*
X12200Y13506D02*
Y16867D01*
X12100Y13471D02*
Y16867D01*
X12000Y13450D02*
Y16867D01*
X11900Y13450D02*
Y16867D01*
X10514Y18500D02*
X12610D01*
X10514Y18400D02*
X12510D01*
X10514Y16867D02*
X12664D01*
X11800Y13450D02*
Y16867D01*
X10514Y18317D02*
X12427D01*
X9471Y13500D02*
X12179D01*
X11700Y13450D02*
Y16867D01*
X11600Y13450D02*
Y16867D01*
X9471Y13450D02*
X12053D01*
X11500D02*
Y16867D01*
X11400Y13450D02*
Y16867D01*
X15644Y8800D02*
X16445D01*
X15734Y8700D02*
X16445D01*
X15854Y8500D02*
X16445D01*
X15802Y8600D02*
X16445D01*
X15892Y8400D02*
X16445D01*
Y6871D02*
Y9512D01*
X15918Y8300D02*
X16445D01*
X15932Y8200D02*
X16445D01*
X16100Y6796D02*
Y9717D01*
X16000Y6992D02*
Y9820D01*
X16400Y6765D02*
Y9529D01*
X14844Y9600D02*
X16259D01*
X14744Y9700D02*
X16120D01*
X14944Y9500D02*
X16445D01*
X15125Y11090D02*
X15931D01*
X14544Y9900D02*
X15938D01*
X14644Y9800D02*
X16018D01*
X15144Y9300D02*
X16445D01*
X15044Y9400D02*
X16445D01*
X15244Y9200D02*
X16445D01*
X15444Y9000D02*
X16445D01*
X15344Y9100D02*
X16445D01*
X15544Y8900D02*
X16445D01*
X16053Y6900D02*
X16445D01*
X15936Y8100D02*
X16445D01*
X16098Y6800D02*
X16413D01*
X16134Y6700D02*
X16378D01*
X16160Y6600D02*
X16352D01*
X16177Y6500D02*
X16335D01*
X16177Y6200D02*
X16335D01*
X16160Y6100D02*
X16352D01*
X16134Y6000D02*
X16378D01*
X16185Y6400D02*
X16327D01*
X16185Y6300D02*
X16327D01*
X16098Y5900D02*
X16414D01*
X15936Y8000D02*
X16445D01*
X15936Y7900D02*
X16445D01*
X15936Y7800D02*
X16445D01*
X15936Y7700D02*
X16445D01*
X15936Y7600D02*
X16445D01*
X15936Y7500D02*
X16445D01*
X15936Y7400D02*
X16445D01*
X15936Y7300D02*
X16445D01*
X15936Y7200D02*
X16445D01*
X15936Y7100D02*
X16445D01*
X15995Y7000D02*
X16445D01*
X15800Y10820D02*
Y11090D01*
X14044Y10400D02*
X15755D01*
X14144Y10300D02*
X15769D01*
X15200Y9244D02*
Y11090D01*
X14244Y10200D02*
X15794D01*
X14344Y10100D02*
X15829D01*
X15700Y8741D02*
Y11090D01*
X15600Y8844D02*
Y11090D01*
X15800Y8604D02*
Y10180D01*
X15500Y8944D02*
Y11090D01*
X15400Y9044D02*
Y11090D01*
X15300Y9144D02*
Y11090D01*
X13545Y12600D02*
X15125D01*
X13550Y12500D02*
X15125D01*
X13545Y12400D02*
X15125D01*
X13531Y12300D02*
X15125D01*
X13506Y12200D02*
X15125D01*
X13471Y12100D02*
X15125D01*
X13806Y10600D02*
X15755D01*
X13580Y10700D02*
X15769D01*
X13941Y10500D02*
X15750D01*
X13500Y10720D02*
Y12180D01*
X13423Y12000D02*
X15125D01*
X13983Y10460D02*
X15658Y8786D01*
X15936Y7083D02*
Y8114D01*
X15900Y8373D02*
Y9959D01*
X14444Y10000D02*
X15877D01*
X14036Y7083D02*
Y7720D01*
X14000Y7034D02*
Y7757D01*
X13900Y6860D02*
Y7857D01*
X13620Y6600D02*
X13812D01*
X13800Y6532D02*
Y7957D01*
X13637Y6500D02*
X13795D01*
X13645Y6400D02*
X13787D01*
X13455Y7000D02*
X13977D01*
X13513Y6900D02*
X13919D01*
X13559Y6800D02*
X13873D01*
X13600Y6679D02*
Y8157D01*
X13500Y6924D02*
Y8257D01*
X13594Y6700D02*
X13838D01*
X13645Y6300D02*
X13787D01*
X13594Y6000D02*
X13838D01*
X13558Y5900D02*
X13874D01*
X13637Y6200D02*
X13795D01*
X13620Y6100D02*
X13812D01*
X15995Y5700D02*
X16517D01*
X15936Y5600D02*
X16589D01*
X16500Y4432D02*
Y5728D01*
X16052Y5800D02*
X16460D01*
X16400Y4225D02*
Y5935D01*
X16300Y575D02*
Y9577D01*
X16200Y575D02*
Y9638D01*
X16100Y4256D02*
Y5904D01*
X16000Y4452D02*
Y5708D01*
X15936Y5400D02*
X16793D01*
X15936Y5300D02*
X16826D01*
X15936Y5200D02*
X16826D01*
X15936Y5500D02*
X16679D01*
X15936Y5100D02*
X16826D01*
X15936Y5000D02*
X16826D01*
X15936Y4900D02*
X16826D01*
X15936Y4800D02*
X16826D01*
X15936Y4700D02*
X16721D01*
X15936Y4543D02*
Y5617D01*
Y4600D02*
X16623D01*
X15968Y4500D02*
X16544D01*
X16121Y4200D02*
X16391D01*
X16150Y4100D02*
X16362D01*
X16171Y4000D02*
X16341D01*
X16186Y3800D02*
X16326D01*
X16183Y3900D02*
X16329D01*
X16181Y3700D02*
X16331D01*
X16167Y3600D02*
X16345D01*
X16145Y3500D02*
X16367D01*
X16500Y575D02*
Y3188D01*
X16400Y575D02*
Y3395D01*
X16114Y3400D02*
X16398D01*
X16100Y575D02*
Y3364D01*
X16031Y4400D02*
X16481D01*
X16081Y4300D02*
X16431D01*
X15953Y3100D02*
X16559D01*
X16072Y3300D02*
X16440D01*
X16019Y3200D02*
X16493D01*
X15768Y2900D02*
X16744D01*
X15634Y2800D02*
X16878D01*
X15442Y2700D02*
X17070D01*
X16000Y575D02*
Y3168D01*
X15871Y3000D02*
X16641D01*
X14000Y4494D02*
Y5666D01*
X14036Y4543D02*
Y5617D01*
X13900Y4320D02*
Y5840D01*
X13800Y3992D02*
Y6168D01*
X13610Y4100D02*
X13822D01*
X13631Y4000D02*
X13801D01*
X13643Y3900D02*
X13789D01*
X13646Y3800D02*
X13786D01*
X13700Y575D02*
Y8057D01*
X13641Y3700D02*
X13791D01*
X13800Y575D02*
Y3628D01*
X13512Y5800D02*
X13920D01*
X13455Y5700D02*
X13977D01*
X13491Y4400D02*
X13941D01*
X13541Y4300D02*
X13891D01*
X13500Y4384D02*
Y5776D01*
X13581Y4200D02*
X13851D01*
X13627Y3600D02*
X13805D01*
X13574Y3400D02*
X13858D01*
X13532Y3300D02*
X13900D01*
X13605Y3500D02*
X13827D01*
X13600Y4139D02*
Y6021D01*
Y575D02*
Y3481D01*
X15900Y575D02*
Y3032D01*
X15800Y575D02*
Y2928D01*
X15700Y575D02*
Y2845D01*
X15600Y575D02*
Y2779D01*
X15500Y575D02*
Y2726D01*
X15400Y575D02*
Y2684D01*
X15300Y575D02*
Y2652D01*
X15200Y575D02*
Y2629D01*
X15100Y575D02*
Y2615D01*
X15000Y575D02*
Y2610D01*
X14900Y575D02*
Y2613D01*
X14800Y575D02*
Y2625D01*
X14700Y575D02*
Y2645D01*
X14600Y575D02*
Y2674D01*
X14500Y575D02*
Y2713D01*
X14300Y575D02*
Y2825D01*
X13479Y3200D02*
X13953D01*
X14400Y575D02*
Y2763D01*
X14100Y575D02*
Y3001D01*
X14000Y575D02*
Y3126D01*
X14200Y575D02*
Y2903D01*
X13900Y575D02*
Y3300D01*
X13500Y575D02*
Y3236D01*
X13362Y11900D02*
X15125D01*
X13282Y11800D02*
X15125D01*
X13180Y11700D02*
X15125D01*
X13400Y10734D02*
Y11959D01*
X13300Y10738D02*
Y11820D01*
X13041Y11600D02*
X15125D01*
X13200Y10738D02*
Y11717D01*
X13100Y10738D02*
Y11638D01*
X13000Y10738D02*
Y11577D01*
Y7415D02*
Y8757D01*
X12820Y11500D02*
X15125D01*
X9471Y11400D02*
X15125D01*
X575Y11300D02*
X15125D01*
X575Y11200D02*
X15125D01*
X575Y11100D02*
X15125D01*
X9471Y11000D02*
X15877D01*
X9471Y10900D02*
X15829D01*
X9471Y10800D02*
X15794D01*
X12918Y8838D02*
X14036Y7720D01*
X9471Y10738D02*
X13312D01*
X9471Y8800D02*
X12957D01*
X13027Y7400D02*
X14036D01*
X12789Y7500D02*
X14036D01*
X13179Y7300D02*
X14036D01*
X13200Y7284D02*
Y8557D01*
X13100Y7356D02*
Y8657D01*
X13300Y7193D02*
Y8457D01*
X13383Y7100D02*
X14036D01*
X13293Y7200D02*
X14036D01*
X13383Y5600D02*
X14036D01*
X13400Y7078D02*
Y8357D01*
X13293Y5500D02*
X14036D01*
X13179Y5400D02*
X14036D01*
X575Y8400D02*
X13357D01*
X575Y8300D02*
X13457D01*
X575Y8200D02*
X13557D01*
X9471Y8700D02*
X13057D01*
X9471Y8600D02*
X13157D01*
X575Y8500D02*
X13257D01*
X575Y7800D02*
X13957D01*
X575Y7700D02*
X14036D01*
X575Y7600D02*
X14036D01*
X575Y8100D02*
X13657D01*
X575Y8000D02*
X13757D01*
X575Y7900D02*
X13857D01*
X12900Y10738D02*
Y11529D01*
X12800Y10738D02*
Y11494D01*
X12700Y10738D02*
Y11469D01*
X12600Y10738D02*
Y11455D01*
X12500Y10738D02*
Y11450D01*
X12400Y10738D02*
Y11455D01*
X12900Y7461D02*
Y8838D01*
X12800Y7497D02*
Y8838D01*
X12700Y7523D02*
Y8838D01*
X12600Y7540D02*
Y8838D01*
X12300Y10738D02*
Y11469D01*
X12500Y7549D02*
Y8838D01*
X12200Y10738D02*
Y11494D01*
X9471Y11500D02*
X12180D01*
X12100Y10738D02*
Y11529D01*
X12000Y10738D02*
Y11550D01*
X9471D02*
X12053D01*
X11900Y10738D02*
Y11550D01*
X11800Y10738D02*
Y11550D01*
X11700Y10738D02*
Y11550D01*
X9471Y8838D02*
X12918D01*
X11600Y10738D02*
Y11550D01*
X11500Y10738D02*
Y11550D01*
X11400Y10738D02*
Y11550D01*
X12400Y7549D02*
Y8838D01*
X12300Y7541D02*
Y8838D01*
X12200Y7524D02*
Y8838D01*
X12100Y7499D02*
Y8838D01*
X12000Y7464D02*
Y8838D01*
X575Y7500D02*
X12103D01*
X11900Y7419D02*
Y8838D01*
X11800Y7361D02*
Y8838D01*
X11700Y7290D02*
Y8838D01*
X11600Y7201D02*
Y8838D01*
X11500Y7088D02*
Y8838D01*
X11400Y6938D02*
Y8838D01*
X575Y7400D02*
X11865D01*
X575Y7300D02*
X11713D01*
X575Y7200D02*
X11599D01*
X575Y7100D02*
X11509D01*
X575Y7000D02*
X11437D01*
X575Y6900D02*
X11379D01*
X575Y5600D02*
X11509D01*
X575Y5500D02*
X11599D01*
X575Y5400D02*
X11713D01*
X575Y5800D02*
X11380D01*
X575Y5700D02*
X11437D01*
X13349Y4600D02*
X14036D01*
X13251Y4700D02*
X14036D01*
X13428Y4500D02*
X14004D01*
X13400Y4538D02*
Y5622D01*
X13300Y4653D02*
Y5507D01*
X13200Y4744D02*
Y5416D01*
X13413Y3100D02*
X14019D01*
X13331Y3000D02*
X14101D01*
X13228Y2900D02*
X14204D01*
X13400Y575D02*
Y3082D01*
X13300Y575D02*
Y2967D01*
X13200Y575D02*
Y2876D01*
X13027Y5300D02*
X14036D01*
X12788Y5200D02*
X14036D01*
X575Y5100D02*
X14036D01*
X13000Y4875D02*
Y5285D01*
X12602Y5000D02*
X14036D01*
X13124Y4800D02*
X14036D01*
X12948Y4900D02*
X14036D01*
X13094Y2800D02*
X14338D01*
X13100Y4816D02*
Y5344D01*
Y575D02*
Y2804D01*
X575Y2600D02*
X34425D01*
X575Y2500D02*
X34425D01*
X575Y2400D02*
X34425D01*
X12902Y2700D02*
X14530D01*
X575Y2300D02*
X34425D01*
X575Y2200D02*
X34425D01*
X575Y2100D02*
X34425D01*
X575Y2000D02*
X34425D01*
X575Y1900D02*
X34425D01*
X575Y1800D02*
X34425D01*
X575Y1700D02*
X34425D01*
X575Y1600D02*
X34425D01*
X575Y1500D02*
X34425D01*
X575Y1400D02*
X34425D01*
X575Y1300D02*
X34425D01*
X575Y1200D02*
X34425D01*
X575Y1100D02*
X34425D01*
X575Y1000D02*
X34425D01*
X575Y900D02*
X34425D01*
X575Y800D02*
X34425D01*
X575Y700D02*
X34425D01*
X575Y600D02*
X34425D01*
X575Y575D02*
X34425D01*
X12900Y4921D02*
Y5239D01*
X12800Y4957D02*
Y5203D01*
X12600Y5000D02*
Y5160D01*
X12500Y5009D02*
Y5151D01*
X12400Y5009D02*
Y5151D01*
X12300Y5001D02*
Y5159D01*
X12700Y4983D02*
Y5177D01*
X12200Y4984D02*
Y5176D01*
X12100Y4959D02*
Y5201D01*
X12000Y4924D02*
Y5236D01*
X11800Y4821D02*
Y5339D01*
X11900Y4879D02*
Y5281D01*
X575Y5200D02*
X12104D01*
X575Y5000D02*
X12290D01*
X575Y4900D02*
X11944D01*
X11700Y4750D02*
Y5410D01*
X575Y5300D02*
X11865D01*
X575Y4800D02*
X11768D01*
X11600Y4661D02*
Y5499D01*
X575Y4700D02*
X11641D01*
X575Y4600D02*
X11543D01*
X11500Y4548D02*
Y5612D01*
X11400Y4398D02*
Y5762D01*
X575Y4500D02*
X11464D01*
X13000Y575D02*
Y2745D01*
X12900Y575D02*
Y2699D01*
X12800Y575D02*
Y2663D01*
X12700Y575D02*
Y2637D01*
X12600Y575D02*
Y2620D01*
X12500Y575D02*
Y2611D01*
X12400Y575D02*
Y2611D01*
X12300Y575D02*
Y2619D01*
X12200Y575D02*
Y2636D01*
X12100Y575D02*
Y2661D01*
X11900Y575D02*
Y2741D01*
X12000Y575D02*
Y2696D01*
X575Y3000D02*
X11561D01*
X575Y2900D02*
X11664D01*
X575Y2800D02*
X11798D01*
X575Y4400D02*
X11401D01*
X575Y4300D02*
X11351D01*
X575Y3100D02*
X11479D01*
X11800Y575D02*
Y2799D01*
X11700Y575D02*
Y2870D01*
X575Y2700D02*
X11990D01*
X11500Y575D02*
Y3072D01*
X11600Y575D02*
Y2959D01*
X11300Y25838D02*
Y28067D01*
X11200Y25838D02*
Y27967D01*
X11100Y25838D02*
Y27867D01*
X11000Y25838D02*
Y27767D01*
X10900Y25838D02*
Y27667D01*
X10800Y25838D02*
Y27567D01*
X10542Y25000D02*
X10738D01*
X10569Y24900D02*
X10738D01*
X10587Y24800D02*
X10738D01*
X10700Y22082D02*
Y27469D01*
X10600Y21948D02*
Y27398D01*
X10738Y23438D02*
Y25838D01*
X9698Y25800D02*
X10738D01*
X10116Y25600D02*
X10738D01*
X9957Y25700D02*
X10738D01*
X10233Y25500D02*
X10738D01*
X10399Y25300D02*
X10738D01*
X10325Y25400D02*
X10738D01*
X10458Y25200D02*
X10738D01*
X10506Y25100D02*
X10738D01*
X10596Y24700D02*
X10738D01*
X10597Y24600D02*
X10738D01*
X10590Y24500D02*
X10738D01*
X10574Y24400D02*
X10738D01*
X10549Y24300D02*
X10738D01*
X10515Y24200D02*
X10738D01*
X10471Y24100D02*
X10738D01*
X11300Y22422D02*
Y23438D01*
X11200Y22398D02*
Y23438D01*
X11100Y22364D02*
Y23438D01*
X11000Y22318D02*
Y23438D01*
X10900Y22258D02*
Y23438D01*
X10800Y22181D02*
Y23438D01*
X10414Y24000D02*
X10738D01*
X10344Y23900D02*
X10738D01*
X10257Y23800D02*
X10738D01*
X10146Y23700D02*
X10738D01*
X10039Y23600D02*
X10738D01*
X10039Y22400D02*
X11205D01*
X10039Y22300D02*
X10967D01*
X10039Y22200D02*
X10822D01*
X10039Y23500D02*
X10738D01*
X10039Y22100D02*
X10716D01*
X10039Y22000D02*
X10635D01*
X9900Y25728D02*
Y27300D01*
X9800Y25769D02*
Y27300D01*
X9700Y25799D02*
Y27300D01*
X9600Y25821D02*
Y27300D01*
X9500Y25834D02*
Y27300D01*
X9400Y25838D02*
Y27300D01*
X10500Y25113D02*
Y27349D01*
X10400Y25298D02*
Y27318D01*
X10300Y25430D02*
Y27302D01*
X10200Y25531D02*
Y27300D01*
X10100Y25611D02*
Y27300D01*
X10000Y25676D02*
Y27300D01*
X9300Y25834D02*
Y27300D01*
X8000D02*
X10243D01*
X9200Y25822D02*
Y27300D01*
X9100Y25800D02*
Y27300D01*
X9000Y25770D02*
Y27300D01*
X8900Y25730D02*
Y27300D01*
X8800Y25678D02*
Y27300D01*
X8700Y25614D02*
Y27300D01*
X8600Y25534D02*
Y27300D01*
X8500Y25434D02*
Y27300D01*
X7700Y21750D02*
Y27368D01*
X8400Y25304D02*
Y27300D01*
X10500Y21741D02*
Y24163D01*
X10039Y21900D02*
X10572D01*
X10039Y21800D02*
X10523D01*
X10039Y21649D02*
Y23624D01*
X8639Y21649D02*
Y23709D01*
X10039Y21700D02*
X10486D01*
X10039Y21600D02*
X10460D01*
X10039Y21500D02*
X10445D01*
X10039Y21400D02*
X10439D01*
X10039Y21300D02*
X10443D01*
X10039Y21200D02*
X10456D01*
X10039Y21100D02*
X10480D01*
X7721Y21700D02*
X8639D01*
X7759Y21600D02*
X8639D01*
X7796Y21500D02*
X8639D01*
X8300Y25122D02*
Y27300D01*
X8200Y24706D02*
Y27300D01*
X7800Y21488D02*
Y27329D01*
X7860Y21300D02*
X8639D01*
X7829Y21400D02*
X8639D01*
X7889Y21200D02*
X8639D01*
X7900Y21159D02*
Y27307D01*
X7915Y21100D02*
X8639D01*
X10789Y20217D02*
Y20606D01*
X10700Y20217D02*
Y20696D01*
X10514Y20217D02*
X10789D01*
X10500Y20217D02*
Y21037D01*
X10400Y20217D02*
Y23978D01*
X10600Y20217D02*
Y20830D01*
X11300Y18317D02*
Y18767D01*
X11200Y18317D02*
Y18767D01*
X11100Y18317D02*
Y18767D01*
X10300Y20217D02*
Y23846D01*
X10200Y20217D02*
Y23745D01*
X10314Y20217D02*
X10514D01*
X10039Y20800D02*
X10620D01*
X10039Y20700D02*
X10697D01*
X10039Y20600D02*
X10789D01*
X10039Y21000D02*
X10514D01*
X7939D02*
X8639D01*
X10039Y20900D02*
X10560D01*
X10039Y20500D02*
X10789D01*
X10039Y20400D02*
X10789D01*
X10039Y20300D02*
X10789D01*
X10100Y20217D02*
Y23665D01*
X10039Y20217D02*
Y21649D01*
Y20217D02*
X10514D01*
X11000Y18317D02*
Y18767D01*
X10900Y18317D02*
Y18767D01*
X11300Y13450D02*
Y16867D01*
X10800Y18317D02*
Y18767D01*
X10700Y18317D02*
Y18767D01*
X10600Y18317D02*
Y18767D01*
X11200Y13450D02*
Y16867D01*
X11100Y13450D02*
Y16867D01*
X11000Y13450D02*
Y16867D01*
X10900Y13450D02*
Y16867D01*
X10800Y13450D02*
Y16867D01*
X10700Y13450D02*
Y16867D01*
X10514Y18317D02*
Y18767D01*
X10314Y16867D02*
X10514D01*
X10314D02*
X10514D01*
X8164D02*
X10314D01*
X10600Y13450D02*
Y16867D01*
X10500Y13450D02*
Y16867D01*
X10400Y13450D02*
Y16867D01*
X10300Y13450D02*
Y16867D01*
X10200Y13450D02*
Y16867D01*
X10100Y13450D02*
Y16867D01*
X8639Y20217D02*
Y21649D01*
X8032Y20400D02*
X8639D01*
X8040Y20300D02*
X8639D01*
X8500Y20217D02*
Y23842D01*
X8400Y20217D02*
Y23972D01*
X8600Y20217D02*
Y23742D01*
X8300Y20217D02*
Y24154D01*
X8200Y20217D02*
Y24570D01*
X8164Y20217D02*
X8639D01*
X8164Y19267D02*
Y20217D01*
X8100Y13838D02*
Y27300D01*
X8046Y20200D02*
X8164D01*
X7960Y20900D02*
X8639D01*
X7979Y20800D02*
X8639D01*
X7996Y20700D02*
X8639D01*
X8000Y20673D02*
Y27300D01*
X8010Y20600D02*
X8639D01*
X8022Y20500D02*
X8639D01*
X8049Y20100D02*
X8164D01*
X8050Y20000D02*
X8164D01*
X8049Y19900D02*
X8164D01*
X8046Y19800D02*
X8164D01*
X8040Y19700D02*
X8164D01*
X8032Y19600D02*
X8164D01*
X8022Y19500D02*
X8164D01*
X8010Y19400D02*
X8164D01*
X7996Y19300D02*
X8164D01*
Y18767D02*
Y19267D01*
X7979Y19200D02*
X8164D01*
X7960Y19100D02*
X8164D01*
Y18767D02*
Y19267D01*
Y18317D02*
Y18767D01*
Y17817D02*
Y18317D01*
Y17817D02*
Y18317D01*
X8000Y13838D02*
Y19327D01*
X8164Y16867D02*
Y17817D01*
X7939Y19000D02*
X8164D01*
X7915Y18900D02*
X8164D01*
X7889Y18800D02*
X8164D01*
X7860Y18700D02*
X8164D01*
X7829Y18600D02*
X8164D01*
X7796Y18500D02*
X8164D01*
X7900Y13838D02*
Y18841D01*
X7759Y18400D02*
X8164D01*
X7720Y18300D02*
X8164D01*
X7800Y13838D02*
Y18512D01*
X7700Y13838D02*
Y18250D01*
X6805Y28205D02*
X7505Y27505D01*
X4600Y24415D02*
Y36855D01*
X4500Y24439D02*
Y36869D01*
X4700Y24389D02*
Y36850D01*
X5100Y24259D02*
Y36710D01*
X5000Y24296D02*
Y36810D01*
X5200Y24221D02*
Y36610D01*
X4900Y24329D02*
Y36869D01*
X4800Y24360D02*
Y36855D01*
X4400Y24460D02*
Y36894D01*
X3775Y27600D02*
X7410D01*
X3775Y27500D02*
X7510D01*
X3775Y27400D02*
X7640D01*
X3775Y27700D02*
X7310D01*
X1075Y27758D02*
X3775D01*
Y25258D02*
Y27758D01*
X4200Y24496D02*
Y36977D01*
X4100Y24510D02*
Y37038D01*
X4300Y24479D02*
Y36929D01*
X3900Y24532D02*
Y37220D01*
X3800Y24540D02*
Y37359D01*
X4000Y24522D02*
Y37117D01*
X3775Y25800D02*
X9098D01*
X3775Y25700D02*
X8839D01*
X3775Y25600D02*
X8680D01*
X3775Y25500D02*
X8563D01*
X3775Y25400D02*
X8471D01*
X3775Y25300D02*
X8397D01*
X4659Y24400D02*
X8222D01*
X4174Y24500D02*
X8206D01*
X4988Y24300D02*
X8247D01*
X3700Y24546D02*
Y25258D01*
X3600Y24549D02*
Y25258D01*
X3500Y24550D02*
Y25258D01*
X575Y25200D02*
X8338D01*
X575Y25100D02*
X8290D01*
X575Y25000D02*
X8254D01*
X1075Y25258D02*
X3775D01*
X575Y24900D02*
X8227D01*
X575Y24800D02*
X8209D01*
X575Y24700D02*
X8200D01*
X575Y24600D02*
X8199D01*
X3400Y24549D02*
Y25258D01*
X3300Y24546D02*
Y25258D01*
X3200Y24540D02*
Y25258D01*
X1200Y27758D02*
Y28058D01*
X1100Y27758D02*
Y28058D01*
X575Y27700D02*
X1075D01*
X575Y27600D02*
X1075D01*
X575Y27500D02*
X1075D01*
X575Y27400D02*
X1075D01*
Y25258D02*
Y27758D01*
X575Y27300D02*
X1075D01*
X575Y27200D02*
X1075D01*
X575Y27100D02*
X1075D01*
X575Y27000D02*
X1075D01*
X575Y26900D02*
X1075D01*
X575Y26800D02*
X1075D01*
X575Y26700D02*
X1075D01*
X575Y26600D02*
X1075D01*
X575Y26500D02*
X1075D01*
X575Y26400D02*
X1075D01*
X575Y26300D02*
X1075D01*
X575Y26200D02*
X1075D01*
X575Y26100D02*
X1075D01*
X575Y26000D02*
X1075D01*
X3100Y24532D02*
Y25258D01*
X3000Y24522D02*
Y25258D01*
X2900Y24510D02*
Y25258D01*
X2800Y24496D02*
Y25258D01*
X2700Y24479D02*
Y25258D01*
X2600Y24460D02*
Y25258D01*
X2500Y24439D02*
Y25258D01*
X2400Y24415D02*
Y25258D01*
X2300Y24389D02*
Y25258D01*
X2200Y24360D02*
Y25258D01*
X2100Y24329D02*
Y25258D01*
X2000Y24296D02*
Y25258D01*
X575Y25900D02*
X1075D01*
X575Y25800D02*
X1075D01*
X575Y25700D02*
X1075D01*
X575Y25600D02*
X1075D01*
X575Y25500D02*
X1075D01*
X575Y25400D02*
X1075D01*
X575Y24500D02*
X2826D01*
X575Y24400D02*
X2341D01*
X575Y24300D02*
X2012D01*
X575Y25300D02*
X1075D01*
X1900Y24259D02*
Y25258D01*
X6921Y23000D02*
X8639D01*
X6831Y23100D02*
X8639D01*
X7006Y22900D02*
X8639D01*
X7162Y22700D02*
X8639D01*
X7087Y22800D02*
X8639D01*
X7234Y22600D02*
X8639D01*
X7366Y22400D02*
X8639D01*
X7302Y22500D02*
X8639D01*
X7426Y22300D02*
X8639D01*
X7500Y22169D02*
Y27510D01*
X7400Y22344D02*
Y27610D01*
X7600Y21973D02*
Y27426D01*
X6003Y23800D02*
X8539D01*
X5844Y23900D02*
X8452D01*
X6148Y23700D02*
X8639D01*
X5473Y24100D02*
X8325D01*
X5251Y24200D02*
X8281D01*
X5669Y24000D02*
X8382D01*
X6408Y23500D02*
X8639D01*
X6283Y23600D02*
X8639D01*
X6524Y23400D02*
X8639D01*
X6633Y23300D02*
X8639D01*
X6735Y23200D02*
X8639D01*
X7537Y22100D02*
X8639D01*
X7483Y22200D02*
X8639D01*
X7587Y22000D02*
X8639D01*
X7634Y21900D02*
X8639D01*
X7679Y21800D02*
X8639D01*
X7679Y18200D02*
X8164D01*
X7634Y18100D02*
X8164D01*
X7587Y18000D02*
X8164D01*
X7536Y17900D02*
X8164D01*
X7600Y13838D02*
Y18027D01*
X7483Y17800D02*
X8164D01*
X7500Y13838D02*
Y17831D01*
X7426Y17700D02*
X8164D01*
X7365Y17600D02*
X8164D01*
X7302Y17500D02*
X8164D01*
X7234Y17400D02*
X8164D01*
X7162Y17300D02*
X8164D01*
X7086Y17200D02*
X8164D01*
X7006Y17100D02*
X8164D01*
X6921Y17000D02*
X8164D01*
X6830Y16900D02*
X8164D01*
X7400Y13838D02*
Y17656D01*
X6300Y23587D02*
Y35510D01*
X6200Y23662D02*
Y35610D01*
X6400Y23506D02*
Y35410D01*
X6000Y23802D02*
Y35810D01*
X5900Y23866D02*
Y35910D01*
X6100Y23734D02*
Y35710D01*
X6900Y23024D02*
Y28110D01*
X6800Y23133D02*
Y28210D01*
X7000Y22907D02*
Y28010D01*
X6600Y23331D02*
Y35210D01*
X6500Y23421D02*
Y35310D01*
X6700Y23235D02*
Y28340D01*
X5700Y23983D02*
Y36110D01*
X5600Y24036D02*
Y36210D01*
X5800Y23926D02*
Y36010D01*
X5400Y24134D02*
Y36410D01*
X5300Y24179D02*
Y36510D01*
X5500Y24087D02*
Y36310D01*
X1000Y23802D02*
Y52800D01*
X900Y23734D02*
Y52800D01*
X800Y23662D02*
Y52800D01*
X700Y23586D02*
Y52800D01*
X600Y23506D02*
Y52800D01*
X575Y23485D02*
Y52800D01*
X7200Y22648D02*
Y27810D01*
X7100Y22783D02*
Y27910D01*
X1800Y24220D02*
Y25258D01*
X1700Y24179D02*
Y25258D01*
X1600Y24134D02*
Y25258D01*
X1500Y24087D02*
Y25258D01*
X7300Y22503D02*
Y27710D01*
Y13838D02*
Y17497D01*
X7200Y13838D02*
Y17352D01*
X7100Y13838D02*
Y17217D01*
X7000Y13838D02*
Y17093D01*
X6900Y13838D02*
Y16976D01*
X1400Y24036D02*
Y25258D01*
X575Y24200D02*
X1749D01*
X575Y24100D02*
X1527D01*
X1300Y23983D02*
Y25258D01*
X1200Y23926D02*
Y25258D01*
X575Y24000D02*
X1331D01*
X1100Y23865D02*
Y25258D01*
X575Y23900D02*
X1156D01*
X575Y23800D02*
X997D01*
X575Y23700D02*
X852D01*
X575Y23600D02*
X717D01*
X10000Y13450D02*
Y16867D01*
X9900Y13450D02*
Y16867D01*
X9800Y13450D02*
Y16867D01*
X9700Y13450D02*
Y16867D01*
X9600Y13450D02*
Y16867D01*
X9400Y13838D02*
Y16867D01*
X11300Y10738D02*
Y11550D01*
X11200Y10738D02*
Y11550D01*
X11100Y10738D02*
Y11550D01*
X9500Y13450D02*
Y16867D01*
X9471Y13450D02*
Y13838D01*
X11000Y10738D02*
Y11550D01*
X9300Y13838D02*
Y16867D01*
X9200Y13838D02*
Y16867D01*
X9100Y13838D02*
Y16867D01*
X9000Y13838D02*
Y16867D01*
X8900Y13838D02*
Y16867D01*
X8800Y13838D02*
Y16867D01*
X8700Y13838D02*
Y16867D01*
X8600Y13838D02*
Y16867D01*
X6771Y13838D02*
X9471D01*
X8500D02*
Y16867D01*
X8400Y13838D02*
Y16867D01*
X8300Y13838D02*
Y16867D01*
X10900Y10738D02*
Y11550D01*
X10800Y10738D02*
Y11550D01*
X10700Y10738D02*
Y11550D01*
X9471Y11338D02*
Y11550D01*
X9400Y11038D02*
Y11338D01*
X9300Y11038D02*
Y11338D01*
X10600Y10738D02*
Y11550D01*
X10500Y10738D02*
Y11550D01*
X10400Y10738D02*
Y11550D01*
X10300Y10738D02*
Y11550D01*
X10200Y10738D02*
Y11550D01*
X10100Y10738D02*
Y11550D01*
X9200Y11038D02*
Y11338D01*
X6771D02*
X9471D01*
X9100Y11038D02*
Y11338D01*
X9000Y11038D02*
Y11338D01*
X8900Y11038D02*
Y11338D01*
X8800Y11038D02*
Y11338D01*
X8700Y11038D02*
Y11338D01*
X8600Y11038D02*
Y11338D01*
X6771Y11038D02*
X9471D01*
X8500D02*
Y11338D01*
X8400Y11038D02*
Y11338D01*
X8300Y11038D02*
Y11338D01*
X8200Y13838D02*
Y16867D01*
X6800Y13838D02*
Y16867D01*
X6771Y13514D02*
Y13838D01*
X6700Y13514D02*
Y16765D01*
X6600Y13514D02*
Y16669D01*
X6500Y13514D02*
Y16579D01*
X6400Y13514D02*
Y16494D01*
X6300Y13514D02*
Y16413D01*
X6771Y11338D02*
Y11614D01*
X6200Y13514D02*
Y16338D01*
X6100Y13514D02*
Y16266D01*
X6000Y13514D02*
Y16198D01*
X5900Y13814D02*
Y16134D01*
X5929Y13800D02*
X6771D01*
X5929Y13700D02*
X6771D01*
X5800Y13814D02*
Y16074D01*
X5700Y13814D02*
Y16017D01*
X5600Y13814D02*
Y15964D01*
X5929Y13600D02*
X6771D01*
X5929Y13514D02*
X6771D01*
X5929Y11600D02*
X6771D01*
X5929Y13514D02*
Y13814D01*
Y11614D02*
X6771D01*
X5929Y11314D02*
Y11614D01*
X8200Y11038D02*
Y11338D01*
X8100Y11038D02*
Y11338D01*
X8000Y11038D02*
Y11338D01*
X7900Y11038D02*
Y11338D01*
X7800Y11038D02*
Y11338D01*
X7700Y11038D02*
Y11338D01*
X7600Y11038D02*
Y11338D01*
X7500Y11038D02*
Y11338D01*
X7400Y11038D02*
Y11338D01*
X7300Y11038D02*
Y11338D01*
X7200Y11038D02*
Y11338D01*
X7100Y11038D02*
Y11338D01*
X7000Y11038D02*
Y11338D01*
X5929Y11500D02*
X6771D01*
X6900Y11038D02*
Y11338D01*
X6800Y11038D02*
Y11338D01*
X5929Y11400D02*
X6771D01*
X5900Y11014D02*
Y11314D01*
X5929Y11000D02*
X6771D01*
X5800Y11014D02*
Y11314D01*
X5929Y10900D02*
X6771D01*
X5700Y11014D02*
Y11314D01*
X5600Y11014D02*
Y11314D01*
X11300Y6706D02*
Y8838D01*
X11200Y575D02*
Y8838D01*
X11100Y575D02*
Y8838D01*
X11000Y575D02*
Y8838D01*
X10900Y575D02*
Y8838D01*
X10800Y575D02*
Y8838D01*
X10700Y575D02*
Y8838D01*
X10600Y575D02*
Y8838D01*
X10500Y575D02*
Y8838D01*
X10400Y575D02*
Y8838D01*
X10300Y575D02*
Y8838D01*
X10200Y575D02*
Y8838D01*
X10000Y10738D02*
Y11550D01*
X9900Y10738D02*
Y11550D01*
X9800Y10738D02*
Y11550D01*
X9700Y10738D02*
Y11550D01*
X9600Y10738D02*
Y11550D01*
X9500Y10738D02*
Y11550D01*
X10100Y575D02*
Y8838D01*
X10000Y575D02*
Y8838D01*
X9900Y575D02*
Y8838D01*
X9800Y575D02*
Y8838D01*
X9471Y10738D02*
Y11038D01*
X9700Y575D02*
Y8838D01*
X11300Y4166D02*
Y5994D01*
Y575D02*
Y3454D01*
X11400Y575D02*
Y3222D01*
X9600Y575D02*
Y8838D01*
X9471Y8538D02*
Y8838D01*
X9500Y575D02*
Y8838D01*
X9400Y575D02*
Y8538D01*
X9300Y575D02*
Y8538D01*
X9200Y575D02*
Y8538D01*
X9100Y575D02*
Y8538D01*
X9000Y575D02*
Y8538D01*
X8900Y575D02*
Y8538D01*
X8800Y575D02*
Y8538D01*
X6771D02*
X9471D01*
X8700Y575D02*
Y8538D01*
X8600Y575D02*
Y8538D01*
X8500Y575D02*
Y8538D01*
X8400Y575D02*
Y8538D01*
X8300Y575D02*
Y8538D01*
X8200Y575D02*
Y8538D01*
X8100Y575D02*
Y8538D01*
X8000Y575D02*
Y8538D01*
X7900Y575D02*
Y8538D01*
X6771D02*
Y11038D01*
X5929Y10800D02*
X6771D01*
X5929Y10700D02*
X6771D01*
X6700Y575D02*
Y11614D01*
X6600Y575D02*
Y11614D01*
X5929Y8514D02*
Y11014D01*
X6500Y575D02*
Y11614D01*
X6400Y575D02*
Y11614D01*
X6300Y575D02*
Y11614D01*
X6200Y575D02*
Y11614D01*
X6100Y575D02*
Y11614D01*
X6000Y575D02*
Y11614D01*
X5929Y10600D02*
X6771D01*
X5929Y10500D02*
X6771D01*
X5929Y10400D02*
X6771D01*
X5929Y10300D02*
X6771D01*
X5929Y10200D02*
X6771D01*
X5929Y10100D02*
X6771D01*
X5929Y10000D02*
X6771D01*
X5929Y9900D02*
X6771D01*
X5929Y9800D02*
X6771D01*
X5929Y9700D02*
X6771D01*
X5929Y9600D02*
X6771D01*
X5929Y9500D02*
X6771D01*
X7800Y575D02*
Y8538D01*
X7700Y575D02*
Y8538D01*
X7600Y575D02*
Y8538D01*
X7500Y575D02*
Y8538D01*
X5929Y9400D02*
X6771D01*
X7400Y575D02*
Y8538D01*
X7300Y575D02*
Y8538D01*
X7200Y575D02*
Y8538D01*
X7100Y575D02*
Y8538D01*
X7000Y575D02*
Y8538D01*
X6900Y575D02*
Y8538D01*
X6800Y575D02*
Y8538D01*
X5929Y9300D02*
X6771D01*
X5929Y9200D02*
X6771D01*
X5929Y9100D02*
X6771D01*
X5929Y9000D02*
X6771D01*
X5929Y8900D02*
X6771D01*
X5929Y8800D02*
X6771D01*
X5929Y8700D02*
X6771D01*
X5929Y8600D02*
X6771D01*
X5900Y575D02*
Y8514D01*
X5800Y575D02*
Y8514D01*
X5700Y575D02*
Y8514D01*
X5500Y13814D02*
Y15913D01*
X5400Y13814D02*
Y15866D01*
X5300Y13814D02*
Y15821D01*
X5200Y13814D02*
Y15779D01*
X5100Y13814D02*
Y15741D01*
X5000Y13814D02*
Y15704D01*
X4900Y13814D02*
Y15671D01*
X4800Y13814D02*
Y15640D01*
X4700Y13814D02*
Y15611D01*
X4600Y13814D02*
Y15585D01*
X4500Y13814D02*
Y15561D01*
X4400Y13814D02*
Y15540D01*
X4300Y13814D02*
Y15521D01*
X4200Y13814D02*
Y15504D01*
X4100Y13814D02*
Y15490D01*
X4000Y13814D02*
Y15478D01*
X3900Y13814D02*
Y15468D01*
X3800Y13814D02*
Y15460D01*
X3700Y13814D02*
Y15454D01*
X3600Y13814D02*
Y15451D01*
X3229Y13814D02*
X5929D01*
X3500D02*
Y15450D01*
X3400Y13814D02*
Y15451D01*
X3300Y13814D02*
Y15454D01*
X5500Y11014D02*
Y11314D01*
X5400Y11014D02*
Y11314D01*
X5300Y11014D02*
Y11314D01*
X5200Y11014D02*
Y11314D01*
X5100Y11014D02*
Y11314D01*
X5000Y11014D02*
Y11314D01*
X4900Y11014D02*
Y11314D01*
X4800Y11014D02*
Y11314D01*
X4700Y11014D02*
Y11314D01*
X4600Y11014D02*
Y11314D01*
X4500Y11014D02*
Y11314D01*
X4400Y11014D02*
Y11314D01*
X4300Y11014D02*
Y11314D01*
X3229D02*
X5929D01*
X4200Y11014D02*
Y11314D01*
X4100Y11014D02*
Y11314D01*
X4000Y11014D02*
Y11314D01*
X3900Y11014D02*
Y11314D01*
X3800Y11014D02*
Y11314D01*
X3700Y11014D02*
Y11314D01*
X3229Y11014D02*
X5929D01*
X3600D02*
Y11314D01*
X3500Y11014D02*
Y11314D01*
X3400Y11014D02*
Y11314D01*
X575Y16100D02*
X1157D01*
X575Y16000D02*
X1332D01*
X575Y15900D02*
X1527D01*
X575Y16400D02*
X718D01*
X575Y16300D02*
X852D01*
X575Y16200D02*
X998D01*
X575Y15500D02*
X2829D01*
X575Y13800D02*
X3229D01*
Y11314D02*
Y13814D01*
X575Y15800D02*
X1750D01*
X575Y15700D02*
X2013D01*
X575Y15600D02*
X2342D01*
X575Y13700D02*
X3229D01*
X575Y13600D02*
X3229D01*
X575Y13500D02*
X3229D01*
X575Y13400D02*
X3229D01*
X575Y13300D02*
X3229D01*
X575Y13200D02*
X3229D01*
X575Y13100D02*
X3229D01*
X575Y13000D02*
X3229D01*
X575Y12900D02*
X3229D01*
X575Y12800D02*
X3229D01*
X575Y12700D02*
X3229D01*
X575Y12600D02*
X3229D01*
X575Y12500D02*
X3229D01*
X575Y12400D02*
X3229D01*
X575Y12300D02*
X3229D01*
X575Y12200D02*
X3229D01*
X575Y12100D02*
X3229D01*
X575Y12000D02*
X3229D01*
X575Y11900D02*
X3229D01*
X575Y11800D02*
X3229D01*
X3300Y11014D02*
Y11314D01*
X575Y11700D02*
X3229D01*
X575Y11600D02*
X3229D01*
X575Y11500D02*
X3229D01*
X575Y11400D02*
X3229D01*
X575Y11000D02*
X3229D01*
X575Y10900D02*
X3229D01*
X575Y10800D02*
X3229D01*
X575Y10700D02*
X3229D01*
X575Y10600D02*
X3229D01*
X575Y10500D02*
X3229D01*
X575Y10400D02*
X3229D01*
X575Y10300D02*
X3229D01*
X575Y10200D02*
X3229D01*
X575Y10100D02*
X3229D01*
X5600Y575D02*
Y8514D01*
X5500Y575D02*
Y8514D01*
X5400Y575D02*
Y8514D01*
X5300Y575D02*
Y8514D01*
X5200Y575D02*
Y8514D01*
X5100Y575D02*
Y8514D01*
X5000Y575D02*
Y8514D01*
X4900Y575D02*
Y8514D01*
X4800Y575D02*
Y8514D01*
X4700Y575D02*
Y8514D01*
X4600Y575D02*
Y8514D01*
X4500Y575D02*
Y8514D01*
X3229D02*
X5929D01*
X4400Y575D02*
Y8514D01*
X4300Y575D02*
Y8514D01*
X4200Y575D02*
Y8514D01*
X4100Y575D02*
Y8514D01*
X4000Y575D02*
Y8514D01*
X3900Y575D02*
Y8514D01*
X3800Y575D02*
Y8514D01*
X575Y6800D02*
X11333D01*
X575Y6700D02*
X11298D01*
X575Y6600D02*
X11272D01*
X575Y6500D02*
X11255D01*
X575Y6400D02*
X11247D01*
X575Y6300D02*
X11247D01*
X575Y6100D02*
X11272D01*
X575Y6000D02*
X11298D01*
X575Y5900D02*
X11334D01*
X3700Y575D02*
Y8514D01*
X3600Y575D02*
Y8514D01*
X575Y6200D02*
X11255D01*
X575Y4200D02*
X11311D01*
X575Y4100D02*
X11282D01*
X575Y4000D02*
X11261D01*
X575Y3900D02*
X11249D01*
X575Y3800D02*
X11246D01*
X575Y3700D02*
X11251D01*
X575Y3600D02*
X11265D01*
X575Y3300D02*
X11360D01*
X575Y3200D02*
X11413D01*
X575Y3500D02*
X11287D01*
X575Y3400D02*
X11318D01*
X3200Y575D02*
Y15460D01*
X3100Y575D02*
Y15468D01*
X3000Y575D02*
Y15478D01*
X2500Y575D02*
Y15561D01*
X2400Y575D02*
Y15585D01*
X2300Y575D02*
Y15611D01*
X2200Y575D02*
Y15640D01*
X2100Y575D02*
Y15671D01*
X2000Y575D02*
Y15704D01*
X1900Y575D02*
Y15741D01*
X1700Y575D02*
Y15821D01*
X1800Y575D02*
Y15780D01*
X1500Y575D02*
Y15913D01*
X1400Y575D02*
Y15964D01*
X1600Y575D02*
Y15866D01*
X1200Y575D02*
Y16074D01*
X1100Y575D02*
Y16135D01*
X1300Y575D02*
Y16017D01*
X900Y575D02*
Y16266D01*
X800Y575D02*
Y16338D01*
X1000Y575D02*
Y16198D01*
X600Y575D02*
Y16494D01*
X575Y575D02*
Y16515D01*
X700Y575D02*
Y16414D01*
X575Y10000D02*
X3229D01*
X575Y9900D02*
X3229D01*
X3500Y575D02*
Y8514D01*
X3229D02*
Y11014D01*
X575Y9800D02*
X3229D01*
X575Y9700D02*
X3229D01*
X3400Y575D02*
Y8514D01*
X2900Y575D02*
Y15490D01*
X3300Y575D02*
Y8514D01*
X2800Y575D02*
Y15504D01*
X2700Y575D02*
Y15521D01*
X2600Y575D02*
Y15540D01*
X575Y9600D02*
X3229D01*
X575Y9500D02*
X3229D01*
X575Y9400D02*
X3229D01*
X575Y9300D02*
X3229D01*
X575Y9200D02*
X3229D01*
X575Y9100D02*
X3229D01*
X575Y9000D02*
X3229D01*
X575Y8900D02*
X3229D01*
X575Y8800D02*
X3229D01*
X575Y8700D02*
X3229D01*
X575Y8600D02*
X3229D01*
D11*
X22599Y47640D02*
D03*
X2425Y29308D02*
D03*
X2425Y26508D02*
D03*
X2411Y40248D02*
D03*
X2411Y43048D02*
D03*
X25153Y24756D02*
D03*
X9899Y40522D02*
D03*
X9899Y43322D02*
D03*
X32519Y57014D02*
D03*
Y54214D02*
D03*
X14979Y52720D02*
D03*
X4579Y12564D02*
D03*
X4579Y9764D02*
D03*
X8121Y9788D02*
D03*
X8121Y12588D02*
D03*
X22599Y44840D02*
D03*
X25153Y21956D02*
D03*
X14979Y49920D02*
D03*
X12947Y45856D02*
D03*
X12947Y48656D02*
D03*
D12*
X23758Y17025D02*
D03*
X26558Y17025D02*
D03*
D13*
X22369Y50807D02*
D03*
X27444D02*
D03*
Y60807D02*
D03*
X19819D02*
D03*
X24894Y50807D02*
D03*
X24894Y60857D02*
D03*
X22369Y60807D02*
D03*
D14*
X15875Y12390D02*
D03*
X17145D02*
D03*
X18415D02*
D03*
X15875Y18090D02*
D03*
X17145D02*
D03*
X19685D02*
D03*
Y12390D02*
D03*
X18415Y18090D02*
D03*
D15*
X3175Y51509D02*
D03*
X4445D02*
D03*
X8255D02*
D03*
X9525D02*
D03*
X10795D02*
D03*
X3175Y60759D02*
D03*
X4445D02*
D03*
X12065D02*
D03*
X6985Y51509D02*
D03*
X12065D02*
D03*
X5715Y60759D02*
D03*
X6985D02*
D03*
X8255D02*
D03*
X9525D02*
D03*
X10795D02*
D03*
D16*
X5715Y51509D02*
D03*
D17*
X11489Y19492D02*
D03*
D18*
X19819Y50807D02*
D03*
D19*
X9339Y19492D02*
D03*
Y18542D02*
D03*
Y17592D02*
D03*
X11489D02*
D03*
D20*
X32934Y44299D02*
X34084D01*
X32934D02*
Y45449D01*
Y43149D02*
Y44299D01*
Y39999D02*
Y41149D01*
Y39999D02*
X34084D01*
X32934Y38849D02*
Y39999D01*
X19819Y50807D02*
X20719D01*
X19819D02*
Y52207D01*
Y49407D02*
Y50807D01*
X18919D02*
X19819D01*
X31487Y26424D02*
X32637D01*
X30337D02*
X31487D01*
Y25274D02*
Y26424D01*
X25153Y21956D02*
Y23156D01*
Y21956D02*
X26453D01*
X23853D02*
X25153D01*
Y20756D02*
Y21956D01*
X29130Y13716D02*
X30530D01*
X29130D02*
Y15116D01*
X27730Y13716D02*
X29130D01*
Y12316D02*
Y13716D01*
X29210Y10668D02*
X30610D01*
X29210D02*
Y12068D01*
Y9268D02*
Y10668D01*
X27810D02*
X29210D01*
X18415Y18090D02*
Y19340D01*
Y16840D02*
Y18090D01*
X22606Y6350D02*
X23756D01*
X22606D02*
Y7500D01*
Y5200D02*
Y6350D01*
Y3810D02*
Y4960D01*
Y3810D02*
X23756D01*
X22606Y2660D02*
Y3810D01*
X19685Y12390D02*
X20385D01*
X19685Y11140D02*
Y12390D01*
X14979Y49920D02*
Y51120D01*
Y49920D02*
X16279D01*
X14979Y48720D02*
Y49920D01*
X13679D02*
X14979D01*
X12065Y51509D02*
X12765D01*
X12947Y48656D02*
X14247D01*
X12947D02*
Y49856D01*
Y47456D02*
Y48656D01*
X12065Y50034D02*
Y51509D01*
X9899Y43322D02*
Y44522D01*
X8599Y43322D02*
X9899D01*
Y42122D02*
Y43322D01*
X6985Y50034D02*
Y51509D01*
X4445Y50034D02*
Y51509D01*
X2411Y43048D02*
Y44248D01*
Y41848D02*
Y43048D01*
X1111D02*
X2411D01*
X9339Y18542D02*
X10464D01*
X8214D02*
X9339D01*
X2425Y26508D02*
X3725D01*
X2425D02*
Y27708D01*
X1125Y26508D02*
X2425D01*
Y25308D02*
Y26508D01*
X4579Y9764D02*
Y10964D01*
Y9764D02*
X5879D01*
X4579Y8564D02*
Y9764D01*
X3279D02*
X4579D01*
X13181Y33200D02*
X14100D01*
X11564Y31583D02*
X13181Y33200D01*
X23200Y26600D02*
Y28362D01*
X22163Y29399D02*
X23200Y28362D01*
X20100Y30400D02*
X21162D01*
X22241Y29321D01*
X4445Y53145D02*
X4700Y53400D01*
X5200D01*
X4445Y51509D02*
Y53145D01*
X6985Y51509D02*
Y53215D01*
X6800Y53400D02*
X6985Y53215D01*
X4900Y53400D02*
X6800D01*
X4445Y51509D02*
Y52945D01*
X10795Y51509D02*
X10800Y51504D01*
Y49100D02*
Y51504D01*
X8000Y44700D02*
Y45000D01*
X10800Y47800D01*
Y49100D01*
X9000Y47800D02*
X9525Y48325D01*
Y51509D01*
X12500Y40193D02*
Y41100D01*
Y40193D02*
X13518Y39175D01*
X11600Y44200D02*
X12200Y44800D01*
X11600Y39962D02*
Y44200D01*
Y39962D02*
X12180Y39382D01*
X12900Y39793D02*
Y40200D01*
Y39793D02*
X14392Y38301D01*
X14958Y38867D01*
X9400Y30200D02*
X10181D01*
X11564Y31583D01*
X9339Y24579D02*
X9398Y24638D01*
X9339Y21649D02*
Y24579D01*
Y18542D02*
X11142D01*
X8000Y17000D02*
Y18400D01*
X8142Y18542D01*
X9339D01*
X2491Y51509D02*
X3175D01*
X2100Y51900D02*
X2491Y51509D01*
X12065Y58365D02*
Y60759D01*
X13000Y45600D02*
Y45900D01*
X12200Y44800D02*
X13000Y45600D01*
X11900Y44500D02*
X12200Y44800D01*
X11900Y39662D02*
X13827Y37735D01*
X22300Y49300D02*
Y50877D01*
Y49300D02*
X22599Y49001D01*
Y47640D02*
Y49001D01*
X22599Y44840D02*
X22747Y44693D01*
X25392D01*
X15500Y23600D02*
X16200Y24300D01*
X20000D01*
X21300Y23000D01*
X22200D01*
X16655Y40564D02*
X19191Y43100D01*
X20200D01*
X26300Y36900D02*
X27000Y36200D01*
Y32700D02*
Y36200D01*
Y32700D02*
X30736Y28964D01*
X31487D01*
X14000Y23837D02*
X16655Y26492D01*
X14000Y18900D02*
Y23837D01*
X12692Y17592D02*
X14000Y18900D01*
X11489Y17592D02*
X12692D01*
X11489Y19492D02*
Y21389D01*
X17145Y20345D02*
X17900Y21100D01*
X17145Y18090D02*
Y20345D01*
X19685Y18090D02*
X19895Y18300D01*
X21000D01*
X26987Y29100D02*
X27200D01*
X24504Y31583D02*
X26987Y29100D01*
X15875Y18090D02*
Y22175D01*
X16700Y23000D01*
X19500D01*
X18700Y14300D02*
X23546D01*
X18415Y14015D02*
X18700Y14300D01*
X18415Y12390D02*
Y14015D01*
X26519Y30700D02*
X27100D01*
X25070Y32149D02*
X26519Y30700D01*
X25153Y24756D02*
Y27541D01*
X22807Y29886D02*
X25153Y27541D01*
X16800Y10500D02*
X17145D01*
X18415Y8985D02*
Y12390D01*
X17145Y6731D02*
Y12390D01*
X18415Y8985D02*
X20000Y7400D01*
X24210Y10668D02*
X24785D01*
X26558Y12442D01*
Y17025D01*
X23758Y14088D02*
X24130Y13716D01*
X23758Y14088D02*
Y17025D01*
X23546Y14300D02*
X24130Y13716D01*
X20066Y3810D02*
Y6334D01*
X20000Y6400D02*
X20066Y6334D01*
X20000Y6400D02*
Y7400D01*
X17526Y3810D02*
Y6350D01*
X17145Y6731D02*
X17526Y6350D01*
X9339Y19492D02*
Y21649D01*
X2418Y29314D02*
X2425Y29308D01*
X2418Y29314D02*
Y32310D01*
X2418Y37310D02*
Y40382D01*
X15000Y41087D02*
X15987Y40100D01*
X15000Y41087D02*
Y42700D01*
X13700Y41256D02*
X15524Y39432D01*
X13700Y41256D02*
Y41300D01*
X8600Y29000D02*
X10112D01*
X8200Y29400D02*
Y36100D01*
Y29400D02*
X8600Y29000D01*
X8000Y28000D02*
X10243D01*
X7300Y28700D02*
X8000Y28000D01*
X7300Y28700D02*
Y35500D01*
X8255Y51509D02*
Y53255D01*
X8800Y53800D01*
X13900D01*
X14979Y52720D01*
X5300Y58300D02*
X25000D01*
X8800Y57014D02*
X10914D01*
X4586D02*
X32400D01*
X3947Y57653D02*
X4586Y57014D01*
X27400D02*
X27444Y57058D01*
Y58800D01*
X3500Y58100D02*
X4586Y57014D01*
X32519D01*
X4445Y59155D02*
X5300Y58300D01*
X3175Y58425D02*
X4500Y57100D01*
X3175Y58425D02*
Y60759D01*
X32432Y54300D02*
X32519Y54214D01*
X28000Y54300D02*
X32432D01*
X27500Y53800D02*
X28000Y54300D01*
X27444Y50807D02*
Y53744D01*
X27500Y53800D01*
X27444Y58356D02*
Y60807D01*
X4445Y59155D02*
Y60759D01*
X3175Y58725D02*
Y60759D01*
X15804Y65104D02*
Y67564D01*
X15100Y64400D02*
X15804Y65104D01*
X8400Y64400D02*
X15100D01*
X6985Y62985D02*
X8400Y64400D01*
X6985Y60759D02*
Y62985D01*
X19304Y64504D02*
Y67564D01*
X18000Y63200D02*
X19304Y64504D01*
X9000Y63200D02*
X18000D01*
X8255Y62455D02*
X9000Y63200D01*
X8255Y60759D02*
Y62455D01*
X10795Y51509D02*
X10800Y51504D01*
X4700Y37900D02*
X4800Y37800D01*
X5000D01*
X7300Y35500D01*
X10243Y28000D02*
X12695Y30452D01*
X4600Y39700D02*
X8200Y36100D01*
X10112Y29000D02*
X12130Y31018D01*
X6800Y42900D02*
Y47700D01*
X8255Y49155D01*
Y51509D01*
X9236Y37800D02*
X11564Y35473D01*
X8600Y37800D02*
X9236D01*
X9899Y39400D02*
X12695Y36604D01*
X9468Y38700D02*
X12130Y36038D01*
X4500Y41900D02*
X8600Y37800D01*
X5715Y41985D02*
X9000Y38700D01*
X9468D01*
X4500Y41900D02*
Y47300D01*
X5715Y41985D02*
Y42453D01*
Y51509D01*
X14700Y35172D02*
X14707Y35165D01*
X14735D01*
X9899Y39400D02*
Y40522D01*
X13261Y37170D02*
X14965Y35465D01*
X14469Y34900D02*
X14705Y35136D01*
X10531Y39900D02*
X13261Y37170D01*
X10000Y39900D02*
X10531D01*
X9899D02*
Y40522D01*
X12695Y36604D02*
X14399Y34900D01*
X14700Y35172D02*
X14721Y35151D01*
X14735Y35165D02*
X15000Y35431D01*
X14965Y35465D02*
X15000Y35431D01*
X14399Y34900D02*
X14469D01*
X20800Y31893D02*
Y31900D01*
Y31893D02*
X22807Y29886D01*
X31396Y31504D02*
X31487D01*
X22807Y37170D02*
X24037Y38400D01*
X29100Y33800D02*
X31396Y31504D01*
X29100Y33800D02*
Y36800D01*
X27500Y38400D02*
X29100Y36800D01*
X24037Y38400D02*
X27500D01*
X23501Y39999D02*
X30434D01*
X20544Y39432D02*
X21512Y40400D01*
X23100D02*
X23501Y39999D01*
X21512Y40400D02*
X23100D01*
X29699Y44299D02*
X30434D01*
X19979Y39998D02*
X21281Y41300D01*
X26200Y40800D02*
X29699Y44299D01*
X24100Y40800D02*
X26200D01*
X23600Y41300D02*
X24100Y40800D01*
X21281Y41300D02*
X23600D01*
X21042Y42193D02*
X25392D01*
X19413Y40564D02*
X21042Y42193D01*
D21*
X22300Y50877D02*
X22369Y50807D01*
X22300Y50877D02*
Y52700D01*
X8160Y12500D02*
X12500D01*
X8097Y12564D02*
X8160Y12500D01*
X4579Y12564D02*
X8097D01*
X14986Y3810D02*
Y8114D01*
X13312Y9788D02*
X14986Y8114D01*
X8121Y9788D02*
X13312D01*
D22*
X30434Y44299D02*
D03*
X30434Y39999D02*
D03*
X2418Y32310D02*
D03*
X2418Y37310D02*
D03*
X31487Y31504D02*
D03*
Y28964D02*
D03*
Y26424D02*
D03*
X17526Y3810D02*
D03*
X17526Y6350D02*
D03*
X20066Y3810D02*
D03*
Y6350D02*
D03*
X9398Y24638D02*
D03*
X22606Y3810D02*
D03*
X14986Y6350D02*
D03*
Y3810D02*
D03*
X12446Y6350D02*
D03*
Y3810D02*
D03*
D23*
X32934Y39999D02*
D03*
Y44299D02*
D03*
X31487Y36584D02*
D03*
X11938Y24638D02*
D03*
X22606Y6350D02*
D03*
D24*
X25392Y42193D02*
D03*
D25*
X24210Y10668D02*
D03*
X29130Y13716D02*
D03*
X29210Y10668D02*
D03*
X24130Y13716D02*
D03*
D26*
X3500Y66500D02*
D03*
X31500D02*
D03*
X3500Y20000D02*
D03*
X31500D02*
D03*
D27*
X25392Y44693D02*
D03*
D28*
X15804Y67564D02*
D03*
D29*
X19304D02*
D03*
D30*
X9000Y47800D02*
D03*
X9400Y30200D02*
D03*
X2100Y51900D02*
D03*
X15500Y23600D02*
D03*
X22200Y23000D02*
D03*
X20200Y43100D02*
D03*
X26300Y36900D02*
D03*
X11489Y21389D02*
D03*
X17900Y21100D02*
D03*
X21000Y18300D02*
D03*
X27200Y29100D02*
D03*
X19500Y23000D02*
D03*
X27100Y30700D02*
D03*
X16800Y10500D02*
D03*
X15000Y42700D02*
D03*
X13700Y41300D02*
D03*
X22300Y52700D02*
D03*
X12500Y12500D02*
D03*
X27500Y53800D02*
D03*
X25000Y58300D02*
D03*
X8000Y44700D02*
D03*
X4700Y37900D02*
D03*
X4600Y39700D02*
D03*
X6800Y42900D02*
D03*
X4500Y47300D02*
D03*
X14700Y35172D02*
D03*
X20800Y31900D02*
D03*
X12800Y22500D02*
D03*
X1900Y48800D02*
D03*
X1800Y45300D02*
D03*
X5000Y34500D02*
D03*
X5000Y29700D02*
D03*
Y25400D02*
D03*
X12200Y27100D02*
D03*
X15700Y47500D02*
D03*
Y44500D02*
D03*
X20000Y48100D02*
D03*
X20100Y45300D02*
D03*
X27700Y45100D02*
D03*
X29000Y41500D02*
D03*
X28600Y25900D02*
D03*
X22800Y20500D02*
D03*
X21300Y16000D02*
D03*
X32500Y13900D02*
D03*
X27500Y7400D02*
D03*
X32500Y7500D02*
D03*
X27500Y2500D02*
D03*
X32500D02*
D03*
X30000Y4900D02*
D03*
X7600Y7500D02*
D03*
X7500Y2500D02*
D03*
X2600Y7500D02*
D03*
X2500Y2500D02*
D03*
X5000Y5000D02*
D03*
X21800Y12400D02*
D03*
Y8900D02*
D03*
X12700Y15000D02*
D03*
X7400Y15000D02*
D03*
X2300Y13600D02*
D03*
X10800Y45300D02*
D03*
M02*
