METRIC,LZ
M48
T1F00S00C0.700
T2F00S00C0.850
T3F00S00C0.950
T4F00S00C1.000
T5F00S00C1.200
T6F00S00C1.300
T7F00S00C3.500
%
T01
X00025Y00025
X0005Y0005
X00026Y00075
X00076
X00075Y00025
X00074Y0015
X00127Y0015
X00125Y00125
X00168Y00105
X00218Y00089
Y00124
X00213Y0016
X0021Y00183
X00228Y00205
X00222Y0023
X00195
X00179Y00211
X00155Y00236
X00128Y00225
X0011489Y0021389
X00122Y00271
X00094Y00302
X0005Y00297
Y00254
X00023Y00136
X00325Y00139
X00325Y00075
X00325Y00025
X003Y00049
X00275Y00025
Y00074
X00286Y00259
X00272Y00291
X00271Y00307
X00208Y00319
X00147Y0035172
X00137Y00413
X0015Y00427
X00157Y00445
Y00475
X002Y00481
X00201Y00453
X00202Y00431
X00277Y00451
X0029Y00415
X00263Y00369
X00275Y00538
X00223Y00527
X0025Y00583
X0009Y00478
X0008Y00447
X00068Y00429
X00046Y00397
X00047Y00379
X0005Y00345
X00045Y00473
X00019Y00488
X00021Y00519
X00018Y00453
X00108
T02
X0025392Y0042193
Y0044693
T03
X0030434Y0039999
X0032934
Y0044299
X0030434Y0044299
T04
X0012446Y000381
X0014986
X0017526
X0020066
Y000635
X0022606
Y000381
X0017526Y000635
X0014986
X0012446
X0011938Y0024638
X0009398
X0002418Y003231
X0031487Y0031504
Y0028964
Y0026424
X002921Y0010668
X002413Y0013716
X0031487Y0036584
X0002418Y003731
T05
X0015804Y0067564
X0019304
T06
X002421Y0010668
X002913Y0013716
T07
X00035Y002
X00315
Y00665
X00035
M30
