%FSLAX43Y43*%
%MOMM*%
G71*
G01*
G75*
%ADD10C,0.100*%
%ADD11R,1.800X1.600*%
%ADD12R,1.600X1.800*%
%ADD13O,1.000X2.000*%
%ADD14R,0.600X1.700*%
%ADD15R,0.600X2.150*%
%ADD16R,0.600X2.150*%
%ADD17R,1.450X0.550*%
%ADD18R,1.000X2.000*%
%ADD19R,1.450X0.550*%
%ADD20C,0.500*%
%ADD21C,1.000*%
%ADD22C,1.500*%
%ADD23R,1.500X1.500*%
%ADD24C,1.400*%
%ADD25C,2.000*%
%ADD26C,5.000*%
%ADD27R,1.400X1.400*%
%ADD28C,2.500*%
%ADD29R,2.500X2.500*%
%ADD30C,1.200*%
%ADD31C,0.300*%
%ADD32R,2.003X1.803*%
%ADD33R,1.803X2.003*%
%ADD34O,1.203X2.203*%
%ADD35R,0.803X1.903*%
%ADD36R,0.803X2.353*%
%ADD37R,0.803X2.353*%
%ADD38R,1.653X0.753*%
%ADD39R,1.203X2.203*%
%ADD40R,1.653X0.753*%
%ADD41C,1.703*%
%ADD42R,1.703X1.703*%
%ADD43C,1.603*%
%ADD44C,2.203*%
%ADD45C,5.203*%
%ADD46R,1.603X1.603*%
%ADD47C,2.703*%
%ADD48R,2.703X2.703*%
%ADD49C,1.403*%
D41*
X30434Y44299D02*
D03*
X30434Y39999D02*
D03*
X2418Y32310D02*
D03*
X2418Y37310D02*
D03*
X31487Y31504D02*
D03*
Y28964D02*
D03*
Y26424D02*
D03*
X17526Y3810D02*
D03*
X17526Y6350D02*
D03*
X20066Y3810D02*
D03*
Y6350D02*
D03*
X9398Y24638D02*
D03*
X22606Y3810D02*
D03*
X14986Y6350D02*
D03*
Y3810D02*
D03*
X12446Y6350D02*
D03*
Y3810D02*
D03*
D42*
X32934Y39999D02*
D03*
Y44299D02*
D03*
X31487Y36584D02*
D03*
X11938Y24638D02*
D03*
X22606Y6350D02*
D03*
D43*
X25392Y42193D02*
D03*
D44*
X24210Y10668D02*
D03*
X29130Y13716D02*
D03*
X29210Y10668D02*
D03*
X24130Y13716D02*
D03*
D45*
X3500Y66500D02*
D03*
X31500D02*
D03*
X3500Y20000D02*
D03*
X31500D02*
D03*
D46*
X25392Y44693D02*
D03*
D47*
X15804Y67564D02*
D03*
D48*
X19304D02*
D03*
D49*
X9000Y47800D02*
D03*
X9400Y30200D02*
D03*
X2100Y51900D02*
D03*
X15500Y23600D02*
D03*
X22200Y23000D02*
D03*
X20200Y43100D02*
D03*
X26300Y36900D02*
D03*
X11489Y21389D02*
D03*
X17900Y21100D02*
D03*
X21000Y18300D02*
D03*
X27200Y29100D02*
D03*
X19500Y23000D02*
D03*
X27100Y30700D02*
D03*
X16800Y10500D02*
D03*
X15000Y42700D02*
D03*
X13700Y41300D02*
D03*
X22300Y52700D02*
D03*
X12500Y12500D02*
D03*
X27500Y53800D02*
D03*
X25000Y58300D02*
D03*
X8000Y44700D02*
D03*
X4700Y37900D02*
D03*
X4600Y39700D02*
D03*
X6800Y42900D02*
D03*
X4500Y47300D02*
D03*
X14700Y35172D02*
D03*
X20800Y31900D02*
D03*
X12800Y22500D02*
D03*
X1900Y48800D02*
D03*
X1800Y45300D02*
D03*
X5000Y34500D02*
D03*
X5000Y29700D02*
D03*
Y25400D02*
D03*
X12200Y27100D02*
D03*
X15700Y47500D02*
D03*
Y44500D02*
D03*
X20000Y48100D02*
D03*
X20100Y45300D02*
D03*
X27700Y45100D02*
D03*
X29000Y41500D02*
D03*
X28600Y25900D02*
D03*
X22800Y20500D02*
D03*
X21300Y16000D02*
D03*
X32500Y13900D02*
D03*
X27500Y7400D02*
D03*
X32500Y7500D02*
D03*
X27500Y2500D02*
D03*
X32500D02*
D03*
X30000Y4900D02*
D03*
X7600Y7500D02*
D03*
X7500Y2500D02*
D03*
X2600Y7500D02*
D03*
X2500Y2500D02*
D03*
X5000Y5000D02*
D03*
X21800Y12400D02*
D03*
Y8900D02*
D03*
X12700Y15000D02*
D03*
X7400Y15000D02*
D03*
X2300Y13600D02*
D03*
X10800Y45300D02*
D03*
M02*
